<svg width="134" height="120" fill="none" xmlns="http://www.w3.org/2000/svg"><path d="M55.351 110.428V108.138L56.557 108.081C59.1415 107.967 60.2901 107.795 60.2901 106.25C60.2901 105.277 59.8881 103.789 59.1415 101.5L57.1313 95.7191H43.4626L42.1417 99.6109C40.9357 103.102 40.4188 105.105 40.4188 106.307C40.4188 107.852 41.3377 107.967 43.0032 108.024L45.3579 108.138V110.428H31V108.138C33.8141 107.738 34.6182 107.623 39.385 96.2342C43.2903 86.7909 48.6889 73.5131 51.0436 67.561H53.4557L66.3204 99.6681C69.594 107.795 69.996 107.852 73.4993 108.138V110.428H55.351ZM50.2396 76.3938C48.1146 82.2887 46.1045 88.1263 44.4964 92.6477H56.0976L50.2396 76.3938Z" fill="#231815"/><path d="M77.7492 86.5812C77.7492 82.4605 84.9856 78.9121 89.3504 78.9121C96.357 78.9121 99.1712 83.6624 99.1712 90.7019V97.5697C99.1712 105.983 100.033 108.272 103.019 108.272V110.447H93.4855C93.3132 109.131 93.1409 107.871 93.0834 106.555C90.7287 109.302 87.6849 111.019 83.6647 111.019C78.9553 111.019 75.1648 108.158 75.1648 103.636C75.1648 97.398 79.6445 94.193 92.6814 93.3918V92.3044C92.6814 85.2648 89.0632 82.346 85.5025 82.346C83.2626 82.346 82.4012 83.9485 82.4012 85.6082V88.1837H77.7492V86.5812ZM92.6814 95.433C84.641 96.3487 81.9417 98.5808 81.9417 102.244C81.9417 105.563 83.837 107.509 86.6511 107.509C89.4652 107.509 92.6814 105.563 92.6814 103.217V95.433Z" fill="#231815"/><path d="M100.454 55.0464H98.6735V56.4963H100.454V55.0464Z" fill="#231815"/><path d="M98.6734 55.0464H96.8931V56.4963H98.6734V55.0464Z" fill="#231815"/><path d="M96.8932 55.0464H95.1128V56.4963H96.8932V55.0464Z" fill="#231815"/><path d="M95.1128 55.0464H93.3324V56.4963H95.1128V55.0464Z" fill="#231815"/><path d="M93.3324 55.0464H91.552V56.4963H93.3324V55.0464Z" fill="#231815"/><path d="M87.9912 55.0464H86.2108V56.4963H87.9912V55.0464Z" fill="#231815"/><path d="M86.2108 55.0464H84.4304V56.4963H86.2108V55.0464Z" fill="#231815"/><path d="M84.4305 55.0464H82.6501V56.4963H84.4305V55.0464Z" fill="#231815"/><path d="M82.6501 55.0464H80.8698V56.4963H82.6501V55.0464Z" fill="#231815"/><path d="M80.8697 55.0464H79.0894V56.4963H80.8697V55.0464Z" fill="#231815"/><path d="M79.0893 55.0464H77.309V56.4963H79.0893V55.0464Z" fill="#231815"/><path d="M71.9679 55.0464H70.1875V56.4963H71.9679V55.0464Z" fill="#231815"/><path d="M70.1875 55.0464H68.4071V56.4963H70.1875V55.0464Z" fill="#231815"/><path d="M68.4071 55.0464H66.6267V56.4963H68.4071V55.0464Z" fill="#231815"/><path d="M66.6267 55.0464H64.8463V56.4963H66.6267V55.0464Z" fill="#231815"/><path d="M64.8463 55.0464H63.0659V56.4963H64.8463V55.0464Z" fill="#231815"/><path d="M63.0659 55.0464H61.2855V56.4963H63.0659V55.0464Z" fill="#231815"/><path d="M61.2855 55.0464H59.5051V56.4963H61.2855V55.0464Z" fill="#231815"/><path d="M59.4861 55.0464H57.7057V56.4963H59.4861V55.0464Z" fill="#231815"/><path d="M57.7057 55.0464H55.9253V56.4963H57.7057V55.0464Z" fill="#231815"/><path d="M55.9253 55.0464H54.1449V56.4963H55.9253V55.0464Z" fill="#231815"/><path d="M45.243 55.0464H43.4626V56.4963H45.243V55.0464Z" fill="#231815"/><path d="M43.4626 55.0464H41.6823V56.4963H43.4626V55.0464Z" fill="#231815"/><path d="M41.6822 55.0464H39.9019V56.4963H41.6822V55.0464Z" fill="#231815"/><path d="M39.9018 55.0464H38.1215V56.4963H39.9018V55.0464Z" fill="#231815"/><path d="M38.1216 55.0464H36.3412V56.4963H38.1216V55.0464Z" fill="#231815"/><path d="M36.3412 55.0464H34.5608V56.4963H36.3412V55.0464Z" fill="#231815"/><path d="M34.5608 55.0464H32.7804V56.4963H34.5608V55.0464Z" fill="#231815"/><path d="M32.7804 55.0464H31V56.4963H32.7804V55.0464Z" fill="#231815"/><path d="M100.454 53.5967H98.6735V55.0466H100.454V53.5967Z" fill="#231815"/><path d="M98.6734 53.5967H96.8931V55.0466H98.6734V53.5967Z" fill="#231815"/><path d="M96.8932 53.5967H95.1128V55.0466H96.8932V53.5967Z" fill="#231815"/><path d="M95.1128 53.5967H93.3324V55.0466H95.1128V53.5967Z" fill="#231815"/><path d="M93.3324 53.5967H91.552V55.0466H93.3324V53.5967Z" fill="#231815"/><path d="M89.7716 53.5967H87.9912V55.0466H89.7716V53.5967Z" fill="#231815"/><path d="M87.9912 53.5967H86.2108V55.0466H87.9912V53.5967Z" fill="#231815"/><path d="M86.2108 53.5967H84.4304V55.0466H86.2108V53.5967Z" fill="#231815"/><path d="M84.4305 53.5967H82.6501V55.0466H84.4305V53.5967Z" fill="#231815"/><path d="M82.6501 53.5967H80.8698V55.0466H82.6501V53.5967Z" fill="#231815"/><path d="M80.8697 53.5967H79.0894V55.0466H80.8697V53.5967Z" fill="#231815"/><path d="M79.0893 53.5967H77.309V55.0466H79.0893V53.5967Z" fill="#231815"/><path d="M77.3089 53.5967H75.5286V55.0466H77.3089V53.5967Z" fill="#231815"/><path d="M71.9679 53.5967H70.1875V55.0466H71.9679V53.5967Z" fill="#231815"/><path d="M70.1875 53.5967H68.4071V55.0466H70.1875V53.5967Z" fill="#231815"/><path d="M68.4071 53.5967H66.6267V55.0466H68.4071V53.5967Z" fill="#231815"/><path d="M66.6267 53.5967H64.8463V55.0466H66.6267V53.5967Z" fill="#231815"/><path d="M64.8463 53.5967H63.0659V55.0466H64.8463V53.5967Z" fill="#231815"/><path d="M63.0659 53.5967H61.2855V55.0466H63.0659V53.5967Z" fill="#231815"/><path d="M61.2855 53.5967H59.5051V55.0466H61.2855V53.5967Z" fill="#231815"/><path d="M59.4861 53.5967H57.7057V55.0466H59.4861V53.5967Z" fill="#231815"/><path d="M57.7057 53.5967H55.9253V55.0466H57.7057V53.5967Z" fill="#231815"/><path d="M55.9253 53.5967H54.1449V55.0466H55.9253V53.5967Z" fill="#231815"/><path d="M45.243 53.5967H43.4626V55.0466H45.243V53.5967Z" fill="#231815"/><path d="M43.4626 53.5967H41.6823V55.0466H43.4626V53.5967Z" fill="#231815"/><path d="M41.6822 53.5967H39.9019V55.0466H41.6822V53.5967Z" fill="#231815"/><path d="M39.9018 53.5967H38.1215V55.0466H39.9018V53.5967Z" fill="#231815"/><path d="M38.1216 53.5967H36.3412V55.0466H38.1216V53.5967Z" fill="#231815"/><path d="M36.3412 53.5967H34.5608V55.0466H36.3412V53.5967Z" fill="#231815"/><path d="M34.5608 53.5967H32.7804V55.0466H34.5608V53.5967Z" fill="#231815"/><path d="M32.7804 53.5967H31V55.0466H32.7804V53.5967Z" fill="#231815"/><path d="M98.6734 52.1465H96.8931V53.5964H98.6734V52.1465Z" fill="#231815"/><path d="M96.8932 52.1465H95.1128V53.5964H96.8932V52.1465Z" fill="#231815"/><path d="M95.1128 52.1465H93.3324V53.5964H95.1128V52.1465Z" fill="#231815"/><path d="M93.3324 52.1465H91.552V53.5964H93.3324V52.1465Z" fill="#231815"/><path d="M91.552 52.1465H89.7716V53.5964H91.552V52.1465Z" fill="#231815"/><path d="M89.7716 52.1465H87.9912V53.5964H89.7716V52.1465Z" fill="#231815"/><path d="M87.9912 52.1465H86.2108V53.5964H87.9912V52.1465Z" fill="#231815"/><path d="M86.2108 52.1465H84.4304V53.5964H86.2108V52.1465Z" fill="#231815"/><path d="M84.4305 52.1465H82.6501V53.5964H84.4305V52.1465Z" fill="#231815"/><path d="M82.6501 52.1465H80.8698V53.5964H82.6501V52.1465Z" fill="#231815"/><path d="M80.8697 52.1465H79.0894V53.5964H80.8697V52.1465Z" fill="#231815"/><path d="M79.0893 52.1465H77.309V53.5964H79.0893V52.1465Z" fill="#231815"/><path d="M77.3089 52.1465H75.5286V53.5964H77.3089V52.1465Z" fill="#231815"/><path d="M75.5285 52.1465H73.7482V53.5964H75.5285V52.1465Z" fill="#231815"/><path d="M70.1875 52.1465H68.4071V53.5964H70.1875V52.1465Z" fill="#231815"/><path d="M68.4071 52.1465H66.6267V53.5964H68.4071V52.1465Z" fill="#231815"/><path d="M66.6267 52.1465H64.8463V53.5964H66.6267V52.1465Z" fill="#231815"/><path d="M64.8463 52.1465H63.0659V53.5964H64.8463V52.1465Z" fill="#231815"/><path d="M63.0659 52.1465H61.2855V53.5964H63.0659V52.1465Z" fill="#231815"/><path d="M61.2855 52.1465H59.5051V53.5964H61.2855V52.1465Z" fill="#231815"/><path d="M39.9018 52.1465H38.1215V53.5964H39.9018V52.1465Z" fill="#231815"/><path d="M38.1216 52.1465H36.3412V53.5964H38.1216V52.1465Z" fill="#231815"/><path d="M36.3412 52.1465H34.5608V53.5964H36.3412V52.1465Z" fill="#231815"/><path d="M34.5608 52.1465H32.7804V53.5964H34.5608V52.1465Z" fill="#231815"/><path d="M98.6734 50.6968H96.8931V52.1467H98.6734V50.6968Z" fill="#231815"/><path d="M96.8932 50.6968H95.1128V52.1467H96.8932V50.6968Z" fill="#231815"/><path d="M95.1128 50.6968H93.3324V52.1467H95.1128V50.6968Z" fill="#231815"/><path d="M93.3324 50.6968H91.552V52.1467H93.3324V50.6968Z" fill="#231815"/><path d="M91.552 50.6968H89.7716V52.1467H91.552V50.6968Z" fill="#231815"/><path d="M82.6501 50.6968H80.8698V52.1467H82.6501V50.6968Z" fill="#231815"/><path d="M80.8697 50.6968H79.0894V52.1467H80.8697V50.6968Z" fill="#231815"/><path d="M79.0893 50.6968H77.309V52.1467H79.0893V50.6968Z" fill="#231815"/><path d="M77.3089 50.6968H75.5286V52.1467H77.3089V50.6968Z" fill="#231815"/><path d="M75.5285 50.6968H73.7482V52.1467H75.5285V50.6968Z" fill="#231815"/><path d="M68.4071 50.6968H66.6267V52.1467H68.4071V50.6968Z" fill="#231815"/><path d="M66.6267 50.6968H64.8463V52.1467H66.6267V50.6968Z" fill="#231815"/><path d="M64.8463 50.6968H63.0659V52.1467H64.8463V50.6968Z" fill="#231815"/><path d="M63.0659 50.6968H61.2855V52.1467H63.0659V50.6968Z" fill="#231815"/><path d="M61.2855 50.6968H59.5051V52.1467H61.2855V50.6968Z" fill="#231815"/><path d="M39.9018 50.6968H38.1215V52.1467H39.9018V50.6968Z" fill="#231815"/><path d="M38.1216 50.6968H36.3412V52.1467H38.1216V50.6968Z" fill="#231815"/><path d="M36.3412 50.6968H34.5608V52.1467H36.3412V50.6968Z" fill="#231815"/><path d="M98.6734 49.2471H96.8931V50.6969H98.6734V49.2471Z" fill="#231815"/><path d="M96.8932 49.2471H95.1128V50.6969H96.8932V49.2471Z" fill="#231815"/><path d="M95.1128 49.2471H93.3324V50.6969H95.1128V49.2471Z" fill="#231815"/><path d="M93.3324 49.2471H91.552V50.6969H93.3324V49.2471Z" fill="#231815"/><path d="M91.552 49.2471H89.7716V50.6969H91.552V49.2471Z" fill="#231815"/><path d="M80.8697 49.2471H79.0894V50.6969H80.8697V49.2471Z" fill="#231815"/><path d="M79.0893 49.2471H77.309V50.6969H79.0893V49.2471Z" fill="#231815"/><path d="M77.3089 49.2471H75.5286V50.6969H77.3089V49.2471Z" fill="#231815"/><path d="M75.5285 49.2471H73.7482V50.6969H75.5285V49.2471Z" fill="#231815"/><path d="M68.4071 49.2471H66.6267V50.6969H68.4071V49.2471Z" fill="#231815"/><path d="M66.6267 49.2471H64.8463V50.6969H66.6267V49.2471Z" fill="#231815"/><path d="M64.8463 49.2471H63.0659V50.6969H64.8463V49.2471Z" fill="#231815"/><path d="M63.0659 49.2471H61.2855V50.6969H63.0659V49.2471Z" fill="#231815"/><path d="M61.2855 49.2471H59.5051V50.6969H61.2855V49.2471Z" fill="#231815"/><path d="M39.9018 49.2471H38.1215V50.6969H39.9018V49.2471Z" fill="#231815"/><path d="M38.1216 49.2471H36.3412V50.6969H38.1216V49.2471Z" fill="#231815"/><path d="M36.3412 49.2471H34.5608V50.6969H36.3412V49.2471Z" fill="#231815"/><path d="M96.8932 47.7969H95.1128V49.2467H96.8932V47.7969Z" fill="#231815"/><path d="M95.1128 47.7969H93.3324V49.2467H95.1128V47.7969Z" fill="#231815"/><path d="M93.3324 47.7969H91.552V49.2467H93.3324V47.7969Z" fill="#231815"/><path d="M91.552 47.7969H89.7716V49.2467H91.552V47.7969Z" fill="#231815"/><path d="M80.8697 47.7969H79.0894V49.2467H80.8697V47.7969Z" fill="#231815"/><path d="M79.0893 47.7969H77.309V49.2467H79.0893V47.7969Z" fill="#231815"/><path d="M77.3089 47.7969H75.5286V49.2467H77.3089V47.7969Z" fill="#231815"/><path d="M75.5285 47.7969H73.7482V49.2467H75.5285V47.7969Z" fill="#231815"/><path d="M66.6267 47.7969H64.8463V49.2467H66.6267V47.7969Z" fill="#231815"/><path d="M64.8463 47.7969H63.0659V49.2467H64.8463V47.7969Z" fill="#231815"/><path d="M63.0659 47.7969H61.2855V49.2467H63.0659V47.7969Z" fill="#231815"/><path d="M61.2855 47.7969H59.5051V49.2467H61.2855V47.7969Z" fill="#231815"/><path d="M59.4861 47.7969H57.7057V49.2467H59.4861V47.7969Z" fill="#231815"/><path d="M41.6822 47.7969H39.9019V49.2467H41.6822V47.7969Z" fill="#231815"/><path d="M39.9018 47.7969H38.1215V49.2467H39.9018V47.7969Z" fill="#231815"/><path d="M38.1216 47.7969H36.3412V49.2467H38.1216V47.7969Z" fill="#231815"/><path d="M96.8932 46.3472H95.1128V47.797H96.8932V46.3472Z" fill="#231815"/><path d="M95.1128 46.3472H93.3324V47.797H95.1128V46.3472Z" fill="#231815"/><path d="M93.3324 46.3472H91.552V47.797H93.3324V46.3472Z" fill="#231815"/><path d="M91.552 46.3472H89.7716V47.797H91.552V46.3472Z" fill="#231815"/><path d="M80.8697 46.3472H79.0894V47.797H80.8697V46.3472Z" fill="#231815"/><path d="M79.0893 46.3472H77.309V47.797H79.0893V46.3472Z" fill="#231815"/><path d="M77.3089 46.3472H75.5286V47.797H77.3089V46.3472Z" fill="#231815"/><path d="M75.5285 46.3472H73.7482V47.797H75.5285V46.3472Z" fill="#231815"/><path d="M66.6267 46.3472H64.8463V47.797H66.6267V46.3472Z" fill="#231815"/><path d="M64.8463 46.3472H63.0659V47.797H64.8463V46.3472Z" fill="#231815"/><path d="M63.0659 46.3472H61.2855V47.797H63.0659V46.3472Z" fill="#231815"/><path d="M61.2855 46.3472H59.5051V47.797H61.2855V46.3472Z" fill="#231815"/><path d="M59.4861 46.3472H57.7057V47.797H59.4861V46.3472Z" fill="#231815"/><path d="M41.6822 46.3472H39.9019V47.797H41.6822V46.3472Z" fill="#231815"/><path d="M39.9018 46.3472H38.1215V47.797H39.9018V46.3472Z" fill="#231815"/><path d="M38.1216 46.3472H36.3412V47.797H38.1216V46.3472Z" fill="#231815"/><path d="M96.8932 44.897H95.1128V46.3468H96.8932V44.897Z" fill="#231815"/><path d="M95.1128 44.897H93.3324V46.3468H95.1128V44.897Z" fill="#231815"/><path d="M93.3324 44.897H91.552V46.3468H93.3324V44.897Z" fill="#231815"/><path d="M91.552 44.897H89.7716V46.3468H91.552V44.897Z" fill="#231815"/><path d="M80.8697 44.897H79.0894V46.3468H80.8697V44.897Z" fill="#231815"/><path d="M79.0893 44.897H77.309V46.3468H79.0893V44.897Z" fill="#231815"/><path d="M77.3089 44.897H75.5286V46.3468H77.3089V44.897Z" fill="#231815"/><path d="M75.5285 44.897H73.7482V46.3468H75.5285V44.897Z" fill="#231815"/><path d="M66.6267 44.897H64.8463V46.3468H66.6267V44.897Z" fill="#231815"/><path d="M64.8463 44.897H63.0659V46.3468H64.8463V44.897Z" fill="#231815"/><path d="M63.0659 44.897H61.2855V46.3468H63.0659V44.897Z" fill="#231815"/><path d="M61.2855 44.897H59.5051V46.3468H61.2855V44.897Z" fill="#231815"/><path d="M59.4861 44.897H57.7057V46.3468H59.4861V44.897Z" fill="#231815"/><path d="M41.6822 44.897H39.9019V46.3468H41.6822V44.897Z" fill="#231815"/><path d="M39.9018 44.897H38.1215V46.3468H39.9018V44.897Z" fill="#231815"/><path d="M96.8932 43.4473H95.1128V44.8971H96.8932V43.4473Z" fill="#231815"/><path d="M95.1128 43.4473H93.3324V44.8971H95.1128V43.4473Z" fill="#231815"/><path d="M93.3324 43.4473H91.552V44.8971H93.3324V43.4473Z" fill="#231815"/><path d="M91.552 43.4473H89.7716V44.8971H91.552V43.4473Z" fill="#231815"/><path d="M82.6501 43.4473H80.8698V44.8971H82.6501V43.4473Z" fill="#231815"/><path d="M80.8697 43.4473H79.0894V44.8971H80.8697V43.4473Z" fill="#231815"/><path d="M79.0893 43.4473H77.309V44.8971H79.0893V43.4473Z" fill="#231815"/><path d="M77.3089 43.4473H75.5286V44.8971H77.3089V43.4473Z" fill="#231815"/><path d="M64.8463 43.4473H63.0659V44.8971H64.8463V43.4473Z" fill="#231815"/><path d="M63.0659 43.4473H61.2855V44.8971H63.0659V43.4473Z" fill="#231815"/><path d="M61.2855 43.4473H59.5051V44.8971H61.2855V43.4473Z" fill="#231815"/><path d="M59.4861 43.4473H57.7057V44.8971H59.4861V43.4473Z" fill="#231815"/><path d="M41.6822 43.4473H39.9019V44.8971H41.6822V43.4473Z" fill="#231815"/><path d="M39.9018 43.4473H38.1215V44.8971H39.9018V43.4473Z" fill="#231815"/><path d="M96.8932 41.9976H95.1128V43.4474H96.8932V41.9976Z" fill="#231815"/><path d="M95.1128 41.9976H93.3324V43.4474H95.1128V41.9976Z" fill="#231815"/><path d="M93.3324 41.9976H91.552V43.4474H93.3324V41.9976Z" fill="#231815"/><path d="M91.552 41.9976H89.7716V43.4474H91.552V41.9976Z" fill="#231815"/><path d="M84.4305 41.9976H82.6501V43.4474H84.4305V41.9976Z" fill="#231815"/><path d="M82.6501 41.9976H80.8698V43.4474H82.6501V41.9976Z" fill="#231815"/><path d="M80.8697 41.9976H79.0894V43.4474H80.8697V41.9976Z" fill="#231815"/><path d="M79.0893 41.9976H77.309V43.4474H79.0893V41.9976Z" fill="#231815"/><path d="M77.3089 41.9976H75.5286V43.4474H77.3089V41.9976Z" fill="#231815"/><path d="M64.8463 41.9976H63.0659V43.4474H64.8463V41.9976Z" fill="#231815"/><path d="M63.0659 41.9976H61.2855V43.4474H63.0659V41.9976Z" fill="#231815"/><path d="M61.2855 41.9976H59.5051V43.4474H61.2855V41.9976Z" fill="#231815"/><path d="M59.4861 41.9976H57.7057V43.4474H59.4861V41.9976Z" fill="#231815"/><path d="M57.7057 41.9976H55.9253V43.4474H57.7057V41.9976Z" fill="#231815"/><path d="M43.4626 41.9976H41.6823V43.4474H43.4626V41.9976Z" fill="#231815"/><path d="M41.6822 41.9976H39.9019V43.4474H41.6822V41.9976Z" fill="#231815"/><path d="M39.9018 41.9976H38.1215V43.4474H39.9018V41.9976Z" fill="#231815"/><path d="M96.8932 40.5474H95.1128V41.9972H96.8932V40.5474Z" fill="#231815"/><path d="M95.1128 40.5474H93.3324V41.9972H95.1128V40.5474Z" fill="#231815"/><path d="M93.3324 40.5474H91.552V41.9972H93.3324V40.5474Z" fill="#231815"/><path d="M91.552 40.5474H89.7716V41.9972H91.552V40.5474Z" fill="#231815"/><path d="M89.7716 40.5474H87.9912V41.9972H89.7716V40.5474Z" fill="#231815"/><path d="M87.9912 40.5474H86.2108V41.9972H87.9912V40.5474Z" fill="#231815"/><path d="M86.2108 40.5474H84.4304V41.9972H86.2108V40.5474Z" fill="#231815"/><path d="M84.4305 40.5474H82.6501V41.9972H84.4305V40.5474Z" fill="#231815"/><path d="M82.6501 40.5474H80.8698V41.9972H82.6501V40.5474Z" fill="#231815"/><path d="M80.8697 40.5474H79.0894V41.9972H80.8697V40.5474Z" fill="#231815"/><path d="M79.0893 40.5474H77.309V41.9972H79.0893V40.5474Z" fill="#231815"/><path d="M64.8463 40.5474H63.0659V41.9972H64.8463V40.5474Z" fill="#231815"/><path d="M63.0659 40.5474H61.2855V41.9972H63.0659V40.5474Z" fill="#231815"/><path d="M61.2855 40.5474H59.5051V41.9972H61.2855V40.5474Z" fill="#231815"/><path d="M59.4861 40.5474H57.7057V41.9972H59.4861V40.5474Z" fill="#231815"/><path d="M57.7057 40.5474H55.9253V41.9972H57.7057V40.5474Z" fill="#231815"/><path d="M55.9253 40.5474H54.1449V41.9972H55.9253V40.5474Z" fill="#231815"/><path d="M54.1449 40.5474H52.3645V41.9972H54.1449V40.5474Z" fill="#231815"/><path d="M52.3645 40.5474H50.5841V41.9972H52.3645V40.5474Z" fill="#231815"/><path d="M50.5842 40.5474H48.8038V41.9972H50.5842V40.5474Z" fill="#231815"/><path d="M48.7686 40.5118L46.9897 40.5854L47.0502 42.0341L48.829 41.9604L48.7686 40.5118Z" fill="#231815"/><path d="M47.0234 40.5474H45.243V41.9972H47.0234V40.5474Z" fill="#231815"/><path d="M45.243 40.5474H43.4626V41.9972H45.243V40.5474Z" fill="#231815"/><path d="M43.4626 40.5474H41.6823V41.9972H43.4626V40.5474Z" fill="#231815"/><path d="M41.6822 40.5474H39.9019V41.9972H41.6822V40.5474Z" fill="#231815"/><path d="M96.8932 39.0977H95.1128V40.5475H96.8932V39.0977Z" fill="#231815"/><path d="M95.1128 39.0977H93.3324V40.5475H95.1128V39.0977Z" fill="#231815"/><path d="M93.3324 39.0977H91.552V40.5475H93.3324V39.0977Z" fill="#231815"/><path d="M91.552 39.0977H89.7716V40.5475H91.552V39.0977Z" fill="#231815"/><path d="M89.7716 39.0977H87.9912V40.5475H89.7716V39.0977Z" fill="#231815"/><path d="M87.9912 39.0977H86.2108V40.5475H87.9912V39.0977Z" fill="#231815"/><path d="M86.2108 39.0977H84.4304V40.5475H86.2108V39.0977Z" fill="#231815"/><path d="M84.4305 39.0977H82.6501V40.5475H84.4305V39.0977Z" fill="#231815"/><path d="M63.0659 39.0977H61.2855V40.5475H63.0659V39.0977Z" fill="#231815"/><path d="M61.2855 39.0977H59.5051V40.5475H61.2855V39.0977Z" fill="#231815"/><path d="M59.4861 39.0977H57.7057V40.5475H59.4861V39.0977Z" fill="#231815"/><path d="M57.7057 39.0977H55.9253V40.5475H57.7057V39.0977Z" fill="#231815"/><path d="M55.9253 39.0977H54.1449V40.5475H55.9253V39.0977Z" fill="#231815"/><path d="M54.1449 39.0977H52.3645V40.5475H54.1449V39.0977Z" fill="#231815"/><path d="M52.3645 39.0977H50.5841V40.5475H52.3645V39.0977Z" fill="#231815"/><path d="M50.5842 39.0977H48.8038V40.5475H50.5842V39.0977Z" fill="#231815"/><path d="M48.8038 39.0977H47.0234V40.5475H48.8038V39.0977Z" fill="#231815"/><path d="M47.0234 39.0977H45.243V40.5475H47.0234V39.0977Z" fill="#231815"/><path d="M45.243 39.0977H43.4626V40.5475H45.243V39.0977Z" fill="#231815"/><path d="M43.4626 39.0977H41.6823V40.5475H43.4626V39.0977Z" fill="#231815"/><path d="M41.6822 39.0977H39.9019V40.5475H41.6822V39.0977Z" fill="#231815"/><path d="M96.8932 37.6479H95.1128V39.0978H96.8932V37.6479Z" fill="#231815"/><path d="M95.1128 37.6479H93.3324V39.0978H95.1128V37.6479Z" fill="#231815"/><path d="M93.3324 37.6479H91.552V39.0978H93.3324V37.6479Z" fill="#231815"/><path d="M91.552 37.6479H89.7716V39.0978H91.552V37.6479Z" fill="#231815"/><path d="M63.0659 37.6479H61.2855V39.0978H63.0659V37.6479Z" fill="#231815"/><path d="M61.2855 37.6479H59.5051V39.0978H61.2855V37.6479Z" fill="#231815"/><path d="M59.4861 37.6479H57.7057V39.0978H59.4861V37.6479Z" fill="#231815"/><path d="M57.7057 37.6479H55.9253V39.0978H57.7057V37.6479Z" fill="#231815"/><path d="M55.9253 37.6479H54.1449V39.0978H55.9253V37.6479Z" fill="#231815"/><path d="M54.1449 37.6479H52.3645V39.0978H54.1449V37.6479Z" fill="#231815"/><path d="M52.3645 37.6479H50.5841V39.0978H52.3645V37.6479Z" fill="#231815"/><path d="M50.5842 37.6479H48.8038V39.0978H50.5842V37.6479Z" fill="#231815"/><path d="M48.8038 37.6479H47.0234V39.0978H48.8038V37.6479Z" fill="#231815"/><path d="M47.0234 37.6479H45.243V39.0978H47.0234V37.6479Z" fill="#231815"/><path d="M45.243 37.6479H43.4626V39.0978H45.243V37.6479Z" fill="#231815"/><path d="M43.4626 37.6479H41.6823V39.0978H43.4626V37.6479Z" fill="#231815"/><path d="M41.6822 37.6479H39.9019V39.0978H41.6822V37.6479Z" fill="#231815"/><path d="M96.8932 36.1978H95.1128V37.6476H96.8932V36.1978Z" fill="#231815"/><path d="M95.1128 36.1978H93.3324V37.6476H95.1128V36.1978Z" fill="#231815"/><path d="M93.3324 36.1978H91.552V37.6476H93.3324V36.1978Z" fill="#231815"/><path d="M91.552 36.1978H89.7716V37.6476H91.552V36.1978Z" fill="#231815"/><path d="M63.0659 36.1978H61.2855V37.6476H63.0659V36.1978Z" fill="#231815"/><path d="M61.2855 36.1978H59.5051V37.6476H61.2855V36.1978Z" fill="#231815"/><path d="M59.4861 36.1978H57.7057V37.6476H59.4861V36.1978Z" fill="#231815"/><path d="M57.7057 36.1978H55.9253V37.6476H57.7057V36.1978Z" fill="#231815"/><path d="M55.9253 36.1978H54.1449V37.6476H55.9253V36.1978Z" fill="#231815"/><path d="M45.243 36.1978H43.4626V37.6476H45.243V36.1978Z" fill="#231815"/><path d="M43.4626 36.1978H41.6823V37.6476H43.4626V36.1978Z" fill="#231815"/><path d="M41.6822 36.1978H39.9019V37.6476H41.6822V36.1978Z" fill="#231815"/><path d="M96.8932 34.748H95.1128V36.1979H96.8932V34.748Z" fill="#231815"/><path d="M95.1128 34.748H93.3324V36.1979H95.1128V34.748Z" fill="#231815"/><path d="M93.3324 34.748H91.552V36.1979H93.3324V34.748Z" fill="#231815"/><path d="M91.552 34.748H89.7716V36.1979H91.552V34.748Z" fill="#231815"/><path d="M61.2855 34.748H59.5051V36.1979H61.2855V34.748Z" fill="#231815"/><path d="M59.4861 34.748H57.7057V36.1979H59.4861V34.748Z" fill="#231815"/><path d="M57.7057 34.748H55.9253V36.1979H57.7057V34.748Z" fill="#231815"/><path d="M55.9253 34.748H54.1449V36.1979H55.9253V34.748Z" fill="#231815"/><path d="M45.243 34.748H43.4626V36.1979H45.243V34.748Z" fill="#231815"/><path d="M43.4626 34.748H41.6823V36.1979H43.4626V34.748Z" fill="#231815"/><path d="M96.8932 33.2983H95.1128V34.7482H96.8932V33.2983Z" fill="#231815"/><path d="M95.1128 33.2983H93.3324V34.7482H95.1128V33.2983Z" fill="#231815"/><path d="M93.3324 33.2983H91.552V34.7482H93.3324V33.2983Z" fill="#231815"/><path d="M91.552 33.2983H89.7716V34.7482H91.552V33.2983Z" fill="#231815"/><path d="M61.2855 33.2983H59.5051V34.7482H61.2855V33.2983Z" fill="#231815"/><path d="M59.4861 33.2983H57.7057V34.7482H59.4861V33.2983Z" fill="#231815"/><path d="M57.7057 33.2983H55.9253V34.7482H57.7057V33.2983Z" fill="#231815"/><path d="M55.9253 33.2983H54.1449V34.7482H55.9253V33.2983Z" fill="#231815"/><path d="M45.243 33.2983H43.4626V34.7482H45.243V33.2983Z" fill="#231815"/><path d="M43.4626 33.2983H41.6823V34.7482H43.4626V33.2983Z" fill="#231815"/><path d="M96.8932 31.8481H95.1128V33.298H96.8932V31.8481Z" fill="#231815"/><path d="M95.1128 31.8481H93.3324V33.298H95.1128V31.8481Z" fill="#231815"/><path d="M93.3324 31.8481H91.552V33.298H93.3324V31.8481Z" fill="#231815"/><path d="M91.552 31.8481H89.7716V33.298H91.552V31.8481Z" fill="#231815"/><path d="M80.8697 31.8481H79.0894V33.298H80.8697V31.8481Z" fill="#231815"/><path d="M79.0893 31.8481H77.309V33.298H79.0893V31.8481Z" fill="#231815"/><path d="M77.3089 31.8481H75.5286V33.298H77.3089V31.8481Z" fill="#231815"/><path d="M61.2855 31.8481H59.5051V33.298H61.2855V31.8481Z" fill="#231815"/><path d="M59.4861 31.8481H57.7057V33.298H59.4861V31.8481Z" fill="#231815"/><path d="M57.7057 31.8481H55.9253V33.298H57.7057V31.8481Z" fill="#231815"/><path d="M55.9253 31.8481H54.1449V33.298H55.9253V31.8481Z" fill="#231815"/><path d="M54.1449 31.8481H52.3645V33.298H54.1449V31.8481Z" fill="#231815"/><path d="M47.0234 31.8481H45.243V33.298H47.0234V31.8481Z" fill="#231815"/><path d="M45.243 31.8481H43.4626V33.298H45.243V31.8481Z" fill="#231815"/><path d="M96.8932 30.3984H95.1128V31.8483H96.8932V30.3984Z" fill="#231815"/><path d="M95.1128 30.3984H93.3324V31.8483H95.1128V30.3984Z" fill="#231815"/><path d="M93.3324 30.3984H91.552V31.8483H93.3324V30.3984Z" fill="#231815"/><path d="M91.552 30.3984H89.7716V31.8483H91.552V30.3984Z" fill="#231815"/><path d="M89.7716 30.3984H87.9912V31.8483H89.7716V30.3984Z" fill="#231815"/><path d="M80.8697 30.3984H79.0894V31.8483H80.8697V30.3984Z" fill="#231815"/><path d="M79.0893 30.3984H77.309V31.8483H79.0893V30.3984Z" fill="#231815"/><path d="M77.3089 30.3984H75.5286V31.8483H77.3089V30.3984Z" fill="#231815"/><path d="M59.4861 30.3984H57.7057V31.8483H59.4861V30.3984Z" fill="#231815"/><path d="M57.7057 30.3984H55.9253V31.8483H57.7057V30.3984Z" fill="#231815"/><path d="M55.9253 30.3984H54.1449V31.8483H55.9253V30.3984Z" fill="#231815"/><path d="M54.1449 30.3984H52.3645V31.8483H54.1449V30.3984Z" fill="#231815"/><path d="M47.0234 30.3984H45.243V31.8483H47.0234V30.3984Z" fill="#231815"/><path d="M45.243 30.3984H43.4626V31.8483H45.243V30.3984Z" fill="#231815"/><path d="M96.8932 28.9487H95.1128V30.3986H96.8932V28.9487Z" fill="#231815"/><path d="M95.1128 28.9487H93.3324V30.3986H95.1128V28.9487Z" fill="#231815"/><path d="M93.3324 28.9487H91.552V30.3986H93.3324V28.9487Z" fill="#231815"/><path d="M91.552 28.9487H89.7716V30.3986H91.552V28.9487Z" fill="#231815"/><path d="M89.7716 28.9487H87.9912V30.3986H89.7716V28.9487Z" fill="#231815"/><path d="M80.8697 28.9487H79.0894V30.3986H80.8697V28.9487Z" fill="#231815"/><path d="M79.0893 28.9487H77.309V30.3986H79.0893V28.9487Z" fill="#231815"/><path d="M59.4861 28.9487H57.7057V30.3986H59.4861V28.9487Z" fill="#231815"/><path d="M57.7057 28.9487H55.9253V30.3986H57.7057V28.9487Z" fill="#231815"/><path d="M55.9253 28.9487H54.1449V30.3986H55.9253V28.9487Z" fill="#231815"/><path d="M54.1449 28.9487H52.3645V30.3986H54.1449V28.9487Z" fill="#231815"/><path d="M47.0234 28.9487H45.243V30.3986H47.0234V28.9487Z" fill="#231815"/><path d="M45.243 28.9487H43.4626V30.3986H45.243V28.9487Z" fill="#231815"/><path d="M95.1128 27.4985H93.3324V28.9484H95.1128V27.4985Z" fill="#231815"/><path d="M93.3324 27.4985H91.552V28.9484H93.3324V27.4985Z" fill="#231815"/><path d="M91.552 27.4985H89.7716V28.9484H91.552V27.4985Z" fill="#231815"/><path d="M89.7716 27.4985H87.9912V28.9484H89.7716V27.4985Z" fill="#231815"/><path d="M87.9912 27.4985H86.2108V28.9484H87.9912V27.4985Z" fill="#231815"/><path d="M86.2108 27.4985H84.4304V28.9484H86.2108V27.4985Z" fill="#231815"/><path d="M82.6501 27.4985H80.8698V28.9484H82.6501V27.4985Z" fill="#231815"/><path d="M80.8697 27.4985H79.0894V28.9484H80.8697V27.4985Z" fill="#231815"/><path d="M79.0893 27.4985H77.309V28.9484H79.0893V27.4985Z" fill="#231815"/><path d="M59.4861 27.4985H57.7057V28.9484H59.4861V27.4985Z" fill="#231815"/><path d="M57.7057 27.4985H55.9253V28.9484H57.7057V27.4985Z" fill="#231815"/><path d="M55.9253 27.4985H54.1449V28.9484H55.9253V27.4985Z" fill="#231815"/><path d="M54.1449 27.4985H52.3645V28.9484H54.1449V27.4985Z" fill="#231815"/><path d="M47.0234 27.4985H45.243V28.9484H47.0234V27.4985Z" fill="#231815"/><path d="M95.1128 26.0488H93.3324V27.4987H95.1128V26.0488Z" fill="#231815"/><path d="M93.3324 26.0488H91.552V27.4987H93.3324V26.0488Z" fill="#231815"/><path d="M91.552 26.0488H89.7716V27.4987H91.552V26.0488Z" fill="#231815"/><path d="M89.7716 26.0488H87.9912V27.4987H89.7716V26.0488Z" fill="#231815"/><path d="M87.9912 26.0488H86.2108V27.4987H87.9912V26.0488Z" fill="#231815"/><path d="M86.2108 26.0488H84.4304V27.4987H86.2108V26.0488Z" fill="#231815"/><path d="M84.4305 26.0488H82.6501V27.4987H84.4305V26.0488Z" fill="#231815"/><path d="M82.6501 26.0488H80.8698V27.4987H82.6501V26.0488Z" fill="#231815"/><path d="M80.8697 26.0488H79.0894V27.4987H80.8697V26.0488Z" fill="#231815"/><path d="M57.7057 26.0488H55.9253V27.4987H57.7057V26.0488Z" fill="#231815"/><path d="M55.9253 26.0488H54.1449V27.4987H55.9253V26.0488Z" fill="#231815"/><path d="M54.1449 26.0488H52.3645V27.4987H54.1449V26.0488Z" fill="#231815"/><path d="M52.3645 26.0488H50.5841V27.4987H52.3645V26.0488Z" fill="#231815"/><path d="M48.8038 26.0488H47.0234V27.4987H48.8038V26.0488Z" fill="#231815"/><path d="M47.0234 26.0488H45.243V27.4987H47.0234V26.0488Z" fill="#231815"/><path d="M93.3324 24.5991H91.552V26.049H93.3324V24.5991Z" fill="#231815"/><path d="M91.552 24.5991H89.7716V26.049H91.552V24.5991Z" fill="#231815"/><path d="M89.7716 24.5991H87.9912V26.049H89.7716V24.5991Z" fill="#231815"/><path d="M87.9912 24.5991H86.2108V26.049H87.9912V24.5991Z" fill="#231815"/><path d="M86.2108 24.5991H84.4304V26.049H86.2108V24.5991Z" fill="#231815"/><path d="M84.4305 24.5991H82.6501V26.049H84.4305V24.5991Z" fill="#231815"/><path d="M57.7057 24.5991H55.9253V26.049H57.7057V24.5991Z" fill="#231815"/><path d="M55.9253 24.5991H54.1449V26.049H55.9253V24.5991Z" fill="#231815"/><path d="M54.1449 24.5991H52.3645V26.049H54.1449V24.5991Z" fill="#231815"/><path d="M52.3645 24.5991H50.5841V26.049H52.3645V24.5991Z" fill="#231815"/><path d="M48.8038 24.5991H47.0234V26.049H48.8038V24.5991Z" fill="#231815"/><path d="M47.0234 24.5991H45.243V26.049H47.0234V24.5991Z" fill="#231815"/><path d="M57.7057 23.1489H55.9253V24.5988H57.7057V23.1489Z" fill="#231815"/><path d="M55.9253 23.1489H54.1449V24.5988H55.9253V23.1489Z" fill="#231815"/><path d="M54.1449 23.1489H52.3645V24.5988H54.1449V23.1489Z" fill="#231815"/><path d="M52.3645 23.1489H50.5841V24.5988H52.3645V23.1489Z" fill="#231815"/><path d="M48.8038 23.1489H47.0234V24.5988H48.8038V23.1489Z" fill="#231815"/><path d="M47.0234 23.1489H45.243V24.5988H47.0234V23.1489Z" fill="#231815"/><path d="M55.9253 21.6992H54.1449V23.1491H55.9253V21.6992Z" fill="#231815"/><path d="M54.1449 21.6992H52.3645V23.1491H54.1449V21.6992Z" fill="#231815"/><path d="M52.3645 21.6992H50.5841V23.1491H52.3645V21.6992Z" fill="#231815"/><path d="M50.5842 21.6992H48.8038V23.1491H50.5842V21.6992Z" fill="#231815"/><path d="M48.8038 21.6992H47.0234V23.1491H48.8038V21.6992Z" fill="#231815"/><path d="M55.9253 20.2495H54.1449V21.6994H55.9253V20.2495Z" fill="#231815"/><path d="M54.1449 20.2495H52.3645V21.6994H54.1449V20.2495Z" fill="#231815"/><path d="M52.3645 20.2495H50.5841V21.6994H52.3645V20.2495Z" fill="#231815"/><path d="M50.5842 20.2495H48.8038V21.6994H50.5842V20.2495Z" fill="#231815"/><path d="M48.8038 20.2495H47.0234V21.6994H48.8038V20.2495Z" fill="#231815"/><path d="M55.9253 18.7993H54.1449V20.2492H55.9253V18.7993Z" fill="#231815"/><path d="M54.1449 18.7993H52.3645V20.2492H54.1449V18.7993Z" fill="#231815"/><path d="M52.3645 18.7993H50.5841V20.2492H52.3645V18.7993Z" fill="#231815"/><path d="M50.5842 18.7993H48.8038V20.2492H50.5842V18.7993Z" fill="#231815"/><path d="M48.8038 18.7993H47.0234V20.2492H48.8038V18.7993Z" fill="#231815"/><path d="M55.9253 17.3496H54.1449V18.7995H55.9253V17.3496Z" fill="#231815"/><path d="M54.1449 17.3496H52.3645V18.7995H54.1449V17.3496Z" fill="#231815"/><path d="M52.3645 17.3496H50.5841V18.7995H52.3645V17.3496Z" fill="#231815"/><path d="M50.5842 17.3496H48.8038V18.7995H50.5842V17.3496Z" fill="#231815"/><path d="M54.1449 15.8999H52.3645V17.3498H54.1449V15.8999Z" fill="#231815"/><path d="M52.3645 15.8999H50.5841V17.3498H52.3645V15.8999Z" fill="#231815"/><path d="M50.5842 15.8999H48.8038V17.3498H50.5842V15.8999Z" fill="#231815"/><path d="M54.1449 14.4497H52.3645V15.8996H54.1449V14.4497Z" fill="#231815"/><path d="M52.3645 14.4497H50.5841V15.8996H52.3645V14.4497Z" fill="#231815"/><path d="M50.5842 14.4497H48.8038V15.8996H50.5842V14.4497Z" fill="#231815"/><path d="M54.1449 13H52.3645V14.4499H54.1449V13Z" fill="#231815"/><path d="M52.3645 13H50.5841V14.4499H52.3645V13Z" fill="#231815"/></svg>