<svg width="134" height="120" fill="none" xmlns="http://www.w3.org/2000/svg"><mask id="mask0_2118_2397" style="mask-type:luminance" maskUnits="userSpaceOnUse" x="10" y="35" width="45" height="37"><path d="M47.5777 57.3611C47.5777 44.2922 47.5144 42.9643 54.3979 35.5234H10.6052V71.5472H51.8641C51.4206 69.3971 47.5988 59.6376 47.5988 57.3611H47.5777Z" fill="white"/></mask><g mask="url(#mask0_2118_2397)"><path d="M33.5575 50.0885C33.0296 51.9646 32.7129 52.8077 31.9738 54.1568C31.277 55.4215 30.538 56.4754 29.5878 57.5715C31.826 59.3211 34.2543 60.3961 37.506 61.1339C36.8303 61.9138 36.5558 62.3986 36.1124 63.4947C32.6706 62.3564 30.2002 61.0495 27.9409 59.1314C26.7795 60.101 25.407 61.0074 23.9712 61.7662C22.7254 62.3986 21.5852 62.8623 19.6638 63.5158C19.3048 62.6515 18.9458 62.0824 18.3757 61.3446C22.0075 60.3539 24.2457 59.3 26.3361 57.5715C25.3648 56.4965 24.6258 55.5058 23.9501 54.3254C23.19 53.0185 22.8099 52.1332 22.1342 50.0675H21.184C20.2339 50.0675 19.4315 50.1096 18.7136 50.1939V47.9174C19.4737 48.0228 20.1705 48.065 21.2474 48.065H26.6317V46.6316C26.6317 46.0203 26.5895 45.5355 26.4839 45.0718H29.06C28.9544 45.5355 28.9121 46.0203 28.9121 46.6105V48.065H34.571C35.669 48.065 36.3658 48.0228 37.1259 47.9174V50.1939C36.3869 50.1096 35.7112 50.0675 34.6554 50.0675H33.5786L33.5575 50.0885ZM24.4358 50.0885C24.9425 51.6273 25.2592 52.344 25.9772 53.5455C26.6106 54.5573 27.1596 55.2739 27.9197 56.0749C28.6377 55.295 29.2078 54.4729 29.7568 53.5244C30.3691 52.4283 30.6647 51.7327 31.1503 50.0885H24.4146H24.4358Z" fill="#231815"/><path d="M47.1769 55.3795C47.1769 54.9579 47.1769 54.5153 47.0925 54.0937H48.1482C49.1617 53.5667 49.9219 53.0398 50.6609 52.3652H44.3264C43.4184 52.3652 42.8483 52.4074 42.2149 52.4917V50.2784C42.8061 50.3627 43.3973 50.3838 44.3264 50.3838H51.7167C52.4768 50.3838 52.878 50.3838 53.2792 50.2995L54.356 51.6485C54.0041 51.9437 53.7367 52.1755 53.5537 52.3441C52.0334 53.651 50.8721 54.5153 49.394 55.3584V55.506H54.7361C55.7074 55.506 56.5309 55.4638 57.2066 55.3795V57.656C56.552 57.5717 55.6652 57.5295 54.7361 57.5295H49.394V61.0919C49.394 62.8414 48.7183 63.3684 46.5224 63.3684C45.8256 63.3684 45.0654 63.3262 44.073 63.2419C43.9463 62.4409 43.8619 62.188 43.4184 61.0919C44.4531 61.2394 45.5511 61.3448 46.2479 61.3448C46.9447 61.3448 47.1769 61.1973 47.1769 60.7968V57.5295H41.6025C40.6735 57.5295 39.8289 57.5717 39.1321 57.656V55.3795C39.8711 55.4638 40.6735 55.506 41.6025 55.506H47.1769V55.3795ZM46.8602 46.4421C46.8602 45.8308 46.8602 45.3881 46.7546 44.9033H49.2251C49.1406 45.3671 49.1195 45.8097 49.1195 46.4421V46.8847H54.6517C55.6863 46.8847 56.1931 46.8847 56.9532 46.8004C56.8899 47.3063 56.8687 47.7279 56.8687 48.4024V50.0466C56.8687 50.6157 56.911 51.1005 56.9743 51.5853H54.7361V48.8872H41.5603V51.5853H39.3221C39.4066 51.1216 39.4277 50.6789 39.4277 50.0466V48.4024C39.4277 47.749 39.4277 47.2852 39.3221 46.8004C40.0823 46.8637 40.6313 46.8847 41.6448 46.8847H46.818V46.4421H46.8602Z" fill="#231815"/></g><mask id="mask1_2118_2397" style="mask-type:luminance" maskUnits="userSpaceOnUse" x="47" y="23" width="66" height="65"><path d="M112.232 55.4012C112.232 73.2339 97.7475 87.6939 79.8842 87.6939C62.0208 87.6939 47.5359 73.2339 47.5359 55.4012C47.5359 37.5685 61.9997 23.1084 79.8631 23.1084C97.7264 23.1084 112.211 37.5685 112.211 55.4012H112.232Z" fill="white"/></mask><g mask="url(#mask1_2118_2397)"><path d="M42.8274 56.012C42.8274 55.4007 42.8063 54.7472 42.7007 54.1149H44.2421C45.7201 53.335 46.8603 52.5761 47.9161 51.5854H38.6255C37.2952 51.5854 36.4506 51.6487 35.5427 51.7541V48.529C36.4084 48.6555 37.2741 48.6765 38.6255 48.6765H49.4786C50.5977 48.6765 51.1678 48.6555 51.759 48.5501L53.3427 50.5315C52.8218 50.9671 52.4277 51.3044 52.1602 51.5433C49.922 53.4825 48.2328 54.7262 46.0791 55.9698V56.1806H53.9128C55.3486 56.1806 56.5522 56.1174 57.5446 56.012V59.3635C56.5944 59.237 55.2853 59.1949 53.9128 59.1949H46.0791V64.4224C46.0791 66.973 45.1078 67.774 41.8561 67.774C40.8426 67.774 39.7235 67.7107 38.2665 67.6053C38.0976 66.446 37.9709 66.0666 37.3163 64.4646C38.8366 64.6754 40.4414 64.8229 41.476 64.8229C42.5106 64.8229 42.8485 64.6121 42.8485 64.0219V59.216H34.677C33.3045 59.216 32.0587 59.2792 31.0452 59.3846V56.0331C32.122 56.1595 33.3045 56.2017 34.677 56.2017H42.8485V56.0331L42.8274 56.012ZM42.3417 42.9009C42.3417 42.0156 42.3206 41.3622 42.1939 40.6455H45.8257C45.699 41.32 45.6779 41.9735 45.6779 42.9009V43.5544H53.7861C55.3064 43.5544 56.0454 43.5333 57.1645 43.4279C57.08 44.1657 57.0378 44.798 57.0378 45.7677V48.1707C57.0378 48.9927 57.1012 49.7094 57.1856 50.4261H53.9128V46.4843H34.6136V50.4261H31.3408C31.4675 49.7516 31.4886 49.0981 31.4886 48.1707V45.7677C31.4886 44.8191 31.4675 44.1446 31.3408 43.4279C32.4599 43.5122 33.2622 43.5544 34.7614 43.5544H42.3417V42.9009Z" fill="#231815"/><path d="M60.3315 45.7259C60.9861 45.8524 61.5984 45.8735 62.7175 45.8735H68.4186C69.6644 45.8735 70.1712 45.8524 70.8046 45.747V48.7613C70.0867 48.6981 69.7066 48.677 68.5453 48.677H62.7175C61.704 48.677 61.1128 48.6981 60.3315 48.8034V45.7259ZM61.3239 41.5312C62.1052 41.6577 62.5486 41.6788 63.7311 41.6788H67.6796C68.8409 41.6788 69.3054 41.6577 70.0867 41.5312V44.5034C69.2843 44.419 68.7142 44.3769 67.6796 44.3769H63.7311C62.6964 44.3769 62.063 44.398 61.3239 44.5034V41.5312ZM69.9389 65.3925C69.9389 66.5518 69.96 67.121 70.0656 67.669H67.2362V66.6361H64.3012V68.0906H61.3239C61.4084 67.121 61.4718 66.1302 61.4718 65.1817V60.7973C61.4718 59.8698 61.4506 59.3218 61.3451 58.4576C62.0207 58.5419 62.5909 58.584 63.6677 58.584H67.9963C69.0732 58.584 69.5799 58.563 70.0234 58.4997C69.96 58.9845 69.9389 59.5115 69.9389 60.6287V64.3385C71.0369 62.2307 71.4803 60.6708 71.7759 57.4879L74.3308 58.0571C73.8663 61.7669 73.5285 63.1792 72.346 66.1724L69.9389 64.7601V65.4136V65.3925ZM61.4084 50.1314C61.9785 50.1947 62.3586 50.2157 63.2877 50.2157H68.1863C69.1365 50.2157 69.5588 50.1947 70.0022 50.1314V52.8927C69.3477 52.8295 69.0309 52.8084 68.1863 52.8084H63.2877C62.4008 52.8084 61.9152 52.8295 61.4084 52.8927V50.1314ZM61.4084 54.2839C61.9785 54.3472 62.3586 54.3683 63.2877 54.3683H68.1652C69.1365 54.3683 69.5588 54.3472 70.0022 54.2839V57.0453C69.4955 56.982 68.9887 56.961 68.123 56.961H63.2454C62.3797 56.961 62.0207 56.982 61.4084 57.0453V54.2839ZM64.1956 64.0224H67.215V61.0503H64.1956V64.0224ZM72.5783 45.9578C74.2464 46.4848 74.8376 46.7377 75.9567 47.1804C76.2312 46.2951 76.3156 45.8735 76.4212 44.7774H74.4575C72.8739 44.7774 72.1771 44.7985 71.2903 44.9249V41.7842C72.156 41.9107 73.3173 41.9528 74.5209 41.9528H83.9593C85.184 41.9528 86.0497 41.9317 86.7465 41.8264C86.6831 42.3112 86.6831 42.3322 86.5776 44.398C86.4509 47.3701 86.113 50.4265 85.7752 51.8177C85.2473 54.1575 84.4027 54.7898 81.9745 54.7898C81.1088 54.7898 80.4542 54.7688 79.6307 54.6634C79.4618 53.3986 79.3351 52.8927 78.8917 51.6912L79.0606 51.7545C78.3427 51.2908 78.026 51.08 77.3925 50.7427C75.9567 52.9981 74.542 54.3261 71.9237 55.907C71.248 54.8742 70.8046 54.3683 69.8544 53.5462C72.3249 52.3868 73.6763 51.2697 74.8376 49.4569C73.5918 48.9299 73.0217 48.677 71.3325 48.0868L72.5572 45.9578H72.5783ZM77.7515 63.9802C77.7515 64.6547 77.8993 64.7601 79.0184 64.7601C80.7076 64.7601 81.1088 64.6758 81.2988 64.2332C81.4677 63.8537 81.5944 62.6522 81.6155 61.0081C82.629 61.4718 83.3047 61.7248 84.3816 61.9356C84.0649 67.0366 83.5159 67.6058 79.2506 67.6058C75.5977 67.6058 74.8587 67.2474 74.8587 65.4136V59.3007C74.8587 58.5629 74.7954 57.8884 74.7109 57.1085H77.8782C77.7515 57.6987 77.7304 58.1203 77.7304 59.0056V64.0224L77.7515 63.9802ZM78.026 53.4619C80.7498 55.5698 80.8554 55.6541 82.629 57.5933L80.3909 59.5115C79.0606 57.6987 77.857 56.5183 75.9145 55.1271L78.026 53.4619ZM79.4196 44.7774C79.1873 46.4426 79.0395 47.0961 78.5961 48.3608C79.4618 48.8034 79.8419 49.0142 81.0876 49.6888L79.7785 51.881C80.3486 51.9653 80.8976 52.0074 81.4044 52.0074C82.3334 52.0074 82.629 51.7756 82.8824 50.7216C83.178 49.6255 83.3681 47.8549 83.4736 44.7563H79.3984L79.4196 44.7774ZM85.2262 57.1928C86.5987 59.4483 87.4222 61.1978 88.499 64.1067L85.9652 65.6454C85.015 62.315 84.4238 61.0292 82.8191 58.4786L85.2262 57.2139V57.1928Z" fill="#231815"/><path d="M98.4015 48.4235C97.8103 48.4024 97.1768 48.3603 96.29 48.3603H92.1937C91.0957 48.3603 90.61 48.3813 90.0188 48.4867V45.5568C90.6945 45.6832 91.1801 45.7043 92.1937 45.7043H96.1422C97.3246 45.7043 97.6625 45.6833 98.4015 45.5779V48.4235ZM90.6523 60.9022C90.6523 59.9325 90.6311 59.1737 90.5256 58.3727C91.2012 58.457 91.4546 58.457 92.4893 58.457H95.9732C96.9445 58.457 97.3668 58.457 97.9369 58.3938C97.8736 59.0683 97.8736 59.2791 97.8736 60.7968V65.0969C97.8736 66.1297 97.8947 66.6778 97.9581 67.5631H95.4876V66.5935H93.0805V68.069H90.5045C90.6311 67.2891 90.6523 66.5513 90.6523 65.3498V60.9022ZM90.8845 49.9833C91.4546 50.0466 91.8347 50.0676 92.9749 50.0676H95.6565C96.7334 50.0676 97.1768 50.0466 97.7891 49.9833V52.7025C97.1135 52.6393 96.7123 52.6182 95.6565 52.6182H92.9749C91.898 52.6182 91.4969 52.6393 90.8845 52.7025V49.9833ZM90.8845 54.178C91.4546 54.2413 91.8347 54.2623 92.9749 54.2623H95.6565C96.7545 54.2623 97.1768 54.2413 97.7891 54.178V56.8972C97.0712 56.8129 96.7545 56.8129 95.6565 56.8129H92.9749C91.898 56.8129 91.4969 56.834 90.8845 56.8972V54.178ZM90.9267 41.3832C91.518 41.5096 92.0881 41.5307 92.9749 41.5307H95.741C96.6912 41.5307 97.1979 41.5096 97.8314 41.3832V44.2288C97.1979 44.1445 96.7545 44.1023 95.741 44.1023H92.9749C92.0247 44.1023 91.518 44.1234 90.9267 44.2288V41.3832ZM93.1016 64.0851H95.5298V60.86H93.1016V64.0851ZM106.531 43.4278C107.608 43.4278 108.114 43.4067 108.642 43.3013V45.9784C108.199 45.9151 108.009 45.9151 107.565 45.894C107.333 47.3063 107.185 47.9176 106.742 49.3088H109.36C109.297 47.5593 109.276 45.9784 109.276 43.7862C109.276 42.3317 109.212 41.4675 109.107 40.9194H112.274C112.126 42.0155 112.126 42.4582 112.126 45.3671C112.126 47.0534 112.126 47.1377 112.19 49.3088H113.942C115.484 49.3088 116.223 49.2877 117.215 49.1402V52.1966C116.138 52.0701 115.167 52.028 113.921 52.028H112.253C112.38 54.3045 112.485 56.033 112.717 57.6349C113.689 55.7589 114.259 54.3045 114.491 53.1241L117.046 54.5153C116.814 54.8947 116.624 55.232 115.969 56.6864C115.146 58.4992 114.428 59.8272 113.604 61.113C114.217 62.6939 114.935 63.8954 115.294 63.8954C115.568 63.8954 115.674 62.9257 115.737 60.2276C116.624 61.0286 117.152 61.4081 118.017 61.8296C117.806 63.8111 117.595 64.9704 117.299 65.7925C116.877 66.8675 116.265 67.4577 115.526 67.4577C114.217 67.4577 112.823 66.0876 111.704 63.7478C110.416 65.2233 109.001 66.5935 107.164 68.0268C106.51 66.994 105.918 66.2983 105.116 65.7503C105.982 65.2233 106.214 65.0758 106.721 64.7174H102.139V66.6778H99.3517C99.4784 65.8979 99.4995 65.0969 99.4995 64.0429V56.1173C99.4995 54.7893 99.4783 54.3467 99.3728 53.4824C99.964 53.5667 100.238 53.5667 101.294 53.5667H106.32C107.185 53.5667 107.565 53.5457 108.241 53.4824C108.178 54.1148 108.157 54.705 108.157 56.1594V63.3895C108.157 63.3895 108.178 63.4527 108.178 63.537C109.043 62.7149 109.804 61.8718 110.585 60.86C109.93 58.5835 109.571 55.7379 109.424 52.0491H101.484C100.091 52.0491 99.4361 52.0701 98.4859 52.1966V49.2245C99.2883 49.3088 99.5628 49.3088 100.745 49.351C100.619 48.2549 100.386 47.0955 100.07 45.9362C99.6262 45.9573 99.4995 45.9573 99.0561 46.0205V43.3435C99.6895 43.4278 100.154 43.47 100.978 43.47H102.413V43.3224C102.413 42.0998 102.392 41.594 102.266 40.9194H105.433C105.306 41.6361 105.285 42.0155 105.285 43.47H106.51L106.531 43.4278ZM102.16 57.8247H105.517V55.9065H102.16V57.8247ZM102.16 62.1458H105.517V60.1644H102.16V62.1458ZM104.229 49.3088C104.652 48.023 104.82 47.222 104.968 45.894H102.646C102.92 47.0745 102.983 47.4328 103.173 49.3088H104.208H104.229ZM114.745 42.1631C115.758 43.6386 116.413 44.8823 117.088 46.6318L114.829 47.8965C114.238 45.9784 113.668 44.7769 112.654 43.1749L114.723 42.142L114.745 42.1631Z" fill="#231815"/></g><path d="M112.232 55.4012C112.232 73.2339 97.7475 87.6939 79.8842 87.6939C62.0208 87.6939 47.5359 73.2339 47.5359 55.4012C47.5359 37.5685 61.9997 23.1084 79.8631 23.1084C97.7264 23.1084 112.211 37.5685 112.211 55.4012H112.232Z" stroke="#005D97" stroke-width="2.1409" stroke-miterlimit="10"/><path d="M102.414 77.9131L112.169 87.6726" stroke="#005D97" stroke-width="2.1409" stroke-miterlimit="10"/><path d="M131.236 106.685L112.169 87.6724" stroke="#005D97" stroke-width="3.21135" stroke-miterlimit="10" stroke-linecap="round"/></svg>