<svg width="134" height="120" fill="none" xmlns="http://www.w3.org/2000/svg"><path d="M56.7965 24.5353C56.7965 20.0506 58.0284 17.8442 61.241 17.8442C64.4535 17.8442 65.6854 20.0986 65.6854 24.5353C65.6854 28.9721 64.4535 31.2264 61.241 31.2264C58.0284 31.2264 56.7965 28.9961 56.7965 24.5353ZM63.3666 24.5353C63.3666 21.2497 62.8352 19.8348 61.241 19.8348C59.6468 19.8348 59.1153 21.2497 59.1153 24.5353C59.1153 27.8209 59.6468 29.2359 61.241 29.2359C62.8352 29.2359 63.3666 27.7969 63.3666 24.5353Z" fill="#231815"/><path d="M67.3762 24.5353C67.3762 20.0506 68.6081 17.8442 71.8207 17.8442C75.0332 17.8442 76.2651 20.0986 76.2651 24.5353C76.2651 28.9721 75.0332 31.2264 71.8207 31.2264C68.6081 31.2264 67.3762 28.9961 67.3762 24.5353ZM73.9463 24.5353C73.9463 21.2497 73.4149 19.8348 71.8207 19.8348C70.2265 19.8348 69.6951 21.2497 69.6951 24.5353C69.6951 27.8209 70.2265 29.2359 71.8207 29.2359C73.4149 29.2359 73.9463 27.7969 73.9463 24.5353Z" fill="#231815"/><path d="M81.7966 31.0108V20.3146L78.6082 21.3219V19.3074L82.497 17.9644H84.1396V31.0348H81.7966V31.0108Z" fill="#231815"/><path d="M91.3617 28.3486V31.0107H88.6564V28.3486H91.3617Z" fill="#231815"/><path d="M95.9512 28.3486V31.0107H93.2458V28.3486H95.9512Z" fill="#231815"/><path d="M100.565 28.3486V31.0107H97.8594V28.3486H100.565Z" fill="#231815"/><path d="M105.178 28.3486V31.0107H102.473V28.3486H105.178Z" fill="#231815"/><path d="M109.792 28.3486V31.0107H107.086V28.3486H109.792Z" fill="#231815"/><path d="M25.3955 10.5059V36.5987H44.2844V16.6214L38.125 10.5059H25.3955Z" fill="white" stroke="#231815" stroke-width="0.5" stroke-linejoin="round"/><path d="M38.125 10.5059V16.6214H44.2844L38.125 10.5059Z" fill="#231815" stroke="#231815" stroke-width="0.5" stroke-linejoin="round"/><path d="M56.7965 65.401C56.7965 60.9163 58.0284 58.71 61.241 58.71C64.4535 58.71 65.6854 60.9643 65.6854 65.401C65.6854 69.8378 64.4535 72.0921 61.241 72.0921C58.0284 72.0921 56.7965 69.8618 56.7965 65.401ZM63.3666 65.401C63.3666 62.1155 62.8352 60.7005 61.241 60.7005C59.6468 60.7005 59.1153 62.1155 59.1153 65.401C59.1153 68.6866 59.6468 70.1016 61.241 70.1016C62.8352 70.1016 63.3666 68.6627 63.3666 65.401Z" fill="#231815"/><path d="M67.3762 65.401C67.3762 60.9163 68.6081 58.71 71.8207 58.71C75.0332 58.71 76.2651 60.9643 76.2651 65.401C76.2651 69.8378 75.0332 72.0921 71.8207 72.0921C68.6081 72.0921 67.3762 69.8618 67.3762 65.401ZM73.9463 65.401C73.9463 62.1155 73.4149 60.7005 71.8207 60.7005C70.2265 60.7005 69.6951 62.1155 69.6951 65.401C69.6951 68.6866 70.2265 70.1016 71.8207 70.1016C73.4149 70.1016 73.9463 68.6627 73.9463 65.401Z" fill="#231815"/><path d="M78.1975 71.8525V69.3824C81.9898 66.1207 83.9463 64.6099 83.9463 62.6673C83.9463 61.2523 83.1492 60.6767 81.6999 60.6767C80.7579 60.6767 79.84 60.9645 78.8497 61.3962V59.3817C79.8642 58.8541 81.2168 58.6143 82.3279 58.6143C84.9849 58.6143 86.3618 60.0772 86.3618 62.1876C86.3618 64.0343 85.7096 65.6411 80.613 69.814H86.6758V71.8525H78.1975Z" fill="#231815"/><path d="M91.3617 69.1904V71.8525H88.6564V69.1904H91.3617Z" fill="#231815"/><path d="M95.9512 69.1904V71.8525H93.2458V69.1904H95.9512Z" fill="#231815"/><path d="M100.565 69.1904V71.8525H97.8594V69.1904H100.565Z" fill="#231815"/><path d="M105.178 69.1904V71.8525H102.473V69.1904H105.178Z" fill="#231815"/><path d="M109.792 69.1904V71.8525H107.086V69.1904H109.792Z" fill="#231815"/><path d="M25.3955 51.3477V77.4405H44.2844V57.4632L38.125 51.3477H25.3955Z" fill="white" stroke="#231815" stroke-width="0.5" stroke-linejoin="round"/><path d="M38.125 51.3477V57.4632H44.2844L38.125 51.3477Z" fill="#231815" stroke="#231815" stroke-width="0.5" stroke-linejoin="round"/><path d="M56.7965 106.244C56.7965 101.759 58.0284 99.5527 61.241 99.5527C64.4535 99.5527 65.6854 101.807 65.6854 106.244C65.6854 110.681 64.4535 112.935 61.241 112.935C58.0284 112.935 56.7965 110.705 56.7965 106.244ZM63.3666 106.244C63.3666 102.958 62.8352 101.543 61.241 101.543C59.6468 101.543 59.1153 102.958 59.1153 106.244C59.1153 109.529 59.6468 110.944 61.241 110.944C62.8352 110.944 63.3666 109.505 63.3666 106.244Z" fill="#231815"/><path d="M67.3762 106.244C67.3762 101.759 68.6081 99.5527 71.8207 99.5527C75.0332 99.5527 76.2651 101.807 76.2651 106.244C76.2651 110.681 75.0332 112.935 71.8207 112.935C68.6081 112.935 67.3762 110.705 67.3762 106.244ZM73.9463 106.244C73.9463 102.958 73.4149 101.543 71.8207 101.543C70.2265 101.543 69.6951 102.958 69.6951 106.244C69.6951 109.529 70.2265 110.944 71.8207 110.944C73.4149 110.944 73.9463 109.505 73.9463 106.244Z" fill="#231815"/><path d="M78.2941 110.536C78.8738 110.704 79.8641 110.944 80.9028 110.944C83.1008 110.944 83.9221 110.081 83.9221 108.906C83.9221 107.659 83.0767 107.011 81.2409 107.011H79.3569L79.7433 105.14H80.5646C82.7868 105.14 83.6564 104.349 83.6564 103.126C83.6564 101.807 82.6902 101.447 81.2892 101.447C80.3472 101.447 79.4776 101.663 78.5839 101.999V100.008C79.5984 99.6245 80.782 99.4326 82.0139 99.4326C84.7917 99.4326 85.9511 100.776 85.9511 102.718C85.9511 103.989 85.2023 105.188 83.8013 105.764C85.5646 106.172 86.3859 107.371 86.3859 108.858C86.3859 111.088 84.6226 112.887 81.2651 112.887C80.009 112.887 79.1153 112.767 78.3182 112.503V110.488L78.2941 110.536Z" fill="#231815"/><path d="M91.3617 110.033V112.695H88.6564V110.033H91.3617Z" fill="#231815"/><path d="M95.9512 110.033V112.695H93.2458V110.033H95.9512Z" fill="#231815"/><path d="M100.565 110.033V112.695H97.8594V110.033H100.565Z" fill="#231815"/><path d="M105.178 110.033V112.695H102.473V110.033H105.178Z" fill="#231815"/><path d="M109.792 110.033V112.695H107.086V110.033H109.792Z" fill="#231815"/><path d="M25.3955 92.1899V118.307H44.2844V98.3055L38.125 92.1899H25.3955Z" fill="white" stroke="#231815" stroke-width="0.5" stroke-linejoin="round"/><path d="M38.125 92.1899V98.3055H44.2844L38.125 92.1899Z" fill="#231815" stroke="#231815" stroke-width="0.5" stroke-linejoin="round"/></svg>