<svg width="195" height="157" fill="none" xmlns="http://www.w3.org/2000/svg"><g clip-path="url(#clip0_2118_3471)"><path d="M137.982 50.1461C138.419 50.2915 138.835 50.5823 139.293 50.7485C139.231 51.0809 139.502 50.8731 139.668 50.977C139.689 50.977 139.689 51.1016 139.772 51.1432C141.958 52.535 143.853 54.0099 144.373 56.7519C145.914 64.7495 142.937 73.7027 141.917 81.6381C141.729 83.0091 141.812 83.6946 141.271 84.9825C140.959 85.7511 140.272 86.6236 140.563 87.4961C140.626 87.6622 140.73 87.8077 140.917 87.7869C140.355 88.9502 139.314 90.342 137.94 90.5705C137.087 90.7159 136.108 90.3627 135.359 90.8821C135.275 91.2975 135.171 91.7338 135.588 91.9623C137.961 93.2918 141.334 90.5913 142.333 88.5139C142.812 87.4961 142.874 86.3328 143.207 85.2733C143.249 85.1279 143.291 84.7956 143.457 84.7748C143.769 88.2024 144.914 91.4014 145.851 94.6628C145.893 94.7666 145.851 94.9121 145.872 94.9951C145.581 95.9923 145.435 97.0101 145.123 98.0072C144.706 99.2744 143.998 100.978 143.353 102.141C143.311 102.224 143.041 102.453 143.27 102.515C142.354 103.408 141.792 103.907 140.751 104.613C140.459 104.26 119.974 107.106 120.536 107.21C120.723 107.251 121.369 107.064 121.077 107.417C118.787 107.189 116.789 106.877 114.561 106.316L112.916 105.112C112.729 104.821 112.417 104.717 112.458 104.322C113.583 104.073 114.728 103.99 115.748 103.429C117.08 102.702 118.454 101.248 119.599 100.209C119.891 100.209 120.182 99.9599 120.432 99.8145C121.161 99.3575 122.035 98.8382 122.68 98.4227C123.201 98.0903 123.451 98.0072 123.992 97.7995C124.034 97.7995 124.221 97.4464 124.283 97.4256C124.45 97.3841 124.637 97.4256 124.825 97.4256C124.616 97.1555 124.97 97.301 124.929 97.0309C127.635 95.7014 133.235 93.4579 134.942 91.1521C136.795 88.6386 134.047 86.3328 132.007 85.211C129.592 86.7898 127.448 88.8048 124.929 90.2173C124.304 90.342 124.221 89.5526 123.721 89.4072C123.721 89.0956 123.784 88.6178 123.867 88.3062C123.992 87.8077 124.554 86.8521 124.346 86.4366C124.075 85.8758 122.222 85.6473 121.619 85.6057C121.66 85.2733 121.015 85.4395 121.119 84.8994C121.348 84.754 121.598 84.5878 121.827 84.4216C121.931 83.9439 121.244 82.9675 121.14 82.4067C120.911 81.1395 121.598 80.641 122.035 79.6231C122.118 79.4153 122.097 79.1453 122.181 78.9791C122.41 78.4806 123.888 77.8781 124.367 77.5665C125.054 77.1095 124.429 76.5279 124.263 75.9047C124.158 75.4892 124.054 74.7829 124.034 74.3259C124.013 73.8689 124.179 72.124 123.846 71.9163C123.347 71.6254 121.723 71.7916 121.077 71.5631L116.31 71.3554C116.143 69.7143 116.081 68.0525 115.998 66.4114C115.914 64.3341 116.247 61.6336 115.873 59.7225C115.81 59.4524 115.644 58.5592 115.29 58.6838C114.061 59.12 114.457 60.9896 114.395 62.0075C114.291 63.8355 114.145 65.5805 114.291 67.4085L114.499 71.3554C113.125 71.3969 111.751 71.2931 110.377 71.3554C110.293 71.0438 110.189 70.6076 110.168 70.296C110.085 68.7795 110.273 67.1177 110.377 65.5805C110.481 63.6901 110.564 61.6128 110.772 59.7225C110.96 58.1022 111.501 56.0456 112.271 54.6123L112.667 54.4461C114.02 53.4282 115.706 52.7843 117.392 53.3036C117.809 53.4282 118.621 53.6983 118.995 54.1553C122.618 58.5799 122.056 52.2234 124.158 51.9118C125.616 51.7041 127.635 55.9002 129.072 55.4017C131.799 54.4461 133.506 51.0809 135.067 49.5852C135.171 49.7098 136.191 49.7306 136.337 49.7514C136.858 49.8345 137.565 49.9176 138.065 50.0838L137.982 50.1461ZM134.984 66.9723L134.901 67.0346C134.859 67.2631 134.859 67.4916 134.901 67.6993L134.984 67.7616C134.984 67.9278 134.984 68.094 134.984 68.2602C134.693 68.1979 134.713 68.4056 134.734 68.551C135.692 75.0114 128.905 81.6173 129.051 82.0743C128.884 82.4482 128.53 83.4661 128.468 83.8608C128.301 85.0656 128.697 86.125 130.05 86.1874C130.092 85.8342 130.3 85.6265 130.258 85.2318C130.237 84.9202 129.967 84.5878 129.967 84.2347C129.967 82.1574 133.36 78.626 134.443 76.6941C135.879 74.139 137.378 67.4293 136.483 64.6872C136.4 64.438 136.15 63.7732 135.838 63.8563C134.963 64.5834 135.005 65.9128 134.963 66.9515L134.984 66.9723Z" fill="#CAE9F4"/><path d="M25.2917 91.6507L25.5416 91.5053C28.4353 91.5053 31.2875 91.6923 34.1812 91.6092L34.8682 91.713H38.4906L39.1776 91.8169C48.8374 91.9623 58.5179 91.6092 68.1985 91.8169C68.6149 91.8169 68.948 92.1285 68.8439 91.3807C68.6773 90.1966 66.9702 90.4043 66.0958 90.4251C61.5158 90.5497 57.019 90.4667 52.439 90.3212C44.3614 90.072 36.3047 90.6952 28.248 90.2174C27.6234 90.1758 26.9989 90.2382 26.3951 90.1135C26.3535 90.072 26.9156 89.3657 26.9989 89.2618C27.6859 88.4309 30.4547 85.3149 31.3083 85.0449C31.5373 84.9826 32.0161 84.9202 32.2659 84.8995C34.6392 84.7333 37.2832 85.3149 39.6981 84.8995C50.3571 85.2318 61.2868 84.4632 71.925 84.8995C72.4871 84.9202 73.0908 85.0864 73.6737 85.0033C73.757 85.0657 73.4864 85.398 73.4239 85.5019C72.3414 87.0183 70.1763 87.9116 69.5725 89.8227C69.9264 89.9473 70.1346 90.072 70.5302 90.0304C71.696 89.9266 73.2157 87.5377 74.1942 86.7691C74.3816 86.6236 74.5273 86.4782 74.7979 86.5198L75.4225 90.3628C75.5474 90.7783 77.0047 90.3212 77.3378 90.1966C78.8159 89.6565 80.1899 88.4517 80.1275 86.7691C80.0858 85.855 79.9193 84.5048 79.8152 83.57C79.7527 83.0299 79.4196 82.1574 79.5445 81.6796L82.0844 78.5014C82.355 78.2105 83.3959 77.1096 83.6458 77.8574C83.958 78.7922 84.1038 79.997 83.6874 80.911C83.1878 82.0328 81.7929 82.3652 81.0851 83.3207C80.1899 84.5463 80.1275 86.0835 80.9394 87.3507C81.0851 87.5584 81.3349 87.6831 81.3141 87.9116C80.523 88.4101 79.5445 88.9918 78.8575 89.615C77.6292 90.7159 77.3586 92.1493 77.5043 93.7696C77.546 94.1643 78.0456 94.559 78.3787 94.8082C78.7534 95.0783 79.2947 95.3899 79.7735 95.4314C80.6063 95.5145 81.6056 95.2652 82.3342 95.8884C81.9595 96.8024 80.8353 97.2179 80.3981 98.0696C79.9609 98.9213 79.9609 100.708 80.523 101.497C81.439 102.785 83.6041 102.557 84.9365 102.889C85.2071 103.741 85.3529 104.842 84.6867 105.548C84.2495 105.984 82.0636 107.646 81.5223 107.812C81.4182 107.854 81.3349 107.874 81.21 107.854C81.0643 106.171 81.0018 104.468 80.5022 102.847C80.1066 102.577 78.6077 103.782 78.2538 104.031C77.9832 104.239 76.2552 105.673 76.2136 105.797C76.0262 107.48 76.6924 109.162 76.3801 110.824L72.3205 111.24C72.0707 111.24 71.0923 111.281 70.9674 111.198C70.7383 111.032 70.9674 110.513 70.9674 110.284C71.2588 104.592 71.2588 98.8798 71.2796 93.1464C71.1339 92.3155 71.1964 91.4638 70.8841 90.6536C69.6142 90.342 69.406 91.8169 69.3643 92.7517C69.3435 93.271 69.4684 93.6865 69.4684 94.1435C69.6142 99.7522 69.5933 105.403 69.5101 111.032L69.0104 111.925C67.1159 113.4 65.3672 115.041 63.4935 116.537C62.8274 117.056 61.8905 117.887 61.0578 118.012C60.1418 118.136 59.2049 118.095 58.2681 118.136C49.1913 118.531 40.052 118.24 30.9752 118.136H25.2917V91.6507Z" fill="#FEFEFF"/><path d="M113.104 126.757C113.228 126.882 112.167 129.395 112.021 129.728C110.46 133.342 108.669 136.977 107.004 140.55C106.775 141.049 105.838 143.043 105.401 143.168H99.0927L94.3877 142.773H84.6447L83.9577 142.669H75.0266L74.3396 142.565H62.9936L62.3066 142.461H57.4351L63.6181 126.342L113.124 126.757H113.104Z" fill="#FEFFFF"/><path d="M63.6187 144.186H67.8865L68.5735 144.082H81.5226L82.2096 144.186H84.0208L87.0186 144.477H106.484C106.65 144.414 107.587 142.711 107.733 142.399C109.503 138.868 110.793 134.796 112.75 131.39C112.917 131.099 113.104 130.725 113.375 130.559C113.375 130.912 113.354 131.265 113.375 131.618C113.77 137.144 113.562 142.711 114.083 148.236V156.255L112.23 156.608H68.1571C66.6374 156.338 65.1385 156.255 63.5979 156.296V144.186H63.6187Z" fill="#FEFEFE"/><path d="M71.155 125.054C71.1341 124.825 71.155 124.701 71.2591 124.493C71.4672 124.119 72.2583 123.433 72.6123 123.143C84.5828 113.359 102.945 114.48 117.476 115.727L122.181 115.81C122.181 115.81 122.347 116.163 122.347 116.225C122.347 116.516 121.827 117.077 121.598 117.326C120.828 118.199 119.87 118.967 119.079 119.819C117.372 121.709 115.457 125.137 112.646 125.428C110.543 125.635 108.233 125.137 106.13 125.033C94.4716 125.033 82.8133 125.033 71.155 125.033V125.054Z" fill="#E4E4E4"/><path d="M142.166 119.3C139.106 122.748 136.066 126.196 133.027 129.645C131.965 130.849 130.883 132.054 129.8 133.238L115.831 125.739C115.789 125.594 115.872 125.573 115.935 125.49C116.872 124.264 118.225 122.873 119.287 121.73C121.035 119.861 122.972 118.116 124.699 116.225C125.699 115.166 126.615 113.878 127.614 112.818C127.801 112.611 128.01 112.403 128.239 112.237L143.228 117.783C143.353 117.887 143.353 117.887 143.29 118.033C143.124 118.344 142.478 118.988 142.187 119.3H142.166Z" fill="#FEFEFE"/><path d="M122.326 116.246C122.326 116.246 122.201 115.851 122.16 115.83L117.455 115.747C102.944 114.501 84.5617 113.379 72.5911 123.163C72.2372 123.454 71.4253 124.14 71.2379 124.514C71.1338 124.721 71.113 124.846 71.1338 125.074C69.1977 125.074 67.2408 125.116 65.3047 125.033C67.1575 123.392 69.1561 121.917 71.1338 120.442C74.444 117.949 77.879 115.332 81.2724 112.922C82.0011 112.403 82.6672 111.863 83.6249 111.863C83.8539 111.863 84.0829 111.967 84.3327 111.967C87.2889 112.008 90.2243 111.468 93.1597 111.447H99.1971L99.8841 111.551H106.421L107.108 111.655H109.627L110.314 111.551H115.54L116.227 111.447H119.641L120.328 111.343C122.139 111.572 124.387 110.99 126.157 111.26C126.323 111.281 126.511 111.364 126.615 111.51C126.719 111.987 124.845 113.649 124.471 114.044C123.888 114.688 123.367 115.415 122.722 115.997C122.597 116.101 122.514 116.246 122.326 116.246Z" fill="#FDFEFE"/><path d="M115.81 155.486L114.811 127.152C114.811 127.152 116.039 127.712 116.226 127.796C119.932 129.727 123.679 131.722 127.323 133.737C127.656 133.924 128.218 134.131 128.259 134.505C128.405 135.71 127.968 137.268 128.051 138.514C127.843 139.47 127.906 140.571 127.614 141.485C127.323 142.399 125.033 145.037 124.325 145.91C122.868 147.717 121.327 149.566 119.807 151.311C118.745 152.536 117.309 154.302 116.102 155.32C115.997 155.403 115.977 155.507 115.81 155.465V155.486Z" fill="#FEFEFE"/><path d="M117.621 73.0793C117.58 73.4117 117.933 73.3078 118.038 73.4532C118.496 74.0557 118.454 74.6373 118.121 75.2813C115.144 76.9639 112.104 78.5634 109.086 80.1837C108.586 80.0175 108.378 80.4122 108.086 80.5369C107.379 80.8069 106.712 81.0769 105.9 81.3678C104.506 81.8663 103.069 82.3857 101.529 82.6142L100.862 82.9881C95.8243 82.5311 90.7446 82.3649 85.7065 82.7803C85.8731 82.261 86.6017 81.804 87.0597 81.4716C87.4761 81.1808 88.059 80.89 88.3088 80.5784C88.4338 80.4122 89.891 79.6852 90.2033 79.519C94.5127 77.2547 98.9054 75.1359 103.215 72.8924C108.003 72.8508 112.812 72.9547 117.6 73.0793H117.621Z" fill="#C7E3EE"/><path d="M149.12 112.029C151.805 111.593 154.116 110.18 156.552 109.079C157.072 108.851 158.654 108.082 159.112 108.02C159.695 107.937 160.278 108.477 160.611 108.934C160.736 109.1 160.861 109.495 160.882 109.516C160.924 109.557 161.007 109.516 161.069 109.516C161.09 109.682 161.278 110.721 161.278 110.824L161.382 111.032C161.382 111.032 161.402 111.614 161.382 111.738C161.319 112.112 161.09 112.549 161.007 112.922C160.653 114.397 160.591 116.184 159.175 116.994C157.489 117.97 155.781 118.822 154.116 119.861C152.346 120.982 150.723 122.229 148.974 123.351C148.891 123.392 148.578 123.475 148.828 123.537C144.956 125.324 139.73 126.944 136.275 129.25H135.671V128.752C138.211 125.885 140.73 122.79 143.353 120.048C143.707 119.694 144.186 119.154 144.56 118.843C144.998 118.49 145.685 118.24 146.059 117.825C146.392 117.472 146.496 116.911 146.746 116.495C147.641 114.979 148.682 113.795 149.14 112.029H149.12Z" fill="#90B6CD"/><path d="M81.8761 76.4862C81.8969 76.6316 81.8344 76.7147 81.7512 76.8186C81.3556 77.4833 79.3571 79.4776 78.6909 79.8722C77.3377 80.7032 75.235 80.3916 73.6945 80.2877H40.4891L39.8021 80.1838H34.8265C34.7016 80.0592 35.4094 79.2075 35.5343 79.0413C36.1797 78.2104 37.3039 76.7978 38.2823 76.4862C39.5314 76.0708 41.3843 76.32 42.6958 76.4031H71.113L71.8 76.507H81.8969L81.8761 76.4862Z" fill="#FCFDFD"/><path d="M169.501 107.417C169.501 107.417 169.501 107.48 169.501 107.521C169.605 108.955 169.084 111.094 168.939 112.59C168.814 113.753 167.835 116.371 167.898 117.43C167.898 117.472 167.898 117.492 167.898 117.534L167.814 117.596C167.814 117.596 167.814 117.762 167.814 117.825C167.752 118.116 167.585 118.427 167.523 118.676C166.898 121.19 166.44 126.259 164.858 128.128C163.276 129.998 158.217 130.517 156.052 129.811C155.719 129.707 154.782 129.271 154.761 128.897C154.761 128.128 156.635 126.923 157.114 126.238C157.967 125.012 158.113 122.956 158.071 121.481C158.071 121.128 157.78 120.858 158.238 120.65C158.633 120.463 159.196 120.504 159.654 120.255C160.611 119.757 162.048 118.448 162.443 117.43C162.485 117.326 162.443 117.139 162.464 117.118C162.485 117.098 162.756 117.118 162.756 116.62C162.756 116.558 162.756 116.495 162.756 116.412C162.943 116.308 163.089 115.831 163.13 115.644C163.463 114.127 163.276 111.344 163.151 109.765C163.109 109.079 163.234 108.788 162.901 108.103C162.589 107.501 162.006 107.272 163.026 106.94C164.046 106.607 166.024 106.566 167.086 106.732C167.898 106.857 168.689 107.168 169.459 107.417H169.501Z" fill="white"/><path d="M103.944 110.201H85.2489L80.6897 110.471C80.6897 110.284 81.231 109.931 81.3975 109.786C82.8548 108.601 84.4787 107.5 85.9776 106.337C86.1025 106.233 86.2482 106.171 86.3939 106.109L86.5189 102.93C86.8936 102.993 87.2267 102.847 87.5598 102.827C90.6409 102.66 94.1592 103.076 97.3028 103.034L103.986 103.076C104.319 103.512 104.61 103.907 105.131 104.135C105.422 104.26 106.505 104.426 106.484 104.779L103.944 110.222V110.201Z" fill="#FEFEFE"/><path d="M105.672 102.723C105.484 102.473 106.588 101.622 106.775 101.476C108.878 99.8974 111.064 99.1704 112.729 96.9061C114.145 94.9742 113.708 94.0186 113.999 91.8582C114.02 91.6297 114.228 90.4664 114.353 90.3834C117.205 89.5109 117.268 92.2945 118.1 94.0602C118.246 94.3926 118.496 94.9119 118.871 94.995C120.057 95.265 122.181 94.081 123.201 93.4578C126.219 91.6297 128.863 89.1162 131.736 87.0389C132.028 86.9143 132.215 87.1012 132.444 87.2466C136.046 89.8017 131.424 92.1906 129.238 93.3331C126.136 94.9327 122.368 96.1167 119.662 98.2979C118.059 99.5858 116.685 101.393 114.728 102.182C112.771 102.972 108.899 103.533 106.838 103.076C106.442 102.993 106.067 102.764 105.651 102.702L105.672 102.723Z" fill="#FCFDFD"/><path d="M119.62 81.7833C120.078 83.9645 118.288 84.9824 116.685 85.9171C115.082 86.8519 113.499 87.579 111.938 88.493C109.377 89.9679 106.942 91.609 104.339 93.0423C103.715 93.3955 102.445 94.1641 101.799 94.3095C101.612 94.351 101.674 94.3095 101.654 94.1641C101.633 93.6447 101.779 92.8969 101.404 92.5022C101.154 92.2322 100.842 92.1283 100.509 92.3152C99.9465 92.6476 100.342 93.8109 99.78 94.3095C99.2595 94.4964 98.7183 94.4549 98.1978 94.4964C93.014 94.9327 87.8302 94.0394 82.6464 94.2056C81.9802 94.2264 80.7936 94.2679 80.398 93.6447C80.2107 93.3539 80.1066 92.7099 80.2107 92.3776C80.3356 91.9413 81.5639 91.6297 81.9802 91.5259C86.3937 90.5495 92.3895 91.2351 96.907 91.5882C97.2401 91.609 97.5732 91.5882 97.9063 91.5882C99.6967 91.6921 101.321 91.6713 102.986 90.8404C107.524 88.5969 112 85.5432 116.56 83.1543C116.851 82.9881 119.537 81.5963 119.641 81.7625L119.62 81.7833Z" fill="#FCFCFC"/><path d="M79.8775 112.029C80.0649 112.195 78.2328 113.65 78.0663 113.774C76.8588 114.709 75.5473 115.457 74.3398 116.35C71.675 118.282 69.1144 120.359 66.4288 122.27C65.3879 123.018 64.0971 124.036 62.9938 124.659C61.9736 125.22 60.8495 125.366 59.7253 125.615C57.6851 126.051 55.5616 126.467 53.4797 126.654C54.6247 125.553 55.8322 124.493 57.0397 123.454C60.5996 120.422 64.451 117.119 68.24 114.397C69.1144 113.774 70.0304 113.026 71.1129 112.839C73.2364 112.486 75.6514 112.549 77.8165 112.32C78.5035 112.258 79.1905 112.092 79.8775 112.029Z" fill="#FCFDFD"/><path d="M104.776 87.2053C104.443 86.4782 104.776 85.6888 104.027 85.1903C103.84 85.0656 103.777 85.0656 103.569 85.128C102.632 85.4603 103.028 86.4574 102.653 87.1845C102.237 87.226 101.82 87.1845 101.404 87.1845C96.8862 87.4545 92.0564 87.4545 87.5596 87.1845C86.3313 87.1222 84.8116 87.1222 83.6457 86.6859C83.2502 86.5405 83.1461 86.499 83.1877 86.0212C83.3543 83.9439 86.9975 84.0685 88.4548 84.0685C92.7017 84.5048 97.032 84.0685 101.3 84.2555C101.903 84.2763 102.611 84.4632 103.194 84.4632C104.881 84.484 106.275 83.2999 107.691 82.5313C109.44 81.5965 111.23 80.7241 112.937 79.7685C116.018 78.0443 118.933 76.0294 122.139 74.5337C122.285 74.5545 122.472 75.51 122.472 75.697C122.597 77.068 122.077 77.2342 121.036 77.8574C119.287 78.896 117.372 79.8101 115.581 80.8279C113.458 82.0328 111.397 83.3415 109.294 84.5671C107.962 85.3357 106.317 86.4574 104.985 87.0806C104.901 87.1222 104.818 87.1845 104.714 87.1637L104.776 87.2053Z" fill="#FCFCFC"/><path d="M40.1353 81.5964C51.6895 81.9495 63.4311 81.1602 75.0061 81.7003C75.5474 81.721 76.1095 81.6795 76.6716 81.7003C76.7341 82.095 76.4842 82.5312 76.2136 82.8012C74.6938 84.3592 69.7391 83.736 67.678 83.5906H47.6924L44.986 83.2998H36.1381C35.3887 83.4037 34.6392 83.4452 33.8898 83.5075C32.0577 82.7181 34.3478 82.3442 35.1597 82.2196C36.617 81.9911 38.3033 81.8665 39.7605 81.8041C39.9479 81.8041 40.1561 81.908 40.1145 81.5964H40.1353Z" fill="#D3C3AC"/><path d="M104.256 100.064C104.131 99.4198 103.111 99.1913 102.653 99.856C102.341 100.292 102.736 101.372 102.258 101.663C102.008 101.809 99.8009 101.435 99.3013 101.414C95.096 101.123 90.7241 101.746 86.4563 101.414C85.582 101.352 84.4994 101.227 83.6667 100.978C82.8339 100.728 82.5841 100.583 82.9588 99.6275C83.167 99.1082 83.6667 98.7966 84.1663 98.6304C85.4987 98.1734 87.2682 98.2565 88.6423 98.4019H99.9883C102.362 98.7758 103.902 98.755 106.026 97.6125C106.65 97.2801 112.105 94.0188 112.375 94.2888C111.959 96.0961 110.356 97.6333 108.836 98.6096C108.024 99.1497 107.087 99.5029 106.255 100.043C105.672 100.417 105.13 101.082 104.589 101.393C104.464 101.456 104.402 101.518 104.235 101.497C104.173 101.061 104.319 100.438 104.235 100.043L104.256 100.064Z" fill="#FCFCFC"/><path d="M86.102 96.117C86.8307 95.8677 87.6842 95.7431 88.4545 95.7015C92.3476 95.4938 96.4488 96.0754 100.3 95.8054C101.986 95.6807 103.943 94.8083 105.422 94.0189C107.982 92.6686 110.376 90.9653 112.937 89.5942L112.271 92.5856C110.897 93.1049 109.606 94.3097 108.274 94.8083C107.524 95.0991 106.504 95.3484 105.651 95.6392C104.943 95.8885 104.089 96.3039 103.423 96.4078C102.757 96.5117 102.195 96.6986 101.466 96.8648C101.299 96.9064 101.112 96.8648 101.175 97.1141C98.8429 97.1141 96.5113 97.1141 94.2004 97.0102C91.1193 96.8648 88.7252 96.6571 85.6232 97.0102L85.415 96.4701C85.6232 96.2416 85.8314 96.2001 86.1229 96.117H86.102Z" fill="#D2DC8A"/><path d="M140.897 87.8077C140.689 87.8077 140.605 87.683 140.543 87.5169C140.251 86.6444 140.938 85.7719 141.251 85.0033C141.792 83.6946 141.729 83.0299 141.896 81.6589C142.937 73.7235 145.914 64.7496 144.353 56.7727C143.832 54.0514 141.938 52.5765 139.752 51.164C139.689 51.1224 139.689 50.9978 139.648 50.9978C139.481 50.8939 139.21 51.1017 139.273 50.7693C142.167 51.8495 145.227 51.9949 145.498 55.921C145.685 58.6215 145.331 62.0283 145.081 64.7288C144.498 71.5008 143.27 79.1245 141.646 85.7304C141.438 86.5405 141.23 87.0806 140.876 87.8077H140.897Z" fill="#F6F5F3"/><path d="M100.342 88.8048L102.757 89.1995C101.654 90.0719 101.425 89.9681 100.051 90.0096H82.6882C82.1678 90.0096 81.6681 90.155 81.1268 90.1135C81.0436 90.1135 80.7729 90.1758 80.877 89.9681C80.9603 89.8019 83.167 88.2647 83.3544 88.2439C83.5001 88.2439 84.1871 88.4724 84.4578 88.5139C86.0608 88.7009 87.9345 88.6594 89.5791 88.6386C93.1599 88.597 96.7615 88.7424 100.363 88.8255L100.342 88.8048Z" fill="#E2BB69"/><path d="M146.913 101.019C147.079 101.393 147.288 101.85 147.621 102.12C147.683 102.557 148.058 103.221 148.204 103.699C148.495 104.738 148.807 106.524 148.724 107.584C148.682 108.186 148.453 108.809 148.433 109.433C148.183 109.599 148.224 109.952 148.224 110.243C148.162 110.243 148.1 110.222 148.037 110.243C147.912 110.824 147.662 111.385 147.433 111.946C147.017 112.902 145.789 115.228 145.081 115.914C144.477 116.516 144.019 116.121 143.311 115.955C143.27 115.685 143.644 115.727 143.873 115.561C144.29 115.27 145.06 114.127 145.372 113.649C147.496 110.201 148.37 106.42 146.663 102.577C146.538 102.266 146.372 101.954 146.039 101.85C146.205 101.622 146.268 101.248 146.58 101.04C146.809 100.895 146.85 101.04 146.934 101.04L146.913 101.019Z" fill="#F6F5F3"/><path d="M161.465 111.925C161.486 112.299 161.507 112.569 161.569 112.922C161.631 113.275 161.756 113.608 161.777 113.961C161.819 114.563 161.632 115.124 161.673 115.727C161.382 115.851 161.444 116.204 161.34 116.454C160.632 118.095 159.55 118.157 158.072 118.78C154.761 120.193 152.076 122.042 148.828 123.537C148.578 123.454 148.891 123.392 148.974 123.35C150.702 122.229 152.346 120.962 154.116 119.861C155.761 118.822 157.489 117.949 159.175 116.994C160.591 116.184 160.653 114.376 161.007 112.922C161.09 112.548 161.298 112.112 161.382 111.738C161.486 111.738 161.486 111.863 161.486 111.946L161.465 111.925Z" fill="#F0F3F4"/><path d="M160.757 108.124C160.778 108.29 160.757 108.456 160.757 108.622H160.966C160.924 108.934 160.924 109.557 160.882 109.516C160.861 109.495 160.737 109.121 160.612 108.934C160.279 108.477 159.716 107.937 159.113 108.02C158.676 108.082 157.093 108.851 156.552 109.079C154.116 110.159 151.785 111.572 149.12 112.029C149.182 111.801 149.12 111.468 149.328 111.219C149.432 111.073 149.661 111.011 149.828 110.928C149.869 110.907 149.973 110.949 150.036 110.824C150.202 110.887 150.327 110.72 150.327 110.72C152.034 110.243 153.742 109.536 155.324 108.747C156.24 108.29 158.759 106.607 159.675 106.773C160.299 106.877 160.695 107.563 160.778 108.144L160.757 108.124Z" fill="#F0F3F4"/><path d="M121.119 87.1013C121.348 87.4129 120.64 87.8906 120.411 88.036C119.579 88.5761 118.558 88.8877 117.747 89.4902L115.186 88.4931C114.978 88.3476 116.019 87.7452 116.123 87.6829C117.247 87.0182 118.517 86.665 119.849 86.7897C120.016 86.7897 121.057 87.0389 121.098 87.1013H121.119Z" fill="#D2DC8A"/><path d="M78.0663 83.092C78.2329 84.65 78.6909 86.1664 78.3578 87.7244L76.5674 88.7838C76.4633 87.2051 75.7763 85.3978 76.8797 84.0268C77.0046 83.8814 77.9206 82.905 78.0871 83.0712L78.0663 83.092Z" fill="#D3C3AC"/><path d="M109.482 105.714C109.544 106.026 109.315 105.88 109.148 105.922C108.524 106.109 108.461 106.192 108.253 106.836C108.003 107.583 107.754 109.1 108.337 109.723C108.482 109.869 108.711 109.931 108.795 110.118C107.858 110.118 106.921 110.118 105.984 110.118C105.922 109.204 106.234 108.311 106.609 107.48C106.817 107.023 107.712 105.361 108.108 105.153C108.357 105.028 109.232 105.568 109.502 105.714H109.482Z" fill="#FCFCFC"/><path d="M122.014 89.0125C122.014 89.4072 122.556 90.6328 122.368 90.9028C121.452 91.3391 120.557 92.1077 119.683 92.5232C119.579 92.5647 119.516 92.6478 119.412 92.5647C119.287 92.4608 118.434 90.8405 118.517 90.7159C118.975 90.3835 121.619 88.6801 122.014 89.0125Z" fill="#FCFCFC"/><path d="M79.3781 105.132L79.5654 109.162C79.1074 109.598 78.7119 110.159 78.2747 110.596C78.1498 110.72 78.0665 110.866 77.8792 110.845C77.7334 108.996 77.2338 107.085 78.6911 105.589C78.7535 105.506 79.3364 105.07 79.3989 105.132H79.3781Z" fill="#D3C3AC"/><path d="M146.642 102.556C146.517 102.245 146.351 101.933 146.018 101.829C145.83 102.079 145.601 102.369 145.414 102.639C145.414 102.826 145.372 102.951 145.268 103.097C144.332 104.696 143.457 106.046 141.521 106.607C141.354 106.649 140.834 106.773 140.688 106.628C138.898 107.438 135.13 108.248 133.152 108.331V108.539C133.048 108.581 132.965 108.435 132.944 108.435C132.715 108.435 132.028 108.498 131.736 108.539V108.747L131.528 108.643C131.133 108.684 130.716 108.726 130.321 108.747L130.175 108.83L130.113 108.747C129.884 108.747 129.634 108.747 129.405 108.747V108.955C129.092 108.955 128.759 108.955 128.447 108.955C128.281 108.955 128.301 108.851 128.301 108.851C128.176 108.851 128.031 108.851 127.906 108.851C125.866 108.768 123.721 108.851 121.681 108.851C121.057 108.851 120.265 108.788 119.683 108.851C119.662 108.851 119.537 109.017 119.391 108.955V108.747C115.415 108.601 112.896 107.459 109.461 105.735C109.523 106.046 109.294 105.901 109.128 105.942C108.503 106.129 108.441 106.212 108.232 106.856C107.983 107.604 107.733 109.121 108.316 109.744C108.461 109.889 108.69 109.952 108.774 110.139C113.104 110.139 117.393 109.848 121.723 109.848C123.992 109.848 126.074 109.91 128.343 110.055C129.155 110.097 129.842 109.744 130.029 110.72C130.113 111.115 129.904 111.447 130.383 111.676C131.153 112.029 132.278 112.257 133.11 112.548C136.483 113.732 139.835 115.145 143.291 115.955C143.249 115.685 143.624 115.727 143.853 115.56C144.269 115.27 145.039 114.127 145.352 113.649C147.475 110.201 148.349 106.42 146.642 102.577V102.556Z" fill="#90B6CD"/><path d="M143.207 102.515C142.978 102.453 143.228 102.245 143.29 102.141C143.936 100.957 144.644 99.2744 145.06 98.0072C145.372 97.0309 145.518 95.9922 145.809 94.9951C145.809 95.0159 145.955 95.1198 145.976 95.2652C146.496 97.2594 146.559 98.1111 145.476 99.9391C144.852 100.999 144.061 101.663 143.186 102.515H143.207Z" fill="#F6F5F3"/><path d="M110.293 71.3761C110.293 71.3761 110.189 71.4799 110.044 71.4799C109.669 71.5007 109.273 71.4592 108.878 71.4799C109.044 70.3582 109.294 69.2364 109.461 68.1147C109.877 65.3311 110.064 62.506 110.689 59.7639C110.481 61.6543 110.397 63.7316 110.293 65.6219C110.21 67.1384 110.002 68.821 110.085 70.3374C110.085 70.649 110.189 71.0852 110.293 71.3968V71.3761Z" fill="#F6F5F3"/><path d="M40.1351 81.5965C40.1975 81.9081 39.9893 81.7835 39.7812 81.8042C38.3031 81.8666 36.6168 81.9704 35.1803 82.2197C34.3684 82.3443 32.0783 82.7183 33.9104 83.5076C33.1817 83.57 32.4531 83.6738 31.7036 83.6115C31.891 82.8221 32.8278 82.0951 33.5773 81.8458C35.326 81.2641 38.2198 81.555 40.1143 81.6173L40.1351 81.5965Z" fill="#F0F3F4"/><path d="M109.086 80.184C106.088 81.8043 104.506 83.3207 100.863 82.9884L101.529 82.6145C103.069 82.386 104.506 81.8666 105.901 81.3681C106.713 81.0772 107.358 80.8072 108.087 80.5372C108.399 80.4125 108.586 80.0178 109.086 80.184Z" fill="#F0F3F4"/><path d="M117.622 73.0793H121.535C121.681 73.2248 120.932 73.661 120.828 73.7233C119.953 74.2842 119.016 74.7827 118.121 75.2813C118.433 74.6373 118.475 74.0557 118.038 73.4533C117.934 73.3286 117.58 73.4117 117.622 73.0793Z" fill="#F6F5F3"/><path d="M108.274 94.8079C106.962 95.7011 105.526 96.4282 104.089 97.0929C103.111 97.1345 102.132 97.0929 101.154 97.1137C101.091 96.8644 101.279 96.9059 101.445 96.8644C102.174 96.6982 102.736 96.532 103.402 96.4074C104.068 96.2828 104.922 95.8881 105.63 95.6388C106.504 95.348 107.504 95.0987 108.253 94.8079H108.274Z" fill="#F6F5F3"/><path d="M145.414 102.619C145.414 102.806 145.373 102.93 145.269 103.076C144.332 104.675 143.457 106.025 141.521 106.586C141.355 106.628 140.834 106.753 140.688 106.607C142.208 105.922 144.415 103.948 145.414 102.598V102.619Z" fill="#E4E4E4"/><path d="M112.396 104.322C112.354 104.738 112.666 104.842 112.854 105.112L114.498 106.316C114.374 106.275 114.186 106.316 113.999 106.275C112.895 105.963 111.855 105.506 110.897 104.925C110.71 104.655 111.917 104.385 112.084 104.343C112.208 104.322 112.313 104.343 112.417 104.322H112.396Z" fill="#F6F5F3"/><path d="M88.3089 80.5786C88.0591 80.8902 87.4761 81.1811 87.0598 81.4719C86.6018 81.8043 85.8731 82.2613 85.7066 82.7806L83.7496 83.1753L83.708 82.9675C84.8322 82.282 85.9772 81.6588 87.143 81.0356C87.497 80.8487 87.9341 80.5994 88.3089 80.5579V80.5786Z" fill="#F0F3F4"/><path d="M100.051 90.0097C94.2633 90.1141 88.4758 89.8426 82.6882 90.0097H100.051Z" fill="#353533"/><path d="M124.846 97.01C124.887 97.3009 124.533 97.1347 124.742 97.4047C124.575 97.4047 124.367 97.3632 124.2 97.4047C124.138 97.4047 123.93 97.7579 123.909 97.7786C123.368 98.0071 123.118 98.0695 122.597 98.4018C121.952 98.8173 121.077 99.3366 120.349 99.7936C120.099 99.939 119.808 100.188 119.516 100.188C121.202 98.6303 122.805 97.9656 124.825 96.9893L124.846 97.01Z" fill="#E4E4E4"/><path d="M86.1023 96.1169C85.8109 96.2208 85.6027 96.2416 85.3945 96.4701L85.6027 97.0102C84.9781 97.0725 84.2911 97.2387 83.6457 97.301C83.5208 97.301 83.271 97.3426 83.1877 97.2595C84.0413 96.6778 85.0406 96.1585 86.1023 96.1169Z" fill="#F0F3F4"/><path d="M135.671 128.751V129.25H136.274C135.941 129.479 135.067 130.434 134.671 130.206C134.484 130.102 134.609 129.936 134.671 129.811C134.88 129.458 135.379 129.063 135.65 128.751H135.671Z" fill="#E4E4E4"/><path d="M124.846 90.1964C124.846 90.1964 124.804 90.3003 124.741 90.3418C124.575 90.4249 124.096 90.6742 123.95 90.5495C123.825 90.4457 123.659 89.594 123.659 89.3862C124.138 89.5316 124.242 90.3002 124.866 90.1964H124.846Z" fill="#F0F3F4"/><path d="M121.035 84.8994C120.931 85.4395 121.577 85.2526 121.535 85.6057C121.098 85.5849 120.661 85.6057 120.223 85.6057C119.953 85.3772 120.89 84.9825 121.035 84.8994Z" fill="#E4E4E4"/><path d="M100.342 88.8049C101.237 88.8257 102.133 88.9503 103.049 88.9088C103.111 89.1996 102.82 89.1581 102.757 89.1996L100.342 88.8049Z" fill="#D3C3AC"/><path d="M129.446 108.726V108.934C129.134 108.934 128.801 108.934 128.489 108.934C128.322 108.934 128.343 108.83 128.343 108.83C128.635 108.643 129.093 108.747 129.446 108.726Z" fill="#7B9EB4"/><path d="M119.724 108.83C119.724 108.83 119.578 108.996 119.433 108.934V108.726C119.433 108.726 119.599 108.726 119.662 108.726L119.724 108.809V108.83Z" fill="#7B9EB4"/><path d="M131.758 108.519V108.726L131.549 108.622C131.549 108.622 131.549 108.539 131.758 108.519Z" fill="#7B9EB4"/><path d="M130.362 108.726L130.217 108.81L130.154 108.726C130.154 108.726 130.342 108.726 130.362 108.726Z" fill="#7B9EB4"/><path d="M133.173 108.331V108.539C133.068 108.581 132.985 108.435 132.964 108.435C132.964 108.331 133.089 108.331 133.173 108.331Z" fill="#7B9EB4"/><path d="M134.984 66.9722C135.025 65.9335 134.984 64.6041 135.858 63.877C136.17 63.7939 136.42 64.4587 136.503 64.7079C137.399 67.45 135.9 74.1597 134.463 76.7148C133.381 78.6259 129.966 82.1781 129.987 84.2554C129.987 84.6085 130.258 84.9409 130.279 85.2525C130.3 85.6264 130.112 85.8342 130.071 86.2081C128.738 86.1457 128.322 85.1071 128.488 83.8815C128.551 83.4868 128.884 82.4689 129.071 82.095C129.987 80.1423 131.674 78.3143 132.86 76.5278C134.651 73.8273 134.859 71.4384 134.984 68.2809C134.984 68.1147 134.984 67.9485 134.984 67.7824C134.984 67.5123 134.984 67.2423 134.984 66.9722Z" fill="#595757"/><path d="M134.984 67.7618L134.901 67.6995C134.859 67.471 134.859 67.2425 134.901 67.0347L134.984 66.9724C134.984 67.2425 134.984 67.5125 134.984 67.7826V67.7618Z" fill="#DE9C89"/><path d="M171 107.978C171.166 106.275 170.313 105.631 168.73 105.423C168.543 105.402 164.483 105.008 161.527 106.212C160.965 105.922 160.174 105.153 159.508 105.236C158.967 105.298 157.239 106.275 156.656 106.607C156.448 106.732 152.388 108.892 149.827 109.64C149.765 109.578 150.181 108.83 150.202 108.664C150.598 106.607 150.264 104.218 149.369 102.328C148.953 101.435 148.37 100.687 147.912 99.8766C147.829 99.7312 147.87 99.565 147.62 99.6065C147.62 99.5442 147.62 99.4611 147.62 99.3988C147.6 99.2118 147.516 99.2118 147.516 99.1911C147.475 98.6925 147.62 98.3601 147.725 97.8824C147.787 97.5915 147.725 97.6746 147.725 97.5915C147.725 97.4254 147.725 97.2384 147.725 97.093C147.745 96.8229 147.787 96.9683 147.725 96.5944C147.725 96.5321 147.725 96.449 147.725 96.3867C147.704 96.1997 147.62 96.1997 147.62 96.179C147.267 94.3094 146.767 92.7722 146.226 90.9649C145.664 89.1161 145.247 87.4958 145.018 85.5639C144.373 80.1214 145.33 75.9045 145.913 70.5865C146.246 67.5537 146.455 64.5208 146.725 61.4672C147.017 58.2889 148.183 54.2589 145.33 51.8492C144.227 50.9144 140.542 49.0656 139.147 48.8995C138.148 48.7748 137.024 48.9618 138.002 50.0835C138.44 50.2289 138.856 50.5198 139.314 50.6859C142.208 51.7661 145.268 51.9115 145.539 55.8377C145.726 58.5382 145.372 61.9449 145.122 64.6454C144.539 71.4175 143.311 79.0412 141.687 85.647C141.479 86.4572 141.271 86.9973 140.917 87.7243C140.355 88.8876 139.314 90.2794 137.94 90.5079C137.086 90.6533 136.108 90.3002 135.358 90.8195C135.275 91.235 135.171 91.6712 135.587 91.8997C137.961 93.2292 141.333 90.5287 142.333 88.4514C142.811 87.4335 142.874 86.2702 143.207 85.2108C143.249 85.0654 143.29 84.733 143.457 84.7122C143.769 88.1398 144.914 91.3388 145.851 94.6002C145.893 94.7041 145.851 94.8495 145.872 94.9326C145.872 94.9534 146.017 95.0572 146.038 95.2026C146.559 97.1969 146.621 98.0485 145.539 99.8766C144.914 100.957 144.123 101.601 143.249 102.452C142.333 103.346 141.771 103.844 140.73 104.551C139.335 105.506 137.898 105.963 136.233 106.337C131.34 107.396 126.011 107.833 121.056 107.355C118.766 107.126 116.768 106.815 114.54 106.254C114.415 106.212 114.228 106.254 114.04 106.212C112.937 105.901 111.896 105.444 110.938 104.862C110.751 104.592 111.959 104.322 112.125 104.28C112.25 104.26 112.354 104.28 112.458 104.26C113.582 104.01 114.727 103.927 115.748 103.366C117.08 102.639 118.454 101.185 119.599 100.147C121.285 98.5886 122.888 97.9239 124.908 96.9476C127.614 95.6181 133.214 93.3746 134.921 91.0688C136.774 88.5553 134.026 86.2494 131.986 85.1277C129.571 86.7064 127.427 88.7214 124.908 90.134C124.908 90.134 124.866 90.2379 124.804 90.2794C124.637 90.3625 124.158 90.6118 124.012 90.4872C123.887 90.3833 123.721 89.5316 123.721 89.3239C123.721 89.0123 123.783 88.5345 123.867 88.2229C123.992 87.7243 124.554 86.7688 124.346 86.3533C124.075 85.7924 122.222 85.5639 121.618 85.5224C121.181 85.5016 120.744 85.5224 120.307 85.5224C120.036 85.2939 120.973 84.8992 121.119 84.8161C121.348 84.6707 121.597 84.5045 121.826 84.3383C121.931 83.8605 121.244 82.8842 121.139 82.3233C120.91 81.0562 121.597 80.5576 122.035 79.5397C122.118 79.332 122.097 79.062 122.18 78.8958C122.409 78.3972 123.888 77.7948 124.366 77.4832C125.053 77.0262 124.429 76.4446 124.262 75.8214C124.158 75.4059 124.054 74.6996 124.033 74.2426C124.012 73.7856 124.179 72.0407 123.846 71.8329C123.346 71.5213 121.722 71.7083 121.077 71.4798L116.31 71.2721C116.143 69.631 116.081 67.9691 115.997 66.3281C115.914 64.2508 116.247 61.5503 115.872 59.6391C115.81 59.3691 115.643 58.4758 115.289 58.6005C114.061 59.0367 114.457 60.9063 114.394 61.9242C114.29 63.7522 114.144 65.4971 114.29 67.3252L114.498 71.2721C113.124 71.3136 111.75 71.2097 110.376 71.2721C110.376 71.2721 110.272 71.3759 110.127 71.3759C109.752 71.3967 109.356 71.3552 108.961 71.3759C109.127 70.2542 109.377 69.1324 109.544 68.0107C109.96 65.2271 110.147 62.402 110.772 59.6599C110.959 58.0396 111.501 55.9831 112.271 54.5497C112.937 53.3241 114.915 51.9531 115.144 50.956C115.185 50.8106 115.331 50.2082 115.04 50.2497C114.332 50.3328 113.478 50.7067 112.937 51.1429C108.898 54.3212 108.877 64.7078 107.941 69.4856C107.712 70.6281 107.607 71.2513 106.317 71.3551C104.547 71.5213 102.757 71.0643 101.071 72.0407L85.3318 80.2668C85.2277 80.0798 85.1861 79.8306 85.1861 79.6228C85.1028 78.3557 85.311 76.9431 85.1861 75.7175C85.1652 75.489 85.0611 74.9489 84.8738 74.8243C84.4782 74.5334 82.7711 74.5127 82.209 74.4711C73.9025 73.9102 65.2837 75.1774 56.9146 74.9697H37.2829C37.1163 74.9904 36.1795 75.8629 35.9713 76.0706C34.285 77.7948 32.8486 79.789 31.2664 81.5755C30.8708 82.0117 30.2463 82.4687 29.9132 82.9257C29.4968 83.4658 29.3094 84.1721 28.8098 84.8161C27.3317 86.7688 25.3123 88.4514 24.0007 90.5287V119.424L59.1214 119.819C59.1006 120.068 58.8716 120.11 58.7675 120.213C56.7689 122.332 53.7086 124.036 51.481 126.071C51.2104 126.321 49.5657 127.941 49.7739 128.232C51.3145 128.71 53.0424 128.294 54.6038 128.003C56.9979 127.546 59.3712 126.715 61.807 126.736C60.1415 131.015 58.4552 135.295 56.7273 139.553C56.2068 140.82 55.3741 142.067 55.4782 143.5C55.4782 143.604 57.2061 143.832 57.4351 143.853C58.4136 143.957 59.4753 143.999 60.4538 144.061C61.0367 144.082 61.6613 143.957 62.2025 144.165V150.21L62.1193 150.895V154.904L62.4315 157.646L64.0762 157.854H111.646C113.062 157.709 114.436 157.75 115.81 157.189C117.767 156.4 119.557 153.679 120.931 152.079C123.138 149.503 125.386 146.948 127.385 144.206C128.218 143.085 129.508 141.464 129.654 140.052C129.8 138.556 129.529 136.873 129.654 135.357C130.695 134.069 132.152 133.093 133.589 132.262C136.608 130.496 139.897 129.187 143.02 127.65C147.496 125.427 151.93 123.101 156.406 120.878C156.635 120.837 156.51 120.92 156.552 121.024C156.864 122.021 156.302 124.804 155.636 125.635C155.198 126.175 154.428 126.549 153.928 127.131C152.554 128.751 153.012 130.081 154.907 130.87C157.301 131.846 160.986 131.618 163.359 130.642C167.398 129 167.148 126.715 168.002 122.955C168.335 121.501 169.771 115.955 169.771 115.955C169.855 115.56 170.895 108.767 170.979 107.791L171 107.978ZM119.412 108.726C119.412 108.726 119.578 108.726 119.641 108.726L119.703 108.809C120.286 108.747 121.098 108.809 121.702 108.809C123.742 108.809 125.886 108.726 127.926 108.809C128.051 108.809 128.197 108.809 128.322 108.809C128.613 108.622 129.071 108.726 129.425 108.705C129.654 108.705 129.904 108.705 130.133 108.705C130.237 108.705 130.32 108.705 130.341 108.705C130.737 108.684 131.153 108.643 131.549 108.601C131.549 108.601 131.549 108.518 131.757 108.497C132.048 108.477 132.715 108.394 132.964 108.394C132.964 108.29 133.089 108.29 133.173 108.29C135.15 108.207 138.898 107.396 140.709 106.586C142.229 105.901 144.435 103.927 145.435 102.577C145.622 102.307 145.851 102.037 146.038 101.767C146.205 101.538 146.267 101.165 146.58 100.957C146.809 100.811 146.85 100.957 146.933 100.957C147.1 101.331 147.308 101.788 147.641 102.058C147.704 102.494 148.078 103.159 148.224 103.637C148.516 104.675 148.828 106.462 148.745 107.521C148.703 108.123 148.474 108.747 148.453 109.37C148.203 109.536 148.245 109.889 148.245 110.18C148.183 110.18 148.12 110.159 148.058 110.18C147.933 110.762 147.683 111.323 147.454 111.883C147.038 112.839 145.809 115.166 145.101 115.851C144.498 116.453 144.04 116.059 143.332 115.893C139.855 115.082 136.503 113.67 133.152 112.486C132.319 112.195 131.195 111.967 130.424 111.613C129.946 111.406 130.154 111.073 130.071 110.658C129.883 109.661 129.196 110.035 128.384 109.993C126.115 109.848 124.033 109.785 121.764 109.785C117.434 109.785 113.145 110.055 108.815 110.076C107.878 110.076 106.941 110.076 106.004 110.076C105.942 109.162 106.254 108.269 106.629 107.438C106.837 106.981 107.732 105.319 108.128 105.111C108.378 104.987 109.252 105.527 109.523 105.672C112.979 107.396 115.477 108.539 119.453 108.684L119.412 108.726ZM81.9592 91.5258C86.3727 90.5495 92.3684 91.235 96.886 91.5881C97.2191 91.6089 97.5522 91.5881 97.8853 91.5881C99.6757 91.692 101.3 91.6712 102.965 90.8403C107.503 88.5968 111.979 85.5432 116.539 83.1543C116.83 82.9881 119.516 81.5963 119.62 81.7625C120.078 83.9436 118.287 84.9615 116.684 85.8963C115.123 86.7895 113.499 87.5581 111.938 88.4722C109.377 89.947 106.941 91.5881 104.339 93.0215C103.714 93.3746 102.445 94.1432 101.799 94.2886C101.612 94.3302 101.674 94.2886 101.653 94.1432C101.633 93.6239 101.778 92.8761 101.404 92.4814C101.154 92.2113 100.842 92.1074 100.508 92.2944C99.9463 92.6268 100.342 93.7901 99.7798 94.2886C99.2593 94.4756 98.718 94.434 98.1976 94.4756C93.0138 94.9118 87.83 94.0186 82.6462 94.1848C81.98 94.2055 80.7934 94.2471 80.3978 93.6239C80.2105 93.3331 80.1064 92.6891 80.2105 92.3567C80.3354 91.9205 81.5637 91.6089 81.98 91.505L81.9592 91.5258ZM80.8766 89.947C80.9599 89.7809 83.1667 88.2437 83.354 88.2229C83.4998 88.2229 84.1868 88.4514 84.4574 88.4929C86.0604 88.6799 87.9341 88.6383 89.5787 88.6176C93.1595 88.576 96.7611 88.7214 100.363 88.8045C101.258 88.8253 102.153 88.9499 103.069 88.9084C103.132 89.1992 102.84 89.1577 102.778 89.1992C101.674 90.0717 101.445 89.9678 100.071 90.0094C94.2837 90.1132 88.4962 89.8432 82.7087 90.0094C82.1882 90.0094 81.6886 90.1548 81.1473 90.1132C81.064 90.1132 80.7934 90.1756 80.8975 89.9678L80.8766 89.947ZM112.937 89.5939L112.271 92.5852C110.897 93.1046 109.606 94.3094 108.274 94.8079C106.962 95.7012 105.526 96.4282 104.089 97.093C103.111 97.1345 102.132 97.093 101.154 97.1138C98.8221 97.1138 96.4905 97.1138 94.1796 97.0099C91.0985 96.8645 88.7044 96.6568 85.6024 97.0099C84.9779 97.0722 84.2909 97.2384 83.6455 97.3007C83.5206 97.3007 83.2708 97.3423 83.1875 97.2592C84.041 96.6775 85.0403 96.1582 86.1021 96.1167C86.8307 95.8674 87.6843 95.7427 88.4546 95.7012C92.3476 95.4935 96.4488 96.0751 100.3 95.8051C101.987 95.6804 103.943 94.8079 105.422 94.0186C107.982 92.6683 110.376 90.9649 112.937 89.5939ZM82.9585 99.6481C83.1667 99.1287 83.6663 98.8172 84.166 98.651C85.4983 98.194 87.2679 98.2771 88.6419 98.4225H99.988C102.361 98.7964 103.902 98.7756 106.025 97.6331C106.65 97.3007 112.104 94.0393 112.375 94.3094C111.959 96.1167 110.356 97.6539 108.836 98.6302C108.024 99.1703 107.087 99.5234 106.254 100.064C105.671 100.437 105.13 101.102 104.589 101.414C104.464 101.476 104.401 101.538 104.235 101.518C104.172 101.081 104.318 100.458 104.235 100.064C104.11 99.4196 103.09 99.1911 102.632 99.8558C102.32 100.292 102.715 101.372 102.236 101.663C101.987 101.808 99.7798 101.435 99.2801 101.414C95.0748 101.123 90.7029 101.746 86.4352 101.414C85.5608 101.351 84.4782 101.227 83.6455 100.978C82.7711 100.728 82.5629 100.583 82.9377 99.6273L82.9585 99.6481ZM86.3727 106.109L86.4976 102.93C86.8724 102.993 87.2054 102.847 87.5385 102.826C90.6197 102.66 94.138 103.076 97.2816 103.034L103.964 103.076C104.297 103.512 104.589 103.907 105.109 104.135C105.401 104.26 106.483 104.426 106.462 104.779L103.923 110.222H85.2277L80.6685 110.492C80.6685 110.305 81.2097 109.931 81.3763 109.806C82.8336 108.622 84.4574 107.521 85.9563 106.358C86.0813 106.254 86.227 106.192 86.3727 106.129V106.109ZM81.293 112.901C82.0217 112.382 82.6879 111.821 83.6455 111.842C83.8745 111.842 84.1035 111.946 84.3533 111.946C87.3095 111.987 90.2449 111.447 93.1803 111.426H99.2177L99.9047 111.53H106.442L107.129 111.634H109.648L110.335 111.53H115.56L116.247 111.426H119.661L120.348 111.323C122.16 111.551 124.408 110.969 126.178 111.239C126.344 111.26 126.531 111.343 126.636 111.489C126.74 111.967 124.866 113.628 124.491 114.023C123.908 114.667 123.388 115.394 122.742 115.976C122.618 116.08 122.534 116.225 122.347 116.225C122.347 116.516 121.826 117.077 121.597 117.326C120.827 118.198 119.87 118.967 119.078 119.819C117.371 121.709 115.456 125.137 112.646 125.427C110.543 125.635 108.232 125.137 106.129 125.033C94.4711 125.033 82.8128 125.033 71.1544 125.033C69.2183 125.033 67.2614 125.074 65.3253 124.991C67.1781 123.35 69.1767 121.875 71.1544 120.4C74.4646 117.908 77.8996 115.29 81.293 112.881V112.901ZM131.757 87.0388C132.048 86.9142 132.236 87.1011 132.465 87.2465C136.066 89.8016 131.445 92.1905 129.259 93.3331C126.157 94.9326 122.389 96.1166 119.682 98.2978C118.079 99.5858 116.705 101.393 114.748 102.182C112.77 102.972 108.919 103.533 106.858 103.076C106.462 102.993 106.088 102.764 105.671 102.702C105.484 102.452 106.587 101.601 106.775 101.455C108.877 99.8766 111.063 99.1495 112.729 96.8853C114.144 94.9534 113.707 93.9978 113.999 91.8374C114.02 91.6089 114.228 90.4456 114.353 90.3625C117.205 89.49 117.267 92.2736 118.1 94.0393C118.246 94.3717 118.496 94.891 118.87 94.9741C120.057 95.2442 122.18 94.0601 123.2 93.4369C126.219 91.6089 128.863 89.0954 131.736 87.018L131.757 87.0388ZM122.014 89.0123C122.014 89.4069 122.555 90.6326 122.368 90.9026C121.473 91.3388 120.557 92.1074 119.682 92.5229C119.578 92.5645 119.516 92.6476 119.412 92.5645C119.287 92.4606 118.433 90.8403 118.516 90.7156C118.974 90.3833 121.618 88.6799 122.014 89.0123ZM121.119 87.1011C121.348 87.4127 120.64 87.8905 120.411 88.0359C119.578 88.576 118.558 88.8876 117.746 89.49L115.185 88.4929C114.977 88.3475 116.018 87.7451 116.122 87.6828C117.246 87.018 118.516 86.6649 119.849 86.7895C120.015 86.7895 121.056 87.0388 121.098 87.1011H121.119ZM122.513 75.7383C122.638 77.1093 122.118 77.2755 121.077 77.8987C119.328 78.9373 117.413 79.8513 115.623 80.8692C113.499 82.0741 111.438 83.3828 109.335 84.6084C108.003 85.377 106.358 86.4987 105.026 87.1219C104.943 87.1635 104.859 87.2258 104.755 87.205C104.422 86.4779 104.755 85.6886 104.006 85.19C103.819 85.0654 103.756 85.0654 103.548 85.1277C102.611 85.4601 103.007 86.4572 102.632 87.1842C102.216 87.2258 101.799 87.1842 101.383 87.1842C96.8652 87.4543 92.0353 87.4543 87.5385 87.1842C86.3103 87.1219 84.7905 87.1219 83.6247 86.6857C83.2291 86.5403 83.125 86.4987 83.1667 86.0209C83.3332 83.9436 86.9764 84.0683 88.4337 84.0683C92.6807 84.5253 97.0109 84.0683 101.279 84.2552C101.882 84.276 102.59 84.463 103.173 84.463C104.859 84.4837 106.254 83.2997 107.67 82.5311C109.419 81.5963 111.209 80.7238 112.916 79.7682C115.997 78.0441 118.912 76.0291 122.118 74.5334C122.264 74.5542 122.451 75.5098 122.451 75.6967L122.513 75.7383ZM87.143 81.0769C87.4969 80.89 87.9341 80.6407 88.3088 80.5992C88.4337 80.433 89.891 79.7059 90.2033 79.5397C94.5127 77.2755 98.9054 75.1566 103.215 72.9131C108.003 72.8716 112.812 72.9754 117.6 73.1001H121.514C121.66 73.2455 120.91 73.6817 120.806 73.7441C119.932 74.3049 118.995 74.8035 118.1 75.302C115.123 76.9847 112.083 78.5842 109.065 80.2045C106.067 81.8248 104.485 83.3412 100.842 83.0088C95.8035 82.5518 90.7238 82.3857 85.6857 82.8011L83.7288 83.1958L83.6871 82.9881C84.8113 82.3026 85.9563 81.6794 87.1222 81.0562L87.143 81.0769ZM35.5133 79.0412C36.1587 78.2103 37.2829 76.7977 38.2613 76.4861C39.5105 76.0706 41.3633 76.3199 42.6749 76.403H71.092L71.779 76.5069H81.8759C81.8967 76.6523 81.8343 76.7146 81.751 76.8392C81.3555 77.504 79.3569 79.4982 78.6907 79.8929C77.3375 80.7238 75.2349 80.4122 73.6943 80.3083H40.4889L39.8019 80.2045H34.8263C34.7014 80.0798 35.4092 79.2281 35.5341 79.062L35.5133 79.0412ZM78.3576 87.7243L76.5672 88.7838C76.4631 87.205 75.7761 85.3977 76.8795 84.0267C77.0044 83.8813 77.9204 82.905 78.087 83.0712C78.2535 84.6291 78.7115 86.1456 78.3784 87.7036L78.3576 87.7243ZM33.598 81.8248C35.3468 81.2431 38.2405 81.534 40.135 81.5963C51.6892 81.9494 63.4308 81.16 75.0059 81.7001C75.5471 81.7209 76.1092 81.6794 76.6713 81.7001C76.7338 82.0948 76.484 82.5311 76.2133 82.8011C74.6936 84.3591 69.7388 83.7359 67.6778 83.5905H47.6921L44.9857 83.2997H36.1379C35.3884 83.4035 34.6389 83.4451 33.8895 83.5074C33.1608 83.5697 32.4322 83.6736 31.6827 83.6113C31.8701 82.8219 32.8069 82.0948 33.5564 81.8456L33.598 81.8248ZM58.247 118.136C49.1702 118.531 40.0309 118.24 30.9541 118.136H25.2915V91.6504L25.5413 91.505C28.4351 91.505 31.2872 91.692 34.1809 91.6089L34.8679 91.7128H38.4903L39.1774 91.8166C48.8371 91.962 58.5177 91.6089 68.1982 91.8166C68.6146 91.8166 68.9477 92.1282 68.8436 91.3804C68.6771 90.1963 66.9699 90.4041 66.0956 90.4248C61.5155 90.5495 57.0187 90.4664 52.4387 90.321C44.3611 90.0717 36.3044 90.6949 28.2477 90.2171C27.6231 90.1756 26.9986 90.2379 26.3949 90.1132C26.3532 90.0717 26.9153 89.3654 26.9986 89.2615C27.6856 88.4306 30.4544 85.3147 31.308 85.0446C31.537 84.9823 32.0158 84.92 32.2656 84.8992C34.6389 84.733 37.2829 85.3147 39.6978 84.8992C50.3568 85.2316 61.2865 84.463 71.9247 84.8992C72.4868 84.92 73.0906 85.0861 73.6735 85.0031C73.7568 85.0654 73.4861 85.3977 73.4237 85.5016C72.3411 87.018 70.176 87.9113 69.5722 89.8224C69.9262 89.9471 70.1343 90.0717 70.5299 90.0301C71.6957 89.9263 73.2155 87.5374 74.1939 86.7688C74.3813 86.6234 74.527 86.4779 74.7977 86.5195L75.4222 90.3625C75.5471 90.778 77.0044 90.321 77.3375 90.1963C78.8156 89.6562 80.1896 88.4514 80.1272 86.7688C80.0855 85.8548 79.919 84.5045 79.8149 83.5697C79.7525 83.0296 79.4194 82.1571 79.5443 81.6794L82.0841 78.5011C82.3548 78.2103 83.3957 77.1093 83.6455 77.8571C83.9578 78.7919 84.1035 79.9967 83.6871 80.9108C83.1875 82.0325 81.7927 82.3649 81.0848 83.3204C80.1896 84.5461 80.1272 86.0833 80.9391 87.3504C81.0848 87.5581 81.3347 87.6828 81.3138 87.9113C80.5227 88.4098 79.5443 88.9915 78.8573 89.6147C77.629 90.7157 77.3583 92.149 77.5041 93.7693C77.5457 94.1848 78.0453 94.5587 78.3784 94.8079C78.7532 95.078 79.2944 95.3896 79.7733 95.4311C80.606 95.5142 81.6053 95.265 82.3339 95.8881C81.9592 96.8022 80.835 97.2176 80.3978 98.0693C79.9606 98.9002 79.9606 100.708 80.5227 101.497C81.4387 102.785 83.6039 102.556 84.9362 102.889C85.2069 103.74 85.3526 104.841 84.6864 105.548C84.2492 105.984 82.0633 107.646 81.522 107.812C81.4179 107.853 81.3347 107.874 81.2097 107.853C81.064 106.171 81.0016 104.467 80.5019 102.847C80.1064 102.577 78.6074 103.782 78.2535 104.031C77.9829 104.239 76.255 105.672 76.2133 105.797C76.026 107.48 76.6921 109.162 76.3799 110.824L72.3203 111.239C72.0705 111.239 71.092 111.281 70.9671 111.198C70.7381 111.032 70.9671 110.512 70.9671 110.284C71.2585 104.592 71.2585 98.8795 71.2794 93.1461C71.1336 92.3152 71.1961 91.4635 70.8838 90.6533C69.6139 90.3417 69.4057 91.8166 69.3641 92.7514C69.3432 93.2707 69.4682 93.6862 69.4682 94.1432C69.6139 99.7519 69.5931 105.402 69.5098 111.032L69.0101 111.925C67.1157 113.4 65.3669 115.041 63.4933 116.537C62.8271 117.056 61.8903 117.887 61.0575 118.011C60.1415 118.136 59.2047 118.095 58.2678 118.136H58.247ZM79.5651 109.162C79.1071 109.598 78.7115 110.159 78.2743 110.595C78.1494 110.72 78.0662 110.866 77.8788 110.845C77.7331 108.996 77.2334 107.085 78.6907 105.589C78.7532 105.506 79.3361 105.07 79.3985 105.132L79.5859 109.162H79.5651ZM59.7251 125.614C57.6849 126.051 55.5615 126.466 53.4796 126.653C54.6246 125.552 55.8321 124.493 57.0396 123.454C60.5995 120.421 64.4509 117.118 68.2399 114.397C69.1142 113.774 70.0303 113.026 71.1128 112.839C73.2363 112.486 75.6512 112.548 77.8163 112.32C78.5033 112.257 79.1904 112.091 79.8774 112.029C80.0647 112.195 78.2327 113.649 78.0662 113.774C76.8587 114.709 75.5471 115.456 74.3397 116.35C71.6749 118.282 69.1142 120.359 66.4287 122.27C65.3877 123.018 64.097 124.036 62.9936 124.659C61.9735 125.22 60.8493 125.365 59.7251 125.614ZM62.265 142.461H57.3935L63.5765 126.341L113.083 126.757C113.208 126.882 112.146 129.395 112 129.727C110.439 133.342 108.648 136.977 106.983 140.55C106.754 141.049 105.817 143.043 105.38 143.168H99.0719L94.367 142.773H84.624L83.937 142.669H75.0059L74.3188 142.565H62.9728L62.2858 142.461H62.265ZM112.25 156.608H68.1774C66.6577 156.338 65.1587 156.255 63.6182 156.296V144.186H67.886L68.573 144.082H81.522L82.209 144.186H84.0202L87.0181 144.476H106.483C106.65 144.414 107.587 142.711 107.732 142.399C109.502 138.868 110.793 134.796 112.75 131.389C112.916 131.099 113.104 130.725 113.374 130.558C113.374 130.912 113.353 131.265 113.374 131.618C113.77 137.143 113.562 142.711 114.082 148.236V156.255L112.229 156.608H112.25ZM128.051 138.514C127.843 139.47 127.905 140.571 127.614 141.485C127.343 142.358 125.033 145.037 124.325 145.91C122.867 147.717 121.327 149.566 119.807 151.311C118.745 152.536 117.309 154.302 116.101 155.32C115.997 155.403 115.977 155.507 115.81 155.465L114.811 127.131C114.811 127.131 116.039 127.692 116.226 127.775C119.932 129.707 123.679 131.701 127.323 133.716C127.656 133.903 128.218 134.111 128.259 134.485C128.405 135.689 127.968 137.247 128.051 138.494V138.514ZM133.027 129.665C131.965 130.87 130.882 132.075 129.8 133.259L115.831 125.76C115.789 125.614 115.872 125.594 115.935 125.511C116.872 124.285 118.225 122.893 119.287 121.751C121.035 119.881 122.971 118.136 124.699 116.246C125.699 115.186 126.615 113.898 127.614 112.839C127.801 112.631 128.01 112.424 128.239 112.257L143.228 117.804C143.353 117.908 143.353 117.908 143.29 118.053C143.124 118.365 142.478 119.009 142.187 119.32C139.127 122.769 136.087 126.217 133.048 129.665H133.027ZM148.828 123.558C144.956 125.344 139.73 126.965 136.274 129.27C135.941 129.499 135.067 130.455 134.671 130.226C134.484 130.122 134.609 129.956 134.671 129.831C134.88 129.478 135.379 129.084 135.65 128.772C138.19 125.905 140.709 122.81 143.332 120.068C143.686 119.715 144.165 119.175 144.539 118.863C144.977 118.51 145.664 118.261 146.038 117.845C146.371 117.492 146.475 116.931 146.725 116.516C147.62 114.999 148.661 113.815 149.119 112.05C149.182 111.821 149.119 111.489 149.328 111.239C149.432 111.094 149.661 111.032 149.827 110.949C149.869 110.928 149.973 110.969 150.035 110.845C150.202 110.907 150.327 110.741 150.327 110.741C152.034 110.263 153.741 109.557 155.323 108.767C156.239 108.31 158.758 106.628 159.674 106.794C160.299 106.898 160.694 107.583 160.778 108.165C160.799 108.331 160.778 108.497 160.778 108.664H160.986C160.944 108.975 161.048 109.266 161.09 109.557C161.111 109.723 161.173 110.263 161.194 110.367C161.194 110.367 161.298 110.782 161.298 110.866C161.298 110.866 161.402 111.26 161.402 111.364C161.402 111.489 161.423 111.655 161.402 111.759C161.506 111.759 161.506 111.883 161.506 111.967C161.527 112.34 161.548 112.61 161.61 112.964C161.673 113.317 161.798 113.649 161.819 114.002C161.86 114.605 161.673 115.166 161.715 115.768C161.423 115.893 161.486 116.246 161.381 116.495C160.674 118.136 159.591 118.198 158.113 118.822C154.803 120.234 152.117 122.083 148.87 123.579L148.828 123.558ZM168.939 112.61C168.814 113.774 167.835 116.391 167.898 117.451C167.898 117.492 167.898 117.513 167.898 117.554L167.814 117.617C167.814 117.617 167.814 117.783 167.814 117.845C167.752 118.136 167.585 118.448 167.523 118.697C166.898 121.211 166.44 126.279 164.858 128.149C163.297 129.977 158.217 130.538 156.052 129.831C155.719 129.727 154.782 129.291 154.761 128.917C154.761 128.149 156.635 126.944 157.114 126.258C157.967 125.033 158.113 122.976 158.071 121.501C158.071 121.148 157.78 120.878 158.238 120.67C158.633 120.483 159.196 120.525 159.654 120.276C160.611 119.777 162.048 118.468 162.443 117.451C162.485 117.347 162.755 117.139 162.776 116.62C162.776 116.557 163.297 111.343 163.172 109.765C163.13 109.079 163.255 108.788 162.922 108.103C162.61 107.5 162.027 107.272 163.047 106.939C164.067 106.586 166.045 106.566 167.107 106.732C167.898 106.856 168.668 107.147 169.438 107.396L169.501 107.521C169.605 108.954 169.084 111.094 168.939 112.59V112.61Z" fill="#595757"/><path fill-rule="evenodd" clip-rule="evenodd" d="M137.482 28.8326C137.149 27.6486 136.524 25.4674 135.463 23.7848C134.401 22.1022 132.902 20.9181 131.507 20.6273C130.112 20.3365 128.822 20.9596 127.114 21.8321C125.407 22.7046 123.263 23.8471 120.619 24.9481C117.975 26.049 114.811 27.0877 112.458 27.6693C110.106 28.251 108.565 28.3964 107.503 26.3191C106.463 24.2626 105.9 19.9833 106.254 16.805C106.608 13.606 107.857 11.5079 109.565 9.84605C111.272 8.1842 113.458 6.95859 116.601 5.89916C119.745 4.83973 123.825 3.92572 127.468 3.61412C131.112 3.30253 134.297 3.57258 136.857 4.4035C139.418 5.2552 141.313 6.64699 142.832 9.4929C144.352 12.3388 145.476 16.6181 146.226 19.921C146.975 23.2239 147.371 25.5713 147.475 27.2954C147.579 29.0196 147.392 30.0998 146.934 30.8061C146.476 31.5124 145.726 31.8032 145.185 31.5331C144.623 31.2631 144.248 30.4322 143.623 29.9544C142.999 29.4974 142.125 29.3935 141.271 29.622C140.397 29.8505 139.522 30.3906 138.96 30.5776C138.398 30.7438 138.148 30.5568 138.002 30.3698C137.857 30.1829 137.836 30.0167 137.503 28.8326H137.482Z" fill="#DFAF7B"/><path fill-rule="evenodd" clip-rule="evenodd" d="M115.748 36.1864C116.039 35.4178 115.956 34.296 115.498 33.6313C115.04 32.9665 114.207 32.7173 113.478 32.7588C112.729 32.8003 112.063 33.1327 111.626 33.652C111.188 34.1921 110.959 34.9192 111.063 35.5424C111.147 36.1656 111.563 36.6849 111.855 36.9965C112.146 37.3081 112.354 37.3912 112.729 37.4951C113.104 37.5989 113.645 37.682 114.249 37.5158C114.832 37.3496 115.477 36.9342 115.768 36.1656L115.748 36.1864Z" fill="#FEE8B1"/><path fill-rule="evenodd" clip-rule="evenodd" d="M129.133 35.4595C129.446 34.6909 130.237 33.9223 131.028 33.7146C131.819 33.5068 132.589 33.9015 133.151 34.4001C133.713 34.9194 134.047 35.5634 134.088 36.2489C134.13 36.9344 133.88 37.6822 133.464 38.1392C133.068 38.5962 132.506 38.804 132.006 38.8247C131.507 38.8455 131.069 38.7001 130.611 38.4924C130.153 38.2639 129.695 37.973 129.362 37.4537C129.029 36.9344 128.842 36.2073 129.133 35.4387V35.4595Z" fill="#FEE8B1"/><path fill-rule="evenodd" clip-rule="evenodd" d="M111.396 42.6053C112.77 42.9584 114.394 43.5193 116.039 43.9555C119.058 44.7449 119.224 44.3295 120.14 47.2585C118.121 49.9174 117.434 49.9797 116.955 50.8937L118.308 53.0334C119.849 54.3213 120.182 56.5025 121.868 57.0634C123.013 55.7546 123.117 53.1996 123.721 51.4546L128.884 56.9595C129.966 56.1701 133.984 50.4783 134.338 49.3981C133.693 47.6947 132.923 46.8845 131.715 45.5966C129.488 46.0536 129.175 48.0894 128.051 45.472C129.966 43.5609 133.526 44.558 136.045 42.6676C136.67 42.2106 138.002 40.5488 138.398 39.9256C139.168 38.6584 139.043 37.3082 139.959 36.8512C140.563 38.4299 138.689 40.4241 142.832 40.9227C145.31 39.0116 144.269 38.783 144.019 36.1033C148.474 32.0318 143.269 26.1738 141 28.9158C142.187 31.1801 141.666 28.7081 143.353 30.37C145.268 32.2188 143.956 35.9164 141.083 35.6671C138.315 35.4386 141.104 35.1893 139.376 33.4028C137.669 34.7323 138.002 38.6376 135.9 40.7149C132.923 43.6439 129.488 41.9198 126.531 43.8725L127.031 47.3623C120.369 51.4754 121.847 45.3889 120.494 43.8932C118.183 42.7507 113.707 42.0652 112.167 41.0265C108.232 38.3884 109.814 33.4859 108.357 32.0318C106.317 33.4444 107.961 37.5159 108.17 38.7207C108.378 39.9256 110.022 42.2314 111.396 42.5845V42.6053ZM124.97 49.9797C125.074 50.0836 125.345 50.8522 125.595 51.143L128.926 54.6744L132.819 49.1696L131.028 47.4454C130.237 47.7155 125.366 49.6681 124.97 49.9797ZM118.704 50.3952L121.264 54.3836C121.722 53.1996 122.368 51.2884 122.18 50.0628C120.182 49.2111 120.348 49.502 118.704 50.416V50.3952ZM142.333 39.2401C142.437 38.7 143.894 38.8661 142.291 37.2458C141.354 38.5753 141.333 38.1806 142.333 39.2401Z" fill="#595757"/><path fill-rule="evenodd" clip-rule="evenodd" d="M104.172 27.1501C107.607 25.7791 103.423 24.6989 105.942 15.995C109.023 5.27605 118.266 0.519017 128.967 1.70308C130.528 1.86927 133.131 3.09488 134.192 2.51323C134.38 1.18376 135.317 1.16298 129.779 0.290514C127.51 -0.0626288 125.907 -0.0626288 123.575 0.186648C107.149 1.82772 101.174 16.3273 104.193 27.1709L104.172 27.1501Z" fill="#595757"/><path fill-rule="evenodd" clip-rule="evenodd" d="M146.267 14.1461C147.537 18.737 148.744 21.4375 147.058 26.423C146.475 28.1472 146.017 27.3786 146.87 28.6873C150.659 28.8742 152.138 10.8848 139.168 3.92579C137.585 3.07409 139.501 3.11564 137.211 3.48955C138.439 6.75093 144.539 7.81035 146.288 14.1461H146.267Z" fill="#595757"/><path fill-rule="evenodd" clip-rule="evenodd" d="M122.888 41.6705C124.908 41.0888 125.241 38.8869 125.678 36.8719L121.16 37.142C121.577 39.2816 121.639 39.9463 122.888 41.6705ZM127.323 35.7709C127.323 38.0352 126.157 42.8338 123.284 42.9584C120.182 43.1038 119.037 37.7652 119.224 35.2932C120.619 35.1477 126.094 35.2516 127.323 35.7709Z" fill="#595757"/><path fill-rule="evenodd" clip-rule="evenodd" d="M107.129 29.7467C110.044 29.4559 121.202 18.5085 121.181 15.4133C118.059 16.6389 115.977 21.6245 110.064 26.0699C108.461 27.2748 106.088 28.1888 107.129 29.7467Z" fill="#595757"/><path fill-rule="evenodd" clip-rule="evenodd" d="M137.669 32.5509C139.98 31.1799 137.669 26.4229 136.482 24.2625C135.129 21.7905 133.276 19.4016 130.528 18.4875C129.966 21.9359 134.171 20.1702 136.524 28.1055C136.982 29.6427 136.857 31.6785 137.669 32.5301V32.5509Z" fill="#595757"/><path fill-rule="evenodd" clip-rule="evenodd" d="M121.098 25.3014C124.158 25.7584 131.424 17.7192 130.862 14.624C129.071 15.3303 127.697 18.467 126.261 20.1289C124.408 22.2893 121.077 23.3903 121.098 25.3014Z" fill="#595757"/><path fill-rule="evenodd" clip-rule="evenodd" d="M114.582 30.2662C115.789 31.3672 114.957 30.8271 116.643 31.3049C119.766 27.171 113.957 25.9662 114.582 30.2662Z" fill="#595757"/><path fill-rule="evenodd" clip-rule="evenodd" d="M127.989 29.9547C128.655 31.575 128.051 30.9103 129.592 31.7827L131.403 30.474C131.007 28.5629 131.195 28.833 129.446 28.1475C128.509 28.7914 128.447 28.6668 127.989 29.9547Z" fill="#595757"/><path fill-rule="evenodd" clip-rule="evenodd" d="M121.91 33.0706L119.973 32.572C120.723 34.2546 120.869 34.1092 121.91 33.0706Z" fill="#595757"/></g><defs><clipPath id="clip0_2118_3471"><rect width="195" height="157" fill="white"/></clipPath></defs></svg>