<svg width="157" height="68" fill="none" xmlns="http://www.w3.org/2000/svg"><g clip-path="url(#clip0_2118_1671)"><path d="M44.9046 33.3899V38.8476H70.5138C69.8713 40.7334 66.061 46.8346 61.6746 51.3827C59.0384 49.3416 56.1585 47.3671 53.3007 45.7918L49.9112 49.9628C49.9112 49.9628 61.3866 58.46 66.0831 67.1569L72.9728 61.3886C72.9728 61.3886 70.1371 58.46 66.0166 54.9103C77.5142 46.5684 82.255 37.3612 82.255 37.3612L77.6249 33.3899H44.9268H44.9046ZM30.6379 35.3423L18.7416 36.5181L17.058 26.8228L8.88345 28.2649L10.4563 37.339L0 38.3817L0.531678 43.8173L11.4089 42.7302L15.7953 67.9778L23.9698 66.5357L19.6942 41.9093L31.1696 40.7778C31.1696 41.7984 30.0176 46.1246 25.9857 49.63L29.0429 52.9579C38.1922 47.4558 41.5595 38.3595 41.5595 38.3595L36.7301 34.7432L30.6601 35.3423H30.6379ZM102.769 33.3899C103.744 31.4153 104.297 29.8401 104.585 28.9971L95.2589 26.5122C95.2589 26.5122 93.8411 39.8682 83.8722 46.6793L86.1318 50.4287C92.4455 47.0564 96.6767 42.7524 99.5123 38.8476H109.703C109.149 42.3752 108.041 45.3925 106.579 47.9883C103.301 45.6809 99.4902 44.3054 98.4047 44.0835L95.0817 47.4336C95.0817 47.4336 100.133 50.2512 102.414 53.5347C95.0152 61.1445 84.9355 62.9638 84.9355 62.9638L85.7552 67.1791C116.77 62.8529 118.852 37.1393 118.852 37.1393L113.845 33.3677H102.813L102.769 33.3899ZM145.946 46.0803C151.639 41.4878 154.209 37.2946 154.209 37.2946L149.113 33.3899H142.556V26.5122H134.67V33.3899H123.859V38.8476H143.199C135.246 50.0294 121.466 52.8248 121.466 52.8248L122.596 56.5964C127.137 55.7533 131.147 54.4444 134.647 52.9135V67.9778H142.534V50.1181C147.275 52.9135 152.215 58.815 152.215 58.815L156.978 52.3145C153.611 49.3638 148.427 47.0564 145.946 46.0581" fill="#0A3190"/><path d="M1.59504 1.19804V9.45122H0.598145V0.199675H6.40229V1.22023H1.59504V1.19804Z" fill="#231815"/><path d="M23.7925 14.8646C23.5267 15.0865 23.2166 15.2639 21.9095 15.2639C20.2702 15.2639 19.6277 15.2196 19.6277 13.8884C19.6277 9.38467 19.6277 8.89657 19.3841 7.98695L21.3778 8.36411C21.3778 8.36411 21.4665 8.36411 21.4886 8.40848C21.7101 7.5876 21.7323 7.52104 21.7544 7.23263H16.482C16.5263 7.41011 16.6149 7.7429 16.6149 8.18662C16.6149 8.89657 16.2604 9.73964 15.4851 9.73964C14.9312 9.73964 14.599 9.22936 14.6654 8.6969C14.5768 8.74127 14.466 8.80783 14.2445 8.80783C13.6685 8.80783 13.6021 8.51941 13.4691 7.54323C13.3141 7.60979 13.1811 7.67635 12.7381 7.85383C12.7381 9.11843 12.7381 12.646 12.7824 13.7331C12.7824 13.9106 12.8267 14.6871 12.8267 14.8424C12.8267 15.5746 12.3836 15.8186 11.8298 15.8186C11.4753 15.8186 11.0766 15.8186 11.0766 15.153C11.0766 14.4431 11.143 11.337 11.143 10.7158C11.0766 10.8268 11.0323 10.8711 10.7221 10.9821C10.2348 12.3354 9.59232 13.6 8.52896 14.8424L8.39604 14.798C8.66188 14.0881 9.23787 11.8251 9.19356 9.69527L10.8107 10.2721C11.0766 10.3608 11.0987 10.383 11.1652 10.4718V8.40848C10.6557 8.58597 9.74739 8.87439 9.63663 8.91876C9.48155 9.29592 9.43725 9.42904 9.21571 9.42904C9.03849 9.42904 8.99418 9.27374 8.88342 8.96313L8.28528 7.18825C8.59542 7.23263 8.90557 7.29918 9.43725 7.29918C9.85816 7.29918 10.3677 7.29918 10.8772 7.25481C11.7633 5.52431 12.6052 3.74943 12.9375 1.81925L14.754 2.8398C15.0199 2.99511 15.1085 3.06166 15.1085 3.21697C15.1085 3.41664 15.0199 3.46101 14.2888 3.72724C14.0894 3.99347 12.5387 6.14551 11.4753 7.23263C12.5165 7.18825 12.6938 7.16607 13.3805 7.1217C13.1811 6.4783 13.0925 6.30082 12.8488 5.92365L12.9596 5.81272C14.178 6.36737 15.2414 6.89984 15.2414 7.94258C15.6623 7.41011 15.8174 7.18825 15.9281 6.12333H16.1054C16.2383 6.45612 16.3048 6.38956 16.4155 6.74454H21.7988L22.3304 6.323C22.3304 6.323 22.5077 6.1677 22.5963 6.1677C22.6849 6.1677 22.7956 6.27863 22.8621 6.323L24.0362 7.52104C24.0362 7.52104 24.2135 7.72072 24.2135 7.89821C24.2135 8.07569 24.0584 8.16444 23.9033 8.18662C23.7925 8.18662 23.3052 8.25318 23.1944 8.27537C22.6627 8.5416 21.6437 9.02969 21.3114 9.34029C21.2671 10.3387 21.2671 11.6698 21.2671 12.8013C21.2671 13.5334 21.2671 13.6 21.7544 13.6C21.9538 13.6 22.4855 13.6 22.6184 13.4225C22.7292 13.245 22.7735 13.0897 23.1279 11.5367H23.3052C23.3495 11.8029 23.7261 13.3338 23.8812 13.4225C24.1027 13.5334 24.3021 13.6222 24.3021 13.9993C24.3021 14.3543 24.1027 14.7315 23.8369 14.9533L23.7925 14.8646ZM12.5387 1.5752C11.8741 2.35171 11.6969 2.5292 10.8107 3.39445C11.2317 3.77162 11.564 4.28189 11.564 4.81436C11.564 5.43556 10.8994 5.70179 10.5671 5.70179C10.0575 5.70179 9.90246 5.28026 9.68093 4.54812C9.4594 3.81599 9.1271 3.12822 8.63973 2.57357L8.70619 2.46264C9.10495 2.57357 9.74739 2.72887 10.3455 3.06166C10.7 1.95237 10.988 0.798695 11.0544 0L12.9375 0.820881C12.9375 0.820881 13.2476 0.953997 13.2476 1.17586C13.2476 1.39772 13.0482 1.44209 12.5387 1.5752ZM14.4439 12.8013C13.735 12.8013 13.7128 12.291 13.6464 11.3592C13.6464 11.0042 13.5577 10.3165 13.1368 9.53997L13.2476 9.42904C14.4882 10.1834 15.3743 10.738 15.3743 11.8251C15.3743 12.291 15.042 12.8235 14.4439 12.8235V12.8013ZM18.7859 9.51778C18.5865 11.8695 17.6561 14.3987 13.9344 15.7077L13.8679 15.5967C14.599 15.0643 17.058 13.3116 17.058 9.4956C17.058 9.07406 17.0137 8.58597 16.9915 8.12007L18.8745 8.71909C19.0961 8.78564 19.2511 8.83002 19.2511 9.02969C19.2511 9.20718 19.1404 9.31811 18.8081 9.51778H18.7859ZM23.6596 2.88418H19.9157V4.52594H20.9569L21.5994 3.74943C21.5994 3.74943 21.7544 3.54976 21.8652 3.54976C21.976 3.54976 22.0646 3.59413 22.1975 3.72724L23.1723 4.61468C23.1723 4.61468 23.3495 4.76998 23.3495 4.88091C23.3495 5.03622 23.2166 5.12496 23.0836 5.12496H17.7004C16.5041 5.12496 16.1497 5.16933 15.8395 5.23589L15.5737 4.43719C16.5263 4.52594 17.5453 4.54812 18.2542 4.54812C18.2542 4.28189 18.2542 3.03948 18.2542 2.90636H17.2573C16.194 2.90636 15.8174 2.95073 15.3743 3.01729L15.1085 2.2186C16.1497 2.32953 17.3681 2.32953 17.5675 2.32953H18.2542C18.2542 1.81925 18.2099 0.798695 18.0327 0.11093L20.1594 0.554649C20.4917 0.621207 20.536 0.687765 20.536 0.820881C20.536 0.976183 20.2037 1.24241 19.96 1.44209V2.32953H21.4443L22.0867 1.4199C22.1754 1.28679 22.264 1.19804 22.3526 1.19804C22.4634 1.19804 22.552 1.2646 22.6849 1.39772L23.8369 2.41827C23.8369 2.41827 24.0141 2.57357 24.0141 2.6845C24.0141 2.8398 23.8812 2.90636 23.7482 2.90636L23.6596 2.88418Z" fill="#231815"/><path d="M33.54 1.02056C33.7616 0.687766 34.2933 0.953998 34.2933 0.953998C34.6477 1.1093 35.0465 1.37553 35.4452 1.86362C35.6668 2.15204 35.7332 2.32953 35.7332 2.50702C35.7332 2.92855 35.4452 3.12822 34.8471 3.50538C34.4262 3.77162 31.8121 5.8571 30.7487 6.81109C30.1506 7.34356 29.9512 7.54323 29.9512 7.76509C29.9512 8.03132 30.5051 8.47504 30.7044 8.60816L33.8502 11.0708C34.3819 11.4701 35.9326 12.7569 35.9104 13.9328C35.9104 14.5762 35.5781 15.0643 35.0686 15.0421C34.5369 15.0421 34.249 14.5762 33.6065 13.5113C32.9862 12.4907 32.4767 11.7586 29.5082 8.94095C28.91 8.3863 28.7771 8.07569 28.7771 7.78728C28.7771 7.32137 29.0872 7.01077 29.8848 6.21207C32.4545 3.6385 32.521 3.54976 33.2299 2.66232C33.3628 2.5292 33.6065 2.17423 33.6065 1.90799C33.6065 1.90799 33.6065 1.68613 33.4957 1.37553C33.385 1.08711 33.4957 0.953998 33.4957 0.953998L33.54 1.02056Z" fill="#231815"/><path d="M39.6986 15.7299V14.7093H44.5059V6.45612H45.5028V15.7299H39.6986Z" fill="#231815"/><path d="M50.7087 3.68287C50.9967 3.92692 51.4841 4.17096 52.4145 4.17096C52.7247 4.17096 53.3007 4.17096 54.0982 4.03785C54.3419 3.61631 54.8292 2.77325 54.8292 2.39609C54.8292 2.12985 54.7185 1.97455 54.5413 1.86362C54.5413 1.86362 54.1646 1.66395 54.1868 1.44209C54.2311 1.13149 54.7406 1.04274 54.7406 1.04274C54.8735 1.02056 55.0286 0.998369 55.2059 0.998369C56.1363 0.998369 56.8673 1.5752 56.8673 1.93018C56.8673 2.12985 56.823 2.19641 56.5129 2.59576C55.8483 3.4832 55.7818 3.57194 55.6932 3.70506C55.9591 3.61631 56.3578 3.50538 56.956 3.26134C57.3769 3.06166 57.687 2.92855 57.8421 2.92855C58.1965 2.92855 58.9497 3.28352 58.9497 3.70506C58.9497 4.10441 58.551 4.19315 58.0193 4.32626C56.6015 4.68124 55.6711 4.92529 54.7628 5.08059C54.4969 5.43556 53.3671 7.07733 53.1678 7.4323C53.7437 7.09951 54.4305 6.94421 55.1172 6.94421C55.9812 6.94421 56.6458 7.34356 57.0224 8.29755C57.3769 8.09788 59.0162 7.32137 59.3485 7.14388C59.703 6.98858 60.2789 6.67798 60.2789 6.41175C60.2789 6.41175 60.2789 6.25644 60.2346 6.07896C60.146 5.8571 60.1903 5.74617 60.3232 5.72398C60.4119 5.7018 60.5891 5.72398 60.7663 5.72398C61.7632 5.92365 62.45 6.83328 62.45 7.36574C62.45 7.89821 62.2063 7.96476 61.4088 8.05351C59.9909 8.25318 58.5953 8.65253 57.2439 9.16281C57.3104 9.51778 57.3769 9.93932 57.3769 10.5605C57.3769 10.9377 57.3769 12.4907 56.5129 12.4907C56.3135 12.4907 55.6489 12.402 55.6489 11.1374C55.6489 10.9377 55.6489 10.0502 55.6489 9.87276C54.2311 10.6936 53.3671 11.7586 53.3671 12.402C53.3671 13.3781 54.7849 13.4891 55.7597 13.4891C56.0255 13.4891 56.8452 13.4891 57.6206 13.356C57.8199 13.3116 58.7725 13.1563 58.8833 13.1563C59.9245 13.1563 60.1903 14.0215 60.1903 14.2878C60.1903 14.7537 59.7473 14.9533 59.0605 15.0199C58.3516 15.0865 57.6427 15.1308 56.9338 15.1308C55.0508 15.1308 53.9653 14.7093 53.5001 14.4653C52.9019 14.1547 52.481 13.6887 52.481 12.8679C52.481 11.3148 54.5856 9.78401 55.5603 9.11843C55.516 8.65253 55.4938 8.47504 55.3609 8.25318C55.2723 8.05351 54.94 7.54323 54.4748 7.54323C53.1234 7.54323 52.5032 8.5416 51.9715 9.4956C51.329 10.6049 51.2404 10.6936 50.9303 10.6936C50.4429 10.6936 50.1992 9.93932 50.1992 9.51778C50.1992 9.07406 50.3321 8.91876 51.1297 8.07569C51.9272 7.21044 52.6139 6.23426 53.2564 5.25808C51.3733 5.32463 50.6866 4.88091 50.4651 3.81599C50.4651 3.81599 50.4208 3.6385 50.4651 3.59413C50.5315 3.54976 50.5758 3.59413 50.6423 3.66069L50.7087 3.68287Z" fill="#231815"/><path d="M79.4193 15.8408C76.0963 15.1086 74.3462 13.7109 73.3715 12.8679C71.0233 14.6427 68.387 15.4193 65.64 15.6411V15.508C67.0135 15.153 69.6719 14.31 72.3524 11.8473C70.5359 9.73964 70.0042 7.7429 69.8491 7.05514H69.4504C68.4092 7.05514 68.0326 7.09951 67.5895 7.16607L67.3237 6.30082C68.3649 6.38956 69.5833 6.41175 69.7605 6.41175H72.3081C72.3081 5.74617 72.3081 3.70506 72.3081 3.61631H67.9883C66.9471 3.61631 66.5705 3.66069 66.1274 3.72724L65.8615 2.86199C66.9028 2.97292 68.1212 2.97292 68.3206 2.97292H72.3081C72.2638 1.39772 72.2638 1.44209 71.9315 0.133116L74.6121 0.709951C74.7893 0.754323 74.9001 0.820881 74.9001 0.976183C74.9001 1.08711 74.8336 1.17586 74.745 1.24241C74.6342 1.30897 74.2576 1.53083 74.1469 1.59739V2.95073H77.8021L78.644 2.01892C78.7326 1.90799 78.799 1.79706 78.9098 1.79706C78.9984 1.79706 79.1092 1.88581 79.2421 1.99674L80.7264 3.17259C80.7264 3.17259 80.9036 3.3279 80.9036 3.43883C80.9036 3.54976 80.815 3.61631 80.6378 3.61631H74.169V6.41175H75.7197L76.2957 5.83491C76.2957 5.83491 76.4951 5.63524 76.5837 5.63524C76.6723 5.63524 76.7831 5.70179 76.8496 5.76835L78.2674 7.01077C78.2674 7.01077 78.4446 7.16607 78.4446 7.29918C78.4446 7.45449 78.3338 7.54323 78.1344 7.63197C78.0237 7.67635 77.5363 7.87602 77.4255 7.92039C76.8939 8.96313 76.0742 10.383 74.5456 11.8695C76.0299 12.6238 78.1344 13.4447 81.4574 13.6887V13.8219C80.2168 14.3987 79.8845 14.9312 79.4636 15.7964L79.4193 15.8408ZM70.2036 7.07733C70.7796 8.67472 71.8208 10.0059 73.1721 11.0486C74.7007 9.31811 75.2767 7.85383 75.5425 7.07733H70.2036Z" fill="#231815"/><path d="M86.7299 6.50049C86.9293 6.74454 87.2173 6.81109 87.4388 6.81109C87.8597 6.81109 89.8757 6.30082 90.9169 5.92366C91.1163 5.8571 91.9802 5.47994 92.1575 5.47994C92.4676 5.47994 92.9771 5.8571 93.243 6.05677C93.5088 6.25644 93.7968 6.50049 93.7968 6.83328C93.7968 7.18826 93.4423 7.41012 93.0879 7.63198C91.6036 8.49723 90.208 9.51778 89.056 10.7824C89.3218 10.6936 89.6098 10.6049 90.0972 10.6049C91.2935 10.6049 91.515 11.2705 91.6258 11.5589C91.6922 11.8251 92.0245 13.001 92.1353 13.2228C92.2904 13.5113 92.5784 13.6222 93.0879 13.6222C93.4423 13.6222 93.7082 13.5556 94.1513 13.4447C95.5691 13.0897 95.5912 13.0897 95.8127 13.0897C96.4109 13.0897 97.0533 13.6444 97.0533 14.1768C97.0533 14.5096 96.8983 14.7093 96.6546 14.8202C96.0121 15.0865 94.9931 15.1308 94.4171 15.1308C91.2049 15.1308 91.0055 14.3765 90.784 13.5334C90.6953 13.245 90.5624 11.8917 90.4517 11.6476C90.3187 11.2927 89.9421 11.1817 89.5877 11.1817C88.7016 11.1817 88.3693 11.6698 86.9071 13.7997C86.4862 14.4431 85.9102 15.2861 85.4007 15.2861C85.002 15.2861 84.5811 14.9312 84.5811 14.3543C84.5811 13.9328 84.8026 13.4891 85.4672 12.89C87.8819 10.6936 88.037 10.5383 89.7649 8.71909C90.3409 8.12007 90.8947 7.49886 91.4929 6.89984C91.4929 6.89984 91.6036 6.76672 91.6036 6.67798C91.6036 6.61142 91.5593 6.56705 91.4929 6.56705C91.4042 6.56705 89.8757 7.09951 88.9895 7.60979C88.8345 7.72072 88.1256 8.20881 87.9705 8.29755C87.8597 8.36411 87.749 8.40848 87.616 8.40848C87.1951 8.40848 85.9324 7.83165 85.9324 6.89984C85.9324 6.89984 85.9102 6.323 86.2204 6.23426C86.4641 6.1677 86.6192 6.43393 86.7299 6.58923V6.50049ZM88.5465 0.998369C89.1225 1.50865 89.4548 1.5752 90.9612 1.93018C92.6891 2.35171 92.9107 3.08385 92.9107 3.46101C92.9107 3.66069 92.8664 4.19315 92.2018 4.19315C92.0024 4.19315 91.9359 4.19315 91.4929 4.06003C91.2492 3.99348 91.0055 3.92692 90.784 3.92692C90.784 3.92692 89.8978 3.99348 89.7649 3.7938C89.6541 3.6385 89.8757 3.43883 89.8757 3.43883C89.9864 3.35008 90.0529 3.23915 90.0529 3.12822C90.0529 2.99511 90.0086 2.95073 89.2775 2.50702C88.6129 2.08548 88.3471 1.73051 88.2142 1.22023C88.2142 1.22023 88.1699 0.953997 88.2142 0.887439C88.2806 0.843068 88.3914 0.88744 88.5243 1.02056L88.5465 0.998369Z" fill="#231815"/><path d="M102.525 2.04111C102.702 2.44046 103.012 2.75106 103.5 2.75106C103.832 2.75106 104.94 2.59576 106.003 2.2186C106.225 2.12985 107.222 1.70832 107.443 1.70832C107.931 1.70832 109.016 2.59576 109.016 3.15041C109.016 3.46101 108.972 3.50538 108.13 4.14878C107.155 4.88091 106.291 5.79054 105.494 6.72235C104.076 8.40848 103.921 8.58597 103.721 8.83002C104.652 8.36411 106.18 7.74291 107.687 7.74291C108.994 7.74291 110.323 8.231 110.943 9.38467C111.276 10.0059 111.364 10.6049 111.364 11.0708C111.364 13.2894 109.238 15.0421 106.623 15.0421C105.405 15.0421 103.19 14.5984 103.19 12.8457C103.19 11.8251 104.076 11.2483 105.161 11.2483C105.627 11.2483 107.465 11.4036 107.753 13.4669C109.57 12.7347 109.57 10.7158 109.57 10.494C109.57 9.56215 109.149 8.25318 107.532 8.25318C106.646 8.25318 104.541 8.74127 103.367 9.9615C102.88 10.4496 102.525 10.9599 102.171 11.5145C101.728 12.2245 101.329 12.8679 100.797 12.8679C100.398 12.8679 100.221 12.2467 100.221 11.9139C100.221 11.4923 100.531 10.8489 101.107 10.2055C102.126 9.09625 102.702 8.36411 103.633 7.21044C104.896 5.65742 105.051 5.50212 106.247 4.01566C106.513 3.70506 106.801 3.26134 106.801 3.08385C106.801 2.92855 106.69 2.88418 106.601 2.88418C106.335 2.88418 104.785 3.74943 104.475 3.92692C103.766 4.34845 103.588 4.45938 103.278 4.45938C102.968 4.45938 101.993 3.9491 101.993 2.75106C101.993 2.48483 102.06 2.24078 102.126 2.04111C102.126 2.04111 102.215 1.81925 102.304 1.84144C102.392 1.86362 102.414 1.97455 102.459 2.01892L102.525 2.04111ZM104.674 12.0248C104.253 12.0248 103.899 12.2245 103.899 12.6682C103.899 13.5778 105.25 13.955 106.092 13.955C106.291 13.955 106.402 13.955 106.601 13.9106C106.513 13.0897 105.693 12.0026 104.674 12.0026V12.0248Z" fill="#231815"/><path d="M117.7 15.6633C116.304 15.6633 115.197 14.4874 115.197 13.1119C115.197 11.7364 116.304 10.5827 117.7 10.5827C119.096 10.5827 120.181 11.7142 120.181 13.1119C120.181 14.5096 119.096 15.6633 117.7 15.6633ZM117.7 11.4701C116.814 11.4701 116.083 12.2245 116.083 13.1119C116.083 13.9993 116.814 14.7537 117.7 14.7537C118.586 14.7537 119.295 14.0437 119.295 13.1119C119.295 12.1801 118.564 11.4701 117.7 11.4701Z" fill="#231815"/></g><defs><clipPath id="clip0_2118_1671"><rect width="157" height="68" fill="white"/></clipPath></defs></svg>