<svg width="416" height="62" fill="none" xmlns="http://www.w3.org/2000/svg"><path d="M20.7393 2.86148e-05L22.1075 8.13734C18.3149 8.4734 15.3624 9.67359 13.2501 11.7379C11.1857 13.8023 9.6255 16.7787 8.56933 20.6674C10.5857 18.7471 13.01 17.7869 15.8425 17.7869C19.8271 17.7869 22.8996 19.2991 25.06 22.3236C27.2203 25.3481 28.3005 29.6688 28.3005 35.2857C28.3005 40.9506 27.0043 45.4874 24.4119 48.8959C21.8195 52.3045 18.3869 54.0087 14.1142 54.0087C9.6495 54.0087 6.16894 52.2325 3.67253 48.6799C1.22414 45.0793 -5.79451e-05 39.8225 -5.79451e-05 32.9093C-5.79451e-05 23.0677 1.82424 15.2185 5.47283 9.36154C9.12141 3.50459 14.2102 0.384089 20.7393 2.86148e-05ZM14.1142 46.3035C16.1305 46.3035 17.7148 45.3674 18.867 43.495C20.0672 41.6227 20.6673 38.8863 20.6673 35.2857C20.6673 32.0212 20.0672 29.4768 18.867 27.6525C17.6668 25.7802 16.0825 24.844 14.1142 24.844C12.1939 24.844 10.6337 25.7802 9.43347 27.6525C8.28128 29.5248 7.70519 32.0692 7.70519 35.2857C7.70519 38.8863 8.25727 41.6227 9.36145 43.495C10.5136 45.3674 12.0979 46.3035 14.1142 46.3035ZM58.8098 2.86148e-05L60.178 8.13734C56.3854 8.4734 53.4329 9.67359 51.3206 11.7379C49.2563 13.8023 47.696 16.7787 46.6398 20.6674C48.6562 18.7471 51.0806 17.7869 53.913 17.7869C57.8977 17.7869 60.9702 19.2991 63.1305 22.3236C65.2909 25.3481 66.371 29.6688 66.371 35.2857C66.371 40.9506 65.0748 45.4874 62.4824 48.8959C59.89 52.3045 56.4574 54.0087 52.1847 54.0087C47.72 54.0087 44.2395 52.2325 41.7431 48.6799C39.2947 45.0793 38.0705 39.8225 38.0705 32.9093C38.0705 23.0677 39.8948 15.2185 43.5433 9.36154C47.1919 3.50459 52.2808 0.384089 58.8098 2.86148e-05ZM52.1847 46.3035C54.2011 46.3035 55.7853 45.3674 56.9375 43.495C58.1377 41.6227 58.7378 38.8863 58.7378 35.2857C58.7378 32.0212 58.1377 29.4768 56.9375 27.6525C55.7373 25.7802 54.1531 24.844 52.1847 24.844C50.2644 24.844 48.7042 25.7802 47.504 27.6525C46.3518 29.5248 45.7757 32.0692 45.7757 35.2857C45.7757 38.8863 46.3278 41.6227 47.432 43.495C48.5842 45.3674 50.1684 46.3035 52.1847 46.3035ZM76.501 41.0467H85.6465L79.6696 61.2099H72.9725L76.501 41.0467ZM96.4921 6.40906C98.8445 2.13637 102.445 2.86148e-05 107.294 2.86148e-05C112.143 2.86148e-05 115.743 2.13637 118.096 6.40906C120.496 10.6818 121.696 17.5469 121.696 27.0044C121.696 36.4619 120.496 43.327 118.096 47.5997C115.743 51.8724 112.143 54.0087 107.294 54.0087C102.445 54.0087 98.8205 51.8724 96.4201 47.5997C94.0197 43.327 92.8195 36.4859 92.8195 27.0764C92.8195 17.6189 94.0437 10.7298 96.4921 6.40906ZM102.397 41.8388C103.453 44.7673 105.062 46.2315 107.222 46.2315C109.43 46.1835 111.086 44.7192 112.191 41.8388C113.295 38.9583 113.847 34.0135 113.847 27.0044C113.847 19.9953 113.295 15.0505 112.191 12.17C111.086 9.28953 109.43 7.84929 107.222 7.84929C105.062 7.84929 103.429 9.28953 102.325 12.17C101.269 15.0505 100.741 19.9953 100.741 27.0044C100.741 34.0135 101.293 38.9583 102.397 41.8388ZM134.563 6.40906C136.915 2.13637 140.516 2.86148e-05 145.364 2.86148e-05C150.213 2.86148e-05 153.814 2.13637 156.166 6.40906C158.567 10.6818 159.767 17.5469 159.767 27.0044C159.767 36.4619 158.567 43.327 156.166 47.5997C153.814 51.8724 150.213 54.0087 145.364 54.0087C140.516 54.0087 136.891 51.8724 134.491 47.5997C132.09 43.327 130.89 36.4859 130.89 27.0764C130.89 17.6189 132.114 10.7298 134.563 6.40906ZM140.468 41.8388C141.524 44.7673 143.132 46.2315 145.292 46.2315C147.501 46.1835 149.157 44.7192 150.261 41.8388C151.365 38.9583 151.917 34.0135 151.917 27.0044C151.917 19.9953 151.365 15.0505 150.261 12.17C149.157 9.28953 147.501 7.84929 145.292 7.84929C143.132 7.84929 141.5 9.28953 140.396 12.17C139.339 15.0505 138.811 19.9953 138.811 27.0044C138.811 34.0135 139.363 38.9583 140.468 41.8388ZM172.633 6.40906C174.986 2.13637 178.586 2.86148e-05 183.435 2.86148e-05C188.284 2.86148e-05 191.884 2.13637 194.237 6.40906C196.637 10.6818 197.837 17.5469 197.837 27.0044C197.837 36.4619 196.637 43.327 194.237 47.5997C191.884 51.8724 188.284 54.0087 183.435 54.0087C178.586 54.0087 174.962 51.8724 172.561 47.5997C170.161 43.327 168.961 36.4859 168.961 27.0764C168.961 17.6189 170.185 10.7298 172.633 6.40906ZM178.538 41.8388C179.594 44.7673 181.203 46.2315 183.363 46.2315C185.571 46.1835 187.228 44.7192 188.332 41.8388C189.436 38.9583 189.988 34.0135 189.988 27.0044C189.988 19.9953 189.436 15.0505 188.332 12.17C187.228 9.28953 185.571 7.84929 183.363 7.84929C181.203 7.84929 179.57 9.28953 178.466 12.17C177.41 15.0505 176.882 19.9953 176.882 27.0044C176.882 34.0135 177.434 38.9583 178.538 41.8388ZM219.615 22.0286H212.94V33.9215H219.615V22.0286ZM224.316 22.0286V33.9215H230.991V22.0286H224.316ZM208.098 16.7167H235.833V48.6819C235.833 49.9668 235.817 50.9853 235.786 51.7374C235.754 52.4582 235.66 53.1319 235.504 53.7587C235.378 54.4168 235.206 54.8869 234.987 55.1689C234.767 55.451 234.423 55.686 233.952 55.874C233.482 56.0934 232.981 56.2188 232.448 56.2501C231.947 56.3128 231.273 56.3441 230.427 56.3441C230.051 56.3441 228.186 56.2658 224.833 56.1091L224.645 50.7972C227.685 50.9539 229.33 51.0323 229.581 51.0323C230.302 51.0323 230.709 50.9383 230.803 50.7502C230.928 50.5622 230.991 49.9198 230.991 48.8229V39.0923H212.94V56.4851H208.098V16.7167ZM260.888 18.9731L249.371 55.1689H244.717L256.234 18.9731H260.888ZM288.055 48.2118V51.6434H293.789V48.2118H288.055ZM288.055 40.6906V44.1221H293.789V40.6906H288.055ZM288.055 36.6009H293.789V33.1694H288.055V36.6009ZM289.559 22.9687H288.337C287.522 24.8804 286.676 26.604 285.798 28.1396H290.922C290.577 26.5413 290.123 24.8177 289.559 22.9687ZM283.025 32.7463V37.6351H278.982C280.33 40.1108 281.803 42.7903 283.401 45.6734L280.768 49.7631C279.672 47.4127 278.935 45.5324 278.559 44.1221V57.6603H273.905V46.0025C273.216 48.9483 272.088 51.5493 270.521 53.8057L267.747 49.34C270.129 45.5794 271.837 41.6778 272.871 37.6351H269.016V32.7463H273.905V27.2934H277.008C276.6 25.5698 276.24 24.1283 275.927 22.9687H275.221C274.187 25.6012 272.871 27.9045 271.273 29.8789L268.217 26.2123C269.408 24.5513 270.442 22.6554 271.32 20.5243C272.197 18.3933 272.871 16.2937 273.341 14.2253L277.713 15.1185C277.525 15.9333 277.321 16.8734 277.102 17.9389H284.435V21.5115C285.312 19.0358 286.018 16.607 286.55 14.2253L290.969 15.1185C290.781 15.9333 290.562 16.8734 290.311 17.9389H299.101V22.9687H294.401C294.683 24.1283 294.98 25.3818 295.294 26.7293L293.131 28.1396H298.537V57.6133H293.789V56.0151H288.055V57.6133H283.401V45.6734V28.3276L281.473 25.7422C282.038 25.0841 282.586 24.1596 283.119 22.9687H280.721C281.16 24.661 281.473 25.9145 281.662 26.7293L278.559 28.3746V32.7463H283.025ZM318.891 61.2799H314.379C312.248 58.4595 310.587 55.1376 309.396 51.3143C308.236 47.491 307.657 43.4484 307.657 39.1864C307.657 34.9243 308.236 30.8817 309.396 27.0584C310.587 23.2351 312.248 19.9132 314.379 17.0928H318.891C314.567 23.2038 312.404 30.5683 312.404 39.1864C312.404 47.7731 314.567 55.1376 318.891 61.2799ZM342.292 34.6266H350.8V27.3404H342.292V34.6266ZM325.51 27.1054H329.741V21.9816C328.77 22.1696 327.547 22.3106 326.074 22.4046L325.745 17.5629C329.788 17.1868 333.878 16.2937 338.014 14.8834L339.143 19.5842C337.826 20.1169 336.181 20.6497 334.207 21.1824V27.1054H337.826V22.3576H340.553C340.02 20.258 339.456 18.362 338.861 16.6697L343.232 14.8834C344.11 17.2338 344.878 19.7252 345.536 22.3576H347.651C348.748 19.7879 349.657 17.2338 350.377 14.6954L354.796 16.1526C354.169 18.3463 353.496 20.4147 352.775 22.3576H355.548V39.5154H351.412V50.4682C351.412 51.189 351.427 51.6277 351.459 51.7844C351.521 51.9097 351.694 51.9724 351.976 51.9724C352.352 51.9724 352.571 51.612 352.634 50.8912C352.728 50.1705 352.79 47.8671 352.822 43.9811L356.911 44.4512C356.849 45.9554 356.802 47.115 356.77 47.9298C356.77 48.7132 356.739 49.6064 356.676 50.6092C356.614 51.5807 356.567 52.3015 356.535 52.7715C356.504 53.2103 356.426 53.7274 356.3 54.3228C356.175 54.9182 356.065 55.31 355.971 55.498C355.877 55.7174 355.689 55.9681 355.407 56.2501C355.156 56.5635 354.937 56.7359 354.749 56.7672C354.561 56.8299 354.263 56.9082 353.856 57.0022C353.48 57.0962 353.12 57.1433 352.775 57.1433C352.461 57.1433 352.038 57.1433 351.506 57.1433C349.5 57.1433 348.231 56.8299 347.698 56.2031C347.165 55.5763 346.899 54.0251 346.899 51.5493V39.5154H345.489C345.332 44.1848 344.642 47.9141 343.42 50.7032C342.198 53.4923 340.208 55.8584 337.45 57.8014L334.63 52.9126C336.855 51.471 338.437 49.7787 339.378 47.8357C340.318 45.8614 340.866 43.088 341.023 39.5154H337.826V32.2292H334.724C336.73 37.3687 338.187 41.098 339.096 43.417L335.993 46.2375C334.896 43.0723 334.301 41.0353 334.207 40.1265V57.6603H329.741V43.182C329.24 46.1905 328.378 48.7759 327.156 50.9383L324.711 45.7674C327.093 41.192 328.707 36.6793 329.553 32.2292H325.51V27.1054ZM387.936 34.3446C387.059 37.5724 385.79 40.5026 384.129 43.135C382.499 45.7361 380.65 47.8044 378.582 49.34L375.95 44.5452C379.209 41.7561 381.653 38.5126 383.283 34.8146C384.944 31.0854 385.774 27.0584 385.774 22.7337V22.1226H379.522V16.6227H390.663V20.8534C390.663 31.8845 393.139 39.7348 398.09 44.4042L395.599 49.34C393.812 47.9611 392.245 45.9554 390.898 43.323C389.582 40.6906 388.595 37.6978 387.936 34.3446ZM377.031 24.661L373.928 28.3276C372.017 25.5071 370.027 22.6397 367.958 19.7252L371.155 16.0586C373.286 18.9731 375.244 21.8406 377.031 24.661ZM367.535 32.4643H375.809V47.2717C376.31 48.5565 376.921 49.5124 377.642 50.1391C378.363 50.7346 379.553 51.1733 381.214 51.4553C382.875 51.7374 385.398 51.8784 388.783 51.8784H397.761L397.573 57.0492H388.642C384.317 57.0492 381.026 56.7202 378.77 56.0621C376.514 55.404 374.884 54.2601 373.881 52.6305C372.69 54.3855 371.123 56.1091 369.18 57.8014L366.971 52.8656C368.538 51.4867 369.948 50.0451 371.202 48.5409V37.6351H367.535V32.4643ZM404.718 17.0928H409.278C411.409 19.9132 413.054 23.2351 414.214 27.0584C415.405 30.8817 416 34.9243 416 39.1864C416 43.4484 415.405 47.491 414.214 51.3143C413.054 55.1376 411.409 58.4595 409.278 61.2799H404.765C409.121 55.1376 411.299 47.7731 411.299 39.1864C411.299 30.5683 409.106 23.2038 404.718 17.0928Z" fill="#E5005A"/></svg>