<svg width="213" height="173" fill="none" xmlns="http://www.w3.org/2000/svg"><path d="M104.693 85.9505L119.394 93.2307C119.905 93.4835 120.524 93.2755 120.777 92.766L134.339 65.486C134.593 64.9765 134.384 64.3586 133.874 64.1058L119.173 56.8256C118.662 56.5728 118.043 56.7808 117.79 57.2903L104.228 84.5703C103.974 85.0798 104.183 85.6977 104.693 85.9505Z" fill="white"/><path d="M135.487 64.3429C135.291 63.779 134.922 63.3376 134.382 63.0924L119.69 55.81C119.174 55.5403 118.585 55.5158 118.02 55.6874C117.455 55.8836 117.012 56.2514 116.767 56.7908L103.206 84.0813C102.665 85.1602 103.107 86.4843 104.188 86.9992L118.88 94.2815C118.88 94.2815 119.027 94.3551 119.101 94.3796C119.346 94.4777 119.592 94.5022 119.838 94.5022C120.083 94.5022 120.304 94.4532 120.55 94.3796C121.115 94.1835 121.557 93.8157 121.803 93.2762L135.364 65.9857C135.635 65.4708 135.659 64.8824 135.487 64.3184V64.3429ZM133.251 65.103L119.813 92.1483L105.343 84.9886L118.781 57.9433L133.251 65.103Z" fill="#595757"/><path d="M129.419 65.8387L120.501 61.4251C120.083 61.2044 119.543 61.3761 119.346 61.8174L109.003 82.4631C108.782 82.8799 108.954 83.4193 109.397 83.6155L118.314 88.0291C118.732 88.2497 119.273 88.0781 119.469 87.6367L129.812 66.9911C130.033 66.5743 129.861 66.0348 129.419 65.8387Z" fill="#C5E2EC" stroke="#595757" stroke-width="0.76" stroke-linecap="round" stroke-linejoin="round"/><path fill-rule="evenodd" clip-rule="evenodd" d="M122.098 81.8991L128.584 84.302C127.552 92.5897 123.719 102.962 113.819 101.956C113.229 98.6706 113.696 94.257 115.244 90.6526C117.553 92.0012 116.325 92.5161 119.224 92.0012C118.069 88.8382 117.332 90.9224 117.774 87.8574C120.427 89.4512 119.567 90.8733 122.688 90.4074C122.688 87.7103 121.508 88.0781 120.01 85.8468C123.277 84.915 121.926 86.5333 125.021 86.0674C124.874 82.5611 125.488 86.0429 123.547 83.9342C122.196 82.463 122.638 83.7626 122.073 81.9236L122.098 81.8991ZM111.092 99.4307C111.092 98.4254 110.035 92.7368 114.507 87.7838C115.416 86.7785 118.093 84.6698 118.634 83.8361C120.575 80.9183 117.872 82.1198 119.961 79.0303L127.306 81.5068L129.689 82.0462C130.868 84.1794 130.918 86.9747 130.181 89.868L128.535 94.257C125.881 99.6514 121.336 104.359 116.644 104.506C111.952 104.653 111.092 100.436 111.067 99.4307H111.092Z" fill="#595757"/><path fill-rule="evenodd" clip-rule="evenodd" d="M122.098 81.899L128.584 84.302C127.552 92.5897 123.719 102.962 113.819 101.956C113.229 98.6706 113.696 94.257 115.244 90.6526C117.553 92.0012 116.325 92.5161 119.224 92.0012C118.069 88.8381 117.332 90.9223 117.774 87.8573C120.427 89.4511 119.567 90.8733 122.688 90.4074C122.688 87.7102 121.508 88.078 120.01 85.8467C123.277 84.915 121.926 86.5333 125.021 86.0674C124.874 82.5611 125.488 86.0429 123.547 83.9342C122.196 82.463 122.638 83.7625 122.073 81.9236L122.098 81.899Z" fill="white"/><path fill-rule="evenodd" clip-rule="evenodd" d="M25.2777 164.433C25.6462 160.24 26.3586 152.344 27.1939 145.087C28.0292 137.829 28.9628 131.233 29.8963 125.348C30.8299 119.463 31.7635 114.314 32.6479 110.661C33.5323 106.983 34.3676 104.801 35.1046 102.986C35.8416 101.172 36.4804 99.7495 38.3721 97.886C40.2638 96.047 43.433 93.7912 46.0863 92.1238C48.7641 90.481 50.926 89.4267 52.2773 88.9608C53.6285 88.4704 54.1689 88.544 54.5129 88.4213C54.8568 88.2988 54.9797 88.0045 55.1271 87.6612C55.2745 87.318 55.4465 86.9502 55.5202 86.7785C55.5693 86.6478 55.8805 86.6559 56.4537 86.803C57.3136 87.0237 59.0333 87.4406 59.9914 87.6612C60.9496 87.8819 61.1215 87.8819 61.2444 87.7348C61.3672 87.5877 61.4163 87.2689 61.5883 85.8958C61.7603 84.5472 62.0797 82.1443 62.0551 80.7467C62.0551 79.349 61.7111 78.9322 61.1707 78.5644C60.6302 78.2211 59.9177 77.9024 58.3454 77.3384C56.7977 76.75 54.4146 75.8918 52.6458 75.0581C50.8523 74.1999 49.6485 73.3662 48.715 72.3609C47.7814 71.3556 47.0935 70.2032 46.4793 69.0017C45.8652 67.8248 45.3492 66.6233 45.1527 65.3973C44.9562 64.1713 45.0544 62.9453 44.8088 62.4304C44.5631 61.9155 43.9735 62.1362 43.3593 62.2588C42.7451 62.4059 42.0572 62.4549 41.7133 62.7001C41.3693 62.9453 41.2956 63.3622 41.3202 64.0242C41.3202 64.7108 41.4185 65.6425 41.1482 66.3781C40.8534 67.1382 40.1901 67.6776 39.4776 67.9719C38.7406 68.2661 37.9299 68.2661 37.4877 67.8983C37.0454 67.5305 36.9226 66.7949 36.9472 66.1329C36.9472 65.4463 37.0946 64.8333 37.4385 64.3184C37.7825 63.828 38.3721 63.4602 38.7897 63.2396C39.2319 63.0189 39.5022 62.9698 39.3794 62.6021C39.2565 62.2343 38.716 61.5477 38.1018 60.8121C37.4631 60.0765 36.7261 59.3164 36.505 58.1885C36.2839 57.0606 36.6032 55.5404 36.7752 54.486C36.9472 53.4562 36.9472 52.8677 36.7752 52.0586C36.6278 51.2494 36.333 50.1951 36.0873 48.3316C35.8662 46.4435 35.6942 43.7464 36.0136 41.0982C36.333 38.4501 37.1192 35.851 38.2493 33.0312C39.3794 30.1869 40.8534 27.122 42.6468 24.4003C44.4402 21.6786 46.6022 19.3002 49.4766 17.4857C52.351 15.6712 55.9869 14.4453 59.5246 13.7097C63.0624 12.9986 66.5264 12.8024 69.7447 12.8515C72.963 12.9005 75.9357 13.1702 79.0803 14.2001C82.2495 15.2299 85.5907 17.0198 89.0056 19.3492C92.4204 21.7031 95.909 24.5964 98.1938 27.122C100.479 29.6475 101.535 31.7807 102.247 34.9928C102.935 38.2049 103.255 42.4713 103.206 45.7079C103.156 48.9445 102.739 51.1758 102.198 52.9658C101.658 54.7557 100.994 56.1288 100.577 56.938C100.135 57.7226 99.9381 57.9433 100.085 58.4582C100.233 58.9731 100.724 59.7578 101.019 60.7631C101.314 61.7684 101.388 62.9944 101.24 63.9752C101.093 64.9559 100.724 65.667 100.11 66.3291C99.4958 66.9911 98.6606 67.5796 98.292 68.07C97.9235 68.5604 98.0218 68.9527 98.2429 69.3695C98.4394 69.8109 98.7343 70.2767 98.8817 70.8162C99.0291 71.3801 99.0045 72.0176 98.6851 72.6061C98.3657 73.1946 97.727 73.734 97.1128 73.9057C96.4986 74.0773 95.909 73.9057 95.5405 73.685C95.1474 73.4643 94.9754 73.2436 94.828 72.8268C94.6806 72.41 94.5578 71.8215 94.6806 71.282C94.8035 70.7426 95.1965 70.2277 95.3194 69.7863C95.4422 69.345 95.3194 69.0017 94.8526 68.6094C94.3858 68.2416 93.5751 67.8248 93.01 67.7512C92.4696 67.6776 92.1748 67.8983 91.9045 68.3642C91.6343 68.8301 91.4132 69.5411 90.8972 70.5219C90.4059 71.5027 89.6443 72.7778 88.7599 73.8811C87.8755 74.9845 86.8928 75.9163 85.8364 76.5538C84.78 77.2158 83.6499 77.5836 81.709 77.9514C79.7436 78.3192 76.943 78.6625 75.125 78.9567C73.307 79.251 72.4717 79.4962 72.0295 79.6188C71.751 79.7005 71.5709 80.0029 71.489 80.526C71.3907 81.3106 71.1696 82.8799 70.9485 84.2775C70.7274 85.6751 70.5063 86.9011 70.4817 87.367C70.4326 87.8329 70.58 87.5386 71.5135 87.2934C72.4471 87.0482 74.1914 86.8276 75.0513 86.705C75.6245 86.6396 76.0585 86.803 76.3533 87.1954C76.7955 87.7838 77.6554 88.9608 78.0976 89.5493C78.3924 89.9416 78.7691 90.1786 79.2277 90.2603C79.9156 90.3829 81.2914 90.6526 82.9374 91.2166C84.5589 91.7806 86.426 92.6878 87.8509 93.4234C89.2758 94.159 90.2585 94.772 91.5114 95.8263C92.7644 96.8807 94.3121 98.4254 95.5896 100.019C96.8671 101.613 97.899 103.28 98.8817 105.193C99.8644 107.105 100.773 109.239 101.51 111.543C102.247 113.848 102.837 116.325 103.255 117.477C103.672 118.63 103.943 118.434 104.434 116.987C104.925 115.516 105.662 112.794 105.859 111.029C106.055 109.288 105.761 108.503 105.638 108.013C105.515 107.522 105.589 107.277 106.006 105.708C106.424 104.139 107.21 101.221 107.628 99.6759C108.045 98.1312 108.094 97.9595 108.782 98.0821C109.47 98.2047 110.821 98.6216 111.681 98.8913C112.541 99.1365 112.91 99.2346 113.106 99.0139C113.229 98.8668 113.303 98.6216 113.426 98.1067C114.777 98.6951 116.447 99.3326 117.946 99.7004C119.371 100.044 120.673 100.142 122 100.387C121.607 100.485 121.385 100.632 121.336 100.779C121.263 101.025 121.631 101.319 122.27 101.638C122.909 101.956 123.842 102.324 124.358 102.667C124.874 103.011 124.997 103.329 124.8 105.266C124.604 107.203 124.088 110.759 123.621 112.573C123.154 114.388 122.737 114.486 122.393 114.363C122.049 114.241 121.803 113.946 121.607 114.094C121.41 114.241 121.287 114.878 121.066 115.933C120.87 116.987 120.599 118.483 120.157 120.616C119.715 122.724 119.101 125.471 118.364 128.389C117.627 131.306 116.742 134.42 115.588 136.872C114.433 139.324 112.983 141.065 111.509 142.365C110.035 143.64 108.561 144.474 107.038 144.719C105.49 144.964 103.918 144.645 102.297 143.885C100.675 143.125 99.0291 141.923 97.5796 140.918C96.1301 139.913 94.8772 139.104 94.263 138.834C93.6488 138.589 93.6734 138.883 93.7471 139.888C93.8208 140.894 93.919 142.61 94.0419 147.171C94.1647 151.731 94.2876 159.185 94.3613 163.378C94.3613 163.967 94.3613 164.482 94.3613 164.948H25.2285L25.2777 164.384V164.433Z" fill="white"/><path fill-rule="evenodd" clip-rule="evenodd" d="M27.587 164.997C27.3413 162.618 27.243 159.48 27.4641 155.311C27.9063 147.269 29.5278 135.352 31.8126 125.618C34.0973 115.859 37.07 108.282 39.1336 103.06C41.1973 97.837 42.352 94.9927 43.9489 93.1047C45.5457 91.2166 47.5357 90.2849 49.3783 89.6719C51.1963 89.0589 52.8668 88.7401 53.4565 89.3286C54.0706 89.9171 53.6284 91.4128 54.7831 93.3499C55.9378 95.2869 58.6893 97.6899 60.3599 98.3274C62.0551 98.9649 62.6692 97.8615 63.5537 96.7826C64.4381 95.7038 65.5682 94.6739 67.0177 94.7965C68.4672 94.9437 70.236 96.2432 71.1204 96.9052C71.7101 97.3466 72.4962 97.2894 73.4789 96.7336C74.953 95.8999 77.9256 94.2571 79.719 93.1292C81.537 92.0013 82.2003 91.3638 82.9619 91.3147C83.7235 91.2657 84.5834 91.7561 87.6789 95.2379C90.7989 98.7197 96.1546 105.144 99.1273 110.636C102.1 116.104 102.714 120.616 102.763 123.117C102.812 125.618 102.297 126.157 103.181 124.269C104.065 122.381 106.35 118.09 108.021 115.614C109.691 113.113 110.748 112.426 112.713 112.549C114.654 112.671 117.479 113.603 119.174 117.747C120.869 121.866 121.435 129.198 120.354 133.415C119.273 137.633 116.57 138.76 113.622 139.594C110.674 140.428 107.456 140.967 105.269 141.237C103.083 141.531 101.903 141.556 100.135 141.286C98.3903 141.041 96.0564 140.477 94.7543 141.85C93.4277 143.223 93.1329 146.509 92.6906 151.78C92.3467 155.777 91.929 160.877 91.536 164.997H27.587ZM56.0606 149.034C55.4956 147.195 55.1762 143.566 55.0042 141.384C54.8322 139.226 54.7585 138.515 54.9305 138.025C55.0779 137.534 55.4464 137.265 57.7312 137.044C59.9914 136.823 64.1679 136.701 67.4599 136.701C70.7519 136.701 73.1841 136.848 74.5107 137.02C75.8619 137.216 76.1322 137.461 76.3287 138.246C76.5007 139.03 76.599 140.354 76.6481 142.659C76.6972 144.964 76.6972 148.299 76.5498 149.991C76.4024 151.707 76.1322 151.805 73.6263 151.682C71.1204 151.56 66.4035 151.192 63.48 151.02C60.5564 150.849 59.4509 150.873 58.4682 150.873C57.4855 150.873 56.6502 150.873 56.0852 149.034H56.0606Z" fill="#CAE9F4"/><path fill-rule="evenodd" clip-rule="evenodd" d="M91.8063 60.714C90.6762 58.4582 89.2267 53.2845 88.0966 49.8762C86.9665 46.468 86.1312 44.8497 84.608 43.403C83.0848 41.9564 80.8492 40.7304 78.3188 40.9756C75.7883 41.2453 72.9631 43.0107 70.1869 44.5555C67.4108 46.1002 64.7084 47.4243 60.8268 48.6257C56.9451 49.8272 51.8842 50.9061 48.887 51.5191C45.8898 52.1321 44.9808 52.2792 43.9981 52.0095C43.0154 51.7643 41.959 51.1022 40.6815 50.7344C39.404 50.3666 37.8808 50.2931 36.9963 49.2878C36.1119 48.2825 35.8417 46.3454 36.8735 42.3487C37.9053 38.352 40.2392 32.3201 45.2019 27.0483C50.1645 21.7766 57.7558 17.314 63.3818 15.7693C69.0077 14.2245 72.6683 15.6467 78.1222 18.3193C83.5762 20.992 90.7745 24.8906 95.6634 29.2796C100.552 33.6687 103.083 38.4991 104.237 42.3977C105.392 46.2964 105.196 49.2878 104.729 51.4455C104.262 53.6032 103.55 54.9518 102.763 55.761C102.002 56.5701 101.166 56.8399 99.7907 57.7226C98.4395 58.6053 96.5232 60.0519 95.172 61.1553C93.8208 62.2342 92.9855 62.9453 91.8554 60.6895L91.8063 60.714Z" fill="#DFAF7B"/><path fill-rule="evenodd" clip-rule="evenodd" d="M77.6799 67.5059C77.508 66.2309 77.9993 64.5145 78.9329 63.6318C79.8664 62.7491 81.2176 62.6756 82.3723 63.1169C83.527 63.5828 84.4605 64.5636 85.0747 65.4953C85.6643 66.4271 85.9346 67.2608 85.738 68.0454C85.5661 68.8055 84.9519 69.5166 84.2886 69.9334C83.6253 70.3502 82.8882 70.4974 82.1021 70.5464C81.2913 70.5954 80.4315 70.5464 79.5716 70.105C78.7118 69.6637 77.8765 68.781 77.7045 67.5059H77.6799Z" fill="#FEE8B1"/><path fill-rule="evenodd" clip-rule="evenodd" d="M49.9679 64.2694C49.7959 62.9944 50.2873 61.278 51.2208 60.3953C52.1544 59.5125 53.5056 59.439 54.6603 59.8803C55.8149 60.3462 56.7485 61.327 57.3381 62.2588C57.9277 63.166 58.198 64.0242 58.0014 64.8088C57.8295 65.5689 57.2153 66.28 56.552 66.6968C55.8886 67.1137 55.1516 67.2608 54.3655 67.3098C53.5547 67.3589 52.6949 67.3098 51.835 66.8685C50.9752 66.4271 50.1399 65.5444 49.9679 64.2694Z" fill="#FEE8B1"/><path fill-rule="evenodd" clip-rule="evenodd" d="M55.9377 138.564L74.5844 138.638V149.745C68.0986 149.745 62.5464 149.059 56.5274 149.059C56.5274 145.65 57.0433 141.703 55.9623 138.589L55.9377 138.564ZM65.5436 133.072L65.0523 132.189C64.9786 132.042 64.6838 131.429 64.6101 131.233L58.591 113.628C56.945 107.694 53.8986 98.5234 53.2108 92.8839C54.8813 95.0416 58.2225 100.362 60.7284 101.294L65.9613 92.1728L70.9239 101.368C74.5353 99.9946 75.7637 95.2133 78.6872 93.6685C77.9747 97.1503 69.0568 129.075 65.5682 133.047L65.5436 133.072ZM67.5336 90.0886L75.3214 87.8819L77.4588 90.7507L72.0294 97.5672L67.5336 90.0886ZM60.3353 97.6162C58.3699 95.7282 55.7903 93.1046 55.0533 90.6771L56.0114 88.1025L64.1187 90.0886L60.3353 97.6407V97.6162ZM95.9335 71.1349L98.0463 70.5709L97.6041 73.2926C95.1228 72.606 96.2775 71.8214 95.9335 71.1349ZM38.2492 64.8823L40.362 64.3184L39.9198 67.0401C37.4385 66.3535 38.5931 65.5689 38.2492 64.8823ZM99.7169 56.2514C96.9899 56.6437 98.9553 54.9028 96.0809 56.7663C97.2847 60.8856 100.65 57.085 100.38 62.9453C100.184 66.9665 97.4321 67.4079 94.0664 66.9175C92.8135 64.3429 95.4913 65.5689 92.6169 63.7054C90.0619 65.4463 90.455 72.1647 86.1311 75.2051C83.3304 77.1667 74.8792 77.6326 70.7765 78.6134L69.3024 87.3669C66.4526 88.2496 65.519 88.4458 63.0377 86.9992L63.5782 78.4417C59.5737 75.3032 54.1689 75.5484 50.4101 72.508C45.1772 68.2415 47.5848 62.1116 45.2509 58.6298C44.0225 59.488 40.4357 64.6616 38.0281 58.4336C35.6205 52.2301 41.9834 52.8676 43.261 50.7344C38.0772 46.9584 31.5177 55.6629 37.6104 61.7928C35.3257 65.0294 34.5395 64.1958 36.7997 68.7319C43.6295 71.0123 41.5167 66.6232 43.2855 63.5092C46.553 69.1733 43.3838 75.2542 61.3426 79.5942C61.146 82.0462 60.7038 83.4683 60.581 86.4352L55.3236 85.3563C52.5966 88.7401 54.5865 88.3723 50.4346 91.5353C51.098 96.8561 59.3281 126.157 62.5955 132.483C63.9959 135.229 63.0377 132.165 64.1924 135.18C61.0969 136.872 58.3945 136.357 54.5128 136.578C54.3409 138.662 53.8986 139.177 53.8495 140.697C53.8004 142.782 54.2672 142.953 54.39 145.528C54.5865 149.696 53.4319 151.756 58.591 151.756C67.3616 151.756 68.9339 152.173 77.336 150.922C77.336 146.999 78.1713 140.501 76.8692 136.946C73.7491 135.818 70.5554 135.867 67.0177 135.671C67.1651 132.876 67.681 134.371 69.2287 131.11C69.8183 129.835 70.6782 127.555 71.1941 126.108L81.5861 93.4969C79.9401 89.6473 82.1266 94.6983 80.3086 91.8541C80.2349 91.7315 80.1121 91.5598 80.0384 91.4127C79.9647 91.2656 79.8664 91.0939 79.7927 90.9713C78.4415 88.3232 79.5225 89.1814 76.5252 85.2582L71.9557 86.3126C72.2014 84.6698 72.5208 82.512 72.5208 80.2072C75.4197 80.2072 83.92 79.0302 86.2294 77.9514C89.7671 76.284 90.6515 73.17 91.929 71.1349C93.5013 68.6339 91.8062 69.7863 94.091 69.2714C90.7744 74.9599 100.257 78.6134 100.184 71.2575C100.159 67.5305 98.3657 70.9387 101.044 67.1136C105.048 61.4496 102.321 62.9453 101.535 58.2865C101.142 55.9326 103.5 56.2759 104.458 49.6556C106.768 33.5951 95.9827 18.4174 87.8017 17.7308C88.7598 21.2617 97.2602 25.2829 100.233 33.0802C102.837 39.8967 103.82 49.6556 99.7415 56.1043L99.7169 56.2514Z" fill="#595757"/><path fill-rule="evenodd" clip-rule="evenodd" d="M122.565 112.941L106.694 107.669L108.954 99.6269L121.115 102.569C124.604 103.771 124.334 102.03 122.565 112.941ZM125.808 101.49C125.488 102.569 126.299 102.152 126.299 104.359C126.299 105.07 125.808 108.454 125.709 109.165C124.186 119.218 124.432 114.241 122.909 115.761C120.992 117.649 120.305 138.221 110.207 144.351C103.82 148.225 100.012 143.566 95.4177 140.796V164.972H93.2066L92.5924 137.951C92.3959 135.573 92.0274 135.131 91.9291 132.361C91.7817 128.021 91.2412 125.127 91.2412 120.567C93.8454 120.861 93.7962 119.856 94.0174 128.192C94.3613 141.359 94.8772 137.534 99.0782 140.501C116.447 152.663 117.774 119.929 120.354 114.51L107.382 110.219C106.989 113.162 104.434 126.231 101.83 126.648C100.38 124.809 101.83 123.754 102.198 121.106C103.009 115.221 97.2357 101.27 90.9464 96.5619C87.5807 94.0364 83.7727 94.0364 82.8883 90.7262C95.4668 90.9959 100.945 106.615 103.918 114.265C106.571 108.969 102.395 111.102 107.357 96.9542L111.902 97.4936C111.902 97.4936 111.902 97.4446 111.952 97.4201C112.148 97.5182 112.345 97.5917 112.541 97.6898C114.015 98.3764 116.128 99.2591 117.995 99.7004C119.862 100.166 121.484 100.191 123.302 100.681C124.088 100.902 124.923 101.172 125.783 101.49H125.808Z" fill="#595757"/><path fill-rule="evenodd" clip-rule="evenodd" d="M26.2113 164.997C27.538 147.833 31.4933 112.083 36.5542 102.741C39.4778 97.3711 48.7397 92.3936 49.5504 89.3531C44.7843 89.7455 37.2667 97.0524 34.7854 101C31.2231 106.64 30.0439 115.393 28.9875 122.283C27.2432 133.685 24.639 151.879 23.9757 165.021H26.1868L26.2113 164.997Z" fill="#595757"/><path fill-rule="evenodd" clip-rule="evenodd" d="M35.6697 51.1758C38.2492 49.3369 36.8489 44.5555 37.07 41.466C37.6596 33.35 42.9171 24.8416 48.6904 19.7415C54.6849 14.4452 67.5091 12.7779 75.2478 14.4207C78.0976 15.0337 82.1267 17.0443 84.1658 15.5977C83.355 12.6308 75.2724 11.7726 69.8675 11.601H65.5682C52.5966 12.312 42.6959 18.6872 37.6596 30.9225C35.6451 35.802 33.0901 45.5853 35.6942 51.1758H35.6697Z" fill="#595757"/><path fill-rule="evenodd" clip-rule="evenodd" d="M40.8043 164.997L42.3275 134.175C42.9417 130.203 42.6223 125.52 42.6223 121.278H40.5341L39.8462 139.324C39.6988 142.022 39.2074 142.659 39.1337 145.552C38.9372 152.222 38.6424 158.474 38.5195 164.997H40.8289H40.8043Z" fill="#595757"/><path fill-rule="evenodd" clip-rule="evenodd" d="M64.2661 67.2608C65.7647 67.2608 69.8675 67.8002 71.7346 68.0209C70.2852 71.0368 70.6537 72.5815 67.6319 74.9109C63.8731 72.0421 65.7402 70.2767 64.2661 67.2853V67.2608ZM67.6319 77.6817C71.7838 75.1806 74.4125 70.669 74.4616 65.8877C71.489 65.667 61.8585 63.3376 61.7603 66.7949C61.7603 67.2608 63.0623 72.7777 63.3571 73.5378C64.3644 76.1369 65.3225 76.3085 67.6564 77.7062L67.6319 77.6817Z" fill="#595757"/><path fill-rule="evenodd" clip-rule="evenodd" d="M43.3102 55.3442C48.3956 54.8784 66.5264 39.1612 66.944 34.527C62.6447 34.9929 62.571 39.2103 55.1271 44.9479C49.9434 48.9446 43.5559 52.4754 43.3102 55.3688V55.3442Z" fill="#595757"/><path fill-rule="evenodd" clip-rule="evenodd" d="M89.8654 62.2832H91.9537C91.9537 53.6278 87.6789 40.902 80.1367 40.7549C81.0948 44.3593 89.89 48.4541 89.8654 62.2832Z" fill="#595757"/><path fill-rule="evenodd" clip-rule="evenodd" d="M65.6665 49.6557C71.2187 49.9744 76.4762 43.5502 79.5717 39.48C81.0457 37.5429 82.3232 36.415 81.7827 34.2818C79.891 34.2327 79.4488 35.6304 78.1713 37.3958C71.8329 46.1003 66.2807 46.6397 65.6911 49.6802L65.6665 49.6557Z" fill="#595757"/><path fill-rule="evenodd" clip-rule="evenodd" d="M55.2991 56.5457C57.1908 58.4582 56.7486 58.5808 59.5247 57.6491C60.5074 54.7312 60.3845 54.6822 58.4191 52.7206C55.987 53.0639 55.2008 53.4317 55.2991 56.5211V56.5457Z" fill="#595757"/><path fill-rule="evenodd" clip-rule="evenodd" d="M76.4271 59.7332C79.2278 60.665 79.2032 60.4198 80.8983 58.164L80.0139 55.4668C76.2551 55.1726 75.1004 55.7856 76.4516 59.7332H76.4271Z" fill="#595757"/><path fill-rule="evenodd" clip-rule="evenodd" d="M66.9194 62.2833C68.6883 63.4112 67.9758 63.3377 69.8184 62.2833C67.9758 61.229 68.6883 61.1554 66.9194 62.2833Z" fill="#595757"/><path d="M196.095 64.343C210.295 55.05 214.275 36.0472 204.964 21.8747C195.653 7.70233 176.613 3.73013 162.413 13.0231C149.736 21.3108 145.24 37.3467 151.038 50.759L140.695 63.9016L156.885 59.6842C166.909 70.3503 183.418 72.6306 196.095 64.343Z" fill="#FEECD2"/><path d="M198.478 28.3235C198.478 27.0975 197.495 26.1167 196.267 26.1167H162.29C161.062 26.1167 160.079 27.0975 160.079 28.3235V49.9499C160.079 50.2932 160.153 50.6119 160.3 50.9062V50.9307C160.521 51.372 160.865 51.7153 161.307 51.936C161.602 52.0831 161.922 52.1567 162.266 52.1567H196.242C196.586 52.1567 196.906 52.0831 197.2 51.936C197.643 51.7153 197.987 51.372 198.208 50.9307V50.9062C198.355 50.6119 198.429 50.2932 198.429 49.9499V28.3235H198.478ZM182.927 39.9704C180.912 41.981 177.62 41.981 175.606 39.9704L163.199 27.5879H195.309L182.902 39.9704H182.927ZM161.553 28.3235C161.553 28.3235 161.553 28.1273 161.602 28.0538L172.387 38.8179L161.553 49.6311V28.299V28.3235ZM162.585 50.6855L173.419 39.8723L174.549 41.0002C175.851 42.2997 177.547 42.9373 179.242 42.9373C180.937 42.9373 182.657 42.2997 183.934 41.0002L185.064 39.8723L195.898 50.6855H162.511H162.585ZM186.17 38.8179L196.955 28.0538C196.955 28.0538 197.004 28.2254 197.004 28.3235V49.6557L186.17 38.8425V38.8179Z" fill="#595757"/></svg>