<svg width="213" height="173" fill="none" xmlns="http://www.w3.org/2000/svg"><path d="M150.825 54.9068C151.303 55.0661 151.759 55.3845 152.261 55.5665C152.192 55.9304 152.489 55.7029 152.671 55.8167C152.694 55.8167 152.694 55.9531 152.785 55.9986C155.179 57.5225 157.253 59.1374 157.823 62.1398C159.51 70.8967 156.25 80.6999 155.133 89.3886C154.928 90.8898 155.019 91.6403 154.426 93.0505C154.084 93.8921 153.332 94.8474 153.651 95.8027C153.72 95.9847 153.834 96.1439 154.039 96.1211C153.423 97.3949 152.284 98.9188 150.779 99.169C149.845 99.3282 148.773 98.9416 147.953 99.5102C147.861 99.9651 147.747 100.443 148.203 100.693C150.802 102.149 154.495 99.1918 155.589 96.9172C156.113 95.8027 156.182 94.529 156.546 93.369C156.592 93.2098 156.637 92.8458 156.82 92.8231C157.162 96.5761 158.415 100.079 159.441 103.65C159.487 103.764 159.441 103.923 159.464 104.014C159.145 105.106 158.985 106.22 158.643 107.312C158.188 108.699 157.412 110.564 156.706 111.838C156.66 111.929 156.364 112.179 156.615 112.247C155.612 113.226 154.996 113.771 153.856 114.545C153.537 114.158 131.107 117.274 131.723 117.388C131.928 117.433 132.634 117.229 132.315 117.615C129.808 117.365 127.62 117.024 125.181 116.41L123.38 115.091C123.175 114.772 122.833 114.658 122.878 114.226C124.109 113.953 125.363 113.862 126.48 113.248C127.939 112.452 129.443 110.86 130.697 109.723C131.016 109.723 131.335 109.45 131.609 109.291C132.407 108.79 133.364 108.222 134.071 107.767C134.64 107.403 134.914 107.312 135.507 107.084C135.552 107.084 135.757 106.698 135.826 106.675C136.008 106.629 136.213 106.675 136.418 106.675C136.19 106.379 136.578 106.538 136.532 106.243C139.496 104.787 145.628 102.331 147.497 99.8059C149.525 97.0537 146.517 94.529 144.283 93.3007C141.638 95.0294 139.291 97.2357 136.532 98.7823C135.849 98.9188 135.757 98.0545 135.21 97.8953C135.21 97.5541 135.279 97.031 135.37 96.6898C135.507 96.1439 136.122 95.0976 135.894 94.6427C135.598 94.0286 133.569 93.7784 132.908 93.7329C132.954 93.369 132.247 93.5509 132.361 92.9596C132.612 92.8003 132.885 92.6184 133.136 92.4364C133.25 91.9133 132.498 90.8443 132.384 90.2301C132.133 88.8427 132.885 88.2968 133.364 87.1823C133.455 86.9548 133.432 86.6591 133.523 86.4772C133.774 85.9313 135.393 85.2717 135.917 84.9305C136.669 84.4301 135.985 83.7933 135.803 83.1109C135.689 82.656 135.575 81.8827 135.552 81.3823C135.529 80.8819 135.712 78.9713 135.347 78.7438C134.8 78.4254 133.022 78.6073 132.315 78.3571L127.095 78.1297C126.913 76.3328 126.845 74.5132 126.753 72.7163C126.662 70.4418 127.027 67.4849 126.617 65.3924C126.548 65.0967 126.366 64.1186 125.978 64.2551C124.634 64.7328 125.067 66.7798 124.998 67.8944C124.884 69.8959 124.725 71.8065 124.884 73.8081L125.112 78.1297C123.608 78.1752 122.103 78.0615 120.599 78.1297C120.508 77.7885 120.394 77.3109 120.371 76.9697C120.28 75.3093 120.485 73.4897 120.599 71.8065C120.713 69.7367 120.804 67.4622 121.032 65.3924C121.237 63.6183 121.83 61.3665 122.673 59.7971L123.106 59.6151C124.588 58.5006 126.434 57.7955 128.281 58.3641C128.737 58.5006 129.626 58.7963 130.036 59.2967C134.002 64.1414 133.387 57.1814 135.689 56.8402C137.285 56.6127 139.496 61.2073 141.069 60.6614C144.055 59.6151 145.924 55.9304 147.634 54.2927C147.747 54.4292 148.864 54.4519 149.024 54.4747C149.594 54.5657 150.369 54.6566 150.916 54.8386L150.825 54.9068ZM147.542 73.3305L147.451 73.3987C147.406 73.6489 147.406 73.8991 147.451 74.1265L147.542 74.1948C147.542 74.3767 147.542 74.5587 147.542 74.7407C147.223 74.6724 147.246 74.8999 147.269 75.0591C148.317 82.1328 140.886 89.3658 141.046 89.8662C140.863 90.2756 140.476 91.3901 140.408 91.8223C140.225 93.1415 140.658 94.3015 142.14 94.3698C142.186 93.9831 142.413 93.7556 142.368 93.3235C142.345 92.9823 142.049 92.6184 142.049 92.2317C142.049 89.9572 145.764 86.0905 146.95 83.9752C148.523 81.1775 150.164 73.8308 149.184 70.8285C149.092 70.5555 148.819 69.8277 148.477 69.9187C147.52 70.7148 147.565 72.1705 147.52 73.3077L147.542 73.3305Z" fill="#CAE9F4"/><path d="M27.4363 100.352L27.7098 100.193C30.8783 100.193 34.0012 100.397 37.1697 100.306L37.9219 100.42H41.8882L42.6404 100.534C53.2173 100.693 63.8169 100.306 74.4165 100.534C74.8724 100.534 75.2371 100.875 75.1231 100.056C74.9407 98.7597 73.0716 98.9871 72.1142 99.0098C67.0993 99.1463 62.1756 99.0553 57.1608 98.8961C48.3164 98.6232 39.4948 99.3055 30.6731 98.7824C29.9893 98.7369 29.3055 98.8051 28.6444 98.6687C28.5988 98.6232 29.2143 97.8498 29.3055 97.7361C30.0577 96.8263 33.0894 93.4145 34.024 93.1188C34.2747 93.0506 34.799 92.9824 35.0726 92.9596C37.6712 92.7777 40.5661 93.4145 43.2103 92.9596C54.8813 93.3235 66.8486 92.482 78.4967 92.9596C79.1122 92.9824 79.7733 93.1643 80.4115 93.0733C80.5027 93.1416 80.2064 93.5055 80.138 93.6192C78.9526 95.2796 76.582 96.2577 75.9209 98.3502C76.3084 98.4867 76.5364 98.6232 76.9695 98.5777C78.246 98.464 79.91 95.8483 80.9814 95.0067C81.1865 94.8475 81.3461 94.6883 81.6424 94.7337L82.3263 98.9416C82.463 99.3965 84.0587 98.8961 84.4234 98.7596C86.0418 98.1683 87.5463 96.8491 87.4779 95.0067C87.4323 94.0059 87.25 92.5275 87.136 91.5039C87.0676 90.9126 86.7029 89.9573 86.8397 89.4341L89.6206 85.9541C89.917 85.6357 91.0567 84.4302 91.3302 85.249C91.6722 86.2725 91.8317 87.5918 91.3758 88.5925C90.8288 89.8208 89.3015 90.1847 88.5265 91.231C87.5463 92.573 87.4779 94.2561 88.3669 95.6436C88.5265 95.871 88.8 96.0075 88.7772 96.2577C87.911 96.8036 86.8397 97.4404 86.0874 98.1228C84.7425 99.3283 84.4462 100.898 84.6058 102.672C84.6513 103.104 85.1984 103.536 85.5631 103.809C85.9734 104.105 86.5661 104.446 87.0904 104.491C88.0022 104.582 89.0963 104.309 89.8942 104.992C89.4839 105.993 88.2529 106.448 87.7742 107.38C87.2956 108.313 87.2956 110.269 87.911 111.133C88.914 112.543 91.2846 112.293 92.7435 112.657C93.0399 113.59 93.1994 114.795 92.47 115.568C91.9913 116.046 89.5978 117.866 89.0052 118.048C88.8912 118.093 88.8 118.116 88.6632 118.093C88.5037 116.251 88.4353 114.386 87.8882 112.611C87.4551 112.316 85.8139 113.635 85.4264 113.908C85.13 114.135 83.2381 115.705 83.1925 115.841C82.9873 117.684 83.7168 119.526 83.3748 121.346L78.9298 121.801C78.6563 121.801 77.5849 121.846 77.4482 121.755C77.1974 121.573 77.4482 121.004 77.4482 120.754C77.7673 114.522 77.7673 108.267 77.7901 101.989C77.6305 101.08 77.6989 100.147 77.357 99.26C75.9665 98.9189 75.7386 100.534 75.693 101.557C75.6702 102.126 75.8069 102.581 75.8069 103.081C75.9665 109.222 75.9437 115.409 75.8525 121.573L75.3055 122.551C73.2311 124.166 71.3164 125.963 69.2648 127.601C68.5354 128.169 67.5096 129.079 66.5978 129.215C65.5949 129.352 64.5691 129.306 63.5433 129.352C53.6048 129.784 43.5978 129.466 33.6593 129.352H27.4363V100.352Z" fill="#FEFEFF"/><path d="M123.585 138.791C123.722 138.928 122.559 141.68 122.399 142.044C120.69 146.001 118.729 149.982 116.906 153.894C116.655 154.44 115.629 156.623 115.151 156.76H108.244L103.092 156.328H92.4242L91.672 156.214H81.893L81.1408 156.1H68.7176L67.9653 155.987H62.6313L69.4014 138.336L123.608 138.791H123.585Z" fill="#FEFFFF"/><path d="M69.4015 157.874H74.0744L74.8266 157.761H89.005L89.7573 157.874H91.7404L95.0229 158.193H116.336C116.518 158.125 117.544 156.259 117.704 155.918C119.641 152.052 121.055 147.594 123.197 143.863C123.38 143.545 123.585 143.135 123.881 142.953C123.881 143.34 123.858 143.727 123.881 144.114C124.314 150.164 124.086 156.259 124.656 162.31V171.089L122.627 171.476H74.3707C72.7067 171.18 71.0655 171.089 69.3787 171.135V157.874H69.4015Z" fill="#FEFEFE"/><path d="M77.6532 136.926C77.6304 136.676 77.6532 136.539 77.7672 136.312C77.9951 135.903 78.8613 135.152 79.2488 134.833C92.3559 124.12 112.461 125.349 128.372 126.713L133.523 126.804C133.523 126.804 133.706 127.191 133.706 127.259C133.706 127.578 133.136 128.192 132.885 128.465C132.042 129.42 130.993 130.262 130.127 131.194C128.258 133.264 126.161 137.017 123.083 137.335C120.781 137.563 118.251 137.017 115.949 136.903C103.183 136.903 90.4183 136.903 77.6532 136.903V136.926Z" fill="#E4E4E4"/><path d="M155.407 130.626C152.056 134.401 148.728 138.177 145.4 141.953C144.237 143.272 143.052 144.591 141.866 145.888L126.571 137.677C126.526 137.517 126.617 137.495 126.685 137.404C127.711 136.062 129.193 134.538 130.355 133.287C132.27 131.24 134.39 129.329 136.282 127.259C137.376 126.099 138.379 124.689 139.473 123.529C139.678 123.302 139.906 123.074 140.157 122.892L156.569 128.965C156.706 129.079 156.706 129.079 156.638 129.238C156.455 129.579 155.749 130.284 155.429 130.626H155.407Z" fill="#FEFEFE"/><path d="M133.683 127.282C133.683 127.282 133.546 126.85 133.501 126.827L128.349 126.736C112.461 125.372 92.3333 124.143 79.2262 134.856C78.8387 135.175 77.9497 135.925 77.7446 136.335C77.6306 136.562 77.6078 136.699 77.6306 136.949C75.5107 136.949 73.368 136.994 71.248 136.903C73.2768 135.106 75.4651 133.492 77.6306 131.877C81.255 129.147 85.0161 126.281 88.7317 123.643C89.5295 123.074 90.2589 122.483 91.3075 122.483C91.5583 122.483 91.809 122.597 92.0825 122.597C95.3194 122.642 98.5335 122.051 101.748 122.028H108.358L109.11 122.142H116.268L117.02 122.255H119.778L120.531 122.142H126.252L127.004 122.028H130.743L131.495 121.914C133.478 122.164 135.94 121.528 137.877 121.823C138.06 121.846 138.265 121.937 138.379 122.096C138.493 122.619 136.441 124.439 136.031 124.871C135.393 125.576 134.823 126.372 134.116 127.009C133.979 127.123 133.888 127.282 133.683 127.282Z" fill="#FDFEFE"/><path d="M126.548 170.248L125.454 139.223C125.454 139.223 126.799 139.838 127.004 139.928C131.062 142.044 135.165 144.227 139.154 146.434C139.519 146.638 140.134 146.866 140.18 147.275C140.339 148.594 139.86 150.3 139.952 151.665C139.724 152.711 139.792 153.917 139.473 154.918C139.154 155.918 136.646 158.807 135.871 159.762C134.276 161.741 132.589 163.765 130.925 165.676C129.762 167.018 128.189 168.951 126.867 170.066C126.753 170.157 126.731 170.271 126.548 170.225V170.248Z" fill="#FEFEFE"/><path d="M128.531 80.0175C128.486 80.3814 128.873 80.2677 128.987 80.4269C129.489 81.0865 129.443 81.7234 129.079 82.4285C125.819 84.2709 122.491 86.0222 119.186 87.7964C118.638 87.6144 118.411 88.0466 118.091 88.183C117.316 88.4787 116.587 88.7744 115.698 89.0928C114.171 89.6387 112.598 90.2074 110.911 90.4576L110.182 90.867C104.665 90.3666 99.1033 90.1846 93.5869 90.6395C93.7693 90.0709 94.5671 89.5705 95.0686 89.2066C95.5245 88.8881 96.1627 88.5697 96.4363 88.2285C96.573 88.0466 98.1687 87.2505 98.5106 87.0685C103.229 84.5893 108.039 82.2693 112.757 79.8128C118 79.7673 123.266 79.881 128.509 80.0175H128.531Z" fill="#C7E3EE"/><path d="M163.02 122.665C165.96 122.187 168.491 120.64 171.158 119.435C171.728 119.185 173.46 118.343 173.961 118.275C174.6 118.184 175.238 118.775 175.603 119.276C175.739 119.458 175.876 119.89 175.899 119.913C175.945 119.958 176.036 119.913 176.104 119.913C176.127 120.095 176.332 121.232 176.332 121.346L176.446 121.573C176.446 121.573 176.469 122.21 176.446 122.346C176.378 122.756 176.127 123.233 176.036 123.643C175.648 125.258 175.58 127.214 174.03 128.101C172.183 129.17 170.314 130.102 168.491 131.24C166.553 132.468 164.775 133.833 162.86 135.061C162.769 135.106 162.427 135.197 162.701 135.266C158.461 137.222 152.739 138.996 148.955 141.521H148.294V140.975C151.075 137.836 153.834 134.447 156.706 131.444C157.093 131.058 157.618 130.466 158.028 130.125C158.507 129.739 159.259 129.466 159.669 129.011C160.034 128.624 160.148 128.01 160.421 127.555C161.401 125.895 162.541 124.598 163.043 122.665H163.02Z" fill="#90B6CD"/><path d="M89.3926 83.7478C89.4154 83.907 89.347 83.998 89.2558 84.1117C88.8227 84.8395 86.6344 87.0231 85.905 87.4552C84.4233 88.365 82.121 88.0239 80.4342 87.9101H44.0764L43.3242 87.7964H37.8762C37.7395 87.6599 38.5145 86.7274 38.6512 86.5454C39.3579 85.6356 40.5888 84.0889 41.6602 83.7478C43.0279 83.2928 45.0566 83.5658 46.4927 83.6568H77.6076L78.3599 83.7705H89.4154L89.3926 83.7478Z" fill="#FCFDFD"/><path d="M185.336 117.615C185.336 117.615 185.336 117.684 185.336 117.729C185.45 119.299 184.88 121.641 184.721 123.279C184.584 124.553 183.512 127.419 183.581 128.579C183.581 128.624 183.581 128.647 183.581 128.692L183.49 128.761C183.49 128.761 183.49 128.943 183.49 129.011C183.421 129.329 183.239 129.67 183.17 129.943C182.487 132.695 181.985 138.245 180.253 140.292C178.52 142.339 172.981 142.908 170.611 142.135C170.246 142.021 169.22 141.543 169.197 141.134C169.197 140.292 171.249 138.973 171.773 138.223C172.708 136.881 172.867 134.629 172.822 133.014C172.822 132.627 172.503 132.332 173.004 132.104C173.437 131.899 174.053 131.945 174.554 131.672C175.603 131.126 177.175 129.693 177.609 128.579C177.654 128.465 177.609 128.26 177.631 128.237C177.654 128.215 177.95 128.237 177.95 127.692C177.95 127.623 177.95 127.555 177.95 127.464C178.156 127.35 178.315 126.827 178.361 126.623C178.726 124.962 178.52 121.914 178.384 120.186C178.338 119.435 178.475 119.117 178.11 118.366C177.768 117.706 177.13 117.456 178.247 117.092C179.364 116.728 181.529 116.683 182.692 116.865C183.581 117.001 184.447 117.342 185.29 117.615H185.336Z" fill="white"/><path d="M113.555 120.663H93.0853L88.0933 120.959C88.0933 120.754 88.6859 120.368 88.8683 120.208C90.4639 118.912 92.2419 117.706 93.8832 116.433C94.0199 116.319 94.1795 116.251 94.3391 116.182L94.4758 112.702C94.8861 112.771 95.2508 112.611 95.6156 112.589C98.9892 112.407 102.842 112.862 106.284 112.816L113.601 112.862C113.965 113.339 114.285 113.771 114.854 114.022C115.174 114.158 116.359 114.34 116.336 114.727L113.555 120.686V120.663Z" fill="#FEFEFE"/><path d="M115.447 112.475C115.242 112.202 116.45 111.269 116.655 111.11C118.958 109.382 121.351 108.585 123.175 106.106C124.725 103.991 124.246 102.945 124.565 100.579C124.588 100.329 124.816 99.0552 124.953 98.9643C128.076 98.009 128.144 101.057 129.056 102.99C129.215 103.354 129.489 103.923 129.899 104.014C131.198 104.309 133.523 103.013 134.64 102.331C137.946 100.329 140.841 97.5768 143.986 95.3023C144.305 95.1658 144.511 95.3705 144.761 95.5297C148.705 98.3274 143.644 100.943 141.251 102.194C137.855 103.945 133.729 105.242 130.765 107.63C129.01 109.04 127.506 111.019 125.363 111.884C123.22 112.748 118.98 113.362 116.724 112.862C116.291 112.771 115.88 112.52 115.424 112.452L115.447 112.475Z" fill="#FCFDFD"/><path d="M130.72 89.5478C131.221 91.9361 129.261 93.0506 127.506 94.0741C125.75 95.0976 124.018 95.8937 122.308 96.8945C119.505 98.5094 116.838 100.306 113.988 101.876C113.304 102.262 111.914 103.104 111.207 103.263C111.002 103.309 111.071 103.263 111.048 103.104C111.025 102.535 111.185 101.716 110.774 101.284C110.501 100.989 110.159 100.875 109.794 101.08C109.179 101.444 109.612 102.717 108.996 103.263C108.426 103.468 107.834 103.422 107.264 103.468C101.588 103.946 95.912 102.967 90.2361 103.149C89.5066 103.172 88.2073 103.218 87.7742 102.535C87.5691 102.217 87.4551 101.512 87.5691 101.148C87.7059 100.67 89.0508 100.329 89.5067 100.215C94.3392 99.1463 100.904 99.8969 105.851 100.284C106.215 100.306 106.58 100.284 106.945 100.284C108.905 100.397 110.683 100.375 112.507 99.4647C117.476 97.0082 122.377 93.6647 127.369 91.049C127.688 90.867 130.629 89.3431 130.743 89.5251L130.72 89.5478Z" fill="#FCFCFC"/><path d="M87.2044 122.665C87.4096 122.847 85.4036 124.439 85.2212 124.575C83.8991 125.599 82.4631 126.418 81.141 127.396C78.2232 129.511 75.4195 131.786 72.4789 133.878C71.3392 134.697 69.9259 135.812 68.7178 136.494C67.6008 137.108 66.3699 137.267 65.139 137.54C62.9051 138.018 60.58 138.473 58.3005 138.677C59.5543 137.472 60.8764 136.312 62.1985 135.175C66.0964 131.854 70.3134 128.237 74.4621 125.258C75.4195 124.575 76.4224 123.757 77.6078 123.552C79.9328 123.165 82.577 123.233 84.9477 122.983C85.6999 122.915 86.4522 122.733 87.2044 122.665Z" fill="#FCFDFD"/><path d="M114.467 95.4843C114.102 94.6882 114.467 93.8239 113.646 93.278C113.441 93.1416 113.373 93.1416 113.145 93.2098C112.119 93.5737 112.552 94.6655 112.142 95.4616C111.686 95.5071 111.23 95.4616 110.774 95.4616C105.828 95.7573 100.539 95.7573 95.6156 95.4616C94.2707 95.3933 92.6067 95.3933 91.3302 94.9157C90.8971 94.7565 90.7831 94.711 90.8287 94.1878C91.011 91.9133 95.0001 92.0498 96.5958 92.0498C101.246 92.5274 105.987 92.0498 110.66 92.2545C111.321 92.2772 112.096 92.4819 112.735 92.4819C114.581 92.5047 116.108 91.2082 117.658 90.3666C119.573 89.3431 121.533 88.3878 123.403 87.3415C126.776 85.4537 129.967 83.2474 133.478 81.6097C133.637 81.6325 133.843 82.6788 133.843 82.8835C133.979 84.3847 133.409 84.5666 132.27 85.249C130.355 86.3862 128.258 87.387 126.297 88.5015C123.972 89.8208 121.716 91.2537 119.413 92.5957C117.955 93.4372 116.154 94.6655 114.695 95.3478C114.604 95.3933 114.513 95.4616 114.399 95.4388L114.467 95.4843Z" fill="#FCFCFC"/><path d="M43.689 89.3431C56.3401 89.7298 69.1964 88.8655 81.8704 89.4569C82.463 89.4796 83.0785 89.4341 83.694 89.4569C83.7623 89.889 83.4888 90.3667 83.1925 90.6624C81.5284 92.3682 76.1033 91.6859 73.8466 91.5267H51.9635L49.0002 91.2082H39.3124C38.4918 91.322 37.6712 91.3675 36.8505 91.4357C34.8446 90.5714 37.352 90.162 38.241 90.0255C39.8367 89.7753 41.683 89.6388 43.2787 89.5706C43.4838 89.5706 43.7118 89.6843 43.6662 89.3431H43.689Z" fill="#D3C3AC"/><path d="M113.897 109.564C113.76 108.858 112.643 108.608 112.142 109.336C111.8 109.814 112.233 110.997 111.709 111.315C111.435 111.474 109.019 111.065 108.472 111.042C103.867 110.724 99.0805 111.406 94.4075 111.042C93.4501 110.974 92.2648 110.837 91.353 110.564C90.4412 110.291 90.1677 110.132 90.578 109.086C90.8059 108.517 91.353 108.176 91.9001 107.994C93.3589 107.494 95.2965 107.585 96.801 107.744H109.224C111.823 108.153 113.51 108.131 115.835 106.88C116.519 106.516 122.491 102.945 122.787 103.24C122.331 105.219 120.576 106.902 118.912 107.971C118.023 108.563 116.997 108.949 116.085 109.541C115.447 109.95 114.854 110.678 114.262 111.019C114.125 111.087 114.057 111.156 113.874 111.133C113.806 110.655 113.965 109.973 113.874 109.541L113.897 109.564Z" fill="#FCFCFC"/><path d="M94.0201 105.242C94.8179 104.969 95.7525 104.833 96.5959 104.787C100.859 104.56 105.349 105.196 109.566 104.901C111.413 104.764 113.555 103.809 115.174 102.945C117.977 101.466 120.599 99.6012 123.403 98.1L122.673 101.375C121.169 101.944 119.755 103.263 118.297 103.809C117.476 104.127 116.359 104.4 115.424 104.719C114.649 104.992 113.715 105.447 112.985 105.56C112.256 105.674 111.64 105.879 110.843 106.061C110.66 106.106 110.455 106.061 110.524 106.334C107.971 106.334 105.417 106.334 102.887 106.22C99.5136 106.061 96.8922 105.833 93.4958 106.22L93.2678 105.629C93.4958 105.378 93.7237 105.333 94.0428 105.242H94.0201Z" fill="#D2DC8A"/><path d="M154.016 96.1439C153.788 96.1439 153.697 96.0075 153.629 95.8255C153.309 94.8702 154.062 93.9149 154.404 93.0733C154.996 91.6404 154.928 90.9125 155.11 89.4114C156.25 80.7227 159.51 70.8968 157.8 62.1626C157.23 59.183 155.156 57.5681 152.762 56.0214C152.694 55.9759 152.694 55.8394 152.648 55.8394C152.466 55.7257 152.17 55.9532 152.238 55.5892C155.407 56.772 158.757 56.9312 159.054 61.23C159.259 64.1869 158.871 67.9171 158.598 70.874C157.96 78.2889 156.615 86.6364 154.837 93.8694C154.609 94.7565 154.381 95.3478 153.993 96.1439H154.016Z" fill="#F6F5F3"/><path d="M109.612 97.2357L112.256 97.6679C111.048 98.6232 110.797 98.5094 109.292 98.5549H90.2816C89.7117 98.5549 89.1646 98.7141 88.572 98.6687C88.4808 98.6687 88.1845 98.7369 88.2984 98.5094C88.3896 98.3275 90.8059 96.6443 91.011 96.6216C91.1706 96.6216 91.9228 96.8718 92.2191 96.9173C93.9743 97.122 96.0259 97.0765 97.8267 97.0537C101.747 97.0082 105.691 97.1675 109.634 97.2584L109.612 97.2357Z" fill="#E2BB69"/><path d="M160.604 110.61C160.786 111.019 161.014 111.52 161.379 111.815C161.447 112.293 161.857 113.021 162.017 113.544C162.336 114.681 162.678 116.637 162.587 117.797C162.541 118.457 162.291 119.139 162.268 119.822C161.994 120.004 162.04 120.39 162.04 120.709C161.971 120.709 161.903 120.686 161.835 120.709C161.698 121.346 161.424 121.96 161.174 122.574C160.718 123.62 159.373 126.168 158.598 126.918C157.937 127.578 157.435 127.146 156.66 126.964C156.615 126.668 157.025 126.714 157.276 126.532C157.732 126.213 158.575 124.962 158.917 124.439C161.242 120.663 162.199 116.524 160.33 112.316C160.193 111.975 160.011 111.633 159.646 111.52C159.829 111.27 159.897 110.86 160.239 110.633C160.49 110.473 160.535 110.633 160.627 110.633L160.604 110.61Z" fill="#F6F5F3"/><path d="M176.537 122.551C176.56 122.961 176.583 123.256 176.651 123.643C176.72 124.03 176.857 124.394 176.879 124.78C176.925 125.44 176.72 126.054 176.765 126.714C176.446 126.85 176.515 127.237 176.401 127.51C175.626 129.306 174.44 129.375 172.822 130.057C169.198 131.604 166.257 133.628 162.701 135.266C162.427 135.175 162.769 135.106 162.861 135.061C164.753 133.833 166.553 132.445 168.491 131.24C170.292 130.103 172.184 129.147 174.03 128.101C175.58 127.214 175.648 125.235 176.036 123.643C176.127 123.233 176.355 122.756 176.446 122.346C176.56 122.346 176.56 122.483 176.56 122.574L176.537 122.551Z" fill="#F0F3F4"/><path d="M175.762 118.389C175.785 118.571 175.762 118.753 175.762 118.935H175.99C175.945 119.276 175.945 119.958 175.899 119.913C175.876 119.89 175.74 119.48 175.603 119.276C175.238 118.775 174.623 118.184 173.962 118.275C173.483 118.343 171.75 119.185 171.158 119.435C168.491 120.618 165.938 122.164 163.02 122.665C163.088 122.415 163.02 122.051 163.248 121.778C163.362 121.619 163.613 121.55 163.795 121.459C163.841 121.437 163.955 121.482 164.023 121.346C164.205 121.414 164.342 121.232 164.342 121.232C166.211 120.709 168.08 119.935 169.813 119.071C170.816 118.571 173.574 116.728 174.577 116.91C175.261 117.024 175.694 117.775 175.785 118.411L175.762 118.389Z" fill="#F0F3F4"/><path d="M132.361 95.3706C132.612 95.7118 131.837 96.2349 131.586 96.3942C130.674 96.9855 129.557 97.3267 128.668 97.9863L125.864 96.8945C125.636 96.7353 126.776 96.0757 126.89 96.0075C128.121 95.2796 129.511 94.893 130.97 95.0294C131.153 95.0294 132.292 95.3024 132.338 95.3706H132.361Z" fill="#D2DC8A"/><path d="M85.2211 90.9808C85.4035 92.6867 85.905 94.3471 85.5403 96.0529L83.5799 97.213C83.4659 95.4843 82.7137 93.5055 83.9218 92.0043C84.0586 91.8451 85.0616 90.7761 85.2439 90.958L85.2211 90.9808Z" fill="#D3C3AC"/><path d="M119.619 115.75C119.687 116.091 119.436 115.932 119.254 115.978C118.57 116.182 118.502 116.273 118.274 116.978C118 117.797 117.727 119.458 118.365 120.14C118.524 120.299 118.775 120.368 118.866 120.572C117.841 120.572 116.815 120.572 115.789 120.572C115.721 119.571 116.063 118.593 116.473 117.684C116.701 117.183 117.681 115.364 118.114 115.136C118.388 115 119.345 115.591 119.641 115.75H119.619Z" fill="#FCFCFC"/><path d="M133.341 97.4631C133.341 97.8953 133.934 99.2372 133.729 99.5329C132.726 100.011 131.746 100.852 130.788 101.307C130.674 101.353 130.606 101.444 130.492 101.353C130.355 101.239 129.42 99.4647 129.512 99.3282C130.013 98.9643 132.908 97.0992 133.341 97.4631Z" fill="#FCFCFC"/><path d="M86.6572 115.113L86.8623 119.526C86.3608 120.004 85.9277 120.618 85.449 121.095C85.3123 121.232 85.2211 121.391 85.0159 121.368C84.8564 119.344 84.3093 117.252 85.9049 115.614C85.9733 115.523 86.6116 115.045 86.68 115.113H86.6572Z" fill="#D3C3AC"/><path d="M160.307 112.293C160.171 111.952 159.988 111.611 159.623 111.497C159.418 111.77 159.168 112.088 158.962 112.384C158.962 112.589 158.917 112.725 158.803 112.884C157.777 114.636 156.82 116.114 154.7 116.728C154.517 116.774 153.948 116.91 153.788 116.751C151.828 117.638 147.702 118.525 145.536 118.616V118.844C145.422 118.889 145.331 118.73 145.308 118.73C145.058 118.73 144.305 118.798 143.986 118.844V119.071L143.758 118.957C143.325 119.003 142.869 119.048 142.436 119.071L142.277 119.162L142.208 119.071C141.957 119.071 141.684 119.071 141.433 119.071V119.299C141.091 119.299 140.727 119.299 140.385 119.299C140.202 119.299 140.225 119.185 140.225 119.185C140.088 119.185 139.929 119.185 139.792 119.185C137.558 119.094 135.21 119.185 132.976 119.185C132.292 119.185 131.426 119.117 130.788 119.185C130.765 119.185 130.628 119.367 130.469 119.299V119.071C126.115 118.912 123.357 117.661 119.596 115.773C119.664 116.114 119.413 115.955 119.231 116C118.547 116.205 118.479 116.296 118.251 117.001C117.977 117.82 117.704 119.481 118.342 120.163C118.502 120.322 118.752 120.39 118.843 120.595C123.585 120.595 128.281 120.277 133.022 120.277C135.507 120.277 137.786 120.345 140.271 120.504C141.16 120.55 141.912 120.163 142.117 121.232C142.208 121.664 141.98 122.028 142.505 122.278C143.348 122.665 144.579 122.915 145.491 123.233C149.183 124.53 152.853 126.077 156.637 126.964C156.592 126.668 157.002 126.713 157.253 126.532C157.709 126.213 158.552 124.962 158.894 124.439C161.219 120.663 162.176 116.524 160.307 112.316V112.293Z" fill="#90B6CD"/><path d="M156.546 112.248C156.295 112.179 156.569 111.952 156.637 111.838C157.344 110.542 158.119 108.699 158.575 107.312C158.917 106.243 159.076 105.106 159.396 104.014C159.396 104.037 159.555 104.15 159.578 104.309C160.148 106.493 160.216 107.426 159.031 109.427C158.347 110.587 157.481 111.315 156.523 112.248H156.546Z" fill="#F6F5F3"/><path d="M120.508 78.1524C120.508 78.1524 120.394 78.2662 120.234 78.2662C119.824 78.2889 119.391 78.2434 118.958 78.2662C119.14 77.0379 119.413 75.8097 119.596 74.5814C120.052 71.5336 120.257 68.4402 120.941 65.4379C120.713 67.5077 120.622 69.7822 120.508 71.852C120.416 73.5124 120.188 75.3548 120.28 77.0152C120.28 77.3564 120.394 77.834 120.508 78.1752V78.1524Z" fill="#F6F5F3"/><path d="M43.6889 89.3431C43.7573 89.6843 43.5294 89.5478 43.3014 89.5706C41.683 89.6388 39.8366 89.7525 38.2638 90.0255C37.3748 90.162 34.8673 90.5714 36.8733 91.4357C36.0755 91.5039 35.2776 91.6176 34.457 91.5494C34.6622 90.6851 35.688 89.889 36.5086 89.6161C38.4233 88.9792 41.5918 89.2976 43.6661 89.3659L43.6889 89.3431Z" fill="#F0F3F4"/><path d="M119.186 87.7965C115.903 89.5706 114.171 91.231 110.182 90.8671L110.911 90.4577C112.598 90.2075 114.171 89.6388 115.698 89.0929C116.587 88.7745 117.294 88.4788 118.091 88.1831C118.433 88.0467 118.639 87.6145 119.186 87.7965Z" fill="#F0F3F4"/><path d="M128.531 80.0176H132.817C132.976 80.1768 132.156 80.6544 132.042 80.7227C131.084 81.3368 130.059 81.8827 129.078 82.4286C129.42 81.7235 129.466 81.0866 128.987 80.427C128.873 80.2905 128.486 80.3815 128.531 80.0176Z" fill="#F6F5F3"/><path d="M118.297 103.809C116.861 104.787 115.288 105.583 113.715 106.311C112.643 106.357 111.572 106.311 110.501 106.334C110.432 106.061 110.638 106.106 110.82 106.061C111.618 105.879 112.233 105.697 112.963 105.56C113.692 105.424 114.627 104.992 115.402 104.719C116.359 104.4 117.453 104.128 118.274 103.809H118.297Z" fill="#F6F5F3"/><path d="M158.963 112.361C158.963 112.566 158.917 112.702 158.803 112.862C157.777 114.613 156.82 116.091 154.7 116.706C154.518 116.751 153.948 116.888 153.788 116.728C155.452 115.978 157.868 113.817 158.963 112.339V112.361Z" fill="#E4E4E4"/><path d="M122.81 114.226C122.764 114.681 123.106 114.795 123.311 115.091L125.112 116.41C124.975 116.364 124.77 116.41 124.565 116.364C123.357 116.023 122.217 115.523 121.169 114.886C120.963 114.59 122.285 114.295 122.468 114.249C122.605 114.226 122.719 114.249 122.833 114.226H122.81Z" fill="#F6F5F3"/><path d="M96.4363 88.2286C96.1628 88.5697 95.5245 88.8882 95.0686 89.2066C94.5672 89.5705 93.7693 90.0709 93.587 90.6395L91.4443 91.0717L91.3987 90.8443C92.6296 90.0937 93.8833 89.4113 95.1598 88.7289C95.5473 88.5242 96.026 88.2513 96.4363 88.2058V88.2286Z" fill="#F0F3F4"/><path d="M109.293 98.5552C102.956 98.6696 96.6187 98.3723 90.2817 98.5552H109.293Z" fill="#353533"/><path d="M136.441 106.22C136.487 106.538 136.099 106.356 136.327 106.652C136.145 106.652 135.917 106.607 135.735 106.652C135.666 106.652 135.438 107.039 135.415 107.062C134.823 107.312 134.549 107.38 133.979 107.744C133.273 108.199 132.315 108.767 131.518 109.268C131.244 109.427 130.925 109.7 130.606 109.7C132.452 107.994 134.207 107.266 136.418 106.197L136.441 106.22Z" fill="#E4E4E4"/><path d="M94.0199 105.242C93.7008 105.356 93.4728 105.378 93.2449 105.629L93.4728 106.22C92.789 106.288 92.0367 106.47 91.3301 106.538C91.1933 106.538 90.9198 106.584 90.8286 106.493C91.7632 105.856 92.8574 105.287 94.0199 105.242Z" fill="#F0F3F4"/><path d="M148.295 140.975V141.521H148.956C148.591 141.771 147.633 142.817 147.2 142.567C146.995 142.453 147.132 142.271 147.2 142.135C147.428 141.748 147.975 141.316 148.272 140.975H148.295Z" fill="#E4E4E4"/><path d="M136.441 98.7596C136.441 98.7596 136.396 98.8734 136.327 98.9188C136.145 99.0098 135.621 99.2828 135.461 99.1463C135.324 99.0326 135.142 98.1 135.142 97.8726C135.666 98.0318 135.78 98.8733 136.464 98.7596H136.441Z" fill="#F0F3F4"/><path d="M132.27 92.9596C132.156 93.551 132.862 93.3463 132.817 93.7329C132.338 93.7102 131.86 93.7329 131.381 93.7329C131.084 93.4827 132.11 93.0506 132.27 92.9596Z" fill="#E4E4E4"/><path d="M109.612 97.2357C110.592 97.2585 111.572 97.3949 112.575 97.3494C112.643 97.6679 112.324 97.6224 112.256 97.6679L109.612 97.2357Z" fill="#D3C3AC"/><path d="M141.479 119.048V119.276C141.137 119.276 140.772 119.276 140.43 119.276C140.248 119.276 140.271 119.162 140.271 119.162C140.59 118.957 141.091 119.071 141.479 119.048Z" fill="#7B9EB4"/><path d="M130.834 119.162C130.834 119.162 130.674 119.344 130.515 119.276V119.048C130.515 119.048 130.697 119.048 130.765 119.048L130.834 119.139V119.162Z" fill="#7B9EB4"/><path d="M144.009 118.821V119.048L143.781 118.935C143.781 118.935 143.781 118.844 144.009 118.821Z" fill="#7B9EB4"/><path d="M142.482 119.048L142.322 119.14L142.254 119.048C142.254 119.048 142.459 119.048 142.482 119.048Z" fill="#7B9EB4"/><path d="M145.559 118.616V118.844C145.445 118.889 145.354 118.73 145.331 118.73C145.331 118.616 145.468 118.616 145.559 118.616Z" fill="#7B9EB4"/><path d="M147.542 73.3304C147.588 72.1932 147.542 70.7375 148.5 69.9414C148.841 69.8504 149.115 70.5783 149.206 70.8512C150.186 73.8536 148.545 81.2003 146.972 83.9979C145.787 86.0905 142.049 89.9799 142.071 92.2545C142.071 92.6411 142.368 93.005 142.391 93.3462C142.413 93.7556 142.208 93.9831 142.163 94.3925C140.704 94.3243 140.248 93.187 140.43 91.845C140.499 91.4129 140.863 90.2984 141.068 89.889C142.071 87.7509 143.918 85.7493 145.217 83.7932C147.177 80.8364 147.405 78.2207 147.542 74.7634C147.542 74.5814 147.542 74.3995 147.542 74.2175C147.542 73.9218 147.542 73.6261 147.542 73.3304Z" fill="#595757"/><path d="M147.542 74.1948L147.451 74.1265C147.406 73.8763 147.406 73.6261 147.451 73.3987L147.542 73.3304C147.542 73.6261 147.542 73.9218 147.542 74.2175V74.1948Z" fill="#DE9C89"/><path d="M186.977 118.23C187.16 116.364 186.225 115.659 184.493 115.432C184.288 115.409 179.843 114.977 176.606 116.296C175.99 115.978 175.124 115.136 174.395 115.227C173.802 115.295 171.91 116.364 171.272 116.728C171.044 116.865 166.599 119.23 163.795 120.049C163.727 119.981 164.183 119.162 164.205 118.98C164.638 116.728 164.274 114.113 163.294 112.043C162.838 111.065 162.199 110.246 161.698 109.359C161.607 109.2 161.652 109.018 161.379 109.063C161.379 108.995 161.379 108.904 161.379 108.836C161.356 108.631 161.265 108.631 161.265 108.608C161.219 108.062 161.379 107.698 161.493 107.175C161.561 106.857 161.493 106.948 161.493 106.857C161.493 106.675 161.493 106.47 161.493 106.311C161.516 106.015 161.561 106.175 161.493 105.765C161.493 105.697 161.493 105.606 161.493 105.538C161.47 105.333 161.379 105.333 161.379 105.31C160.991 103.263 160.444 101.58 159.852 99.6012C159.236 97.5769 158.78 95.8027 158.529 93.6874C157.823 87.7282 158.871 83.1109 159.51 77.2882C159.874 73.9674 160.102 70.6466 160.399 67.303C160.718 63.823 161.994 59.4104 158.871 56.772C157.663 55.7484 153.629 53.7241 152.101 53.5422C151.007 53.4057 149.776 53.6104 150.848 54.8386C151.326 54.9979 151.782 55.3163 152.284 55.4982C155.452 56.681 158.803 56.8402 159.099 61.1391C159.304 64.0959 158.917 67.8261 158.643 70.783C158.005 78.198 156.66 86.5454 154.882 93.7784C154.654 94.6655 154.426 95.2569 154.039 96.0529C153.423 97.3267 152.284 98.8506 150.779 99.1008C149.845 99.26 148.773 98.8734 147.953 99.442C147.861 99.8969 147.747 100.375 148.203 100.625C150.802 102.08 154.495 99.1236 155.589 96.849C156.113 95.7345 156.182 94.4608 156.546 93.3008C156.592 93.1416 156.637 92.7776 156.82 92.7549C157.162 96.5078 158.415 100.011 159.441 103.582C159.487 103.695 159.441 103.855 159.464 103.946C159.464 103.968 159.624 104.082 159.646 104.241C160.216 106.425 160.285 107.357 159.099 109.359C158.415 110.542 157.549 111.247 156.592 112.179C155.589 113.157 154.973 113.703 153.834 114.477C152.306 115.523 150.734 116.023 148.91 116.433C143.553 117.593 137.718 118.07 132.293 117.547C129.785 117.297 127.597 116.956 125.158 116.342C125.021 116.296 124.816 116.342 124.611 116.296C123.403 115.955 122.263 115.455 121.214 114.818C121.009 114.522 122.331 114.226 122.514 114.181C122.65 114.158 122.764 114.181 122.878 114.158C124.109 113.885 125.363 113.794 126.48 113.18C127.939 112.384 129.443 110.792 130.697 109.655C132.543 107.949 134.298 107.221 136.51 106.152C139.473 104.696 145.605 102.24 147.474 99.7149C149.503 96.9628 146.494 94.438 144.26 93.2098C141.616 94.9384 139.268 97.1447 136.51 98.6914C136.51 98.6914 136.464 98.8051 136.396 98.8506C136.213 98.9416 135.689 99.2145 135.529 99.0781C135.393 98.9643 135.21 98.0318 135.21 97.8043C135.21 97.4631 135.279 96.94 135.37 96.5988C135.507 96.0529 136.122 95.0067 135.894 94.5518C135.598 93.9376 133.569 93.6874 132.908 93.6419C132.429 93.6192 131.951 93.6419 131.472 93.6419C131.176 93.3918 132.201 92.9596 132.361 92.8686C132.612 92.7094 132.885 92.5274 133.136 92.3455C133.25 91.8223 132.498 90.7533 132.384 90.1392C132.133 88.7517 132.885 88.2059 133.364 87.0913C133.455 86.8639 133.432 86.5682 133.523 86.3862C133.774 85.8404 135.393 85.1807 135.917 84.8396C136.669 84.3392 135.985 83.7023 135.803 83.0199C135.689 82.565 135.575 81.7917 135.552 81.2913C135.529 80.7909 135.712 78.8803 135.347 78.6529C134.8 78.3117 133.022 78.5164 132.315 78.2662L127.095 78.0387C126.913 76.2419 126.845 74.4223 126.753 72.6254C126.662 70.3509 127.027 67.394 126.617 65.3014C126.548 65.0057 126.366 64.0277 125.978 64.1642C124.633 64.6418 125.067 66.6889 124.998 67.8034C124.884 69.805 124.725 71.7156 124.884 73.7172L125.112 78.0387C123.608 78.0842 122.103 77.9705 120.599 78.0387C120.599 78.0387 120.485 78.1525 120.325 78.1525C119.915 78.1752 119.482 78.1297 119.049 78.1525C119.231 76.9242 119.505 75.696 119.687 74.4678C120.143 71.4199 120.348 68.3265 121.032 65.3242C121.237 63.55 121.83 61.2983 122.673 59.7289C123.403 58.3869 125.568 56.8857 125.819 55.7939C125.864 55.6347 126.024 54.9751 125.705 55.0206C124.93 55.1116 123.995 55.521 123.403 55.9986C118.98 59.4787 118.958 70.8513 117.932 76.0827C117.681 77.3336 117.567 78.016 116.154 78.1297C114.216 78.3117 112.256 77.8113 110.409 78.8803L93.1766 87.8874C93.0626 87.6827 93.017 87.4098 93.017 87.1823C92.9258 85.7949 93.1538 84.2482 93.017 82.9062C92.9942 82.656 92.8802 82.0646 92.6751 81.9282C92.242 81.6097 90.3728 81.587 89.7573 81.5415C80.6622 80.9274 71.2251 82.3148 62.0616 82.0874H40.5661C40.3837 82.1101 39.3579 83.0654 39.13 83.2929C37.2836 85.1807 35.7108 87.3643 33.9784 89.3204C33.5452 89.798 32.8614 90.2984 32.4967 90.7988C32.0408 91.3902 31.8356 92.1635 31.2886 92.8686C29.6701 95.0067 27.459 96.849 26.0229 99.1236V130.762L64.4779 131.194C64.4551 131.467 64.2043 131.513 64.0903 131.626C61.902 133.946 58.5512 135.812 56.1121 138.041C55.8158 138.314 54.015 140.088 54.243 140.406C55.9298 140.929 57.8218 140.474 59.5314 140.156C62.1528 139.655 64.7514 138.746 67.4184 138.768C65.5948 143.454 63.7484 148.139 61.8564 152.802C61.2866 154.19 60.3748 155.554 60.4888 157.124C60.4888 157.238 62.3807 157.488 62.6315 157.51C63.7028 157.624 64.8654 157.67 65.9367 157.738C66.575 157.761 67.2588 157.624 67.8515 157.852V164.471L67.7603 165.221V169.611L68.1022 172.613L69.903 172.841H121.989C123.539 172.682 125.044 172.727 126.548 172.113C128.691 171.249 130.651 168.269 132.156 166.518C134.572 163.697 137.034 160.9 139.222 157.897C140.134 156.669 141.547 154.895 141.707 153.348C141.866 151.71 141.57 149.868 141.707 148.208C142.847 146.798 144.442 145.728 146.015 144.819C149.32 142.885 152.922 141.452 156.341 139.769C161.242 137.335 166.097 134.788 170.998 132.354C171.249 132.309 171.112 132.4 171.158 132.514C171.5 133.605 170.884 136.653 170.155 137.563C169.676 138.154 168.833 138.564 168.286 139.201C166.781 140.975 167.283 142.43 169.357 143.295C171.978 144.364 176.013 144.114 178.612 143.045C183.034 141.248 182.76 138.746 183.695 134.629C184.06 133.037 185.632 126.964 185.632 126.964C185.724 126.532 186.863 119.094 186.955 118.025L186.977 118.23ZM130.492 119.048C130.492 119.048 130.674 119.048 130.742 119.048L130.811 119.139C131.449 119.071 132.338 119.139 132.999 119.139C135.233 119.139 137.581 119.048 139.815 119.139C139.952 119.139 140.111 119.139 140.248 119.139C140.567 118.935 141.069 119.048 141.456 119.026C141.707 119.026 141.98 119.026 142.231 119.026C142.345 119.026 142.436 119.026 142.459 119.026C142.892 119.003 143.348 118.957 143.781 118.912C143.781 118.912 143.781 118.821 144.009 118.798C144.328 118.775 145.058 118.684 145.331 118.684C145.331 118.571 145.468 118.571 145.559 118.571C147.725 118.48 151.828 117.593 153.811 116.706C155.475 115.955 157.891 113.794 158.985 112.316C159.19 112.02 159.441 111.724 159.646 111.429C159.829 111.179 159.897 110.769 160.239 110.542C160.49 110.382 160.535 110.542 160.627 110.542C160.809 110.951 161.037 111.451 161.402 111.747C161.47 112.225 161.88 112.953 162.04 113.476C162.359 114.613 162.701 116.569 162.61 117.729C162.564 118.389 162.313 119.071 162.291 119.753C162.017 119.935 162.063 120.322 162.063 120.641C161.994 120.641 161.926 120.618 161.857 120.641C161.721 121.277 161.447 121.891 161.196 122.506C160.741 123.552 159.396 126.099 158.621 126.85C157.96 127.51 157.458 127.077 156.683 126.895C152.876 126.008 149.206 124.462 145.536 123.165C144.625 122.847 143.394 122.597 142.55 122.21C142.026 121.982 142.254 121.619 142.163 121.164C141.958 120.072 141.205 120.481 140.316 120.436C137.832 120.277 135.552 120.208 133.068 120.208C128.326 120.208 123.63 120.504 118.889 120.527C117.863 120.527 116.838 120.527 115.812 120.527C115.743 119.526 116.085 118.548 116.496 117.638C116.724 117.138 117.704 115.318 118.137 115.091C118.41 114.954 119.368 115.546 119.664 115.705C123.448 117.593 126.184 118.844 130.537 119.003L130.492 119.048ZM89.4838 100.215C94.3163 99.1463 100.881 99.8969 105.828 100.284C106.192 100.306 106.557 100.284 106.922 100.284C108.882 100.397 110.66 100.375 112.484 99.4647C117.453 97.0082 122.354 93.6647 127.346 91.049C127.665 90.867 130.606 89.3431 130.72 89.5251C131.221 91.9133 129.261 93.0278 127.506 94.0514C125.796 95.0294 124.018 95.871 122.308 96.8718C119.505 98.4867 116.838 100.284 113.988 101.853C113.304 102.24 111.914 103.081 111.207 103.24C111.002 103.286 111.071 103.24 111.048 103.081C111.025 102.513 111.185 101.694 110.774 101.262C110.501 100.966 110.159 100.852 109.794 101.057C109.179 101.421 109.612 102.695 108.996 103.24C108.426 103.445 107.834 103.4 107.264 103.445C101.588 103.923 95.9119 102.945 90.236 103.127C89.5066 103.149 88.2073 103.195 87.7742 102.513C87.569 102.194 87.4551 101.489 87.569 101.125C87.7058 100.647 89.0507 100.306 89.5066 100.193L89.4838 100.215ZM88.2985 98.4867C88.3897 98.3047 90.8059 96.6216 91.0111 96.5988C91.1706 96.5988 91.9229 96.849 92.2192 96.8945C93.9744 97.0992 96.0259 97.0537 97.8267 97.031C101.747 96.9855 105.691 97.1447 109.634 97.2357C110.615 97.2584 111.595 97.3949 112.598 97.3494C112.666 97.6679 112.347 97.6224 112.279 97.6679C111.071 98.6231 110.82 98.5094 109.315 98.5549C102.978 98.6686 96.6414 98.373 90.3044 98.5549C89.7345 98.5549 89.1875 98.7141 88.5948 98.6686C88.5036 98.6686 88.2073 98.7369 88.3213 98.5094L88.2985 98.4867ZM123.403 98.1L122.673 101.375C121.169 101.944 119.755 103.263 118.297 103.809C116.86 104.787 115.288 105.583 113.715 106.311C112.643 106.357 111.572 106.311 110.501 106.334C107.948 106.334 105.395 106.334 102.864 106.22C99.4907 106.061 96.8693 105.833 93.4729 106.22C92.7891 106.288 92.0368 106.47 91.3302 106.538C91.1934 106.538 90.9199 106.584 90.8287 106.493C91.7633 105.856 92.8574 105.287 94.02 105.242C94.8178 104.969 95.7524 104.833 96.5958 104.787C100.858 104.56 105.349 105.197 109.566 104.901C111.412 104.764 113.555 103.809 115.174 102.945C117.977 101.466 120.599 99.6012 123.403 98.1ZM90.578 109.109C90.8059 108.54 91.353 108.199 91.9001 108.017C93.3589 107.517 95.2965 107.608 96.8009 107.767H109.224C111.823 108.176 113.51 108.153 115.835 106.902C116.518 106.538 122.491 102.967 122.787 103.263C122.331 105.242 120.576 106.925 118.912 107.994C118.023 108.586 116.997 108.972 116.085 109.564C115.447 109.973 114.854 110.701 114.262 111.042C114.125 111.11 114.057 111.179 113.874 111.156C113.806 110.678 113.965 109.996 113.874 109.564C113.738 108.858 112.621 108.608 112.119 109.336C111.777 109.814 112.21 110.997 111.686 111.315C111.412 111.474 108.996 111.065 108.449 111.042C103.845 110.724 99.0576 111.406 94.3847 111.042C93.4273 110.974 92.242 110.837 91.3302 110.564C90.3728 110.291 90.1449 110.132 90.5552 109.086L90.578 109.109ZM94.3163 116.182L94.4531 112.702C94.8634 112.771 95.2281 112.611 95.5928 112.589C98.9665 112.407 102.819 112.862 106.261 112.816L113.578 112.862C113.943 113.339 114.262 113.771 114.832 114.022C115.151 114.158 116.336 114.34 116.313 114.727L113.532 120.686H93.0626L88.0705 120.982C88.0705 120.777 88.6632 120.368 88.8455 120.231C90.4412 118.935 92.2192 117.729 93.8604 116.455C93.9972 116.342 94.1567 116.273 94.3163 116.205V116.182ZM88.7544 123.62C89.5522 123.051 90.2816 122.437 91.3302 122.46C91.5809 122.46 91.8317 122.574 92.1052 122.574C95.3421 122.619 98.5562 122.028 101.77 122.005H108.381L109.133 122.119H116.291L117.043 122.233H119.801L120.553 122.119H126.275L127.027 122.005H130.765L131.518 121.891C133.501 122.142 135.963 121.505 137.9 121.801C138.082 121.823 138.288 121.914 138.402 122.073C138.516 122.597 136.464 124.416 136.054 124.848C135.415 125.553 134.846 126.35 134.139 126.986C134.002 127.1 133.911 127.259 133.706 127.259C133.706 127.578 133.136 128.192 132.885 128.465C132.042 129.42 130.993 130.262 130.127 131.194C128.258 133.264 126.161 137.017 123.083 137.335C120.781 137.563 118.251 137.017 115.949 136.903C103.184 136.903 90.4184 136.903 77.6533 136.903C75.5334 136.903 73.3906 136.949 71.2707 136.858C73.2995 135.061 75.4878 133.446 77.6533 131.831C81.2777 129.102 85.0388 126.236 88.7544 123.597V123.62ZM144.009 95.3024C144.328 95.1659 144.533 95.3706 144.784 95.5298C148.728 98.3275 143.667 100.943 141.274 102.194C137.877 103.946 133.751 105.242 130.788 107.63C129.033 109.04 127.528 111.019 125.386 111.884C123.22 112.748 119.003 113.362 116.746 112.862C116.313 112.771 115.903 112.52 115.447 112.452C115.242 112.179 116.45 111.247 116.655 111.088C118.958 109.359 121.351 108.563 123.175 106.084C124.725 103.968 124.246 102.922 124.565 100.556C124.588 100.306 124.816 99.0326 124.953 98.9416C128.075 97.9863 128.144 101.034 129.056 102.967C129.215 103.331 129.489 103.9 129.899 103.991C131.198 104.287 133.523 102.99 134.64 102.308C137.946 100.306 140.841 97.5541 143.986 95.2796L144.009 95.3024ZM133.341 97.4631C133.341 97.8953 133.934 99.2373 133.729 99.533C132.748 100.011 131.745 100.852 130.788 101.307C130.674 101.353 130.606 101.444 130.492 101.353C130.355 101.239 129.42 99.4647 129.512 99.3283C130.013 98.9643 132.908 97.0992 133.341 97.4631ZM132.361 95.3706C132.612 95.7118 131.837 96.2349 131.586 96.3941C130.674 96.9855 129.557 97.3267 128.668 97.9863L125.864 96.8945C125.636 96.7353 126.776 96.0757 126.89 96.0075C128.121 95.2796 129.512 94.8929 130.97 95.0294C131.153 95.0294 132.293 95.3024 132.338 95.3706H132.361ZM133.888 82.929C134.025 84.4301 133.455 84.6121 132.315 85.2945C130.401 86.4317 128.303 87.4325 126.343 88.547C124.018 89.8663 121.761 91.2992 119.459 92.6412C118 93.4827 116.199 94.711 114.741 95.3933C114.649 95.4388 114.558 95.5071 114.444 95.4843C114.079 94.6882 114.444 93.8239 113.624 93.278C113.418 93.1416 113.35 93.1416 113.122 93.2098C112.096 93.5737 112.529 94.6655 112.119 95.4616C111.663 95.5071 111.207 95.4616 110.751 95.4616C105.805 95.7573 100.517 95.7573 95.5928 95.4616C94.2479 95.3933 92.5839 95.3933 91.3074 94.9157C90.8743 94.7565 90.7603 94.711 90.8059 94.1878C90.9883 91.9133 94.9774 92.0498 96.573 92.0498C101.223 92.5502 105.964 92.0498 110.637 92.2545C111.298 92.2772 112.074 92.4819 112.712 92.4819C114.558 92.5047 116.085 91.2082 117.635 90.3666C119.55 89.3431 121.511 88.3878 123.38 87.3415C126.753 85.4537 129.945 83.2474 133.455 81.6097C133.615 81.6325 133.82 82.6788 133.82 82.8835L133.888 82.929ZM95.1597 88.7745C95.5472 88.5698 96.0259 88.2968 96.4362 88.2513C96.573 88.0694 98.1686 87.2733 98.5106 87.0913C103.229 84.6121 108.039 82.2921 112.757 79.8356C118 79.7901 123.266 79.9038 128.509 80.0403H132.794C132.954 80.1995 132.133 80.6772 132.019 80.7454C131.062 81.3595 130.036 81.9054 129.056 82.4513C125.796 84.2937 122.468 86.0451 119.163 87.8192C115.88 89.5933 114.148 91.2537 110.159 90.8898C104.642 90.3894 99.0804 90.2074 93.5641 90.6623L91.4214 91.0945L91.3758 90.867C92.6067 90.1164 93.8604 89.4341 95.1369 88.7517L95.1597 88.7745ZM38.6285 86.5454C39.3351 85.6356 40.5661 84.089 41.6374 83.7478C43.0051 83.2929 45.0338 83.5658 46.4699 83.6568H77.5849L78.3371 83.7705H89.3926C89.4154 83.9298 89.347 83.998 89.2559 84.1345C88.8228 84.8623 86.6344 87.0458 85.905 87.478C84.4234 88.3878 82.1211 88.0466 80.4342 87.9329H44.0765L43.3242 87.8192H37.8763C37.7395 87.6827 38.5145 86.7502 38.6513 86.5682L38.6285 86.5454ZM85.5403 96.0529L83.5799 97.213C83.466 95.4843 82.7137 93.5055 83.9219 92.0043C84.0586 91.8451 85.0616 90.7761 85.244 90.958C85.4263 92.6639 85.9278 94.3243 85.5631 96.0302L85.5403 96.0529ZM36.5314 89.5933C38.4461 88.9564 41.6146 89.2749 43.689 89.3431C56.3401 89.7298 69.1964 88.8655 81.8703 89.4568C82.463 89.4796 83.0784 89.4341 83.6939 89.4568C83.7623 89.889 83.4888 90.3666 83.1924 90.6623C81.5284 92.3682 76.1032 91.6859 73.8465 91.5267H51.9635L49.0002 91.2082H39.3123C38.4917 91.3219 37.6711 91.3674 36.8505 91.4357C36.0527 91.5039 35.2549 91.6176 34.4342 91.5494C34.6394 90.6851 35.6652 89.889 36.4858 89.6161L36.5314 89.5933ZM63.5205 129.352C53.5819 129.784 43.575 129.466 33.6364 129.352H27.4362V100.352L27.7098 100.193C30.8783 100.193 34.0011 100.397 37.1696 100.306L37.9219 100.42H41.8882L42.6404 100.534C53.2172 100.693 63.8168 100.306 74.4164 100.534C74.8723 100.534 75.237 100.875 75.123 100.056C74.9407 98.7596 73.0715 98.9871 72.1141 99.0098C67.0993 99.1463 62.1756 99.0553 57.1607 98.8961C48.3163 98.6231 39.4947 99.3055 30.6731 98.7824C29.9893 98.7369 29.3054 98.8051 28.6444 98.6686C28.5988 98.6232 29.2142 97.8498 29.3054 97.7361C30.0576 96.8263 33.0894 93.4145 34.0239 93.1188C34.2747 93.0506 34.799 92.9823 35.0725 92.9596C37.6711 92.7776 40.5661 93.4145 43.2103 92.9596C54.8812 93.3235 66.8485 92.4819 78.4967 92.9596C79.1121 92.9823 79.7732 93.1643 80.4115 93.0733C80.5026 93.1416 80.2063 93.5055 80.1379 93.6192C78.9526 95.2796 76.5819 96.2577 75.9209 98.3502C76.3084 98.4867 76.5363 98.6232 76.9694 98.5777C78.2459 98.4639 79.91 95.8482 80.9813 95.0067C81.1865 94.8475 81.346 94.6882 81.6424 94.7337L82.3262 98.9416C82.463 99.3965 84.0586 98.8961 84.4233 98.7596C86.0418 98.1682 87.5462 96.849 87.4779 95.0067C87.4323 94.0059 87.2499 92.5274 87.1359 91.5039C87.0676 90.9125 86.7028 89.9572 86.8396 89.4341L89.6206 85.9541C89.9169 85.6356 91.0566 84.4301 91.3302 85.249C91.6721 86.2725 91.8317 87.5917 91.3758 88.5925C90.8287 89.8208 89.3014 90.1847 88.5264 91.231C87.5462 92.5729 87.4779 94.2561 88.3669 95.6435C88.5264 95.871 88.8 96.0075 88.7772 96.2577C87.911 96.8035 86.8396 97.4404 86.0874 98.1228C84.7425 99.3283 84.4461 100.898 84.6057 102.672C84.6513 103.127 85.1984 103.536 85.5631 103.809C85.9734 104.105 86.5661 104.446 87.0903 104.491C88.0021 104.582 89.0963 104.309 89.8941 104.992C89.4838 105.993 88.2529 106.448 87.7742 107.38C87.2955 108.29 87.2955 110.269 87.911 111.133C88.9139 112.543 91.2846 112.293 92.7435 112.657C93.0398 113.589 93.1994 114.795 92.4699 115.568C91.9912 116.046 89.5978 117.866 89.0051 118.048C88.8911 118.093 88.8 118.116 88.6632 118.093C88.5036 116.251 88.4352 114.386 87.8882 112.611C87.4551 112.316 85.8138 113.635 85.4263 113.908C85.13 114.135 83.238 115.705 83.1924 115.841C82.9873 117.684 83.7167 119.526 83.3748 121.346L78.9298 121.801C78.6562 121.801 77.5849 121.846 77.4481 121.755C77.1974 121.573 77.4481 121.004 77.4481 120.754C77.7673 114.522 77.7673 108.267 77.79 101.989C77.6305 101.08 77.6989 100.147 77.3569 99.26C75.9665 98.9188 75.7385 100.534 75.6929 101.557C75.6701 102.126 75.8069 102.581 75.8069 103.081C75.9665 109.222 75.9437 115.409 75.8525 121.573L75.3054 122.551C73.2311 124.166 71.3163 125.963 69.2648 127.601C68.5353 128.169 67.5096 129.079 66.5978 129.215C65.5948 129.352 64.569 129.306 63.5433 129.352H63.5205ZM86.8624 119.526C86.3609 120.004 85.9278 120.618 85.4491 121.095C85.3123 121.232 85.2212 121.391 85.016 121.368C84.8564 119.344 84.3094 117.251 85.905 115.614C85.9734 115.523 86.6117 115.045 86.68 115.113L86.8852 119.526H86.8624ZM65.1389 137.54C62.905 138.018 60.5799 138.473 58.3005 138.677C59.5542 137.472 60.8763 136.312 62.1984 135.175C66.0963 131.854 70.3133 128.237 74.462 125.258C75.4194 124.575 76.4224 123.757 77.6077 123.552C79.9328 123.165 82.577 123.233 84.9476 122.983C85.6999 122.915 86.4521 122.733 87.2043 122.665C87.4095 122.847 85.4035 124.439 85.2212 124.575C83.8991 125.599 82.463 126.418 81.1409 127.396C78.2232 129.511 75.4194 131.786 72.4788 133.878C71.3391 134.697 69.9258 135.812 68.7177 136.494C67.6007 137.108 66.3698 137.267 65.1389 137.54ZM67.9199 155.987H62.5859L69.356 138.336L123.562 138.791C123.699 138.928 122.536 141.68 122.377 142.044C120.667 146.001 118.707 149.982 116.883 153.894C116.632 154.44 115.607 156.623 115.128 156.76H108.221L103.07 156.328H92.4015L91.6493 156.214H81.8703L81.1181 156.1H68.6949L67.9427 155.987H67.9199ZM122.65 171.476H74.3936C72.7296 171.18 71.0884 171.089 69.4015 171.135V157.874H74.0745L74.8267 157.761H89.0051L89.7573 157.874H91.7405L95.023 158.193H116.336C116.519 158.125 117.544 156.26 117.704 155.918C119.641 152.052 121.055 147.594 123.197 143.863C123.38 143.545 123.585 143.136 123.881 142.954C123.881 143.34 123.858 143.727 123.881 144.114C124.314 150.164 124.086 156.259 124.656 162.31V171.089L122.628 171.476H122.65ZM139.952 151.665C139.724 152.711 139.792 153.917 139.473 154.918C139.177 155.873 136.646 158.807 135.871 159.762C134.276 161.741 132.589 163.765 130.925 165.676C129.762 167.018 128.189 168.951 126.867 170.066C126.753 170.157 126.731 170.271 126.548 170.225L125.454 139.201C125.454 139.201 126.799 139.815 127.004 139.906C131.062 142.021 135.165 144.205 139.154 146.411C139.518 146.616 140.134 146.843 140.18 147.252C140.339 148.572 139.86 150.278 139.952 151.642V151.665ZM145.4 141.976C144.237 143.295 143.052 144.614 141.866 145.91L126.571 137.699C126.525 137.54 126.617 137.517 126.685 137.426C127.711 136.085 129.192 134.561 130.355 133.31C132.27 131.263 134.39 129.352 136.282 127.282C137.376 126.122 138.379 124.712 139.473 123.552C139.678 123.324 139.906 123.097 140.157 122.915L156.569 128.988C156.706 129.102 156.706 129.102 156.637 129.261C156.455 129.602 155.748 130.307 155.429 130.648C152.078 134.424 148.75 138.2 145.422 141.976H145.4ZM162.701 135.288C158.461 137.245 152.74 139.019 148.956 141.543C148.591 141.794 147.633 142.84 147.2 142.59C146.995 142.476 147.132 142.294 147.2 142.157C147.428 141.771 147.975 141.339 148.272 140.997C151.053 137.859 153.811 134.47 156.683 131.467C157.071 131.081 157.595 130.489 158.005 130.148C158.484 129.761 159.236 129.488 159.646 129.033C160.011 128.647 160.125 128.033 160.399 127.578C161.379 125.917 162.518 124.621 163.02 122.688C163.088 122.437 163.02 122.073 163.248 121.801C163.362 121.641 163.613 121.573 163.795 121.482C163.841 121.459 163.955 121.505 164.023 121.368C164.205 121.437 164.342 121.255 164.342 121.255C166.211 120.731 168.08 119.958 169.813 119.094C170.816 118.593 173.574 116.751 174.577 116.933C175.261 117.047 175.694 117.797 175.785 118.434C175.808 118.616 175.785 118.798 175.785 118.98H176.013C175.967 119.321 176.081 119.64 176.127 119.958C176.15 120.14 176.218 120.731 176.241 120.845C176.241 120.845 176.355 121.3 176.355 121.391C176.355 121.391 176.469 121.823 176.469 121.937C176.469 122.073 176.492 122.255 176.469 122.369C176.583 122.369 176.583 122.506 176.583 122.597C176.606 123.006 176.629 123.302 176.697 123.688C176.765 124.075 176.902 124.439 176.925 124.826C176.97 125.485 176.765 126.099 176.811 126.759C176.492 126.895 176.56 127.282 176.446 127.555C175.671 129.352 174.486 129.42 172.867 130.103C169.243 131.649 166.302 133.674 162.746 135.311L162.701 135.288ZM184.721 123.302C184.584 124.575 183.513 127.441 183.581 128.601C183.581 128.647 183.581 128.67 183.581 128.715L183.49 128.783C183.49 128.783 183.49 128.965 183.49 129.033C183.421 129.352 183.239 129.693 183.171 129.966C182.487 132.718 181.985 138.268 180.253 140.315C178.543 142.317 172.981 142.931 170.611 142.157C170.246 142.044 169.22 141.566 169.197 141.157C169.197 140.315 171.249 138.996 171.773 138.245C172.708 136.903 172.867 134.652 172.822 133.037C172.822 132.65 172.503 132.354 173.004 132.127C173.437 131.922 174.053 131.968 174.554 131.695C175.603 131.149 177.176 129.716 177.609 128.601C177.654 128.488 177.951 128.26 177.973 127.692C177.973 127.623 178.543 121.914 178.406 120.186C178.361 119.435 178.498 119.117 178.133 118.366C177.791 117.706 177.153 117.456 178.27 117.092C179.387 116.706 181.552 116.683 182.715 116.865C183.581 117.001 184.424 117.32 185.268 117.593L185.336 117.729C185.45 119.299 184.88 121.641 184.721 123.279V123.302Z" fill="#595757"/><path fill-rule="evenodd" clip-rule="evenodd" d="M150.278 31.5704C149.913 30.2739 149.229 27.8857 148.067 26.0433C146.904 24.2009 145.263 22.9045 143.736 22.586C142.208 22.2676 140.795 22.95 138.926 23.9053C137.057 24.8606 134.709 26.1115 131.814 27.317C128.919 28.5225 125.454 29.6598 122.878 30.2967C120.303 30.9335 118.616 31.0927 117.453 28.8182C116.313 26.5664 115.698 21.8809 116.085 18.4009C116.473 14.8982 117.841 12.6009 119.71 10.7813C121.579 8.96166 123.973 7.61969 127.415 6.45968C130.857 5.29968 135.324 4.29889 139.313 3.95771C143.303 3.61653 146.79 3.91222 149.594 4.82203C152.398 5.75458 154.472 7.27851 156.136 10.3946C157.8 13.5107 159.031 18.1962 159.852 21.8127C160.672 25.4292 161.105 27.9994 161.219 29.8872C161.333 31.7751 161.128 32.9578 160.627 33.7312C160.125 34.5045 159.305 34.823 158.712 34.5273C158.096 34.2316 157.686 33.3218 157.002 32.7986C156.318 32.2982 155.361 32.1845 154.426 32.4347C153.469 32.6849 152.512 33.2763 151.896 33.481C151.281 33.6629 151.007 33.4582 150.848 33.2535C150.688 33.0488 150.665 32.8669 150.301 31.5704H150.278Z" fill="#DFAF7B"/><path fill-rule="evenodd" clip-rule="evenodd" d="M126.48 39.6222C126.799 38.7806 126.708 37.5524 126.206 36.8245C125.705 36.0967 124.793 35.8237 123.995 35.8692C123.175 35.9147 122.445 36.2786 121.966 36.8472C121.488 37.4386 121.237 38.2347 121.351 38.9171C121.442 39.5994 121.898 40.168 122.217 40.5092C122.536 40.8504 122.764 40.9414 123.175 41.0551C123.585 41.1688 124.178 41.2598 124.839 41.0779C125.477 40.8959 126.183 40.441 126.503 39.5994L126.48 39.6222Z" fill="#FEE8B1"/><path fill-rule="evenodd" clip-rule="evenodd" d="M141.137 38.8261C141.479 37.9845 142.345 37.1429 143.211 36.9155C144.078 36.688 144.921 37.1202 145.536 37.6661C146.152 38.2347 146.517 38.9398 146.562 39.6904C146.608 40.441 146.334 41.2598 145.878 41.7602C145.445 42.2606 144.83 42.4881 144.283 42.5108C143.736 42.5336 143.257 42.3743 142.756 42.1469C142.254 41.8967 141.753 41.5783 141.388 41.0096C141.023 40.441 140.818 39.6449 141.137 38.8033V38.8261Z" fill="#FEE8B1"/><path fill-rule="evenodd" clip-rule="evenodd" d="M121.716 46.6505C123.22 47.0372 124.998 47.6513 126.799 48.1289C130.104 48.9932 130.287 48.5383 131.29 51.7454C129.079 54.6568 128.326 54.725 127.802 55.7258L129.284 58.0686C130.97 59.4788 131.335 61.867 133.182 62.4811C134.435 61.0482 134.549 58.2505 135.21 56.3399L140.863 62.3674C142.049 61.5031 146.448 55.2709 146.836 54.0882C146.129 52.2231 145.286 51.336 143.964 49.9258C141.524 50.4262 141.183 52.6552 139.952 49.7893C142.049 47.6968 145.947 48.7885 148.705 46.7187C149.389 46.2183 150.848 44.3987 151.281 43.7164C152.124 42.3289 151.987 40.8505 152.99 40.3501C153.651 42.0787 151.6 44.2622 156.136 44.8081C158.849 42.7156 157.709 42.4654 157.435 39.5312C162.313 35.0732 156.615 28.659 154.13 31.6614C155.429 34.1406 154.859 31.4339 156.706 33.2536C158.803 35.2779 157.367 39.3265 154.221 39.0536C151.19 38.8034 154.244 38.5304 152.352 36.5744C150.483 38.03 150.848 42.3062 148.545 44.5807C145.286 47.7877 141.524 45.8999 138.288 48.0379L138.835 51.8591C131.54 56.3627 133.159 49.6983 131.677 48.0607C129.147 46.8097 124.246 46.0591 122.559 44.9218C118.251 42.0332 119.983 36.6653 118.388 35.0732C116.154 36.6198 117.955 41.0779 118.183 42.3971C118.411 43.7164 120.211 46.2411 121.716 46.6277V46.6505ZM136.578 54.725C136.692 54.8388 136.988 55.6803 137.262 55.9988L140.909 59.8654L145.172 53.838L143.211 51.9501C142.345 52.2458 137.011 54.3839 136.578 54.725ZM129.717 55.1799L132.521 59.547C133.022 58.2505 133.729 56.158 133.523 54.816C131.335 53.8835 131.518 54.2019 129.717 55.2027V55.1799ZM155.589 42.9658C155.703 42.3744 157.299 42.5563 155.543 40.7822C154.518 42.2379 154.495 41.8058 155.589 42.9658Z" fill="#595757"/><path fill-rule="evenodd" clip-rule="evenodd" d="M113.806 29.7281C117.567 28.2269 112.985 27.0441 115.744 17.5139C119.117 5.77736 129.238 0.568713 140.955 1.86519C142.664 2.04715 145.514 3.38912 146.676 2.75225C146.881 1.29656 147.907 1.27381 141.844 0.318516C139.359 -0.0681527 137.604 -0.0681527 135.051 0.20479C117.066 2.00166 110.524 17.8778 113.829 29.7508L113.806 29.7281Z" fill="#595757"/><path fill-rule="evenodd" clip-rule="evenodd" d="M159.897 15.4895C161.288 20.5162 162.61 23.4731 160.763 28.932C160.125 30.8198 159.624 29.9782 160.558 31.4112C164.707 31.6159 166.325 11.9185 152.124 4.29891C150.392 3.36635 152.489 3.41184 149.981 3.82126C151.326 7.39225 158.005 8.55226 159.92 15.4895H159.897Z" fill="#595757"/><path fill-rule="evenodd" clip-rule="evenodd" d="M134.299 45.6268C136.51 44.99 136.874 42.579 137.353 40.3727L132.407 40.6684C132.863 43.0111 132.931 43.739 134.299 45.6268ZM139.154 39.1672C139.154 41.6464 137.877 46.9006 134.732 47.037C131.335 47.1963 130.082 41.3507 130.287 38.6441C131.814 38.4848 137.809 38.5986 139.154 39.1672Z" fill="#595757"/><path fill-rule="evenodd" clip-rule="evenodd" d="M117.043 32.5711C120.234 32.2527 132.452 20.266 132.429 16.877C129.01 18.2189 126.731 23.6778 120.257 28.5452C118.502 29.8645 115.903 30.8652 117.043 32.5711Z" fill="#595757"/><path fill-rule="evenodd" clip-rule="evenodd" d="M150.483 35.6418C153.013 34.1406 150.483 28.932 149.184 26.5665C147.702 23.8598 145.673 21.2441 142.664 20.2433C142.049 24.019 146.654 22.0856 149.229 30.7743C149.731 32.4575 149.594 34.6865 150.483 35.619V35.6418Z" fill="#595757"/><path fill-rule="evenodd" clip-rule="evenodd" d="M132.338 27.7037C135.689 28.2041 143.644 19.4017 143.029 16.0127C141.069 16.786 139.564 20.2206 137.991 22.0402C135.963 24.4057 132.315 25.6112 132.338 27.7037Z" fill="#595757"/><path fill-rule="evenodd" clip-rule="evenodd" d="M125.204 33.1397C126.526 34.3452 125.614 33.7538 127.46 34.277C130.879 29.7507 124.52 28.4315 125.204 33.1397Z" fill="#595757"/><path fill-rule="evenodd" clip-rule="evenodd" d="M139.883 32.7987C140.613 34.5728 139.952 33.8449 141.639 34.8002L143.622 33.3673C143.189 31.2747 143.394 31.5704 141.479 30.8198C140.453 31.5249 140.385 31.3885 139.883 32.7987Z" fill="#595757"/><path fill-rule="evenodd" clip-rule="evenodd" d="M133.227 36.2104L131.107 35.6646C131.928 37.5069 132.088 37.3477 133.227 36.2104Z" fill="#595757"/></svg>