<svg width="213" height="173" fill="none" xmlns="http://www.w3.org/2000/svg"><path fill-rule="evenodd" clip-rule="evenodd" d="M145.505 54.3072C144.329 52.0125 142.843 46.6949 141.69 43.1866C140.514 39.7004 139.671 38.0234 138.097 36.5451C136.522 35.0668 134.237 33.787 131.62 34.0518C129.025 34.3166 126.097 36.1259 123.258 37.7145C120.419 39.3032 117.624 40.6491 113.632 41.8848C109.639 43.1204 104.427 44.2236 101.366 44.8635C98.2829 45.5034 97.3513 45.6358 96.3311 45.371C95.3108 45.1062 94.2239 44.4443 92.9153 44.0692C91.5845 43.6941 90.0319 43.6058 89.1225 42.5908C88.2131 41.5538 87.9469 39.59 88.9894 35.486C90.054 31.404 92.4495 25.2038 97.551 19.798C102.652 14.4142 110.438 9.80265 116.227 8.23606C122.016 6.66946 125.786 8.10367 131.376 10.8397C136.965 13.5757 144.396 17.5915 149.408 22.0706C154.421 26.5498 157.038 31.5143 158.236 35.5301C159.434 39.5459 159.212 42.5908 158.746 44.8194C158.281 47.0479 157.526 48.4159 156.728 49.2544C155.929 50.0928 155.087 50.3797 153.689 51.2623C152.292 52.1449 150.34 53.6673 148.943 54.7706C147.545 55.8738 146.68 56.6019 145.527 54.2851L145.505 54.3072Z" fill="#DFAF7B"/><path fill-rule="evenodd" clip-rule="evenodd" d="M131.353 61.2796C131.176 59.9778 131.686 58.2126 132.64 57.308C133.594 56.4033 134.991 56.3151 136.167 56.7784C137.342 57.2418 138.318 58.2568 138.939 59.2056C139.56 60.1543 139.804 61.0149 139.627 61.8092C139.449 62.6035 138.806 63.3096 138.141 63.7288C137.453 64.1701 136.721 64.3246 135.9 64.3687C135.08 64.4128 134.17 64.3687 133.305 63.9053C132.418 63.442 131.553 62.5594 131.376 61.2576L131.353 61.2796Z" fill="#FEE8B1"/><path fill-rule="evenodd" clip-rule="evenodd" d="M102.852 57.97C102.675 56.6681 103.185 54.903 104.139 53.9983C105.092 53.0936 106.49 53.0054 107.665 53.4687C108.841 53.9321 109.817 54.9471 110.438 55.8959C111.059 56.8447 111.303 57.7052 111.126 58.4995C110.948 59.2938 110.305 59.9999 109.639 60.4191C108.952 60.8604 108.22 61.0149 107.399 61.059C106.579 61.1031 105.669 61.059 104.804 60.5957C103.917 60.1323 103.052 59.2497 102.874 57.9479L102.852 57.97Z" fill="#FEE8B1"/><path fill-rule="evenodd" clip-rule="evenodd" d="M121.173 83.5209L128.47 81.0717L130.932 84.0284L125.277 90.9788C122.925 88.1324 122.615 86.4334 121.173 83.5209ZM113.1 90.8464L107.932 84.6682L109.44 80.7849L117.114 83.3002C116.449 85.6832 114.697 89.2798 113.122 90.8464H113.1ZM150.939 63.5082C151.738 64.9424 151.738 64.81 150.939 66.2221C148.521 65.494 148.477 64.2363 150.939 63.5082ZM90.9415 58.1906C91.6956 56.8888 90.4535 57.1756 93.0708 57.308C93.226 59.1835 93.4257 58.5657 92.6715 59.8896C89.9655 59.5145 91.2076 58.7422 90.9415 58.1685V58.1906ZM153.401 49.4971C151.25 49.6074 150.518 47.8201 149.52 50.2914C151.161 52.2993 154.466 50.7106 154.111 56.1827C153.889 59.4262 150.717 60.6398 147.856 60.2647C146.37 58.2347 148.056 58.9187 146.592 56.646C144.041 57.5507 144.374 64.7217 139.428 68.4727C135.657 71.3191 128.315 69.6642 123.99 72.0914L122.571 80.498C119.731 81.3585 118.6 82.1087 116.116 80.2553L116.582 71.6059C112.811 68.561 106.823 68.5831 103.118 65.7588C98.4162 62.1622 99.9467 53.8438 98.3719 51.5932C96.0207 52.2331 96.0873 56.624 91.9396 53.1819C89.2114 50.9313 89.8768 47.8202 91.9396 45.4592C94.1798 44.7752 95.3332 45.7681 96.1316 43.6058C93.8249 40.7594 90.0764 43.694 88.8122 46.0108C86.5941 50.1149 88.1911 51.9463 90.6088 55.0794C84.2652 60.044 93.0264 65.5161 95.2666 60.2867C96.8414 56.5578 93.6918 58.0361 96.5309 56.2268C100.257 64.1701 95.5993 65.8691 108.065 70.282L114.364 72.9739L113.477 79.3286C112.323 79.7478 113.632 79.5713 111.414 79.13C108.508 78.5342 107.599 78.1591 105.891 83.0796C105.07 85.4626 105.714 85.5288 107.222 87.4484C108.53 89.1033 111.88 93.6045 113.299 94.6856C115.961 92.6557 117.092 88.1103 119.133 85.5508C121.24 88.1765 122.726 92.9866 124.966 94.6856C126.519 93.5162 129.58 89.2136 131.021 87.4484C134.326 83.4547 133.173 82.7927 130.112 78.9093C127.428 78.6004 127.672 79.1962 125.565 79.2183L125.476 74.033C129.713 72.0913 134.925 73.2608 139.184 71.3191C143.265 69.4656 144.662 65.494 146.503 62.0078C149.431 63.8391 145.194 62.758 147.346 66.4648C149.719 70.5468 156.617 67.6343 152.935 61.9195C154.865 59.691 158.769 57.0653 154.71 50.6886C159.989 46.5183 158.68 32.2866 156.44 25.8658C154.754 21.0115 146.902 10.3763 141.379 10.266C141.934 14.8996 149.741 14.9878 154.022 26.1305C157.394 34.9123 156.817 40.9801 153.401 49.4309V49.4971Z" fill="#595757"/><path fill-rule="evenodd" clip-rule="evenodd" d="M89.965 43.5399C89.965 34.3389 89.4105 32.2869 92.538 24.498C98.3935 9.84703 113.898 3.88955 128.958 6.86829C131.553 7.37578 135.701 9.33954 137.564 8.12598C137.209 6.38287 132.285 4.50737 125.697 3.99988H118.711C112.411 4.4853 105.602 6.29461 100.101 10.3986C93.1812 15.5397 88.5455 25.7778 87.4587 34.1624C87.2369 35.8834 87.2369 38.0899 87.3034 39.8551C87.3256 40.7597 87.3256 41.9071 87.747 42.5911C88.5011 43.8267 86.9929 43.4516 89.9872 43.5178L89.965 43.5399Z" fill="#595757"/><path fill-rule="evenodd" clip-rule="evenodd" d="M120.13 67.8108C118.444 66.4428 117.513 62.5153 117.624 60.4853C120.352 60.2647 122.237 60.8163 124.855 61.0149C124.455 63.5523 123.147 67.4578 120.13 67.8108ZM127.583 58.8084C125.83 58.8084 116.426 57.7272 116.005 57.8817C113.764 58.6098 115.938 65.6485 116.803 67.4357C121.04 76.2616 127.583 64.2804 127.583 58.8305V58.8084Z" fill="#595757"/><path fill-rule="evenodd" clip-rule="evenodd" d="M96.7081 47.8864C99.8799 48.8793 113.011 36.148 115.251 33.9194C116.848 32.3308 120.641 29.9036 119.753 27.5869C118.023 27.0573 116.737 29.2858 113.92 32.0881C108.774 37.2071 108.331 38.1338 102.12 42.4805C100.257 43.8044 95.7544 45.4151 96.686 47.8864H96.7081Z" fill="#595757"/><path fill-rule="evenodd" clip-rule="evenodd" d="M133.305 34.5814C135.59 37.2071 140.891 39.9431 142.754 49.0117C143.397 52.167 141.911 53.2261 144.196 55.587C146.503 53.888 145.46 50.9093 144.928 48.416C144.129 44.5988 137.032 29.5286 133.283 34.5814H133.305Z" fill="#595757"/><path fill-rule="evenodd" clip-rule="evenodd" d="M119.465 42.6129C123.124 43.1645 137.364 30.2787 134.88 26.7925C131.775 27.322 130.355 34.2504 123.124 38.553C121.062 39.7665 118.644 40.2299 119.465 42.6129Z" fill="#595757"/><path fill-rule="evenodd" clip-rule="evenodd" d="M108.641 46.8272V50.5783L112.079 50.9313C115.051 47.0479 111.657 44.0471 108.641 46.8272Z" fill="#595757"/><path fill-rule="evenodd" clip-rule="evenodd" d="M130.245 48.791C127.295 50.7769 130.422 54.3734 133.039 52.6524C135.302 51.152 133.483 46.6066 130.245 48.791Z" fill="#595757"/><path fill-rule="evenodd" clip-rule="evenodd" d="M120.175 55.1236C121.417 56.8446 122.082 56.8226 122.881 55.0795C121.394 54.2631 121.505 54.2851 120.175 55.1236Z" fill="#595757"/><path fill-rule="evenodd" clip-rule="evenodd" d="M147.966 103.092C148.92 105.078 151.87 111.653 154.288 118.604C156.705 125.554 158.546 132.946 159.145 138.33C159.744 143.713 159.079 147.067 158.258 149.252C157.437 151.436 156.483 152.451 154.31 152.429C152.158 152.429 148.809 151.392 146.702 150.995C144.595 150.598 143.708 150.84 143.53 152.341C143.331 153.841 143.819 156.599 144.218 159.203C144.617 161.807 144.928 164.256 144.661 165.822C144.395 167.389 143.552 168.095 135.701 168.514C127.849 168.933 112.988 169.066 104.16 169.022C95.3325 168.978 92.5156 168.757 90.6968 167.852C88.878 166.948 88.0352 165.381 87.6359 163.748C87.2367 162.115 87.281 160.394 87.3919 158.872C87.5028 157.327 87.6581 155.981 86.6378 155.43C85.6175 154.9 83.4217 155.187 80.76 153.576C78.0984 151.966 74.9932 148.457 73.2409 145.214C71.4887 141.992 71.0894 139.058 72.886 134.402C74.6826 129.746 78.6973 123.37 81.6694 117.28C84.6416 111.212 86.6156 105.431 88.1904 102.717C89.7431 100.003 99.1475 93.1411 100.367 94.8621C101.61 96.5611 98.9701 104.615 99.6355 108.035C100.301 111.455 96.0644 117.412 95.643 119.42C95.2438 121.428 94.3787 121.671 93.6468 123.127C92.9148 124.583 92.2716 127.275 93.3806 129.967C94.4896 132.681 97.3287 135.417 98.9035 137.447C100.456 139.477 100.744 140.823 101.232 141.507C101.743 142.191 102.475 142.257 103.694 140.668C104.914 139.102 106.6 135.903 107.177 133.453C107.753 131.004 107.199 129.327 107.776 127.871C108.33 126.437 110.016 125.223 111.014 124.782C112.034 124.341 112.367 124.65 113.343 125.422C114.319 126.216 115.894 127.474 117.624 127.761C119.354 128.047 121.261 127.341 122.991 126.194C124.721 125.047 126.296 123.48 127.361 122.597C128.425 121.737 129.002 121.56 129.668 122.421C130.333 123.281 131.065 125.157 131.442 126.503C131.797 127.871 131.775 128.687 131.886 129.989C131.996 131.269 132.24 133.012 132.662 134.248C133.083 135.461 133.682 136.167 135.59 135.549C137.497 134.932 140.713 132.968 142.998 131.225C145.282 129.482 146.658 127.915 146.902 126.437C147.146 124.936 146.258 123.502 145.127 122.443C143.996 121.384 142.621 120.7 142.133 119.464C141.645 118.251 142.066 116.486 141.955 114.566C141.822 112.646 140.735 111.168 140.469 109.623C140.203 108.079 137.164 107.616 137.83 106.38C138.495 105.144 137.83 98.0836 137.076 96.9141C132.351 89.8314 136.499 90.383 137.719 91.6407C138.939 92.8984 146.902 101.062 147.855 103.048L147.966 103.092Z" fill="#CAE9F4"/><path d="M133.016 116.199C130.111 119.597 126.03 122.002 121.261 122.752C120.218 122.906 119.198 122.995 118.2 122.995C113.52 122.995 109.128 121.296 105.712 118.405C102.297 115.515 99.879 111.455 99.1248 106.711C98.9696 105.674 98.8809 104.659 98.8809 103.666C98.8809 99.0103 100.589 94.6415 103.494 91.2436C106.4 87.8456 110.481 85.4405 115.25 84.6903C116.27 84.5359 117.313 84.4476 118.311 84.4476C122.991 84.4476 127.383 86.1466 130.798 89.0371C134.214 91.9276 136.632 95.9875 137.386 100.731C137.541 101.746 137.63 102.783 137.63 103.776C137.63 108.432 135.922 112.801 133.016 116.199Z" fill="#DCDDDD" stroke="#595757" stroke-miterlimit="10"/><path d="M126.096 108.388L133.082 112.558C133.637 111.653 134.103 110.683 134.458 109.69L126.828 106.865C126.628 107.395 126.384 107.902 126.096 108.388Z" fill="#D5EAD8"/><path d="M121.017 112.382L123.479 120.104C126.584 119.133 129.268 117.324 131.308 114.985L125.165 109.69C124.1 110.925 122.68 111.874 121.039 112.404L121.017 112.382Z" fill="#F7C9DD"/><path d="M102.075 97.7306L109.705 100.555C109.905 100.025 110.149 99.5178 110.437 99.0324L103.45 94.8622C102.896 95.7668 102.43 96.7377 102.075 97.7306Z" fill="#D5EAD8"/><path d="M115.494 95.0608L113.032 87.3381C109.927 88.331 107.243 90.1183 105.202 92.4792L111.346 97.7748C112.433 96.5391 113.83 95.5683 115.494 95.0608Z" fill="#F7C9DD"/><path d="M117.801 100.864C116.226 101.106 115.139 102.585 115.383 104.151C115.627 105.718 117.113 106.799 118.688 106.556C120.263 106.314 121.35 104.835 121.106 103.269C120.862 101.702 119.376 100.621 117.801 100.864Z" fill="white" stroke="#595757" stroke-miterlimit="10"/><path d="M125.497 103.732C125.497 103.357 125.475 102.982 125.408 102.585C124.854 99.0324 121.771 96.495 118.266 96.495C117.889 96.495 117.512 96.5171 117.113 96.5833C113.542 97.1349 110.991 100.202 110.991 103.688C110.991 104.063 111.013 104.438 111.08 104.835C111.634 108.388 114.717 110.925 118.222 110.925C118.599 110.925 118.976 110.903 119.375 110.837C122.946 110.285 125.497 107.218 125.497 103.732ZM119.109 109.072C118.821 109.116 118.533 109.138 118.244 109.138C115.605 109.138 113.276 107.218 112.877 104.549C112.832 104.262 112.81 103.975 112.81 103.688C112.81 101.062 114.74 98.7456 117.423 98.3484C117.712 98.3043 118 98.2822 118.289 98.2822C120.928 98.2822 123.257 100.202 123.656 102.872C123.701 103.159 123.723 103.445 123.723 103.732C123.723 106.358 121.793 108.675 119.109 109.094V109.072Z" fill="#C9CACA"/><path fill-rule="evenodd" clip-rule="evenodd" d="M130.533 130.232C134.702 128.136 138.806 126.503 142.288 124.01L145.327 130.276L133.682 137.337L130.533 130.232ZM91.7393 130.386L94.9111 124.032C98.5265 126.657 103.207 127.849 106.489 130.453L103.828 137.116L91.7393 130.386ZM129.978 111.411C132.662 113.308 129.934 113.463 133.172 113.97C135.324 110.903 132.928 113.22 133.815 111.477C134.924 109.315 133.483 111.543 135.945 109.8L134.592 106.623C142.288 112.337 139.649 114.919 138.761 123.083C136.832 124.561 134.392 125.929 132.063 125.885C129.157 122.134 131.287 122.178 130.289 118.56C129.49 115.669 127.627 116.949 127.139 112.757C129.18 114.367 128.714 114.963 131.109 115.449L129.934 111.433L129.978 111.411ZM107.221 111.433L105.669 115.316C108.375 114.941 107.909 114.345 109.927 112.735C109.461 116.927 107.576 115.625 106.8 118.538C105.802 122.178 107.931 122.112 105.025 125.863C102.696 125.907 100.257 124.539 98.3268 123.061C97.4396 114.831 94.8002 112.315 102.208 106.446L100.9 109.668C106.6 113.176 101.476 110.44 103.938 113.97C107.376 113.441 104.382 113.088 107.221 111.455V111.433ZM109.439 119.111C110.06 117.699 117.712 110.021 105.358 106.954C106.4 105.233 106.844 105.652 106.134 103.335C101.321 102.011 99.1919 106.402 98.1716 107.196C97.1513 107.991 94.9554 111.565 94.6227 114.125C94.29 116.684 95.5543 119.089 96.131 121.208C93.7577 122.068 94.3566 120.391 92.1164 124.186C87.0371 132.836 91.5619 129.504 86.6157 135.528C84.9521 137.557 83.1555 138.418 83.8653 140.911C86.7044 141.264 89.5213 134.821 91.828 132.858L102.275 139.455C100.922 141.485 90.9186 151.304 88.6341 152.915C70.9342 165.337 72.509 118.118 89.1886 98.9001C97.1291 89.7432 100.212 90.7803 101.543 90.1624C102.874 89.5446 103.251 86.5659 101.543 87.294C99.8351 88.0222 92.2716 91.9718 89.61 94.8181C82.4458 102.497 73.8176 121.163 73.5293 137.249V139.654C73.7067 149.318 76.2131 161.829 88.8337 155.452C89.7874 164.432 86.8375 165.624 90.4085 166.573C92.2051 162.755 90.3198 157.283 92.1607 153.621C94.0904 149.781 103.65 143.912 106.001 137.999C107.687 133.762 110.593 130.408 106.689 127.606C109.129 125.069 108.108 124.782 109.173 122.598L109.417 119.067L109.439 119.111ZM138.717 107.064C135.523 104.681 135.434 101.835 130.998 103.445C130.111 106.005 130.266 104.88 131.908 106.998C119.886 109.27 126.518 116.993 127.849 119.067L127.915 121.98C129.091 124.473 127.56 124.672 130.377 127.717C124.566 131.887 133.882 142.39 137.364 145.832C138.806 147.266 143.885 151.922 144.684 153.245C147.013 157.085 144.795 162.535 146.702 166.639C149.43 165.911 148.432 164.852 148.21 162.469C147.988 160.174 148.055 157.769 148.277 155.518C158.79 160.836 163.049 153.113 163.581 142.346V137.249C163.226 129.394 161.297 120.854 158.635 114.875C156.75 110.639 155.441 108.079 153.223 104.151C152.358 102.607 149.43 97.5541 146.946 94.8622C139.915 87.2278 135.301 85.4847 134.414 84.9772C133.527 84.4697 133.216 86.3011 133.815 86.8307C135.346 88.1546 140.248 89.5446 147.19 98.9442C161.186 117.92 167.84 154.724 153.711 154.724C148.565 154.724 137.453 143.471 134.725 139.323L145.393 133.056C147.589 134.844 150.428 141.264 153.245 140.933C154.199 137.535 148.61 135.263 147.789 130.673C147.545 129.327 147.878 129.901 146.968 127.937C146.502 126.922 145.793 125.62 145.26 124.672C142.71 120.126 143.508 122.156 141.002 121.23C142.776 114.698 143.619 114.743 140.536 108.586L138.695 107.108L138.717 107.064Z" fill="#595757"/><path fill-rule="evenodd" clip-rule="evenodd" d="M129.978 111.411C132.662 113.308 129.933 113.463 133.172 113.97C135.323 110.903 132.928 113.22 133.815 111.477C134.924 109.315 133.482 111.543 135.944 109.8L134.591 106.623C142.288 112.337 139.648 114.919 138.761 123.083C136.831 124.561 134.392 125.929 132.063 125.885C129.157 122.134 131.286 122.178 130.288 118.56C129.49 115.669 127.627 116.949 127.139 112.757C129.179 114.367 128.713 114.963 131.109 115.449L129.933 111.433L129.978 111.411Z" fill="white"/><path fill-rule="evenodd" clip-rule="evenodd" d="M107.221 111.433L105.668 115.316C108.374 114.941 107.909 114.345 109.927 112.735C109.461 116.927 107.576 115.625 106.8 118.538C105.802 122.178 107.931 122.112 105.025 125.863C102.696 125.907 100.256 124.539 98.3268 123.061C97.4396 114.831 94.8001 112.315 102.208 106.446L100.9 109.668C106.6 113.176 101.476 110.44 103.938 113.97C107.376 113.441 104.382 113.088 107.221 111.455V111.433Z" fill="white"/><path fill-rule="evenodd" clip-rule="evenodd" d="M72.7747 81.7778C72.4864 82.3074 72.0871 83.1679 71.5992 83.8961C71.1112 84.6242 70.5123 85.2199 69.9135 85.6392C69.3146 86.0584 68.7379 86.3232 68.3387 86.4997C67.9394 86.6762 67.7398 86.7424 68.006 87.0954C68.2721 87.4485 69.0484 88.0663 69.8026 88.8827C70.5567 89.677 71.3108 90.6479 71.9319 91.4422C72.5751 92.2144 73.0852 92.7881 73.4179 92.9426C73.7507 93.097 73.8837 92.8102 74.1499 92.2365C74.4382 91.6628 74.8597 90.8244 75.5251 90.0521C76.1905 89.2798 77.0777 88.5958 77.7875 88.1325C78.4972 87.6691 79.0296 87.4485 79.0739 87.1616C79.1183 86.8748 78.6968 86.5217 77.7431 85.6833C76.7893 84.8448 75.3254 83.5209 74.5048 82.6163C73.6841 81.7116 73.5288 81.2703 73.3736 81.138C73.2183 81.0056 73.0409 81.2483 72.7747 81.7778Z" fill="white"/><path fill-rule="evenodd" clip-rule="evenodd" d="M67.2295 89.4123C68.2276 90.4273 69.9798 90.5155 70.7783 91.0451C72.2866 92.038 72.5749 92.9206 73.4843 92.6779C74.5933 92.369 74.2606 91.001 74.7264 89.986C75.3697 88.5738 76.5452 87.4265 76.523 87.3382C76.0794 86.5218 74.793 86.4115 73.8392 85.8158C72.8633 85.1979 72.2422 84.0506 71.3328 83.6313C70.49 84.4919 70.5344 85.8819 69.8246 86.8749C69.1592 87.8016 67.7618 88.287 67.2295 89.4123Z" fill="#FCF165"/><path fill-rule="evenodd" clip-rule="evenodd" d="M73.7062 82.9693L76.9889 86.9189L73.2626 90.8906L69.625 86.6762C70.4014 86.0143 72.3754 84.2712 73.7062 82.9693ZM73.3735 78.1151H73.551C75.2367 80.3216 74.6378 81.7337 76.6562 83.7416C78.6746 85.7495 80.0941 85.1538 82.3122 86.8307V87.0072C80.0941 88.6841 78.6746 88.0884 76.6562 90.0962C74.6378 92.1041 75.2367 93.5163 73.551 95.7228H73.3735C71.6878 93.5163 72.2867 92.1041 70.2683 90.0962C68.2499 88.0884 66.8303 88.6841 64.6123 87.0072V86.8307C66.8303 85.1538 68.2499 85.7495 70.2683 83.7416C72.2867 81.7337 71.6878 80.3216 73.3735 78.1151Z" fill="#595757"/><path fill-rule="evenodd" clip-rule="evenodd" d="M168.838 87.5809C169.126 88.1104 169.525 88.971 170.013 89.6991C170.501 90.4272 171.1 91.023 171.699 91.4422C172.298 91.8614 172.874 92.1262 173.274 92.3027C173.673 92.4793 173.872 92.5454 173.606 92.8985C173.34 93.2515 172.564 93.8693 171.81 94.6857C171.056 95.4801 170.301 96.4509 169.68 97.2452C169.037 98.0175 168.527 98.5912 168.194 98.7456C167.862 98.9001 167.729 98.6133 167.462 98.0396C167.174 97.4659 166.753 96.6274 166.087 95.8552C165.422 95.0829 164.535 94.3989 163.825 93.9355C163.115 93.4722 162.605 93.2515 162.538 92.9647C162.494 92.6778 162.915 92.3248 163.869 91.4863C164.823 90.6479 166.287 89.324 167.107 88.4193C167.928 87.5147 168.083 87.0734 168.239 86.941C168.394 86.8307 168.571 87.0513 168.838 87.5809Z" fill="white"/><path fill-rule="evenodd" clip-rule="evenodd" d="M174.382 95.2153C173.384 96.2303 171.632 96.3185 170.834 96.8481C169.325 97.841 169.037 98.7236 168.128 98.4809C167.019 98.172 167.351 96.8039 166.886 95.789C166.242 94.3768 165.067 93.2295 165.089 93.1412C165.533 92.3248 166.819 92.2145 167.773 91.6187C168.749 91.0009 169.37 89.8536 170.279 89.4343C171.122 90.2949 171.078 91.6849 171.787 92.6778C172.453 93.6046 173.85 94.09 174.382 95.2153Z" fill="#FCF165"/><path fill-rule="evenodd" clip-rule="evenodd" d="M167.906 88.7723L164.623 92.7219L168.349 96.6936L171.987 92.4792C171.211 91.8173 169.237 90.0742 167.906 88.7723ZM168.238 83.9181H168.061C166.375 86.1246 166.974 87.5367 164.956 89.5446C162.937 91.5525 161.518 90.9567 159.3 92.6337V92.8102C161.518 94.4871 162.937 93.8913 164.956 95.8992C166.974 97.9071 166.375 99.3193 168.061 101.526H168.238C169.924 99.3193 169.325 97.9071 171.344 95.8992C173.362 93.8913 174.782 94.4871 177 92.8102V92.6337C174.782 90.9567 173.362 91.5525 171.344 89.5446C169.325 87.5367 169.924 86.1246 168.238 83.9181Z" fill="#595757"/><path fill-rule="evenodd" clip-rule="evenodd" d="M63.9249 59.7793C64.6791 58.3009 65.9877 55.6973 67.0524 52.1007C68.0948 48.5042 68.8711 43.9368 69.2038 40.2079C69.5144 36.4789 69.3591 33.6105 68.7381 31.3599C68.117 29.0872 66.9858 27.4324 65.8768 26.638C64.7678 25.8437 63.6366 25.9099 62.4167 26.3071C61.1968 26.7263 59.8881 27.4986 58.6017 29.0872C57.3152 30.6759 56.0731 33.103 55.0085 35.0226C53.9438 36.9423 53.101 38.3544 52.4799 39.0164C51.881 39.6783 51.5262 39.59 51.0826 39.0164C50.6611 38.4427 50.1288 37.3615 49.0641 36.3024C47.9995 35.2433 46.3803 34.2283 44.9608 33.765C43.5413 33.3016 42.2992 33.4119 41.2345 33.9415C40.1699 34.471 39.2605 35.4198 38.706 36.3686C38.1515 37.3174 37.9297 38.2662 37.974 39.2811C38.0184 40.2961 38.3511 41.3993 39.2161 42.9218C40.0811 44.4443 41.5007 46.4301 43.874 49.1882C46.2694 51.9463 49.6187 55.5208 52.5021 58.0803C55.3855 60.6398 57.8032 62.2064 59.2671 62.9566C60.7088 63.7068 61.1968 63.6627 61.6182 63.3537C62.0396 63.0448 62.3945 62.4491 62.6607 61.9857C62.949 61.5224 63.1486 61.2135 63.9028 59.7351L63.9249 59.7793Z" fill="white"/><path fill-rule="evenodd" clip-rule="evenodd" d="M68.5828 62.096C70.9561 56.5136 73.8617 44.4222 73.3515 37.0967C72.8414 29.7932 68.9155 27.2999 65.5219 28.8445C62.1283 30.389 59.2892 35.9714 57.8919 39.3031C56.4945 42.6349 56.5833 43.694 55.7182 42.5687C54.8532 41.4434 53.0344 38.1116 50.4615 36.7436C47.8886 35.3536 44.5172 35.9272 42.9646 37.8027C41.3898 39.7003 41.6337 42.8997 44.2288 46.761C46.8461 50.6223 51.8367 55.1235 55.2746 58.3891C58.7347 61.6547 60.6422 63.6847 62.5054 65.1851C64.3685 66.6855 66.2095 67.6563 68.5828 62.0739V62.096Z" fill="#F1ABAF"/><path fill-rule="evenodd" clip-rule="evenodd" d="M60.9754 62.3167C62.9273 60.7059 62.1066 61.3899 63.1491 59.1393C73.9952 35.508 64.9235 15.8704 56.0957 34.8902C54.8758 37.5159 54.3879 41.642 52.192 41.4214C47.4233 40.9139 48.9759 32.088 40.503 35.9493C34.3813 38.7295 48.1774 51.3726 49.6635 52.7626C52.1477 55.1015 58.1142 61.743 60.9754 62.3167ZM69.7144 30.5435L68.0509 26.9248C67.2968 25.9319 66.3874 25.2259 65.234 24.8508C57.6262 22.4236 53.9664 34.5372 51.6153 38.3323C49.3086 33.5884 44.6951 30.6979 39.9263 32.8602C26.596 38.928 56.4506 63.8612 61.5521 65.3616C67.2081 61.0148 72.5313 40.7815 69.7144 30.5435Z" fill="#595757"/><path fill-rule="evenodd" clip-rule="evenodd" d="M56.4949 21.7396C55.3415 19.7538 56.6724 11.9429 58.8682 10.3542C60.1325 13.2006 59.4893 13.5978 59.0456 16.5765C58.602 19.5111 59.2453 21.2542 56.4949 21.7617V21.7396Z" fill="#595757"/><path fill-rule="evenodd" clip-rule="evenodd" d="M36 18.0549L37.974 17.2164C40.3695 20.7027 41.656 21.2984 43.63 25.601C40.8575 26.4836 41.5451 26.5057 39.2827 23.3063C38.0184 21.5191 36.9759 20.1731 36 18.0549Z" fill="#595757"/></svg>