<svg width="256" height="175" fill="none" xmlns="http://www.w3.org/2000/svg"><g clip-path="url(#clip0_2118_1967)"><g filter="url(#filter0_d_2118_1967)"><path d="M223.348 58.9404H29V68.7711H223.348V58.9404Z" fill="#F0E3BC"/><path d="M227.335 1.73352H217.717V156.897H227.335V1.73352Z" fill="#F0E3BC"/><path d="M67.5366 15.975H31.3004V58.8088H67.5366V15.975Z" fill="#FFFCDB"/><path d="M120.905 1.73352H67.5585V58.7868H120.905V1.73352Z" fill="#E9E6F3"/><path d="M217.717 1.73352H139.483V58.9404H217.717V1.73352Z" fill="#FBE6EF"/><path d="M217.717 87.906H187.177V157.357H217.717V87.906Z" fill="#B2E0F8"/><path d="M187.353 96.0909H151.16V157.379H187.353V96.0909Z" fill="#FFFCDB"/><path d="M88.1959 77.7899H34.2141V157.379H88.1959V77.7899Z" fill="#ECF4D9"/><path d="M45.4312 86.1285H38.552V111.276H45.4312V86.1285Z" fill="white"/><path d="M62.8482 86.1285H55.969V111.276H62.8482V86.1285Z" fill="white"/><path d="M81.8864 86.1285H75.0072V111.276H81.8864V86.1285Z" fill="white"/><path d="M211.342 54.815C213.665 54.815 215.548 52.9287 215.548 50.6018C215.548 48.275 213.665 46.3887 211.342 46.3887C209.019 46.3887 207.136 48.275 207.136 50.6018C207.136 52.9287 209.019 54.815 211.342 54.815Z" fill="white"/><path d="M197.584 54.815C199.907 54.815 201.79 52.9287 201.79 50.6018C201.79 48.275 199.907 46.3887 197.584 46.3887C195.261 46.3887 193.377 48.275 193.377 50.6018C193.377 52.9287 195.261 54.815 197.584 54.815Z" fill="white"/><path d="M185.052 54.815C187.375 54.815 189.259 52.9287 189.259 50.6018C189.259 48.275 187.375 46.3887 185.052 46.3887C182.729 46.3887 180.846 48.275 180.846 50.6018C180.846 52.9287 182.729 54.815 185.052 54.815Z" fill="white"/><path d="M171.118 54.815C173.442 54.815 175.325 52.9287 175.325 50.6018C175.325 48.275 173.442 46.3887 171.118 46.3887C168.795 46.3887 166.912 48.275 166.912 50.6018C166.912 52.9287 168.795 54.815 171.118 54.815Z" fill="white"/><path d="M159.354 54.815C161.677 54.815 163.56 52.9287 163.56 50.6018C163.56 48.275 161.677 46.3887 159.354 46.3887C157.031 46.3887 155.147 48.275 155.147 50.6018C155.147 52.9287 157.031 54.815 159.354 54.815Z" fill="white"/><path d="M107.738 49.6583H67.5585V53.3668H107.738V49.6583Z" fill="white"/><path d="M50.6234 156.897V78.0752C50.6234 78.0752 59.4086 76.8244 68.8291 78.0752V156.897" stroke="#595757" stroke-width="0.75" stroke-linecap="round" stroke-linejoin="round"/><path d="M60.3069 55.3418V16.1944C60.3069 16.1944 64.0094 15.7336 67.5585 16.1944" stroke="#595757" stroke-width="0.75" stroke-linecap="round" stroke-linejoin="round"/><path d="M53.0552 56.7901V16.1944C53.0552 16.1944 56.67 15.7336 60.3068 16.1944" stroke="#595757" stroke-width="0.75" stroke-linecap="round" stroke-linejoin="round"/><path d="M45.8036 58.7868V16.1944C45.8036 16.1944 49.3965 15.6238 53.0552 16.1944" stroke="#595757" stroke-width="0.75" stroke-linecap="round" stroke-linejoin="round"/><path d="M38.552 52.8621V16.1944C38.552 16.1944 41.8601 15.6238 45.8036 16.1944" stroke="#595757" stroke-width="0.75" stroke-linecap="round" stroke-linejoin="round"/><path d="M111.813 68.5518H31.2784" stroke="#595757" stroke-width="0.75" stroke-linecap="round" stroke-linejoin="round"/><path d="M111.813 58.9404H29" stroke="#595757" stroke-width="0.75" stroke-linecap="round" stroke-linejoin="round"/><path d="M227.335 0.833862V156.897" stroke="#595757" stroke-width="0.75" stroke-linecap="round" stroke-linejoin="round"/><path d="M217.717 156.897V68.5518H151.598" stroke="#595757" stroke-width="0.75" stroke-linecap="round" stroke-linejoin="round"/><path d="M217.717 58.9404H160.427" stroke="#595757" stroke-width="0.75" stroke-linecap="round" stroke-linejoin="round"/><path d="M94.4836 1.73352V58.7868" stroke="#595757" stroke-width="0.75" stroke-linecap="round" stroke-linejoin="round"/><path d="M67.5585 1.73352V58.7868" stroke="#595757" stroke-width="0.75" stroke-linecap="round" stroke-linejoin="round"/><path d="M31.3004 58.7869V16.1944C31.3004 16.1944 34.7181 15.6897 38.552 16.1944" stroke="#595757" stroke-width="0.75" stroke-linecap="round" stroke-linejoin="round"/><path d="M107.738 1.73352V58.7868" stroke="#595757" stroke-width="0.75" stroke-linecap="round" stroke-linejoin="round"/><path d="M121.212 1.73352V40.1787" stroke="#595757" stroke-width="0.75" stroke-linecap="round" stroke-linejoin="round"/><path d="M81.032 1.73352V58.7868" stroke="#595757" stroke-width="0.75" stroke-linecap="round" stroke-linejoin="round"/><path d="M33.7102 28.6803V19.0251H35.9887V28.6803H34.959" stroke="#595757" stroke-width="0.75" stroke-linecap="round" stroke-linejoin="round"/><path d="M41.0057 28.6803V19.0251H43.2842V28.6803H42.2545" stroke="#595757" stroke-width="0.75" stroke-linecap="round" stroke-linejoin="round"/><path d="M48.3011 28.6803V19.0251H50.5577V28.6803H49.5499" stroke="#595757" stroke-width="0.75" stroke-linecap="round" stroke-linejoin="round"/><path d="M55.5966 28.6803V19.0251H57.8531V28.6803H56.8453" stroke="#595757" stroke-width="0.75" stroke-linecap="round" stroke-linejoin="round"/><path d="M62.892 28.6803V19.0251H65.1485V28.6803H64.1188" stroke="#595757" stroke-width="0.75" stroke-linecap="round" stroke-linejoin="round"/><path d="M209.151 156.897V88.1253C209.151 88.1253 212.854 87.6645 216.403 88.1253" stroke="#595757" stroke-width="0.75" stroke-linecap="round" stroke-linejoin="round"/><path d="M201.921 156.897V88.1253C201.921 88.1253 205.536 87.6645 209.173 88.1253" stroke="#595757" stroke-width="0.75" stroke-linecap="round" stroke-linejoin="round"/><path d="M194.67 156.897V88.1254C194.67 88.1254 198.263 87.5549 201.922 88.1254" stroke="#595757" stroke-width="0.75" stroke-linecap="round" stroke-linejoin="round"/><path d="M187.418 156.897V88.1254C187.418 88.1254 190.726 87.5549 194.67 88.1254" stroke="#595757" stroke-width="0.75" stroke-linecap="round" stroke-linejoin="round"/><path d="M180.167 156.897V97.5831C180.167 96.837 180.736 96.2445 181.459 96.1787C182.796 96.069 185.03 96.0031 187.418 96.3103" stroke="#595757" stroke-width="0.75" stroke-linecap="round" stroke-linejoin="round"/><path d="M182.577 108.796V99.141H184.833V108.796H183.825" stroke="#595757" stroke-width="0.75" stroke-linecap="round" stroke-linejoin="round"/><path d="M172.915 156.897V97.5831C172.915 96.837 173.485 96.2445 174.208 96.1787C175.544 96.069 177.779 96.0031 180.167 96.3103" stroke="#595757" stroke-width="0.75" stroke-linecap="round" stroke-linejoin="round"/><path d="M175.325 108.796V99.141H177.581V108.796H176.574" stroke="#595757" stroke-width="0.75" stroke-linecap="round" stroke-linejoin="round"/><path d="M165.663 156.897V97.5831C165.663 96.837 166.233 96.2445 166.956 96.1787C168.292 96.069 170.527 96.0031 172.915 96.3103" stroke="#595757" stroke-width="0.75" stroke-linecap="round" stroke-linejoin="round"/><path d="M168.073 108.796V99.141H170.33V108.796H169.322" stroke="#595757" stroke-width="0.75" stroke-linecap="round" stroke-linejoin="round"/><path d="M158.412 156.897V97.5831C158.412 96.837 158.981 96.2445 159.704 96.1787C161.041 96.069 163.275 96.0031 165.663 96.3103" stroke="#595757" stroke-width="0.75" stroke-linecap="round" stroke-linejoin="round"/><path d="M160.822 108.796V99.141H163.1V108.796H162.07" stroke="#595757" stroke-width="0.75" stroke-linecap="round" stroke-linejoin="round"/><path d="M151.16 156.897V97.5831C151.16 96.837 151.73 96.2445 152.453 96.1787C153.789 96.069 156.024 96.0031 158.412 96.3103" stroke="#595757" stroke-width="0.75" stroke-linecap="round" stroke-linejoin="round"/><path d="M153.57 108.796V99.141H155.849V108.796H154.819" stroke="#595757" stroke-width="0.75" stroke-linecap="round" stroke-linejoin="round"/><path d="M34.3456 156.897V79.8527C34.3456 78.8433 35.1343 78.0313 36.1201 77.9655C38.9244 77.8119 44.6863 77.6144 50.6234 78.0752V156.897" stroke="#595757" stroke-width="0.75" stroke-linecap="round" stroke-linejoin="round"/><path d="M68.8291 156.897V78.0753C68.8291 78.0753 77.0447 77.1976 86.4652 77.9217C87.4511 77.9875 88.2179 78.8214 88.2179 79.8089V156.897" stroke="#595757" stroke-width="0.75" stroke-linecap="round" stroke-linejoin="round"/><path d="M90.8469 94.8181C95.0533 94.5987 103.466 94.2915 110.564 94.8181C111.572 94.884 112.361 95.7398 112.361 96.7711V156.897" stroke="#595757" stroke-width="0.75" stroke-linecap="round" stroke-linejoin="round"/><path d="M43.6347 111.539H40.1294C39.1216 111.539 38.311 110.727 38.311 109.718V87.5988C38.311 86.5894 39.1216 85.7775 40.1294 85.7775H43.6347C44.6425 85.7775 45.4531 86.5894 45.4531 87.5988V109.718" stroke="#595757" stroke-width="0.75" stroke-linecap="round" stroke-linejoin="round"/><path d="M61.1612 111.539H57.6559C56.6481 111.539 55.8375 110.727 55.8375 109.718V87.5988C55.8375 86.5894 56.6481 85.7775 57.6559 85.7775H61.1612C62.169 85.7775 62.9796 86.5894 62.9796 87.5988V109.718" stroke="#595757" stroke-width="0.75" stroke-linecap="round" stroke-linejoin="round"/><path d="M80.3309 111.539H76.8256C75.8178 111.539 75.0072 110.727 75.0072 109.718V87.5988C75.0072 86.5894 75.8178 85.7775 76.8256 85.7775H80.3309C81.3387 85.7775 82.1493 86.5894 82.1493 87.5988V109.718" stroke="#595757" stroke-width="0.75" stroke-linecap="round" stroke-linejoin="round"/><path d="M94.4836 156.897V100.194H105.241V156.897" stroke="#595757" stroke-width="0.75" stroke-linecap="round" stroke-linejoin="round"/><path d="M67.5585 49.6583H79.1041" stroke="#595757" stroke-width="0.75" stroke-linecap="round" stroke-linejoin="round"/><path d="M79.1041 53.3668H67.5585" stroke="#595757" stroke-width="0.75" stroke-linecap="round" stroke-linejoin="round"/><path d="M81.032 49.6583H92.5776" stroke="#595757" stroke-width="0.75" stroke-linecap="round" stroke-linejoin="round"/><path d="M92.5776 53.3668H81.032" stroke="#595757" stroke-width="0.75" stroke-linecap="round" stroke-linejoin="round"/><path d="M94.4836 49.6583H106.029" stroke="#595757" stroke-width="0.75" stroke-linecap="round" stroke-linejoin="round"/><path d="M106.029 53.3668H94.4836" stroke="#595757" stroke-width="0.75" stroke-linecap="round" stroke-linejoin="round"/><path d="M204.463 1.73352V58.7868" stroke="#595757" stroke-width="0.75" stroke-linecap="round" stroke-linejoin="round"/><path d="M217.805 1.73352V58.7868" stroke="#595757" stroke-width="0.75" stroke-linecap="round" stroke-linejoin="round"/><path d="M191.121 1.73352V58.7868" stroke="#595757" stroke-width="0.75" stroke-linecap="round" stroke-linejoin="round"/><path d="M178.217 1.73352V58.9404" stroke="#595757" stroke-width="0.75" stroke-linecap="round" stroke-linejoin="round"/><path d="M197.584 46.8275C198.635 46.8275 199.577 47.2444 200.257 47.9466C200.936 48.6269 201.374 49.5705 201.374 50.6238C201.374 51.677 200.958 52.6206 200.257 53.3009C199.577 53.9811 198.635 54.42 197.584 54.42C196.532 54.42 195.59 54.0031 194.911 53.3009C194.232 52.6206 193.794 51.677 193.794 50.6238C193.794 49.5705 194.21 48.6269 194.911 47.9466" stroke="#595757" stroke-width="0.75" stroke-linecap="round" stroke-linejoin="round"/><path d="M184.833 46.8275C185.885 46.8275 186.827 47.2444 187.506 47.9466C188.185 48.6269 188.623 49.5705 188.623 50.6238C188.623 51.677 188.207 52.6206 187.506 53.3009C186.827 53.9811 185.885 54.42 184.833 54.42C183.782 54.42 182.839 54.0031 182.16 53.3009C181.481 52.6206 181.043 51.677 181.043 50.6238C181.043 49.5705 181.459 48.6269 182.16 47.9466" stroke="#595757" stroke-width="0.75" stroke-linecap="round" stroke-linejoin="round"/><path d="M172.104 46.8275C173.156 46.8275 174.098 47.2444 174.777 47.9466C175.456 48.6269 175.895 49.5705 175.895 50.6238C175.895 51.677 175.478 52.6206 174.777 53.3009C174.098 53.9811 173.156 54.42 172.104 54.42C171.053 54.42 170.111 54.0031 169.432 53.3009C168.752 52.6206 168.314 51.677 168.314 50.6238C168.314 49.5705 168.731 48.6269 169.432 47.9466" stroke="#595757" stroke-width="0.75" stroke-linecap="round" stroke-linejoin="round"/><path d="M159.354 46.8275C160.405 46.8275 161.347 47.2444 162.027 47.9466C162.706 48.6269 163.144 49.5705 163.144 50.6238C163.144 51.677 162.728 52.6206 162.027 53.3009C161.347 53.9811 160.405 54.42 159.354 54.42C158.302 54.42 157.36 54.0031 156.681 53.3009C156.002 52.6206 155.564 51.677 155.564 50.6238C155.564 49.5705 155.98 48.6269 156.681 47.9466" stroke="#595757" stroke-width="0.75" stroke-linecap="round" stroke-linejoin="round"/><path d="M211.342 46.8275C212.394 46.8275 213.336 47.2444 214.015 47.9466C214.694 48.6269 215.132 49.5705 215.132 50.6238C215.132 51.677 214.716 52.6206 214.015 53.3009C213.336 53.9811 212.394 54.42 211.342 54.42C210.29 54.42 209.348 54.0031 208.669 53.3009C207.99 52.6206 207.552 51.677 207.552 50.6238C207.552 49.5705 207.968 48.6269 208.669 47.9466" stroke="#595757" stroke-width="0.75" stroke-linecap="round" stroke-linejoin="round"/><path d="M165.291 1.73352V58.7868" stroke="#595757" stroke-width="0.75" stroke-linecap="round" stroke-linejoin="round"/><path d="M152.387 1.73352V58.7868" stroke="#595757" stroke-width="0.75" stroke-linecap="round" stroke-linejoin="round"/><path d="M139.483 1.73352V58.7868" stroke="#595757" stroke-width="0.75" stroke-linecap="round" stroke-linejoin="round"/><path fill-rule="evenodd" clip-rule="evenodd" d="M91.4384 45.5548C91.7232 43.8871 92.0737 41.4952 92.6215 39.1692C93.1692 36.8432 93.9359 34.5611 95.0971 32.1473C96.2582 29.7554 97.8356 27.2319 99.5006 25.257C101.166 23.2821 102.94 21.8119 104.978 20.5172C107.015 19.2225 109.316 18.1253 111.857 17.1818C114.398 16.2382 117.224 15.4702 120.27 15.0532C123.315 14.6363 126.601 14.5924 129.296 14.8119C131.99 15.0313 134.116 15.5579 136.832 16.5673C139.549 17.5767 142.857 19.1128 146.187 20.978C149.517 22.8432 152.891 25.0814 155.104 28.4827C157.316 31.884 158.39 36.4482 158.981 39.8275C159.573 43.2288 159.704 45.4451 159.463 47.7053C159.222 49.9655 158.587 52.2695 158.653 53.9153C158.719 55.5391 159.485 56.5046 159.967 57.4263C160.449 58.3479 160.625 59.2695 160.405 60.3448C160.208 61.42 159.617 62.6927 159.288 63.5046C158.959 64.3166 158.872 64.7115 158.872 65.1285C158.872 65.5454 159.003 66.0281 159.398 66.6426C159.792 67.2789 160.471 68.0689 160.449 68.7711C160.449 69.4733 159.726 70.1097 158.938 70.4608C158.149 70.7899 157.273 70.8338 156.615 70.4608C155.958 70.0877 155.52 69.3197 155.323 68.4858C155.147 67.652 155.235 66.7303 155.147 66.2695C155.06 65.8087 154.797 65.8307 154.249 65.699C153.702 65.5673 152.869 65.2821 152.409 65.5454C151.949 65.7868 151.861 66.5767 151.576 68.0908C151.27 69.6049 150.766 71.8212 149.692 73.5767C148.619 75.3322 146.976 76.583 144.938 77.373C142.901 78.1629 140.469 78.4921 138.629 78.9968C136.766 79.5015 135.474 80.1817 135.167 80.6426C134.86 81.1034 135.54 81.3667 136.044 81.7617C136.547 82.1567 136.898 82.6833 137.073 83.8683C137.248 85.0532 137.248 86.8965 137.227 88.0595C137.227 89.2225 137.183 89.6833 137.489 89.815C137.796 89.9466 138.453 89.7491 138.935 89.5517C139.417 89.3542 139.746 89.2006 140.031 89.3542C140.316 89.5078 140.579 89.9905 140.885 90.5391C141.192 91.0877 141.542 91.7241 141.893 92.0093C142.244 92.2946 142.594 92.2288 143.339 92.4043C144.084 92.5799 145.245 92.9968 147.239 93.8526C149.232 94.7084 152.08 96.0031 154.403 97.3416C156.725 98.6802 158.521 100.063 160.055 101.401C161.588 102.74 162.837 104.034 163.626 105.965C164.437 107.896 164.787 110.486 164.809 113.009C164.831 115.533 164.524 117.991 164.108 121.414C163.692 124.837 163.166 129.204 162.509 133.768C161.851 138.332 161.085 143.05 160.34 146.144C159.595 149.238 158.894 150.664 158.631 151.564C158.39 152.464 158.609 152.815 159.069 153.32C159.529 153.824 160.208 154.461 160.887 155.317C161.567 156.172 162.246 157.204 162.64 158.323C163.034 159.442 163.144 160.649 163.275 162.36C163.429 164.072 163.604 166.31 163.648 167.605C163.692 168.878 163.604 169.229 163.166 169.799C162.728 170.37 161.961 171.204 161.457 171.906C160.953 172.608 160.712 173.179 160.603 173.815C160.559 174.122 160.537 174.451 160.537 174.978H103.094C103.137 173.991 103.181 173.091 103.225 172.301C103.4 168.724 103.4 167.759 103.115 167.122C102.831 166.486 102.217 166.201 101.319 165.849C100.399 165.52 99.172 165.125 98.1423 164.401C97.1126 163.677 96.302 162.58 95.4695 161.395C94.637 160.21 93.7826 158.915 93.2568 157.401C92.731 155.887 92.5338 154.11 92.8186 148.975C93.1034 143.84 93.8921 135.304 94.5275 129.511C95.1628 123.718 95.6448 120.646 96.0172 118.144C96.3897 115.643 96.6307 113.69 97.1784 111.934C97.7261 110.179 98.5367 108.599 99.3692 106.975C100.18 105.351 101.012 103.683 102.458 102.103C103.904 100.523 105.985 99.0313 107.935 97.583C109.885 96.1347 111.682 94.7303 113.04 93.9184C114.398 93.1065 115.318 92.8871 116.501 92.1849C117.684 91.4607 119.108 90.2538 120.029 89.6394C120.927 89.025 121.321 89.047 121.606 88.9592C121.891 88.8714 122.066 88.6739 122.351 88.1911C122.614 87.7084 122.986 86.9623 123.096 86.1943C123.205 85.4263 123.096 84.6363 123.446 84.1316C123.819 83.6488 124.673 83.4513 125.308 83.3855C125.944 83.3416 126.382 83.4294 126.776 83.9122C127.171 84.3949 127.521 85.2946 127.718 85.7993C127.916 86.3259 127.916 86.4796 128.704 86.8526C129.493 87.2256 131.027 87.7962 131.771 87.8181C132.516 87.8181 132.472 87.3134 131.728 86.5454C130.983 85.7774 129.559 84.768 128.091 83.956C126.623 83.1441 125.089 82.5078 123.381 82.1347C121.672 81.7617 119.81 81.63 117.663 81.3228C115.516 80.9937 113.084 80.467 111.419 79.6551C109.754 78.8213 108.855 77.7021 107.913 76.21C106.971 74.7178 106.007 72.8307 105.416 71.4702C104.824 70.0877 104.605 69.21 104.123 68.9686C103.619 68.7272 102.831 69.1002 102.239 69.3197C101.648 69.5391 101.231 69.6049 101.1 69.978C100.99 70.351 101.166 71.0313 101.253 71.8651C101.363 72.699 101.363 73.6645 101.144 74.3448C100.925 75.0031 100.465 75.3761 99.7416 75.6175C99.0186 75.8589 98.0328 75.9466 97.4851 75.5078C96.9374 75.0689 96.8059 74.1034 96.8936 73.3134C96.9812 72.5234 97.266 71.931 97.7042 71.4702C98.1423 71.0093 98.69 70.7241 98.6462 70.2633C98.6024 69.8244 97.9451 69.2319 97.3536 68.6833C96.7621 68.1567 96.2144 67.6739 95.7543 66.8839C95.2943 66.094 94.9218 65.0187 94.7685 64.1629C94.6151 63.3071 94.7027 62.6927 94.5494 61.9247C94.396 61.1567 94.0236 60.257 93.6292 59.1159C93.2349 57.9749 92.8405 56.6144 92.3586 54.9028C91.8547 53.2131 91.2631 51.1724 91.0879 49.6802C90.9126 48.188 91.1536 47.2445 91.4384 45.5767V45.5548Z" fill="white"/><path fill-rule="evenodd" clip-rule="evenodd" d="M113.171 97.3416C110.893 98.5266 107.453 101.665 104.496 104.956C101.538 108.226 99.0185 111.649 96.9592 118.1C94.8998 124.552 93.2567 134.009 92.7309 141.075C92.1832 148.141 92.7309 152.793 93.6072 156.063C94.4616 159.332 95.6009 161.197 97.244 162.821C98.8871 164.445 101.034 165.806 101.932 170.655C102.173 171.928 102.305 173.42 102.436 175.022H158.412C157.645 173.705 156.812 172.608 156.571 171.313C156.287 169.734 156.9 167.868 155.958 166.179C155.016 164.489 152.496 162.975 150.853 163.019C149.232 163.063 148.487 164.665 146.537 165.125C144.588 165.586 141.411 164.884 139.439 163.15C137.489 161.417 136.744 158.608 136.372 156.633C136 154.658 136 153.517 133.436 152.486C130.873 151.455 125.725 150.511 122.789 150.028C119.853 149.545 119.13 149.502 118.867 147.944C118.604 146.386 118.78 143.313 121.058 141.075C123.337 138.837 127.696 137.455 130.873 139.122C134.05 140.768 136.022 145.464 139.001 148.997C141.981 152.53 145.946 154.9 149.166 155.887C152.387 156.875 154.884 156.458 157.36 149.809C159.814 143.138 162.246 130.213 162.706 121.128C163.166 112.022 161.654 106.755 160.34 103.881C159.025 100.984 157.908 100.502 155.52 99.7993C153.132 99.0971 149.451 98.2194 145.595 99.3605C141.74 100.502 137.687 103.683 136.942 106.777C136.197 109.871 138.76 112.922 139.768 115.16C140.797 117.398 140.272 118.846 138.475 120.36C136.679 121.897 133.59 123.498 131.618 124.42C129.624 125.342 128.748 125.583 127.346 123.915C125.966 122.248 124.082 118.693 123.578 116.235C123.096 113.799 124.016 112.483 124.213 110.727C124.41 108.972 123.906 106.799 123.731 105.351C123.556 103.903 123.731 103.179 122.789 102.016C121.847 100.853 119.809 99.2727 118.21 98.1097C116.611 96.9467 115.472 96.1786 113.171 97.3636V97.3416Z" fill="#ABDFF2"/><path fill-rule="evenodd" clip-rule="evenodd" d="M150.831 59.0282C149.254 57.0313 146.757 52.1818 144.916 49.0439C143.098 45.9059 141.937 44.4577 140.14 43.3385C138.344 42.2194 135.868 41.4514 133.414 42.2194C130.961 42.9874 128.529 45.3354 126.097 47.442C123.665 49.5486 121.277 51.4138 117.684 53.4106C114.091 55.4075 109.315 57.5141 106.489 58.7429C103.663 59.9718 102.787 60.3009 101.757 60.2351C100.727 60.1912 99.5444 59.7523 98.208 59.6645C96.8716 59.5548 95.3599 59.7962 94.2645 58.9843C93.1691 58.1724 92.5119 56.3072 92.7309 52.1379C92.9281 47.9686 94.0016 41.4953 97.8136 35.2414C101.626 29.0094 108.198 22.9968 113.456 20.3197C118.692 17.6426 122.614 18.279 128.551 19.815C134.488 21.3291 142.419 23.7429 148.137 27.0784C153.855 30.4138 157.36 34.6928 159.31 38.3354C161.26 41.978 161.676 44.9843 161.654 47.2225C161.654 49.4608 161.216 50.9529 160.603 51.9185C160.011 52.884 159.244 53.3228 158.083 54.4639C156.922 55.605 155.345 57.4482 154.227 58.8087C153.11 60.1692 152.431 61.025 150.853 59.0282H150.831Z" fill="#DFAF7B"/><path fill-rule="evenodd" clip-rule="evenodd" d="M138.278 68.6834C137.84 67.4545 137.971 65.6552 138.716 64.5799C139.439 63.5047 140.776 63.1536 142.002 63.373C143.229 63.5925 144.369 64.3824 145.157 65.1724C145.946 65.9624 146.362 66.7524 146.34 67.5643C146.34 68.3542 145.858 69.1661 145.289 69.7367C144.719 70.2853 144.04 70.5925 143.251 70.8119C142.463 71.0313 141.586 71.163 140.666 70.8997C139.746 70.6364 138.716 69.9561 138.278 68.7053V68.6834Z" fill="#FEE8B1"/><path fill-rule="evenodd" clip-rule="evenodd" d="M110.214 71.163C109.776 69.9342 109.907 68.1348 110.652 67.0595C111.397 65.9843 112.711 65.6332 113.938 65.8527C115.165 66.0721 116.304 66.8621 117.093 67.652C117.882 68.442 118.298 69.232 118.276 70.0439C118.276 70.8558 117.794 71.6677 117.224 72.2163C116.655 72.7649 115.976 73.0721 115.187 73.2915C114.398 73.511 113.544 73.6426 112.602 73.3793C111.66 73.116 110.652 72.4357 110.214 71.1849V71.163Z" fill="#FEE8B1"/><path fill-rule="evenodd" clip-rule="evenodd" d="M102.305 175C102.392 172.564 102.392 170.15 102.305 167.846C98.3395 164.818 96.5868 166.596 93.6292 160.364C89.1818 150.95 92.95 127.36 94.8999 117.53C98.6243 98.8558 103.882 100.326 116.151 91.0439C126.053 83.5392 119.284 88.3009 123.337 82.9686C104.189 81.0815 109.162 77.9216 103.006 70.0439C101.494 72.9404 105.065 75.5517 98.6243 77.3291L95.097 73.7084L96.5211 69.6269C89.2476 62.4953 96.4335 54.6833 100.662 57.6896C99.4568 60.4765 98.4271 58.699 96.2144 61.2664C95.4257 65.7868 96.6087 68.3103 101.582 68.6175L104.255 65.3699C107.015 68.2225 105.898 76.2539 112.711 78.7555C113.434 79.0188 120.883 80.3134 121.54 80.2915C124.761 80.1818 123.359 77.6144 128.573 78.2727C134.159 78.9968 137.358 79.9624 145.617 75.6395C152.343 72.1285 148.772 63.8777 152.409 61.047L154.863 64.7116C157.689 64.2288 160.055 62.4075 159.573 59.2476C158.959 55.3197 156.747 56.1536 154.183 54.5517C156.506 51.8746 157.251 54.6175 158.258 51.0407C159.923 45.2257 157.776 36.558 154.928 31.5768C149.101 21.3949 139.68 20.4294 139.001 17.0282C142.156 14.8777 151.533 22.9749 153.789 25.6959C165.225 39.5203 159.441 50.9968 159.682 53.9812C159.902 56.8777 163.911 57.1849 161.172 63.1755C159.639 66.5109 159.814 63.6144 160.734 67.2131C161.172 68.9247 161.917 70.1755 159.836 71.6457C154.556 75.3981 154.446 68.4859 153.548 66.8401C151.401 70.5047 152.54 72.9185 148.137 76.7366C145.113 79.3699 140.732 79.5893 137.227 81.279C137.227 81.6301 138.256 85.6896 138.41 86.1285C139.658 89.8589 139.176 86.7649 141.236 88.8714C143.339 91.0219 140.732 90.9341 144.5 91.7899C151.686 93.4576 160.624 97.6928 164.042 104.649C169.366 115.533 162.114 140.066 159.858 151.74C161.019 154.527 162.859 155.097 163.911 158.893C167.087 170.414 163.078 169.624 162.114 175.044H156.287C156.133 174.956 155.98 174.846 155.805 174.715C155.388 170.809 155.498 171.884 156.944 168.812C152.869 164.796 151.686 162.163 149.955 161.505C148.838 163.567 149.67 163.809 147.764 166.31C144.193 166.683 139.702 166.705 136.284 166.179C131.99 165.498 112.843 167.89 104.43 167.89C104.43 170.37 104.364 172.74 104.277 175.088H102.327L102.305 175ZM138.212 164.16L138.103 152.464C139.483 152.464 148.159 157.489 147.217 162.185C146.691 164.774 141.214 164.401 138.212 164.182V164.16ZM158.894 154.571C161.588 157.27 162.005 160.868 162.509 164.489C163.188 169.36 161.917 170.523 157.908 172.652C158.324 169.009 160.997 169.075 157.492 165.959C154.644 163.414 154.885 163.216 153 159.881C153.395 159.552 155.169 158.389 156.002 157.643C157.535 156.238 156.988 155.909 158.894 154.571ZM120.554 142.523L133.174 141.821C135.43 142.238 137.752 148.843 137.971 150.138C129.756 149.26 128.989 149.502 120.554 149.545V142.523ZM127.806 125.781C129.252 126.9 130.019 130.564 130.632 132.429C132.188 137.169 133.414 137.981 132.538 139.781C129.493 138.42 132.363 140.263 130.369 136.906L126.754 129.138C125.878 126.395 125.352 127.273 127.806 125.781ZM103.729 150.95L136 152.354V162.887C111.747 165.06 90.3649 173.288 94.4179 143.73C94.7903 140.987 94.4398 138.442 94.7903 135.677C96.1486 125.078 97.0688 110.003 103.882 102.63C106.248 100.085 111.2 96.2664 114.311 95.3887C116.129 98.4388 119.24 113.47 120.817 118.364L126.338 134.624C127.937 138.332 128.726 136.796 128.88 139.627C125.703 139.802 121.803 139.166 118.933 140.219C118.385 142.107 118.517 146.517 118.364 149.458C114.223 148.755 111.112 148.865 106.511 148.865C106.511 144.455 106.27 140.154 106.927 135.918C107.388 132.824 108.242 126.373 106.336 123.762C104.277 125.188 103.707 147.812 103.707 150.972L103.729 150.95ZM124.848 116.498L135.934 111.276L139.527 117.288L127.609 123.806L124.848 116.498ZM144.478 94.2257C147.721 94.5768 153.504 97.4953 156.747 99.931C160.646 102.871 162.947 106.668 163.319 111.605C163.955 120.295 161.304 136.906 159.288 144.762C156.374 156.063 152.015 163.348 141.783 150.73C136.964 144.784 133.371 132.539 130.479 125.056L139.724 120.207C142.243 123.301 151.554 138.991 153.986 139.605C155.958 136.796 150.788 131.969 149.035 129.423C139.702 115.928 139.33 117.859 144.675 100.589C145.661 97.4294 146.757 96.0909 144.5 94.2037L144.478 94.2257ZM117.75 97.6708L123.359 104.583C123.359 109.147 123.6 109.235 126.053 112.768L122.154 115.072L117.75 97.6489V97.6708ZM136.679 100.37C136.679 100.37 136.876 100.48 136.876 100.567C136.876 100.611 136.964 100.655 136.964 100.655C136.964 100.655 135.737 101.313 136.679 100.37ZM121.387 98.373C123.6 99.7335 123.95 99.9529 123.884 102.411L121.387 98.373ZM139.198 111.517C133.174 103.223 136.613 106.009 139.483 101.752C140.622 100.063 141.126 98.2413 142.813 96.9028L139.176 111.495L139.198 111.517ZM119.853 96.1567C119.853 96.1567 120.05 96.2664 120.05 96.3542C120.05 96.3981 120.138 96.442 120.138 96.442C120.138 96.442 118.911 97.1003 119.853 96.1567ZM137.73 99.7116C137.314 97.2978 137.752 92.3605 139.023 90.6489L141.718 94.0501L137.73 99.7335V99.7116ZM118.451 94.0501C118.451 94.0501 118.648 94.1598 118.648 94.2476C118.648 94.2915 118.736 94.3354 118.736 94.3354C118.736 94.3354 117.509 94.9937 118.451 94.0501ZM117.75 92.6457C117.75 92.6457 117.947 92.7555 117.947 92.8432C117.947 92.8871 118.035 92.931 118.035 92.931C118.035 92.931 116.808 93.5893 117.75 92.6457ZM128.967 85.6238C128.967 85.6238 129.164 85.7335 129.164 85.8213C129.164 85.8652 129.252 85.9091 129.252 85.9091C129.252 85.9091 128.025 86.5674 128.967 85.6238ZM124.936 84.9216C125.177 83.4733 127.565 84.9655 125.659 84.9874C124.301 84.9874 124.673 86.5235 124.936 84.9216ZM125.462 80.7084C139.856 80.7084 136.613 86.8307 133.896 104.605C133.239 108.84 133.612 111.539 128.441 111.451C122.767 105.483 128.354 98.8119 127.083 95.279C124.695 94.884 125.966 97.0783 123.863 97.0345C123.402 94.2915 125.834 94.6645 124.98 91.768C123.271 91.4827 123.249 92.5799 121.387 94.0721C120.773 92.0971 120.532 92.163 121.825 90.4514C125.922 85.0094 132.341 91.4827 134.773 90.7147C135.474 88.4765 132.954 85.141 132.188 84.4827C130.523 83.0783 127.368 82.3542 125.462 80.6865V80.7084ZM99.5225 71.4482C100.859 73.7962 100.968 73.4451 98.7557 74.4326C97.7918 72.5235 97.507 73.0282 99.5225 71.4482ZM157.733 67.2351C158.828 69.1661 158.828 68.3542 157.733 70.2852C155.914 68.7492 155.629 68.8589 157.733 67.2351Z" fill="#595757"/><path fill-rule="evenodd" clip-rule="evenodd" d="M93.7387 58.7649C94.8999 56.9436 84.362 26.1787 114.661 17.2038C126.338 13.7586 126.47 16.0627 134.554 16.0627C134.313 13.9342 135.408 13.3636 128.726 13.2539H123.534C120.05 13.3417 118.539 13.6928 114.902 14.6364C97.0688 19.2884 91.2412 33.0031 90.3649 43.931V49.768C90.7811 54.8589 92.2709 58.4796 93.7168 58.7429L93.7387 58.7649Z" fill="#595757"/><path fill-rule="evenodd" clip-rule="evenodd" d="M101.012 61.6615C105.591 61.4859 110.236 54.7492 112.93 51.3041C114.289 49.5486 116.392 46.6082 117.619 44.743C121.058 39.4765 121.715 39.2351 120.401 37.326C118.276 37.8746 118.385 38.9718 115.778 42.8997C114.267 45.1818 112.843 47.4201 111.243 49.5925C108.943 52.7085 101.582 58.8966 101.012 61.6395V61.6615Z" fill="#595757"/><path fill-rule="evenodd" clip-rule="evenodd" d="M135.233 41.605C136.898 43.2727 140.118 44.0188 144.128 49.373C149.911 57.0533 145.88 59.7962 150.722 60.3448C150.722 53.279 140.557 37.326 135.233 41.6269V41.605Z" fill="#595757"/><path fill-rule="evenodd" clip-rule="evenodd" d="M122.658 52.5987C128.332 51.2163 135.846 40.442 135.978 34.3417C131.793 34.9342 134.05 37.3918 129.69 43.4921C127.521 46.5423 123.008 48.7147 122.658 52.5987Z" fill="#595757"/><path fill-rule="evenodd" clip-rule="evenodd" d="M114.004 61.9687C117.268 63.0658 117.903 62.0564 118.276 59.0941C115.647 54.8809 112.47 57.3166 114.004 61.9687Z" fill="#595757"/><path fill-rule="evenodd" clip-rule="evenodd" d="M134.707 60.2132L138.344 60.1034C139.264 57.0313 139.023 57.0752 136.744 55.3417C133.327 56.4827 133.524 56.9655 134.707 60.1912V60.2132Z" fill="#595757"/><path fill-rule="evenodd" clip-rule="evenodd" d="M125.221 76.0126C127.214 76.2101 126.141 75.6834 127.828 75.3762C130.325 74.8935 128.704 75.6176 131.662 75.6615C131.618 72.1066 131.246 73.8182 128.266 72.1505C126.251 73.4671 124.542 73.3574 125.221 76.0345V76.0126Z" fill="#595757"/><path fill-rule="evenodd" clip-rule="evenodd" d="M134.576 50.4921C136 52.489 138.322 53.0376 140.316 51.8965C138.848 50.1191 136.131 49.5266 134.576 50.4921Z" fill="#595757"/><path fill-rule="evenodd" clip-rule="evenodd" d="M126.163 64.536C127.937 65.6771 127.236 65.6112 129.099 64.536C127.236 63.4608 127.937 63.3949 126.163 64.536Z" fill="#595757"/><path d="M78.5782 40.3104L78.9945 34.5831C82.3464 32.9593 87.6482 31.2038 88.8093 27.3417C90.1677 22.8213 88.0864 17.9937 83.8581 15.931C76.6722 12.3981 60.0877 16.4138 63.1548 26.9906C63.8997 29.5799 67.0545 29.4922 68.1937 27.1442C69.5082 24.4452 67.4927 23.1724 70.5379 20.9781C73.5612 18.8057 81.251 17.9499 83.3323 22.1191C86.3337 28.1317 79.4984 28.7461 76.2998 30.6771C72.2906 33.1129 72.8383 42 78.5563 40.2884L78.5782 40.3104Z" stroke="white" stroke-width="3" stroke-linecap="round" stroke-linejoin="round"/><path d="M76.1026 43.4922C75.1825 43.953 75.3797 42.8997 74.3062 45.1599C72.7945 48.3198 76.4532 51.0408 79.126 49.9656C83.0695 48.3856 81.1196 40.9907 76.1026 43.4922Z" stroke="white" stroke-width="3" stroke-linecap="round" stroke-linejoin="round"/><path fill-rule="evenodd" clip-rule="evenodd" d="M78.5782 40.3104L78.9945 34.5831C82.3464 32.9593 87.6482 31.2038 88.8093 27.3417C90.1677 22.8213 88.0864 17.9937 83.8581 15.931C76.6722 12.3981 60.0877 16.4138 63.1548 26.9906C63.8997 29.5799 67.0545 29.4922 68.1937 27.1442C69.5082 24.4452 67.4927 23.1724 70.5379 20.9781C73.5612 18.8057 81.251 17.9499 83.3323 22.1191C86.3337 28.1317 79.4984 28.7461 76.2998 30.6771C72.2906 33.1129 72.8383 42 78.5563 40.2884L78.5782 40.3104Z" fill="#595757"/><path fill-rule="evenodd" clip-rule="evenodd" d="M76.1026 43.4922C75.1825 43.953 75.3797 42.8997 74.3062 45.1599C72.7945 48.3198 76.4532 51.0408 79.126 49.9656C83.0695 48.3856 81.1196 40.9907 76.1026 43.4922Z" fill="#595757"/></g></g><defs><filter id="filter0_d_2118_1967" x="22.625" y="-4.54114" width="213.085" height="188.629" filterUnits="userSpaceOnUse" color-interpolation-filters="sRGB"><feFlood flood-opacity="0" result="BackgroundImageFix"/><feColorMatrix in="SourceAlpha" type="matrix" values="0 0 0 0 0 0 0 0 0 0 0 0 0 0 0 0 0 0 127 0" result="hardAlpha"/><feOffset dx="1" dy="2"/><feGaussianBlur stdDeviation="3.5"/><feComposite in2="hardAlpha" operator="out"/><feColorMatrix type="matrix" values="0 0 0 0 0 0 0 0 0 0.364706 0 0 0 0 0.592157 0 0 0 0.17 0"/><feBlend mode="normal" in2="BackgroundImageFix" result="effect1_dropShadow_2118_1967"/><feBlend mode="normal" in="SourceGraphic" in2="effect1_dropShadow_2118_1967" result="shape"/></filter><clipPath id="clip0_2118_1967"><rect width="256" height="175" fill="white"/></clipPath></defs></svg>