<svg width="256" height="175" fill="none" xmlns="http://www.w3.org/2000/svg"><g clip-path="url(#clip0_2118_2134)"><g filter="url(#filter0_d_2118_2134)"><path d="M20.5742 52.9365C17.0935 54.2092 10.8762 56.4255 8.22737 50.4569C7.32981 48.3723 5.95064 44.8614 4.61526 41.1969C2.86393 36.3914 1.15639 31.2786 0.433967 28.8649C-1.40493 22.7647 2.86393 21.0092 8.27115 19.0343C9.62843 18.5516 10.9419 18.1127 11.6206 17.9152C21.9315 14.909 30.0095 19.9121 33.3151 28.9965C39.4885 45.9805 25.1277 51.2688 20.5961 52.9365H20.5742ZM9.36573 23.9715C7.26414 24.7396 4.94363 25.6392 5.60038 27.8774C6.12577 29.7645 7.83332 34.8334 9.54086 39.5512C10.7887 42.9963 12.0584 46.2 12.8246 47.8018C13.7659 49.7328 15.2546 49.5792 18.8667 48.2626C23.442 46.5949 32.6365 43.2376 28.1487 30.8836C25.5874 23.8399 19.5234 20.329 12.8684 22.7647C12.8684 22.7647 10.9857 23.401 9.36573 23.9935V23.9715Z" fill="#FBD8B5"/><path d="M37.4307 13.3949C36.8615 13.0658 36.5113 12.6489 36.3361 12.1661C35.8107 10.7179 36.774 8.89659 38.175 8.36995C38.8318 8.12858 39.5323 8.17246 40.2547 8.65521C43.8887 11.047 52.1419 16.2476 52.3608 16.1598C52.6235 16.072 55.5569 6.74616 56.7172 2.7525C56.958 1.91866 57.5053 1.37008 58.162 1.15065C59.5631 0.645957 61.5333 1.45785 62.0368 2.86222C62.212 3.34497 62.2339 3.93743 61.9931 4.50795C61.7522 5.10042 56.9142 18.4858 57.0675 18.9246C57.0893 19.0124 57.1112 19.0563 57.1988 19.1221C62.8249 22.5233 68.9546 25.9245 73.0921 28.3602C73.6613 28.6893 74.0334 29.1501 74.2086 29.6768C74.7558 31.1689 73.7926 32.9902 72.3916 33.4949C71.7348 33.7363 70.9905 33.7143 70.2024 33.2096C66.656 30.9275 55.4475 23.9496 55.2286 24.0374C55.0972 24.0813 54.9659 24.3885 49.69 40.7581C49.4054 41.5919 48.8581 42.1405 48.2014 42.3819C46.7565 42.9085 44.8957 42.0966 44.3703 40.6703C44.1733 40.1437 44.1733 39.5512 44.3703 38.9368C45.9028 34.5701 48.4422 27.8555 50.5657 21.6017C50.6313 21.47 50.5876 21.4042 50.5657 21.2945C50.5438 21.1848 50.4781 21.075 50.3905 21.075C45.3774 18.003 40.8677 15.3479 37.4526 13.4169L37.4307 13.3949Z" fill="#FBD8B5"/><path d="M27.3387 136.255C23.858 134.982 17.6846 132.678 19.4578 126.402C20.1145 124.208 21.2967 120.653 22.6321 116.967C24.3834 112.161 26.3536 107.136 27.3387 104.832C29.8563 98.9733 34.2346 100.378 39.6418 102.353C40.9991 102.835 42.2907 103.362 42.9255 103.647C52.7548 107.97 55.7321 117.033 52.4265 126.117C46.253 143.101 31.8703 137.901 27.3387 136.255ZM37.3213 106.851C35.2197 106.083 32.8554 105.271 31.936 107.421C31.1479 109.199 29.1776 114.18 27.4701 118.898C26.2223 122.343 25.1277 125.612 24.7117 127.346C24.2082 129.43 25.4342 130.264 29.0463 131.603C33.6216 133.271 42.8161 136.628 47.3038 124.274C49.8652 117.23 47.479 110.625 40.802 108.189C40.802 108.189 38.9413 107.465 37.3213 106.873V106.851Z" fill="#FBD8B5"/><path d="M65.6268 116.835C65.4079 116.221 65.4079 115.672 65.583 115.189C66.1084 113.741 68.013 112.951 69.4141 113.478C70.0708 113.719 70.5743 114.202 70.837 115.036C72.0848 119.205 75.084 128.509 75.3029 128.575C75.5656 128.662 83.7968 123.418 87.2338 121.114C87.9562 120.631 88.7224 120.565 89.3573 120.807C90.7583 121.311 91.7435 123.221 91.24 124.603C91.0648 125.086 90.6927 125.547 90.1454 125.832C89.5981 126.139 77.2731 133.271 77.1199 133.687C77.098 133.775 77.0761 133.819 77.0761 133.929C79.1996 140.161 81.7171 146.7 83.3152 151.242C83.5341 151.856 83.5122 152.449 83.3152 152.975C82.7679 154.468 80.8633 155.258 79.4623 154.731C78.8055 154.49 78.2582 153.985 77.9737 153.107C76.7258 149.092 72.6102 136.496 72.3913 136.43C72.26 136.386 71.9535 136.518 57.4394 145.668C56.6732 146.129 55.907 146.195 55.2502 145.954C53.8054 145.427 52.8859 143.606 53.4113 142.158C53.6083 141.631 53.9586 141.17 54.5278 140.841C58.4902 138.471 64.7512 134.982 70.3992 131.537C70.5305 131.471 70.5524 131.405 70.5743 131.296C70.5962 131.186 70.6619 131.076 70.5743 131.01C68.7135 125.437 66.9403 120.478 65.5611 116.813L65.6268 116.835Z" fill="#FBD8B5"/><path d="M191.963 94.8261C188.482 93.5534 182.309 91.2494 184.082 84.9736C184.739 82.7793 185.921 79.2245 187.256 75.538C189.008 70.7325 190.978 65.7075 191.963 63.4035C194.481 57.5446 198.859 58.949 204.266 60.9239C205.623 61.4066 206.915 61.9333 207.55 62.2185C217.379 66.5413 220.356 75.6039 217.051 84.6884C210.877 101.672 196.495 96.4718 191.963 94.8261ZM201.946 65.4222C199.844 64.6542 197.48 63.8423 196.56 65.9928C195.772 67.7702 193.802 72.7513 192.094 77.469C190.847 80.9141 189.752 84.1837 189.336 85.9172C188.833 88.0018 190.058 88.8356 193.671 90.1742C198.246 91.8418 207.44 95.1991 211.928 82.8451C214.489 75.8014 212.103 69.1965 205.426 66.7608C205.426 66.7608 203.566 66.0366 201.946 65.4442V65.4222Z" fill="#FBD8B5"/><path d="M230.252 75.4064C230.033 74.792 230.033 74.2434 230.208 73.7606C230.733 72.3124 232.638 71.5224 234.039 72.0491C234.696 72.2904 235.199 72.7732 235.462 73.607C236.71 77.7762 239.709 87.0802 239.928 87.146C240.19 87.2338 248.422 81.9893 251.859 79.6853C252.581 79.2025 253.347 79.1367 253.982 79.3781C255.383 79.8828 256.368 81.7918 255.865 83.1743C255.69 83.657 255.317 84.1178 254.77 84.4031C254.223 84.7103 241.898 91.8418 241.745 92.2587C241.723 92.3465 241.701 92.3904 241.701 92.5001C243.824 98.732 246.342 105.271 247.94 109.813C248.159 110.428 248.137 111.02 247.94 111.547C247.393 113.039 245.488 113.829 244.087 113.302C243.43 113.061 242.883 112.556 242.598 111.678C241.351 107.663 237.235 95.0675 237.016 95.0016C236.885 94.9577 236.578 95.0894 222.064 104.24C221.298 104.701 220.532 104.766 219.875 104.525C218.43 103.998 217.511 102.177 218.036 100.729C218.233 100.202 218.583 99.7414 219.153 99.4122C223.115 97.0424 229.376 93.5534 235.024 90.1083C235.155 90.0425 235.177 89.9766 235.199 89.8669C235.221 89.7572 235.287 89.6475 235.199 89.5817C233.338 84.0081 231.565 79.0489 230.186 75.3844L230.252 75.4064Z" fill="#FBD8B5"/><path fill-rule="evenodd" clip-rule="evenodd" d="M90.7807 45.1028C90.7588 43.6765 90.7369 41.7455 91.2404 39.2659C91.722 36.7644 92.7071 33.7143 93.736 31.2128C94.7649 28.7332 95.8157 26.8241 97.5233 24.7176C99.2308 22.611 101.551 20.307 104.375 18.4857C107.177 16.6864 110.461 15.3917 113.351 14.6018C116.241 13.8338 118.714 13.5924 121.035 13.4827C123.377 13.373 125.566 13.3949 127.756 13.5924C129.945 13.7899 132.112 14.1849 134.235 14.8432C136.381 15.5015 138.482 16.4231 140.518 17.4983C142.554 18.5735 144.503 19.7804 146.582 21.2067C148.662 22.633 150.873 24.2348 152.712 26.6486C154.551 29.0623 156.018 32.266 156.871 35.1845C157.725 38.1029 157.966 40.758 158.163 43.1498C158.36 45.5416 158.469 47.6921 158.053 49.645C157.637 51.598 156.674 53.3973 156.302 54.3847C155.93 55.3722 156.171 55.5697 156.674 55.9866C157.178 56.4035 157.988 57.0179 158.229 58.0273C158.491 59.0367 158.207 60.4411 157.878 61.4504C157.55 62.4598 157.2 63.1181 156.696 63.6886C156.193 64.2811 155.558 64.7858 155.317 65.2466C155.076 65.6855 155.229 66.0585 155.623 66.5193C156.039 66.9801 156.696 67.5068 156.74 68.2967C156.784 69.0867 156.215 70.1399 155.558 70.7105C154.923 71.281 154.201 71.3468 153.609 71.1054C152.996 70.8641 152.515 70.2935 152.296 69.6791C152.077 69.0867 152.143 68.4723 152.405 67.9456C152.69 67.419 153.194 67.0021 153.018 66.6949C152.843 66.3877 151.989 66.1682 151.223 65.9707C150.457 65.7733 149.8 65.5538 149.45 65.5538C149.1 65.5538 149.078 65.7733 148.947 66.6071C148.837 67.4409 148.64 68.9111 147.94 70.3594C147.239 71.8076 146.013 73.2559 144.765 74.3091C143.517 75.3624 142.226 76.0646 140.365 76.7229C138.504 77.3592 136.074 77.9517 134.323 78.4125C132.594 78.8733 131.565 79.2025 130.995 79.5097C130.426 79.8169 130.317 80.0802 130.295 81.7698C130.251 83.4375 130.273 86.5315 130.448 88.0236C130.623 89.5158 130.952 89.4061 131.674 89.1866C132.397 88.9672 133.513 88.6161 134.235 88.3528C134.958 88.0895 135.264 87.9139 135.899 88.5503C136.534 89.1647 137.497 90.569 137.957 91.4248C138.417 92.2806 138.395 92.5878 138.811 92.8731C139.227 93.1583 140.08 93.4436 141.066 93.9263C142.051 94.4091 143.145 95.0893 144.831 96.2962C146.538 97.4811 148.837 99.1927 150.851 100.882C152.865 102.572 154.551 104.262 156.039 105.929C157.528 107.619 158.776 109.287 160.089 112.424C161.403 115.562 162.738 120.17 163.745 123.659C164.73 127.148 165.387 129.496 165.694 131.515C166 133.534 166 135.201 165.913 137.242C165.825 139.261 165.672 141.653 165.365 143.562C165.037 145.471 164.555 146.897 163.789 148.17C163.023 149.443 161.994 150.562 160.921 151.461C159.87 152.361 158.776 153.019 157.856 153.59C156.915 154.16 156.127 154.665 155.733 155.148C155.339 155.631 155.361 156.135 155.405 157.32C155.448 158.505 155.514 160.392 155.602 165.11C155.645 167.568 155.711 170.793 155.777 173.997H99.1213C99.1651 173.097 99.2089 172.22 99.2308 171.342C99.4278 166.295 99.5373 161.687 99.2308 159.339C98.9243 157.013 98.2019 156.947 97.1292 156.684C96.0784 156.42 94.6774 155.916 93.342 155.17C92.0066 154.424 90.715 153.414 89.5985 151.922C88.4602 150.43 87.4969 148.477 86.9059 145.734C86.3367 142.991 86.1396 139.48 86.1396 136.233C86.1396 133.007 86.271 130.045 86.8402 126.753C87.3875 123.462 88.3507 119.841 89.2701 117.011C90.1896 114.18 91.0871 112.117 92.0285 110.362C92.9698 108.606 93.9549 107.158 95.2684 105.512C96.5819 103.867 98.2457 102.045 100.479 100.268C102.712 98.4686 105.536 96.7131 107.725 95.594C109.892 94.4749 111.424 94.0141 112.278 93.685C113.132 93.3339 113.329 93.1144 113.898 92.1709C114.467 91.2054 115.387 89.4938 116.131 88.7697C116.854 88.0456 117.379 88.265 118.167 88.4844C118.955 88.7039 120.006 88.8794 120.531 88.8794C121.057 88.8794 121.057 88.6819 121.035 87.1678C120.991 85.6757 120.925 82.867 120.663 81.3968C120.4 79.9266 119.94 79.751 118.211 79.2902C116.481 78.8294 113.482 78.1053 111.359 77.3812C109.213 76.6571 107.944 75.9549 106.849 75.0113C105.776 74.0678 104.901 72.839 104.178 71.281C103.456 69.7011 102.887 67.792 102.58 66.6949C102.274 65.5977 102.252 65.3563 101.683 65.4002C101.135 65.4441 100.063 65.7952 99.4497 65.9707C98.8368 66.1463 98.7054 66.1463 98.7273 66.8265C98.7492 67.5068 98.9462 68.8453 98.8805 69.7669C98.8149 70.7105 98.4865 71.2152 97.9611 71.5224C97.4357 71.8296 96.6914 71.8954 95.8814 71.5882C95.0714 71.281 94.1739 70.6007 93.9549 69.9863C93.736 69.3719 94.1739 68.8234 94.6555 68.3406C95.1371 67.8579 95.6625 67.419 95.9033 66.9362C96.1441 66.4535 96.0784 65.9049 95.7501 65.4002C95.4217 64.8955 94.8087 64.3908 94.3052 63.8203C93.8017 63.2278 93.4295 62.5695 93.2106 61.8235C92.9917 61.0774 92.9479 60.2655 92.8604 59.4536C92.7509 58.6637 92.5977 57.8737 92.4225 56.996C92.2474 56.1183 92.0723 55.1308 91.8315 53.6826C91.5907 52.2343 91.2842 50.2814 91.109 48.877C90.9339 47.4726 90.8682 46.573 90.8463 45.1467L90.7807 45.1028Z" fill="white"/><path fill-rule="evenodd" clip-rule="evenodd" d="M109.345 98.337C106.521 100.071 101.573 102.945 97.5012 107.224C93.4512 111.503 90.277 117.164 89.1605 124.559C88.044 131.954 88.9635 141.082 90.5397 146.48C92.1159 151.878 94.3488 153.546 95.9688 154.731C97.5888 155.916 98.5739 156.618 99.1212 158.659C99.6684 160.678 99.7998 164.035 99.6028 168.753C99.5371 170.398 99.4276 172.198 99.4058 174.019H154.069C153.565 169.96 152.755 165.483 153.128 162.389C153.5 159.273 155.054 157.584 156.937 156.201C158.819 154.819 160.987 153.744 162.366 151.132C163.723 148.521 164.27 144.374 163.942 138.164C163.614 131.954 162.41 123.681 160.943 117.976C159.476 112.271 157.769 109.133 154.616 105.666C151.464 102.199 146.867 98.4248 143.101 97.4593C139.336 96.4938 136.381 98.337 134.104 98.9734C131.827 99.6097 130.207 99.0173 128.959 97.964C127.69 96.9107 126.77 95.3747 125.676 95.3308C124.581 95.265 123.311 96.6913 122.348 98.2493C121.407 99.8072 120.794 101.497 119.546 101.277C118.298 101.058 116.459 98.9075 115.343 97.6129C114.248 96.3402 113.898 95.9452 113.373 96.011C112.847 96.0988 112.147 96.6693 109.323 98.4029L109.345 98.337Z" fill="#ABDFF2"/><path fill-rule="evenodd" clip-rule="evenodd" d="M120.05 157.452C119.59 157.057 119.218 156.794 118.977 156.113C118.737 155.433 118.627 154.358 118.977 153.612C119.328 152.866 120.138 152.449 121.911 152.273C123.684 152.12 126.442 152.207 128.522 152.317C130.602 152.427 132.047 152.515 133.623 153.019C135.221 153.524 136.972 154.424 138.089 155.323C139.205 156.201 139.665 157.057 138.986 157.803C138.33 158.549 136.534 159.185 134.17 159.515C131.806 159.844 128.872 159.844 126.683 159.712C124.494 159.558 123.049 159.273 122.064 158.834C121.079 158.417 120.532 157.869 120.072 157.452H120.05Z" fill="white"/><path fill-rule="evenodd" clip-rule="evenodd" d="M136.293 141.411C136.403 139.02 136.928 134.477 137.213 132.086C137.519 129.672 137.585 129.43 138.767 129.43C139.949 129.43 142.27 129.694 143.802 130.111C145.356 130.528 146.145 131.098 146.495 131.756C146.845 132.415 146.757 133.161 147.327 133.841C147.874 134.543 149.078 135.18 149.822 135.706C150.567 136.233 150.873 136.606 150.961 137.111C151.048 137.593 150.939 138.186 148.793 139.261C146.648 140.314 142.467 141.85 140.124 142.772C137.782 143.672 137.257 143.979 136.862 144.001C136.468 144.045 136.162 143.825 136.293 141.433V141.411Z" fill="white"/><path fill-rule="evenodd" clip-rule="evenodd" d="M112.235 136.869C109.936 137.484 106.039 138.647 103.872 138.91C101.705 139.173 101.267 138.581 100.566 137.045C99.8658 135.531 98.9464 133.073 98.5523 131.471C98.1583 129.869 98.2896 129.101 99.0996 128.597C99.9096 128.092 101.354 127.851 103.631 128.597C105.908 129.365 108.973 131.164 111.162 132.568C113.351 133.973 114.643 135.004 114.949 135.553C115.256 136.101 114.533 136.189 112.235 136.825V136.869Z" fill="white"/><path fill-rule="evenodd" clip-rule="evenodd" d="M148.793 59.5414C147.414 57.4348 145.378 52.4537 143.868 49.2062C142.357 45.9586 141.35 44.4445 139.665 43.1937C137.979 41.943 135.637 40.9775 133.163 41.526C130.689 42.0746 128.106 44.1592 125.545 46.0025C122.983 47.8457 120.466 49.4914 116.766 51.1372C113.066 52.7829 108.185 54.4506 105.317 55.3941C102.427 56.3596 101.551 56.601 100.544 56.4474C99.5374 56.3157 98.4209 55.7891 97.1074 55.5697C95.794 55.3502 94.2834 55.46 93.2983 54.5603C92.3132 53.6606 91.8097 51.7735 92.3789 47.6921C92.948 43.6106 94.5461 37.3349 98.8369 31.5419C103.128 25.7489 110.089 20.4167 115.474 18.2443C120.86 16.072 124.647 17.0375 130.317 19.0562C136.009 21.075 143.583 24.1251 148.903 27.8993C154.223 31.6736 157.287 36.1719 158.885 39.9242C160.484 43.6765 160.615 46.6388 160.418 48.8551C160.221 51.0494 159.652 52.4757 158.995 53.3754C158.316 54.275 157.55 54.6481 156.302 55.6574C155.054 56.6888 153.347 58.3565 152.143 59.5853C150.917 60.8141 150.194 61.604 148.793 59.5194V59.5414Z" fill="#DFAF7B"/><path fill-rule="evenodd" clip-rule="evenodd" d="M135.637 67.9018C135.308 66.651 135.615 64.8956 136.425 63.9081C137.235 62.9207 138.57 62.6793 139.752 63.0085C140.934 63.3376 141.985 64.1934 142.686 65.0492C143.386 65.883 143.736 66.7169 143.649 67.4849C143.561 68.2748 143.036 69.0209 142.423 69.5256C141.81 70.0303 141.109 70.2497 140.343 70.4033C139.555 70.5569 138.68 70.6008 137.782 70.2497C136.884 69.8986 135.943 69.1525 135.637 67.9018Z" fill="#FEE8B1"/><path fill-rule="evenodd" clip-rule="evenodd" d="M107.878 67.9238C107.549 66.673 107.856 64.9175 108.666 63.9301C109.476 62.9427 110.811 62.7013 111.993 63.0304C113.176 63.3596 114.226 64.2154 114.927 65.0711C115.627 65.905 115.978 66.7388 115.89 67.5068C115.803 68.2968 115.277 69.0429 114.664 69.5476C114.051 70.0522 113.351 70.2717 112.584 70.4253C111.796 70.5789 110.921 70.6228 110.023 70.2717C109.126 69.9206 108.206 69.1745 107.878 67.9238Z" fill="#FEE8B1"/><path fill-rule="evenodd" clip-rule="evenodd" d="M97.8298 173.975C98.2239 167.634 98.4428 161.665 97.9393 158.615C94.3053 156.157 92.0067 157.891 88.8981 152.427C86.687 148.565 85.4611 144.198 84.9795 139.678V130.177C85.4611 125.217 86.6214 120.302 88.1538 115.87C90.7589 108.365 94.1302 103.735 100.523 99.1269C103.259 97.1521 106.543 95.1113 109.476 93.4656C115.234 90.24 111.884 91.3591 115.89 86.7729C118.233 86.9485 117.51 87.8043 119.787 87.146L120.378 81.5724C114.227 77.2057 107.572 80.8044 103.193 72.2904C101.683 69.35 102.712 68.0554 100.15 66.8924C99.5155 68.6479 100.982 73.9581 96.2318 73.0804C92.5978 72.4002 92.6853 68.999 94.7869 66.278C86.9716 56.1622 96.6258 51.6638 98.8806 54.4506C97.195 58.2249 98.3115 53.8362 95.2029 57.1277C92.6634 59.8048 94.4585 64.72 98.2239 64.8956C101.551 65.0711 99.6687 63.2718 102.361 62.0649C104.332 65.6416 103.478 71.8296 108.097 75.0333C111.687 77.5129 118.452 76.8766 122.348 79.6195L122.567 88.2651C125.479 90.3936 126.004 89.3403 129.288 89.0111L129.485 78.9173C132.944 76.5035 140.518 76.6571 143.583 74.3092C148.202 70.7763 147.239 63.9301 148.947 61.5383C151.924 62.2185 150.041 62.3941 151.399 64.9175C154.266 64.6323 156.959 63.3157 156.959 60.0461C156.959 55.7453 153.653 56.4255 151.639 55.0431C153.04 52.6732 153.128 53.6826 155.602 53.7046C156.28 48.526 157.791 47.1874 156.762 40.9336C156.171 37.3569 155.12 33.846 153.347 30.4887C149.144 22.6111 140.037 20.1095 139.708 16.4231C150.632 17.3228 163.833 37.5105 158.075 52.8927C156.324 57.5666 162.476 60.0242 156.412 65.8391C159.717 70.1619 157.725 72.9048 152.34 72.3782C150.085 69.372 151.464 69.3281 150.216 66.9802C147.305 76.3499 141.547 79.3123 131.39 80.1461L131.455 87.9798L136.009 86.5535C137.607 88.3967 137.563 89.6475 138.789 91.4249C140.672 94.102 140.453 92.6976 143.233 93.9045C151.836 97.6787 159.783 107.334 162.651 116.067C175.041 153.634 160.199 149.487 156.565 155.828C156.237 157.474 156.828 168.818 156.981 173.975H154.726L154.223 156.333C149.1 157.562 142.511 158.242 137.585 155.521C135.593 159.032 138.701 157.759 135.505 159.098C134.848 159.229 120.181 159.383 117.357 158.527C114.139 157.562 116.263 158.352 114.008 155.499C111.315 156.991 103.938 158.022 100.96 158.505L100.128 173.953H97.7642L97.8298 173.975ZM117.532 155.631C119.918 149.903 131.105 153.217 134.98 155.631C132.813 156.881 119.524 156.881 117.532 155.631ZM146.123 138.91C145.904 136.474 145.488 137.593 146.823 135.728L150.107 137.33L146.101 138.888L146.123 138.91ZM137.76 142.355C137.432 138.098 138.132 134.302 138.461 130.133L145.247 131.405C142.729 137.067 145.356 141.082 137.76 142.355ZM99.6906 129.365L103.631 132.108C103.631 132.108 107.134 128.575 111.862 135.311L103.193 138.164L100.698 134.894C103.018 133.951 100.763 135.816 103.762 134.148L99.6687 129.365H99.6906ZM149.954 134.148C144.634 131.076 149.691 133.666 147.327 130.023C143.233 127.851 141.416 127.565 136.425 128.092C134.498 131.01 137.913 128.838 135.046 130.264C133.513 131.032 132.572 130.725 130.82 130.637L141.241 95.3966C147.152 98.8856 153.938 103.45 157.528 110.142C160.921 116.484 164.118 127.258 164.643 134.192C165.475 144.9 164.052 150.737 153.456 154.117C148.793 155.609 144.481 154.95 139.993 153.941L129.244 150.803C127.668 150.057 128.719 150.628 127.865 150.013C131.083 148.082 135.68 146.107 139.468 144.286C142.773 142.684 149.45 140.665 152.011 138.8L153.566 122.343C150.698 122.738 151.092 123.945 150.72 127.126C150.435 129.496 150.194 131.537 149.932 134.104L149.954 134.148ZM100.216 141.082C105.558 140.973 126.946 132.788 135.571 132.766C135.571 144.286 135.812 143.452 129.792 146.393C118.342 151.966 95.0058 164.101 89.0294 147.424C85.4611 137.506 87.7159 124.098 91.1091 114.663C94.8526 104.24 102.624 100.268 111.184 95.3966C111.665 100.356 119.765 129.782 121.714 133.314L114.949 134.785C111.775 131.383 106.63 127.741 102.383 127.148C102.186 124.384 101.683 121.377 100.216 119.468C97.2388 122.123 99.4717 120.741 99.4936 124.493C99.5374 128.97 94.962 127.478 98.8587 136.233C100.347 139.568 99.4717 139.875 100.216 141.06V141.082ZM113.57 95.4624L120.181 103.121C122.983 101.08 123.881 96.4938 125.873 93.7728L131.368 102.967C134.17 101.255 136.031 96.4279 138.964 94.8261C137.016 99.1708 132.265 120.938 127.537 131.669L123.99 132.568C119.809 123.133 114.424 97.1521 113.592 95.4624H113.57ZM114.708 92.6537L116.678 89.6914L123.946 91.5346L120.225 98.7978L114.708 92.6537ZM127.799 91.4688C130.602 90.8763 132.813 89.7572 135.396 90.0205C137.607 92.8073 137.804 91.9735 131.871 99.4122L127.799 91.4688ZM97.195 67.7701C98.7274 69.8328 98.8369 69.5036 96.7353 71.2372C94.2396 69.1306 94.7431 68.999 97.195 67.7701ZM153.763 67.836C156.543 68.2748 156.543 69.8109 153.763 70.2497C152.734 68.7356 152.362 69.5914 153.763 67.836Z" fill="#595757"/><path fill-rule="evenodd" clip-rule="evenodd" d="M92.4441 55.0431C93.7138 53.0682 91.9406 48.9429 91.853 46.178C91.7654 42.9085 92.466 39.3098 93.276 36.4572C96.6035 24.5421 104.375 17.6738 116.459 15.282C129.769 12.6489 132.068 17.1472 135.417 14.8432C134.52 13.4608 131.893 12.5611 128.39 12.2319H121.779C114.226 12.8463 105.316 15.4795 99.6683 20.702C95.2462 24.8054 92.7943 30.2473 91.1087 35.6892C90.0141 39.1782 87.8687 54.1653 92.4441 55.0211V55.0431Z" fill="#595757"/><path fill-rule="evenodd" clip-rule="evenodd" d="M99.5154 58.6637C104.441 58.2249 119.787 40.8459 120.991 35.799C116.832 36.2378 113.044 44.0057 110.089 47.0777C107.462 49.7987 99.8 55.3064 99.5154 58.6637Z" fill="#595757"/><path fill-rule="evenodd" clip-rule="evenodd" d="M134.236 40.8238C136.731 44.2909 137.235 41.3285 142.379 49.0745C144.481 52.2343 145.685 59.4755 147.349 60.858C150.961 54.5603 138.351 36.5888 134.236 40.8238Z" fill="#595757"/><path fill-rule="evenodd" clip-rule="evenodd" d="M121.472 50.5886C125.632 51.0055 136.95 37.4227 134.936 33.6704C132.615 34.614 134.607 33.1438 132.987 35.3161C130.536 38.5857 130.711 41.153 124.647 46.3755C122.458 48.2626 120.816 47.9774 121.472 50.5886Z" fill="#595757"/><path fill-rule="evenodd" clip-rule="evenodd" d="M111.249 56.5133C111.577 59.1245 111.118 58.4224 113.329 60.0901C117.116 58.949 117.247 56.7766 114.139 54.4287C112.497 54.9773 112.453 54.7798 111.249 56.5133Z" fill="#595757"/><path fill-rule="evenodd" clip-rule="evenodd" d="M132.046 58.0274L134.388 59.9584L137.147 58.2249C136.687 55.4162 137.147 56.0964 134.936 54.4287C132.418 55.2845 132.374 55.2187 132.046 58.0054V58.0274Z" fill="#595757"/><path fill-rule="evenodd" clip-rule="evenodd" d="M131.368 48.9867C132.288 50.5886 136.228 52.2124 137.673 51.0055C136.929 49.7767 132.988 47.6263 131.368 48.9867Z" fill="#595757"/><path fill-rule="evenodd" clip-rule="evenodd" d="M123.771 62.8109C125.523 63.93 124.822 63.8642 126.661 62.8109C124.822 61.7576 125.523 61.6918 123.771 62.8109Z" fill="#595757"/><path fill-rule="evenodd" clip-rule="evenodd" d="M122.458 74.0239C125.107 73.98 123.64 74.3091 125.785 72.6415C127.931 74.3091 126.464 74.0019 129.113 74.0239C129.047 69.0867 122.502 69.2842 122.458 74.0239Z" fill="#595757"/><path fill-rule="evenodd" clip-rule="evenodd" d="M165.584 65.7952C165.387 66.9143 165.387 67.6604 165.584 68.2089L166.985 69.6791C167.533 70.0083 168.189 70.3813 168.977 70.9299C172.196 73.1681 172.436 74.1336 175.435 72.5098C174.626 70.0522 168.737 65.4002 165.606 65.8171L165.584 65.7952Z" fill="#595757"/><path fill-rule="evenodd" clip-rule="evenodd" d="M86.9059 65.7952C87.1029 66.9143 87.1029 67.6604 86.9059 68.2089L85.5048 69.6791C84.9575 70.0083 84.3008 70.3813 83.5127 70.9299C80.2946 73.1681 80.0538 74.1336 77.0547 72.5098C77.8647 70.0522 83.7535 65.4002 86.884 65.8171L86.9059 65.7952Z" fill="#595757"/><path fill-rule="evenodd" clip-rule="evenodd" d="M73.4424 55.7234C76.748 58.554 74.4275 57.2594 79.3531 56.8644C81.3234 56.7108 85.2857 57.391 85.3514 55.1748C85.439 51.7516 75.741 53.2438 73.4424 55.7234Z" fill="#595757"/><path fill-rule="evenodd" clip-rule="evenodd" d="M182.068 53.2218C174.669 51.5322 166.328 52.2563 171.079 55.0212L182.243 55.5698L182.068 53.2218Z" fill="#595757"/></g></g><defs><filter id="filter0_d_2118_2134" x="-6" y="-4" width="269.998" height="187.019" filterUnits="userSpaceOnUse" color-interpolation-filters="sRGB"><feFlood flood-opacity="0" result="BackgroundImageFix"/><feColorMatrix in="SourceAlpha" type="matrix" values="0 0 0 0 0 0 0 0 0 0 0 0 0 0 0 0 0 0 127 0" result="hardAlpha"/><feOffset dx="1" dy="2"/><feGaussianBlur stdDeviation="3.5"/><feComposite in2="hardAlpha" operator="out"/><feColorMatrix type="matrix" values="0 0 0 0 0 0 0 0 0 0.364706 0 0 0 0 0.592157 0 0 0 0.22 0"/><feBlend mode="normal" in2="BackgroundImageFix" result="effect1_dropShadow_2118_2134"/><feBlend mode="normal" in="SourceGraphic" in2="effect1_dropShadow_2118_2134" result="shape"/></filter><clipPath id="clip0_2118_2134"><rect width="256" height="175" fill="white"/></clipPath></defs></svg>