<svg width="256" height="175" fill="none" xmlns="http://www.w3.org/2000/svg"><g filter="url(#filter0_d_2118_2080)"><path d="M153.322 81.7041H103.539V136.162H153.322V81.7041Z" fill="white"/><path d="M154.299 137.134H102.561V80.7317H154.299V137.134ZM104.516 135.189H152.344V82.6766H104.516V135.189Z" fill="#595757"/><path fill-rule="evenodd" clip-rule="evenodd" d="M172.015 37.0489C172.895 35.279 174.459 32.3033 176.082 29.9499C177.725 27.5966 179.445 25.8851 181.792 24.4069C184.138 22.9288 187.11 21.684 190.669 20.8477C194.247 20.0114 198.412 19.5641 202.01 19.6808C205.608 19.7975 208.619 20.4782 211.63 21.5674C214.622 22.676 217.594 24.193 219.96 25.7878C222.326 27.3632 224.067 29.0164 225.67 30.7863C227.293 32.5561 228.779 34.4816 230.128 36.835C231.458 39.1883 232.611 41.989 233.394 44.9064C234.176 47.8237 234.567 50.8578 233.961 53.9697C233.354 57.0815 231.751 60.2712 231.047 61.9827C230.343 63.6943 230.558 63.9277 230.832 64.4333C231.106 64.939 231.438 65.717 231.614 66.5727C231.79 67.4285 231.771 68.3426 231.614 69.1595C231.438 69.9569 231.086 70.6376 230.695 71.1433C230.324 71.649 229.933 71.9991 229.522 72.2713C229.111 72.5631 228.701 72.777 228.564 73.0882C228.407 73.3799 228.505 73.7495 228.662 74.0412C228.798 74.333 228.994 74.5274 229.15 74.897C229.307 75.2665 229.444 75.8305 229.405 76.414C229.385 76.978 229.209 77.5421 228.877 77.9505C228.544 78.3589 228.055 78.6118 227.606 78.709C227.156 78.8063 226.726 78.7285 226.354 78.534C225.983 78.3395 225.689 77.9894 225.474 77.6977C225.279 77.4059 225.162 77.1336 225.103 76.8613C225.044 76.5696 225.044 76.2779 225.22 75.8889C225.396 75.4999 225.768 75.0137 225.885 74.5858C226.002 74.1774 225.885 73.8273 225.631 73.6133C225.377 73.3994 224.986 73.3216 224.497 73.0688C224.008 72.8159 223.441 72.388 223.108 72.3686C222.776 72.3297 222.678 72.6798 222.444 73.3799C222.189 74.0801 221.798 75.1109 221.329 76.2584C220.84 77.4059 220.293 78.6896 219.335 79.6426C218.396 80.5956 217.066 81.2569 215.893 81.6847C214.72 82.1126 213.723 82.3266 212.276 82.5405C210.829 82.7544 208.952 82.9684 207.524 83.1629C206.097 83.3379 205.139 83.4935 204.493 83.6491C203.848 83.8047 203.496 83.9603 203.281 84.2131C203.066 84.4854 202.968 84.855 202.831 86.0608C202.695 87.2667 202.499 89.3088 202.401 90.4369C202.303 91.5649 202.284 91.7983 203.066 91.6233C203.848 91.4482 205.432 90.8842 206.214 90.6119C206.736 90.4174 207.107 90.5211 207.329 90.9231C207.661 91.5066 208.306 92.693 208.717 93.432C209.128 94.1711 209.284 94.4628 209.832 94.6962C210.379 94.9491 211.298 95.1436 212.276 95.4353C213.253 95.727 214.29 96.116 215.795 96.9718C217.281 97.8276 219.237 99.189 220.958 100.434C222.678 101.698 224.164 102.865 225.279 104.849C226.393 106.833 227.117 109.594 227.215 112.278C227.312 114.962 226.765 117.53 225.983 120.466C225.201 123.384 224.184 126.671 223.167 129.471C222.15 132.272 221.114 134.586 219.941 137.057C218.787 139.527 217.497 142.172 216.05 144.467C214.603 146.762 212.98 148.707 211.239 150.224C209.499 151.741 207.622 152.83 206.019 153.472C204.415 154.113 203.086 154.327 201.776 154.6C200.465 154.872 199.155 155.203 196.809 155.261C194.462 155.319 191.099 155.086 187.267 154.716C183.434 154.347 179.133 153.841 174.596 153.044C170.079 152.246 165.347 151.177 162.375 150.457C159.403 149.737 158.21 149.368 157.585 149.271C156.959 149.173 156.92 149.348 156.685 149.796C156.47 150.243 156.059 150.943 155.668 151.254C155.258 151.566 154.847 151.468 153.244 151.138C151.621 150.788 148.805 150.204 147.397 149.912C146.459 149.718 146.028 149.491 146.107 149.232C146.224 148.862 146.459 148.104 146.478 147.656C146.498 147.19 146.302 147.015 145.95 146.956C145.598 146.878 145.07 146.917 143.878 147.015C142.685 147.112 140.808 147.267 138.852 147.112C136.897 146.956 134.844 146.509 133.28 146.003C131.715 145.478 130.659 144.895 130.112 144.389C129.584 143.883 129.564 143.475 129.838 143.183C130.092 142.911 130.62 142.775 130.855 142.58C131.09 142.386 131.031 142.094 130.601 141.763C130.17 141.433 129.388 141.044 128.958 140.752C128.528 140.46 128.43 140.246 128.548 140.013C128.665 139.779 128.978 139.546 129.486 139.39C129.995 139.235 130.679 139.157 130.796 138.826C130.894 138.496 130.405 137.912 130.034 137.426C129.662 136.94 129.427 136.57 129.369 136.259C129.33 135.948 129.486 135.695 129.819 135.52C130.151 135.345 130.679 135.228 131.226 135.189C131.774 135.151 132.36 135.17 132.497 134.995C132.634 134.82 132.341 134.431 131.969 133.925C131.598 133.42 131.109 132.778 130.894 132.136C130.659 131.494 130.659 130.852 131.011 130.405C131.344 129.958 132.028 129.724 133.143 130.035C134.257 130.327 135.821 131.163 137.503 131.98C139.185 132.797 141.003 133.556 142.039 133.692C143.095 133.809 143.369 133.283 143.838 132.525C144.308 131.786 144.933 130.813 145.403 130.21C145.872 129.608 146.204 129.355 146.459 129.374C146.732 129.394 146.947 129.685 147.26 130.347C147.593 131.008 148.003 132.039 148.277 132.836C148.551 133.633 148.668 134.198 148.903 134.275C149.137 134.353 149.489 133.925 149.665 133.711C149.841 133.497 149.841 133.497 150.193 133.439C150.545 133.381 151.23 133.264 151.64 132.953C152.051 132.642 152.168 132.116 152.305 131.377C152.442 130.638 152.598 129.685 152.813 129.18C153.029 128.674 153.322 128.635 154.612 128.713C155.903 128.791 158.171 129.005 159.423 129.005C160.674 129.005 160.909 128.849 161.221 128.09C161.534 127.332 161.945 125.99 162.61 124.045C163.255 122.1 164.135 119.572 165.269 116.829C166.403 114.087 167.772 111.111 169.043 108.816C170.314 106.502 171.487 104.849 172.758 103.332C174.049 101.815 175.456 100.453 176.688 99.3251C177.92 98.1971 178.957 97.3024 180.228 96.6023C181.518 95.9021 183.043 95.4159 184.021 95.2214C184.979 95.0269 185.39 95.163 185.8 94.8129C186.23 94.4628 186.68 93.646 187.13 92.8291C187.58 92.0123 188.029 91.1954 188.401 90.8648C188.772 90.5341 189.085 90.7092 189.867 90.962C190.669 91.2148 191.96 91.5844 192.624 91.6233C193.289 91.6622 193.328 91.4093 193.465 90.5147C193.602 89.6006 193.817 88.0446 193.974 86.7999C194.111 85.5551 194.189 84.6216 194.13 84.0575C194.071 83.4935 193.895 83.3185 193.211 82.9878C192.527 82.6572 191.353 82.171 189.867 81.6264C188.401 81.0818 186.641 80.4594 185.272 79.8954C183.923 79.3314 182.965 78.8452 182.222 78.3006C181.479 77.756 180.951 77.1725 180.345 76.1806C179.739 75.1887 179.074 73.7689 178.585 72.6992C178.096 71.6295 177.803 70.9293 177.705 69.9958C177.588 69.0622 177.666 67.8953 177.49 67.409C177.294 66.9228 176.845 67.1368 176.239 67.2924C175.632 67.4479 174.889 67.5841 174.498 67.8369C174.107 68.0898 174.049 68.4982 174.088 68.9844C174.127 69.4707 174.264 70.0541 174.244 70.6376C174.225 71.2211 174.029 71.8046 173.834 72.1935C173.618 72.5825 173.403 72.777 172.914 72.8743C172.445 72.9715 171.722 72.9715 171.076 72.8159C170.431 72.6603 169.825 72.3686 169.493 71.9602C169.141 71.5323 169.043 70.9877 169.18 70.5404C169.317 70.0736 169.727 69.7041 170.197 69.3345C170.666 68.965 171.213 68.6149 171.546 68.2065C171.878 67.8175 171.995 67.3702 171.82 66.9617C171.644 66.5533 171.174 66.1643 170.764 65.6781C170.353 65.2113 169.981 64.6473 169.727 64.0249C169.473 63.4025 169.356 62.6829 169.395 61.9244C169.434 61.1659 169.63 60.3685 169.747 59.9795C169.812 59.7201 169.799 59.3441 169.708 58.8514C169.571 58.1123 169.297 56.6342 169.102 55.1172C168.926 53.5807 168.847 52.0053 168.926 50.1965C168.984 48.3878 169.199 46.3845 169.512 44.6535C169.825 42.9225 170.275 41.4639 170.588 40.4719C170.92 39.48 171.135 38.916 172.035 37.1656L172.015 37.0489Z" fill="white"/><path fill-rule="evenodd" clip-rule="evenodd" d="M183.219 151.021C177.861 150.671 169.453 149.951 165.269 148.726C161.085 147.501 161.124 145.77 161.221 143.669C161.3 141.569 161.437 139.118 161.456 137.27C161.476 135.442 161.397 134.217 160.811 133.594C160.224 132.972 159.129 132.953 158.288 132.875C157.448 132.778 156.881 132.622 156.177 132.175C155.473 131.727 154.612 130.969 154.945 130.56C155.277 130.133 156.802 130.035 158.484 129.899C160.146 129.763 161.964 129.588 163.157 128.557C164.35 127.526 164.956 125.62 166.579 121.653C168.202 117.666 170.861 111.617 173.227 106.054C175.593 100.492 177.666 95.4352 180.325 94.1905C182.984 92.9457 186.25 95.4936 188.283 97.2829C190.317 99.0722 191.138 100.084 191.862 100.706C192.585 101.328 193.191 101.581 193.915 100.745C194.638 99.9085 195.46 98.0025 197.043 98.1776C198.627 98.3526 200.974 100.609 203.281 101.853C205.588 103.098 207.857 103.332 209.323 102.437C210.79 101.542 211.435 99.539 213.527 99.5779C215.619 99.6168 219.139 101.698 221.349 105.607C223.539 109.497 224.399 115.215 222.756 122.139C221.114 129.063 216.969 137.193 213.214 142.055C209.46 146.937 206.097 148.57 202.831 149.582C199.566 150.593 196.398 150.982 193.661 151.177C190.923 151.371 188.616 151.371 183.258 151.021H183.219Z" fill="#ABDFF2"/><path fill-rule="evenodd" clip-rule="evenodd" d="M175.945 137.018C176.18 135.306 176.943 132.117 177.431 130.444C177.92 128.771 178.135 128.616 178.957 128.693C179.778 128.771 181.225 129.063 183.708 129.627C186.172 130.191 189.672 131.047 191.686 131.747C193.7 132.447 194.228 132.992 194.365 133.789C194.502 134.587 194.247 135.656 193.935 136.687C193.622 137.718 193.25 138.71 192.488 139.235C191.725 139.76 190.552 139.818 187.775 139.721C185.018 139.643 180.658 139.41 178.331 139.177C176.004 138.943 175.711 138.71 175.945 136.998V137.018Z" fill="white"/><path fill-rule="evenodd" clip-rule="evenodd" d="M221.994 65.9892C220.918 63.8887 219.55 59.0264 218.474 55.8367C217.399 52.6471 216.617 51.13 215.17 49.788C213.723 48.4461 211.63 47.2791 209.245 47.5319C206.859 47.7848 204.2 49.438 201.599 50.8967C198.999 52.3553 196.457 53.6001 192.8 54.7476C189.144 55.8756 184.392 56.9064 181.596 57.4899C178.78 58.0734 177.92 58.2095 177.001 57.9762C176.082 57.7428 175.085 57.1398 173.873 56.7897C172.66 56.4591 171.233 56.3813 170.412 55.4478C169.571 54.5142 169.317 52.7054 170.275 48.9517C171.233 45.2175 173.423 39.5383 178.057 34.5982C182.711 29.6582 189.809 25.4377 195.108 23.9984C200.407 22.5592 203.848 23.8623 208.971 26.3323C214.094 28.8218 220.879 32.4588 225.474 36.5432C230.069 40.6275 232.474 45.1591 233.569 48.8156C234.664 52.472 234.488 55.2727 234.058 57.2954C233.628 59.3181 232.963 60.5823 232.24 61.3603C231.516 62.1188 230.734 62.3911 229.463 63.208C228.192 64.0248 226.413 65.4057 225.122 66.4171C223.851 67.4284 223.069 68.0897 221.994 65.9892Z" fill="#DFAF7B"/><path fill-rule="evenodd" clip-rule="evenodd" d="M209.655 72.4852C209.401 71.2988 209.753 69.6846 210.574 68.7899C211.376 67.8952 212.647 67.7396 213.762 68.0897C214.876 68.4398 215.815 69.315 216.441 70.1319C217.066 70.9488 217.36 71.7267 217.242 72.4658C217.125 73.2049 216.597 73.8856 216.01 74.3135C215.404 74.7413 214.739 74.9358 213.996 75.0331C213.253 75.1303 212.432 75.1498 211.591 74.7802C210.75 74.4107 209.91 73.6716 209.675 72.4852H209.655Z" fill="#FEE8B1"/><path fill-rule="evenodd" clip-rule="evenodd" d="M183.317 70.5209C183.063 69.3345 183.415 67.7202 184.236 66.8255C185.057 65.9309 186.309 65.7753 187.423 66.1254C188.538 66.4755 189.476 67.3312 190.102 68.1675C190.728 68.9844 191.021 69.7624 190.904 70.5014C190.786 71.2405 190.258 71.9212 189.672 72.3491C189.066 72.777 188.401 72.9715 187.658 73.0687C186.915 73.166 186.093 73.1854 185.253 72.8159C184.412 72.4464 183.571 71.7073 183.336 70.5209H183.317Z" fill="#FEE8B1"/><path fill-rule="evenodd" clip-rule="evenodd" d="M191.999 138.437C187.188 138.826 181.322 138.301 176.551 137.776L178.35 129.919C182.945 130.677 188.968 132.058 193.348 133.731L191.999 138.437ZM131.402 131.708C136.643 131.708 139.712 135.598 143.154 135.287C145.383 133.011 144.073 132.272 146.224 130.541C149.391 134.878 146.243 141.763 145.657 146.645C143.428 145.478 140.28 146.159 137.64 146.061C134.277 145.925 133.67 145.031 130.776 144.058C133.182 142.813 132.008 144.642 134.022 142.308L131.226 140.538C133.553 139.04 132.341 140.771 133.299 138.515L130.092 136.317C132.36 136.026 132.869 136.454 134.55 135.539C133.729 133.439 132.927 134.061 131.383 131.727L131.402 131.708ZM170.157 137.251C167.791 137.348 164.545 136.745 161.554 136.648L162.219 133.069C158.64 132.875 157.017 132.35 153.322 132.35C153.439 126.943 157.193 130.911 163.861 130.366C163.685 125.737 159.872 132.875 164.585 121.128C165.914 117.802 166.872 114.729 168.554 111.364C171.819 104.829 176.023 99.9475 182.183 96.7967C183.454 98.8778 186.054 124.356 185.82 129.16L177.725 127.449C173.481 133.692 177.255 137.309 172.21 137.27C172.68 134.489 174.088 125.893 172.817 123.598C171.761 124.084 171.311 122.45 170.881 129.86C170.705 132.836 170.294 134.353 170.177 137.251H170.157ZM149.939 132.175C148.394 131.63 148.981 130.813 147.612 128.732C143.447 128.402 143.721 130.308 142.059 133.108C138.617 131.883 133.768 127.643 130.288 129.977C128.391 131.864 130.522 131.669 129.134 134.489C128.039 136.726 128.704 135.89 128.45 137.426C128.156 139.196 127.707 138.457 127.316 140.207C127.081 141.258 126.748 143.164 127.257 141.51C126.768 143.047 126.338 146.023 135.684 147.987C140.768 149.057 140.905 147.987 145.266 147.89C146.067 150.399 143.643 150.301 149.157 151.41C151.327 151.857 154.866 153.063 156.274 152.11C155.825 149.29 150.193 149.99 147.612 148.59L150.33 134.256C154.026 134.217 155.903 134.684 159.462 134.956L155.629 149.815C160.068 152.188 181.733 155.689 187.736 156.019H198.217C205.08 155.358 210.574 152.869 215.776 145.886C222.502 136.823 233.315 113.037 225.181 103.254C223.304 100.998 217.262 95.0852 214.466 95.4547C213.566 100.084 228.642 99.7141 225.455 118.152C224.164 125.601 219.334 137.582 214.798 143.669C208.072 152.733 200.7 155.533 189.281 153.899C181.049 152.713 165.914 151.916 158.582 148.24L160.869 138.671L175.867 139.838C178.839 139.916 180.09 140.46 183.375 140.46C192.918 140.48 195.108 144.311 201.345 132.778L207.016 121.653C207.113 119.455 207.016 120.622 206.566 119.902C204.278 120.778 203.066 125.62 200.661 129.607C198.842 132.642 197.532 136.92 194.189 138.476C194.814 136.687 195.362 134.606 195.127 132.525C191.021 129.296 182.339 130.697 191.725 125.718C196.418 123.209 200.035 120.291 203.085 115.837C205.725 111.967 212.119 100.687 212.217 96.2716C206.977 97.6914 203.046 121.983 187.892 124.804C187.462 119.124 185.018 101.017 185.429 96.894C188.244 99.0334 189.515 103.448 192.859 104.401C194.58 102.145 195.694 97.9442 197.786 96.1549C201.013 100.278 200.133 103.098 203.516 104.421L211.141 95.0657L207.739 89.5422L203.555 90.5341C203.261 87.3833 203.496 87.7334 204.493 84.8744C208.873 83.5713 212.921 84.5243 217.047 82.4238C221.622 80.0899 222.248 75.1109 224.008 74.119C225.083 75.7916 222.913 78.1061 225.885 79.6814C229.033 81.3541 230.421 78.6117 230.284 75.8305C229.991 70.3264 230.832 74.294 232.494 70.3458C233.706 67.5063 232.592 65.5419 231.379 63.1497C233.296 59.8627 234.352 56.6147 234.782 53.4445V46.754C233.1 34.112 222.483 24.5819 218.963 25.0293C218.376 28.6274 226.335 29.347 230.597 39.4411C233.159 45.5093 234.176 56.3813 230.05 61.8077C227.586 61.9633 228.642 60.9713 226.784 62.1966C227.312 65.2307 231.262 63.1885 230.988 68.2259C230.812 71.3766 227.606 72.7186 224.888 72.4853C223.167 69.8791 225.337 71.3572 223.969 69.0233C221.231 69.704 221.681 76.2973 217.105 79.9732C213.488 82.8711 206.253 81.0234 202.499 83.5129C200.915 87.0332 202.088 87.8306 201.326 91.0592C198.803 92.6346 197.161 92.8096 194.853 91.1759C194.482 87.714 195.577 87.111 195.186 83.3768C191.568 79.8954 186.739 80.3427 182.808 77.6198C177.549 73.9634 180.11 66.6699 178.292 64.0832C174.009 64.7445 179.308 66.0476 174.655 66.4366C171.076 66.7477 168.671 61.2242 171.858 58.6374C175.183 55.934 175.456 59.96 175.926 55.8173C166.188 55.8173 167.048 63.5775 170.842 67.234L168.202 70.6959C170.157 73.6911 169.238 72.7575 172.171 74.6247C178.116 70.8515 173.403 72.0963 176.141 68.362C178.155 72.1546 177.099 75.6749 181.733 79.3314C184.998 81.8987 190.239 82.3654 193.602 84.4854C191.979 87.2277 193.602 87.5778 192.468 89.6589C191.392 91.6427 192.859 90.2229 187.99 89.62C187.13 90.7286 185.331 94.0349 184.783 94.5406C183.356 95.9021 177.646 94.0933 170.294 104.382C165.445 111.17 162.59 120.389 160.224 127.993C157.878 128.052 156.92 127.429 154.026 127.429C154.026 127.429 152.461 130.872 150.017 132.253L149.939 132.175ZM199.488 94.3656L206.331 91.8372L208.521 94.9879L203.457 101.328L199.488 94.3656ZM191.94 101.095L187.012 95.0074L188.85 91.7399L196.105 94.1322C194.501 96.8551 193.973 99.0917 191.94 101.095ZM225.826 76.5112L227.762 74.7608C228.818 76.6085 228.818 75.9667 227.918 77.5809L225.826 76.5112ZM172.523 68.9261C173.912 70.7737 174.009 70.482 172.113 72.0379C169.844 70.1319 170.314 70.0152 172.523 68.9261Z" fill="#595757"/><path fill-rule="evenodd" clip-rule="evenodd" d="M168.984 56.3619C171.859 54.3197 167.733 51.3245 172.035 39.4605C176.767 26.3907 185.351 22.9482 196.887 21.1978C207.426 19.6029 211.963 24.7959 215.209 22.5981C213.977 20.7504 209.284 19.3112 203.438 19H198.393C191.94 19.3501 184.94 21.0422 179.876 24.8542C169.414 32.7117 164.663 53.2889 168.984 56.3619Z" fill="#595757"/><path fill-rule="evenodd" clip-rule="evenodd" d="M176.043 59.96C177.725 61.127 177.373 61.0492 182.515 57.3344C186.876 54.1836 198.178 45.801 198.373 40.8804C195.44 41.5416 189.261 49.7492 181.713 55.2922C179.602 56.8481 176.395 57.8012 176.043 59.9406V59.96Z" fill="#595757"/><path fill-rule="evenodd" clip-rule="evenodd" d="M212.041 47.0263C211.063 49.5742 214.427 48.7962 217.848 55.7396C222.228 64.6278 218.689 65.3086 221.544 67.6425C224.438 65.5808 221.212 57.9179 219.921 54.9421C219.158 53.2112 217.966 51.344 216.753 50.002C215.189 48.2516 213.723 46.4428 212.041 47.0458V47.0263Z" fill="#595757"/><path fill-rule="evenodd" clip-rule="evenodd" d="M197.787 55.7395C203.105 54.4558 212.354 46.2288 212.823 40.8025C210.399 41.1526 210.496 42.1834 208.893 44.3617C202.851 52.6081 198.158 51.694 197.787 55.7395Z" fill="#595757"/><path fill-rule="evenodd" clip-rule="evenodd" d="M187.091 61.3992C190.63 66.0864 194.091 61.6715 190.747 58.3845C188.44 58.3262 187.736 59.0264 187.091 61.3992Z" fill="#595757"/><path fill-rule="evenodd" clip-rule="evenodd" d="M207.074 64.2387L209.284 65.5807C212.041 64.2387 212.823 63.4608 210.77 60.874C207.602 59.6293 206.918 61.5742 207.055 64.2387H207.074Z" fill="#595757"/><path fill-rule="evenodd" clip-rule="evenodd" d="M198.432 67.5646C200.485 68.5176 199.82 68.6148 201.678 67.5646C199.937 66.5726 200.094 66.5143 198.432 67.5646Z" fill="#595757"/><path fill-rule="evenodd" clip-rule="evenodd" d="M209.049 55.3116C209.871 56.7314 213.39 58.1707 214.681 57.101C214.016 56.0118 210.496 54.1058 209.049 55.3116Z" fill="#595757"/><path fill-rule="evenodd" clip-rule="evenodd" d="M199.488 72.6214C201.345 74.1579 201.756 76.5696 200.993 78.8646L197.552 79.3508C196.496 76.2778 195.948 73.7105 199.488 72.6408V72.6214ZM197.434 71.3572C191.236 74.0412 194.99 83.1434 200.504 81.7625C205.432 80.5177 204.435 68.362 197.434 71.3572Z" fill="#595757"/><path fill-rule="evenodd" clip-rule="evenodd" d="M230.343 23.4344C229.639 24.9126 229.444 26.2546 230.499 28.2578C231.986 31.0585 234.058 31.817 237.089 31.3891C237.128 36.0375 233.276 35.5124 241.391 41.2499C237.715 43.8172 238.497 48.1543 240.53 50.4104L243.111 51.8497C243.815 51.908 244.519 51.6746 245.165 51.0912L245.223 50.9745C243.757 48.7378 239.005 48.2321 241.84 44.07C243.874 41.0943 247.374 42.0667 248 39.3633C245.536 36.621 240.687 41.6194 238.614 34.8317C240.042 31.5253 243.19 29.9499 242.955 27.7716C239.553 26.488 238.067 31.4086 232.748 27.6549C231.516 23.1621 232.689 25.8656 233.315 22.0341L231.849 20.7699L230.343 23.4539V23.4344Z" fill="#595757"/><path fill-rule="evenodd" clip-rule="evenodd" d="M83.9069 37.2628C83.027 35.4929 81.4627 32.5172 79.8397 30.1638C78.1973 27.8105 76.4765 26.0989 74.1301 24.6208C71.7837 23.1427 68.8116 21.8979 65.2528 21.0616C61.6745 20.2253 57.5096 19.778 53.9118 19.8946C50.3139 20.0113 47.3027 20.6921 44.2914 21.7812C41.2997 22.8898 38.3276 24.4069 35.9616 26.0017C33.5957 27.5771 31.8554 29.2303 30.252 31.0001C28.6291 32.77 27.143 34.676 25.7938 37.0488C24.4642 39.4022 23.3105 42.2029 22.5284 45.1202C21.7462 48.0376 21.3552 51.0717 21.9613 54.1835C22.5675 57.2954 24.1709 60.4851 24.8748 62.1966C25.5787 63.9081 25.3636 64.1415 25.0899 64.6472C24.8161 65.1529 24.4837 65.9308 24.3077 66.7866C24.1318 67.6424 24.1513 68.5565 24.3077 69.3733C24.4837 70.1708 24.8357 70.8515 25.2267 71.3572C25.5983 71.8628 25.9893 72.2129 26.4 72.4852C26.8106 72.7769 27.2212 72.9909 27.3581 73.3021C27.5145 73.5938 27.4167 73.9633 27.2603 74.2551C27.1234 74.5468 26.9279 74.7413 26.7715 75.1108C26.615 75.4804 26.4782 76.0444 26.5173 76.6279C26.5368 77.1919 26.7128 77.7559 27.0452 78.1644C27.3776 78.5728 27.8665 78.8256 28.3162 78.9229C28.7659 79.0201 29.1961 78.9423 29.5676 78.7478C29.9391 78.5533 30.2325 78.2033 30.4475 77.9115C30.6431 77.6198 30.7604 77.3475 30.8191 77.0752C30.8777 76.7835 30.8777 76.4917 30.7017 76.1028C30.5258 75.7138 30.1542 75.2275 30.0369 74.7997C29.9196 74.3912 30.0369 74.0411 30.2911 73.8272C30.5453 73.6133 30.9364 73.5355 31.4252 73.2826C31.9141 73.0298 32.4811 72.6019 32.8135 72.5825C33.1459 72.5436 33.2437 72.8936 33.4783 73.5938C33.7325 74.294 34.1236 75.3248 34.5929 76.4723C35.0817 77.6198 35.6292 78.9034 36.5873 79.8564C37.5259 80.8095 38.8556 81.4707 40.0288 81.8986C41.202 82.3265 42.1992 82.5404 43.6462 82.7544C45.0931 82.9683 46.9703 83.1823 48.3977 83.3767C49.8251 83.5518 50.7832 83.7074 51.4285 83.863C52.0737 84.0186 52.4257 84.1742 52.6408 84.427C52.8559 84.6993 52.9536 85.0688 53.0905 86.2747C53.2274 87.4805 53.4229 89.5227 53.5207 90.6507C53.6185 91.7788 53.638 92.0122 52.8559 91.8371C52.0737 91.6621 50.4899 91.0981 49.7078 90.8258C49.1863 90.6313 48.8148 90.735 48.5932 91.137C48.2608 91.7204 47.6155 92.9068 47.2049 93.6459C46.7943 94.385 46.6379 94.6767 46.0904 94.9101C45.5429 95.1629 44.6238 95.3574 43.6462 95.6492C42.6685 95.9409 41.6322 96.3299 40.1265 97.1857C38.6405 98.0414 36.6851 99.4029 34.9644 100.648C33.2437 101.912 31.7576 103.079 30.6431 105.063C29.5285 107.046 28.805 109.808 28.7073 112.492C28.6095 115.176 29.157 117.743 29.9391 120.68C30.7213 123.598 31.7381 126.885 32.7549 129.685C33.7716 132.486 34.808 134.8 35.9812 137.27C37.1348 139.74 38.4254 142.386 39.8723 144.681C41.3193 146.976 42.9422 148.92 44.6825 150.438C46.4228 151.955 48.2999 153.044 49.9033 153.686C51.5067 154.327 52.8363 154.541 54.1464 154.814C55.4565 155.086 56.7666 155.416 59.113 155.475C61.4594 155.533 64.8226 155.3 68.6551 154.93C72.4876 154.561 76.7894 154.055 81.3258 153.258C85.8427 152.46 90.5746 151.391 93.5468 150.671C96.5189 149.951 97.7117 149.582 98.3374 149.484C98.9631 149.387 99.0022 149.562 99.2368 150.01C99.4519 150.457 99.8626 151.157 100.254 151.468C100.664 151.779 101.075 151.682 102.678 151.352C104.301 151.002 107.117 150.418 108.525 150.126C109.463 149.932 109.894 149.705 109.815 149.446C109.698 149.076 109.463 148.318 109.444 147.87C109.424 147.403 109.62 147.228 109.972 147.17C110.324 147.092 110.852 147.131 112.044 147.228C113.237 147.326 115.114 147.481 117.07 147.326C119.025 147.17 121.078 146.723 122.642 146.217C124.207 145.692 125.263 145.108 125.81 144.603C126.338 144.097 126.358 143.689 126.084 143.397C125.83 143.125 125.302 142.988 125.067 142.794C124.832 142.599 124.891 142.308 125.321 141.977C125.751 141.646 126.534 141.257 126.964 140.966C127.394 140.674 127.492 140.46 127.374 140.227C127.257 139.993 126.944 139.76 126.436 139.604C125.927 139.449 125.243 139.371 125.126 139.04C125.028 138.71 125.517 138.126 125.888 137.64C126.26 137.154 126.494 136.784 126.553 136.473C126.592 136.162 126.436 135.909 126.103 135.734C125.771 135.559 125.243 135.442 124.696 135.403C124.148 135.364 123.561 135.384 123.425 135.209C123.288 135.034 123.581 134.645 123.952 134.139C124.324 133.633 124.813 132.992 125.028 132.35C125.263 131.708 125.263 131.066 124.911 130.619C124.578 130.171 123.894 129.938 122.779 130.249C121.665 130.541 120.1 131.377 118.419 132.194C116.737 133.011 114.919 133.77 113.882 133.906C112.827 134.022 112.553 133.497 112.084 132.739C111.614 132 110.989 131.027 110.519 130.424C110.05 129.821 109.718 129.569 109.463 129.588C109.19 129.607 108.974 129.899 108.662 130.56C108.329 131.222 107.919 132.253 107.645 133.05C107.371 133.847 107.254 134.411 107.019 134.489C106.785 134.567 106.433 134.139 106.257 133.925C106.081 133.711 106.081 133.711 105.729 133.653C105.377 133.595 104.692 133.478 104.282 133.167C103.871 132.855 103.754 132.33 103.617 131.591C103.48 130.852 103.324 129.899 103.108 129.393C102.893 128.888 102.6 128.849 101.31 128.927C100.019 129.005 97.7508 129.218 96.4993 129.218C95.2479 129.218 95.0133 129.063 94.7004 128.304C94.3876 127.546 93.9769 126.204 93.3121 124.259C92.6669 122.314 91.7869 119.786 90.6528 117.043C89.5187 114.301 88.15 111.325 86.879 109.03C85.608 106.716 84.4348 105.063 83.1638 103.546C81.8733 102.029 80.4655 100.667 79.2336 99.539C78.0017 98.411 76.9654 97.5163 75.6944 96.8161C74.4039 96.116 72.8787 95.6297 71.901 95.4352C70.9429 95.2407 70.5323 95.3769 70.1216 95.0268C69.6915 94.6767 69.2417 93.8598 68.792 93.043C68.3423 92.2261 67.8925 91.4093 67.521 91.0786C67.1495 90.748 66.8367 90.923 66.0545 91.1759C65.2528 91.4287 63.9623 91.7982 63.2975 91.8371C62.6326 91.876 62.5935 91.6232 62.4567 90.7285C62.3198 89.8144 62.1047 88.2585 61.9483 87.0137C61.8114 85.769 61.7332 84.8354 61.7918 84.2714C61.8505 83.7074 62.0265 83.5323 62.7109 83.2017C63.3952 82.8711 64.5684 82.3848 66.0545 81.8403C67.521 81.2957 69.2808 80.6733 70.6496 80.1093C71.9988 79.5453 72.9569 79.059 73.6999 78.5145C74.443 77.9699 74.9709 77.3864 75.5771 76.3945C76.1832 75.4026 76.8481 73.9828 77.3369 72.9131C77.8257 71.8434 78.119 71.1432 78.2168 70.2097C78.3341 69.2761 78.2559 68.1091 78.4319 67.6229C78.6274 67.1367 79.0772 67.3506 79.6833 67.5062C80.2895 67.6618 81.0325 67.798 81.4236 68.0508C81.8147 68.3036 81.8733 68.7121 81.8342 69.1983C81.7951 69.6845 81.6582 70.268 81.6778 70.8515C81.6973 71.435 81.8929 72.0184 82.0884 72.4074C82.3035 72.7964 82.5186 72.9909 83.0074 73.0881C83.4767 73.1854 84.2002 73.1854 84.8454 73.0298C85.4907 72.8742 86.0969 72.5825 86.4293 72.174C86.7812 71.7461 86.879 71.2016 86.7421 70.7542C86.6053 70.2875 86.1946 69.9179 85.7254 69.5484C85.2561 69.1788 84.7086 68.8288 84.3762 68.4203C84.0438 68.0313 83.9264 67.584 84.1024 67.1756C84.2784 66.7672 84.7477 66.3782 85.1583 65.8919C85.5689 65.4252 85.9404 64.8611 86.1946 64.2388C86.4488 63.6164 86.5662 62.8968 86.527 62.1382C86.4879 61.3797 86.2924 60.5823 86.1751 60.1933C86.1099 59.934 86.1229 59.558 86.2142 59.0653C86.3511 58.3262 86.6248 56.8481 86.8204 55.331C86.9963 53.7946 87.0745 52.2192 86.9963 50.4104C86.9377 48.6016 86.7226 46.5984 86.4097 44.8674C86.0969 43.1364 85.6471 41.6777 85.3343 40.6858C85.0019 39.6939 84.7868 39.1299 83.8873 37.3795L83.9069 37.2628Z" fill="white"/><path fill-rule="evenodd" clip-rule="evenodd" d="M72.7807 151.021C78.1384 150.671 86.5464 149.951 90.7309 148.726C94.9153 147.501 94.8762 145.77 94.7784 143.669C94.7002 141.569 94.5633 139.118 94.5438 137.27C94.5242 135.442 94.6024 134.217 95.1891 133.594C95.7757 132.972 96.8707 132.953 97.7115 132.875C98.5523 132.778 99.1193 132.622 99.8232 132.175C100.527 131.727 101.388 130.969 101.055 130.56C100.723 130.133 99.1975 130.035 97.5159 129.899C95.8539 129.763 94.0354 129.588 92.8426 128.557C91.6499 127.526 91.0437 125.62 89.4208 121.653C87.7978 117.666 85.1385 111.617 82.7726 106.054C80.4066 100.492 78.3339 95.4352 75.6746 94.1905C73.0154 92.9457 69.7499 95.4936 67.7164 97.2829C65.6828 99.0722 64.8615 100.084 64.1381 100.706C63.4146 101.328 62.8084 101.581 62.0849 100.745C61.3615 99.9085 60.5402 98.0025 58.9564 98.1776C57.3725 98.3526 55.0261 100.609 52.7188 101.853C50.4115 103.098 48.1433 103.332 46.6768 102.437C45.2102 101.542 44.565 99.539 42.4727 99.5779C40.3805 99.6168 36.8609 101.698 34.6513 105.607C32.4613 109.497 31.601 115.215 33.2435 122.139C34.886 129.063 39.0313 137.193 42.7856 142.055C46.5399 146.937 49.9031 148.57 53.1685 149.582C56.434 150.593 59.6016 150.982 62.3391 151.177C65.0766 151.371 67.3839 151.371 72.7416 151.021H72.7807Z" fill="#F8DFD7"/><path fill-rule="evenodd" clip-rule="evenodd" d="M80.0548 137.018C79.8201 135.306 79.0576 132.116 78.5687 130.444C78.0799 128.771 77.8648 128.616 77.0435 128.693C76.2223 128.771 74.7753 129.063 72.292 129.627C69.8283 130.191 66.3282 131.047 64.3142 131.747C62.3002 132.447 61.7722 132.992 61.6354 133.789C61.4985 134.586 61.7527 135.656 62.0655 136.687C62.3784 137.718 62.7499 138.71 63.5125 139.235C64.2751 139.76 65.4483 139.818 68.2249 139.721C70.9819 139.643 75.3424 139.41 77.6693 139.176C79.9961 138.943 80.2894 138.71 80.0548 136.998V137.018Z" fill="white"/><path fill-rule="evenodd" clip-rule="evenodd" d="M58.3894 93.432L63.4538 102.495L66.4455 100.725L70.7863 95.4353L68.1075 90.7675L58.3894 93.432Z" fill="white"/><path fill-rule="evenodd" clip-rule="evenodd" d="M64.0013 138.437L62.6521 133.731C67.0321 132.039 73.0545 130.677 77.6496 129.919L79.4486 137.776C74.6775 138.301 68.8114 138.826 64.0013 138.437ZM124.598 131.708C123.033 134.042 122.251 133.419 121.43 135.52C123.112 136.434 123.62 136.006 125.888 136.298L122.681 138.496C123.64 140.752 122.427 139.021 124.754 140.518L121.958 142.288C123.991 144.622 122.799 142.775 125.204 144.039C122.31 145.031 121.704 145.906 118.341 146.042C115.701 146.159 112.553 145.459 110.324 146.625C109.737 141.744 106.608 134.859 109.757 130.522C111.907 132.272 110.578 132.992 112.826 135.267C116.268 135.559 119.338 131.689 124.578 131.689L124.598 131.708ZM85.8426 137.251C85.7057 134.353 85.2951 132.855 85.1386 129.86C84.7085 122.45 84.2783 124.084 83.2028 123.598C81.9319 125.893 83.3397 134.489 83.809 137.27C78.7642 137.309 82.538 133.711 78.2949 127.449L70.1997 129.141C69.9651 124.337 72.5657 98.8583 73.8367 96.7772C79.996 99.928 84.2001 104.81 87.4655 111.345C89.1471 114.709 90.0857 117.782 91.4349 121.108C96.1473 132.855 92.3343 125.718 92.1583 130.347C98.8261 130.872 102.58 126.923 102.698 132.33C99.0216 132.33 97.3791 132.875 93.8008 133.05L94.4657 136.629C91.474 136.726 88.2281 137.329 85.8621 137.232L85.8426 137.251ZM52.4647 90.4563L48.2802 89.4644L44.8779 94.9879L52.5038 104.343C55.8866 103.02 55.0066 100.2 58.233 96.0771C60.3252 97.8664 61.4398 102.087 63.1605 104.324C66.5041 103.371 67.7751 98.9556 70.5908 96.8161C71.0014 100.939 68.5572 119.047 68.1271 124.726C52.9926 121.886 49.0624 97.5941 43.8025 96.1938C43.9002 100.628 50.2747 111.889 52.934 115.76C55.9648 120.214 59.5822 123.15 64.2946 125.64C73.6803 130.619 64.9985 129.218 60.8923 132.447C60.6381 134.548 61.2051 136.609 61.8308 138.398C58.4872 136.843 57.1966 132.544 55.3586 129.53C52.9535 125.543 51.7608 120.7 49.4534 119.825C48.9842 120.564 48.9059 119.377 49.0037 121.575L54.6742 132.7C60.8923 144.233 63.0823 140.402 72.6439 140.382C75.9289 140.382 77.1803 139.838 80.1525 139.76L95.15 138.593L97.4378 148.162C90.1052 151.857 74.9708 152.655 66.7388 153.822C55.3195 155.455 47.9478 152.655 41.2214 143.591C36.685 137.504 31.8553 125.523 30.5647 118.074C27.3775 99.6363 42.4533 100.006 41.5538 95.3769C38.7577 95.0268 32.7156 100.92 30.8385 103.176C22.7042 112.959 33.5173 136.745 40.2437 145.809C45.4254 152.791 50.9395 155.28 57.8028 155.942H68.2835C74.2864 155.592 95.9517 152.11 100.39 149.737L96.5579 134.878C100.097 134.606 101.994 134.139 105.689 134.178L108.407 148.512C105.826 149.912 100.195 149.232 99.7451 152.032C101.153 152.985 104.692 151.78 106.863 151.332C112.377 150.224 109.952 150.321 110.754 147.812C115.114 147.929 115.232 148.979 120.335 147.909C129.701 145.964 129.251 142.969 128.763 141.433C129.29 143.086 128.939 141.18 128.704 140.129C128.313 138.379 127.863 139.118 127.57 137.348C127.316 135.812 127.98 136.648 126.885 134.411C125.517 131.611 127.628 131.786 125.732 129.899C122.251 127.565 117.402 131.805 113.961 133.031C112.298 130.23 112.572 128.324 108.407 128.654C107.019 130.736 107.625 131.533 106.08 132.097C103.636 130.716 102.072 127.274 102.072 127.274C99.1976 127.274 98.2199 127.896 95.8735 127.838C93.5075 120.233 90.6527 111.014 85.8035 104.226C78.4513 93.9377 72.7417 95.7464 71.3143 94.385C70.7668 93.8793 68.9679 90.573 68.1075 89.4644L61.2051 91.0203C58.8978 92.654 57.2553 92.479 54.7329 90.9036M56.5123 94.3655L52.5429 101.328L47.4785 94.9879L49.6685 91.8372L56.5123 94.3655ZM64.0599 101.095C62.0264 99.0917 61.4984 96.8356 59.895 94.1322L67.1494 91.7399L68.9874 95.0074L64.0599 101.095Z" fill="#595757"/><path fill-rule="evenodd" clip-rule="evenodd" d="M25.6568 23.4344C26.3608 24.9126 26.5563 26.2546 25.5004 28.2578C24.0143 31.0585 21.9417 31.817 18.9109 31.3891C18.8718 36.0375 22.7238 35.5124 14.6091 41.2499C18.2852 43.8172 17.503 48.1543 15.4694 50.4104L12.8884 51.8497C12.1845 51.908 11.4805 51.6746 10.8353 51.0912L10.7766 50.9745C12.2431 48.7378 16.9946 48.2321 14.1594 44.07C12.1258 41.0943 8.62571 42.0667 8 39.3633C10.4637 36.621 15.313 41.6194 17.3857 34.8317C15.9583 31.5253 12.8102 29.9499 13.0448 27.7716C16.4471 26.488 17.9332 31.4086 23.2517 27.6549C24.4836 23.1621 23.3104 25.8656 22.6847 22.0341L24.1512 20.7699L25.6568 23.4539V23.4344Z" fill="#595757"/><path fill-rule="evenodd" clip-rule="evenodd" d="M66.7974 95.2602V104.012L71.7053 112.103L79.4289 114.379L83.6916 112.162L74.521 80.615L66.7974 95.2602Z" fill="white"/><path fill-rule="evenodd" clip-rule="evenodd" d="M75.7725 81.3151C74.5211 83.4934 72.4484 87.8695 70.9819 91.7593C69.5154 95.6492 68.6942 99.0333 68.7333 102.087C68.7724 105.14 69.6914 107.844 71.6076 109.983C73.5239 112.123 76.4569 113.679 78.2363 114.184C80.0352 114.709 80.6805 114.184 80.9738 112.706C81.2671 111.228 81.1889 108.777 81.404 106.677C81.6191 104.576 82.0883 102.845 83.4766 100.317C84.8454 97.7886 87.1136 94.4433 88.3455 91.312C89.5773 88.2001 89.7729 85.2828 88.6779 82.8516C87.5829 80.4205 85.2169 78.4756 83.7308 76.9391C82.2448 75.4026 81.6191 74.3134 81.052 73.73C80.4849 73.1659 79.9766 73.127 79.4486 74.1189C78.9207 75.1108 78.3927 77.1336 77.9039 78.1449C77.415 79.1368 77.0044 79.1174 75.753 81.2957L75.7725 81.3151Z" fill="#D4BD94"/><path fill-rule="evenodd" clip-rule="evenodd" d="M32.3051 63.6554C31.0145 62.9746 29.2938 62.1772 27.6709 60.2323C26.0479 58.2874 24.5032 55.1755 24.249 52.1415C23.9948 49.0879 25.0311 46.1122 27.8664 42.4752C30.7212 38.8382 35.375 34.5788 41.7103 31.6615C48.0456 28.7441 56.0626 27.1687 61.694 27.1687C67.3254 27.1687 70.5909 28.8024 73.0742 31.0196C75.5379 33.2368 77.2195 36.0764 78.862 39.8885C80.5045 43.7005 82.0884 48.4656 82.8509 52.0248C83.6135 55.584 83.5549 57.9179 82.0101 58.3457C80.4654 58.7931 77.4542 57.3344 74.5016 55.2144C71.549 53.0945 68.6942 50.3327 65.9371 48.874C63.1801 47.4153 60.5208 47.2403 57.2358 49.3602C53.9508 51.4607 50.0401 55.8368 46.2858 58.9098C42.5316 61.9827 38.9337 63.7332 36.7046 64.3166C34.4755 64.9001 33.5956 64.3166 32.3051 63.6359V63.6554Z" fill="#D4BD94"/><path fill-rule="evenodd" clip-rule="evenodd" d="M65.5264 74.7802C65.1158 73.6133 65.2722 71.9406 65.9566 70.9293C66.6605 69.9179 67.9119 69.6067 69.0852 69.8207C70.2584 70.0346 71.3143 70.7737 72.0573 71.5322C72.8003 72.2713 73.1914 73.0298 73.1719 73.7883C73.1523 74.5468 72.7026 75.3053 72.1551 75.811C71.6076 76.3361 70.9623 76.6084 70.2193 76.8029C69.4762 76.9974 68.655 77.1336 67.7555 76.8613C66.8756 76.589 65.9175 75.9472 65.5069 74.7802H65.5264Z" fill="#FEE8B1"/><path fill-rule="evenodd" clip-rule="evenodd" d="M38.6795 76.239C38.2689 75.072 38.4253 73.3994 39.1097 72.388C39.8136 71.3767 41.065 71.0655 42.2382 71.26C43.4114 71.4739 44.4673 72.213 45.2104 72.9715C45.9339 73.7106 46.3445 74.4691 46.3249 75.2276C46.3054 75.9861 45.8556 76.7447 45.3081 77.2503C44.7606 77.7755 44.1154 78.0477 43.3723 78.2422C42.6293 78.4367 41.8081 78.5729 40.9086 78.3006C40.0091 78.0283 39.0706 77.3865 38.6599 76.2195L38.6795 76.239Z" fill="#FEE8B1"/><path fill-rule="evenodd" clip-rule="evenodd" d="M63.3951 91.8372L62.9844 86.722L69.8868 84.641C69.75 86.9165 68.7723 87.4222 67.7946 89.9117L65.5264 95.9021L65.3113 102.69C65.6046 105.802 68.8309 114.379 75.9093 115.273C71.8617 114.748 81.7558 116.596 85.8425 113.718C84.024 108.563 82.5771 104.81 83.105 102.748C83.633 100.687 91.7477 87.5778 85.4905 75.6944C84.1218 73.0882 84.9235 73.8661 83.1441 73.3799C81.3843 76.7057 88.5018 81.6653 84.4933 92.304C81.9318 99.0917 78.2753 103.993 82.186 111.209C62.7498 103.273 84.4347 90.8064 79.9373 82.9295C77.2194 85.03 78.2362 87.0332 76.4373 90.3979C71.1969 100.181 68.7527 105.86 79.6636 112.648C69.2611 114.32 65.7806 102.184 68.8114 93.7821C74.3841 78.2422 78.3535 82.3071 79.9178 72.4658C83.4765 71.7267 87.0939 71.7073 88.0521 67.02C89.0297 62.2939 84.9039 61.7493 84.9626 57.7817C85.0799 48.9518 85.2559 43.4476 80.0351 35.0845C76.2417 28.9969 71.1774 25.1071 64.099 23.3566C61.6743 22.7537 57.001 22.0924 52.5037 22.073L46.2662 22.5787C43.8415 23.0649 41.9644 23.9596 41.2996 25.4572C43.6069 26.9158 46.3053 24.9709 49.1405 24.4069C56.7273 22.9093 67.2862 25.2432 73.1132 30.1444C79.7223 35.7263 82.2056 44.634 82.8313 52.8221C83.3788 59.746 81.5994 57.2371 80.7195 60.9324C82.753 61.9049 85.6079 61.8077 85.8816 65.1529C86.1163 68.2842 83.6721 69.918 80.8173 70.2292C78.7055 67.0589 82.01 68.3815 78.5881 66.9422C76.6132 71.0655 78.4904 76.0445 74.0908 79.8176C70.5125 82.8906 64.3141 83.299 60.9704 85.3412L61.0486 93.3737L63.3951 91.8372Z" fill="#595757"/><path fill-rule="evenodd" clip-rule="evenodd" d="M33.1654 76.1806C34.0258 79.9538 36.2744 83.6297 40.0287 85.4968C43.9198 87.4612 49.649 87.2083 52.3474 88.4142L52.6016 92.2846L54.5179 92.5179L54.1268 86.4887C51.1155 84.7772 44.1154 85.6329 40.2829 82.9879C34.5732 79.0591 36.3722 74.3719 33.5565 71.3378C30.3692 73.0688 34.0062 71.5323 31.1318 74.3135C24.425 74.0801 22.1959 66.3977 31.1905 65.4447C34.7883 65.0557 43.4506 60.913 46.9506 58.8125C55.1631 53.8724 66.5237 41.2694 66.5824 34.8512C59.9733 35.9792 63.9818 49.263 38.2298 60.6602C36.0789 61.6132 33.8302 62.5079 31.7966 63.2858C29.7435 64.1027 28.1401 64.2972 26.1652 63.3636C23.4473 55.1366 23.1735 50.2355 26.3999 42.0863C27.4949 39.305 28.9809 36.3487 31.1123 34.3844C32.2659 33.3147 33.4391 32.3422 34.7688 31.3309C36.5873 29.95 37.4085 29.7749 37.956 27.8884C36.9979 27.4216 38.2102 27.4799 36.6459 27.655C33.7716 27.9856 28.6681 33.8593 27.0842 35.9014C21.883 42.7281 20.0841 55.4284 23.8384 63.3247C25.4222 66.6506 25.0116 63.9082 24.073 66.4366C23.0367 69.1984 22.7629 71.824 24.8943 74.2552C27.3776 77.0947 29.6653 76.2584 33.1849 76.1417L33.1654 76.1806Z" fill="#595757"/><path fill-rule="evenodd" clip-rule="evenodd" d="M28.2378 56.6537C33.3022 58.832 54.3417 43.9533 53.0317 38.4103C50.5875 37.963 49.4534 41.0554 48.0064 43.1365C45.5035 46.6957 39.6766 50.5272 35.6877 52.3943C33.1066 53.6001 28.844 53.7168 28.2378 56.6537Z" fill="#595757"/><path fill-rule="evenodd" clip-rule="evenodd" d="M79.0575 64.3944C81.5408 57.6456 71.236 43.7783 63.9817 43.72C64.5878 47.2403 70.6299 48.8935 72.9763 51.9859C75.968 55.9146 76.3982 62.8385 79.0575 64.3944Z" fill="#595757"/><path fill-rule="evenodd" clip-rule="evenodd" d="M56.6296 75.461C58.6045 76.8224 59.2302 79.2147 58.6436 81.5486L55.2608 82.3071C53.9507 79.3314 53.1881 76.803 56.6296 75.461ZM54.4787 74.3718C48.5148 77.5421 53.0122 86.3136 58.3894 84.4854C63.1995 82.8322 61.2051 70.8126 54.4787 74.3718Z" fill="#595757"/><path fill-rule="evenodd" clip-rule="evenodd" d="M43.7047 68.1675C47.7914 69.1595 49.5903 65.6003 45.5818 63.0913C42.8443 64.2583 42.3751 65.0751 43.7047 68.1675Z" fill="#595757"/><path fill-rule="evenodd" clip-rule="evenodd" d="M54.1462 70.4042C55.9061 71.3378 55.2412 71.3183 56.9228 70.1708C55.0848 69.3151 55.7496 69.1984 54.1462 70.4042Z" fill="#595757"/><path fill-rule="evenodd" clip-rule="evenodd" d="M62.6716 62.4495L63.0431 65.8725L65.8197 66.3393L67.0516 65.8142C67.4622 63.8109 66.6019 61.9438 65.4873 61.4576C64.5488 61.0686 63.4342 61.8271 62.6716 62.4495Z" fill="#595757"/><path d="M138.872 99.5391H117.989V103.098H138.872V99.5391Z" fill="#B5B5B6"/><path d="M148.472 109.166H108.368V111.598H148.472V109.166Z" fill="#B5B5B6"/><path d="M148.472 114.165H108.368V116.596H148.472V114.165Z" fill="#B5B5B6"/><path d="M148.472 119.163H108.368V121.594H148.472V119.163Z" fill="#B5B5B6"/><path d="M148.472 124.162H108.368V126.593H148.472V124.162Z" fill="#B5B5B6"/></g><defs><filter id="filter0_d_2118_2080" x="2" y="14" width="254" height="151.019" filterUnits="userSpaceOnUse" color-interpolation-filters="sRGB"><feFlood flood-opacity="0" result="BackgroundImageFix"/><feColorMatrix in="SourceAlpha" type="matrix" values="0 0 0 0 0 0 0 0 0 0 0 0 0 0 0 0 0 0 127 0" result="hardAlpha"/><feOffset dx="1" dy="2"/><feGaussianBlur stdDeviation="3.5"/><feComposite in2="hardAlpha" operator="out"/><feColorMatrix type="matrix" values="0 0 0 0 0 0 0 0 0 0.364706 0 0 0 0 0.592157 0 0 0 0.24 0"/><feBlend mode="normal" in2="BackgroundImageFix" result="effect1_dropShadow_2118_2080"/><feBlend mode="normal" in="SourceGraphic" in2="effect1_dropShadow_2118_2080" result="shape"/></filter></defs></svg>